M48
;Layer_Color=7618602
;FILE_FORMAT=4:4
METRIC,LZ
;TYPE=PLATED
T1F00S00C0.2000
T2F00S00C0.4000
T3F00S00C0.5000
T4F00S00C1.0000
T5F00S00C1.1000
T6F00S00C3.3000
%
T01
X0042Y00416
X0043
Y00426
X0042
T02
X0077975Y-0007125
X0079575
X00811749
X00827749
X00843749
X00859749
X00875749
X00891749
X00907749
X00923749
X00939749
X00931749Y-0005525
X00947749
X00939749Y-0003925
X00923749
X00915749Y-0005525
X00931749Y-0002325
X00947749
X0093Y00007
X00963749Y0000875
X00964Y00022
Y00032
Y00043
X00955749Y0005675
X00939749
X00961Y00073
X009625Y00105
X009525
X009425
X00904Y00097
X00898Y00089
X00891Y00098
X0088Y00103
X0087
X0086
X00851
X00815Y00113
X00803
Y00086
X00815
X00791
X0077975Y0012075
X00785Y00195
Y00206
X00764Y00217
X00752
X00715Y00213625
X00827749Y0021675
X00843749
X00859749
X00875749
X00891749
X00907749
X00923749
X00938Y00224
Y00235
X00915749Y0023275
X00899749Y0020075
X00883749
X00867749
X00851749
X0083575
X00863Y00163
X00915749Y0016875
X00931749
X00981Y00173
Y00184
X01002Y00214
X01002608Y00228
X01003749Y0015275
Y0012075
X01019749
X01011749Y0010475
X01027749
X01019749Y0008875
X01003749
X00987749
X00995749Y0010475
X00987749Y0012075
X01027749Y0007275
Y0004075
X01019749Y0002475
X01011749Y0000875
X01027749
X00995749
X00979749
X00911Y00045
X0091625Y0007325
X00883749Y0007275
X0088Y-00028
Y-00038
X00824Y-00037
Y-00027
X00811749Y-0000725
X0077975
Y-0003925
X00787749Y-0005525
X0053175Y0023275
X00487Y0022
X00475
X00436Y00238
X00426
X00413999Y00239
X00378Y002235
X00352999Y0023
X0031Y00239
X00295Y00217
X00265Y00216
X00248Y00215
X00236
X00225
X00214
X0020375Y0021675
X00196Y00222
X00185
X00174
X00169Y00232
X0014775Y0023275
X0015575Y0021675
X0013975
Y0018475
Y0015275
Y0012075
X0013175Y0010475
X0013975Y0008875
X0013175Y0007275
X0013975Y0005675
X0013175Y0004075
X0013975Y0002475
X0013175Y0000875
X0009975
X0008375
X0006775
X00057Y0004
X00057Y00058
X00031Y00049
X0003575Y0004075
X0003Y00024
Y00075
X0008375Y0004075
X0009975
X001Y00177
Y00203
X00089
Y00237
X00103
X00114375Y00226625
X00188Y00238
X00196
X00269Y00241
X0027775Y0023175
X00286Y00244
X00309Y00251
X00298Y00296
X002855
X0027575Y0029675
X0028375Y0031275
X0026775
X00246Y00315999
X00246Y0035
X00255Y00343
X00263Y00351
X00279
X00292
X00299Y00335
X00299Y00406999
X00299Y00428
X00275Y00416
X00265
X00254Y00403
X00241Y00407
X00232
X00223
X00214
Y00416
X00223
X00232
X00241
X00252999Y00383999
X00236999Y00372999
X00223Y00377
X00224Y00358
X00204Y00362
X00178Y00359
X00178366Y00348203
X00166Y00328
X001845Y00318
X00215Y00328
X00218Y00283499
X00219018Y00273
X002315Y00263
X001745Y00269
X001655
Y00278
X001745
X00156
Y00269
X00157Y00289
X00148
Y00299
X00157
X0012375Y0031275
Y0034475
X0014Y00331
X0014775Y0036075
X00174Y00379
X00183
X00178Y00397
X00156Y00398
X00122Y00385364
X0009975Y0039275
X00095Y00402
X00105
X00115Y00417
Y00431
X0009175Y0037675
X0008375Y0036075
X0009975
X0009175Y0034475
X0007575
X0006775Y0036075
X0005175
X0003575
X0001975
Y0029675
X0003575
X0005175
X0006775
X0008375
X0009975
X0009175Y0031275
X0007575
X0008375Y0032875
X0009975
X0009175Y0028075
X0009975Y0026475
X0009175Y0024875
X00203Y00454
X00282Y00457
X003155Y00396
X003255
X0032Y00428
X00341Y00429
X0038Y00419
X0037975Y0040875
X0037175Y0039275
X00369Y00376
X0038
X00398Y00374
Y00385
X00416Y00389
Y00379
X00427Y00389
X00439Y00395
X004625Y0038175
Y0036975
Y0035875
Y0034775
X00445Y00337
X00433
X00437Y00314
Y00304
X00453Y00301
X00462
Y0031
X00453
X00398Y003185
X00383Y003085
X00374Y002535
X00365
X003995
X00419Y0025775
X00433Y00258
X00487Y00256
Y00246
Y00266
X00524Y00274
X0052375Y0024875
X0056375Y0026475
X00575Y00265
X005875
X00587749Y0028075
X00589Y00312
X0057175Y0031275
X0058Y00322
X005695Y003325
Y003415
X005595
Y003325
X00534Y00349
X00524
X0051
X00513Y00333
Y00323
X00499Y00337
X0050525Y0036625
X0050775Y0037675
X0052375
X0054Y00375
X005375Y003935
X005265
X00514Y00394
X00505999Y00405999
X00487Y00385
X00477
X00454Y00431
X00429999Y00439999
X0042Y0044
X00401Y00421
X00319361Y00358361
X00329999Y00346999
X003205Y002885
X006005Y003405
X00603Y00378
X00612
X00655Y00386
Y00396
X00667
Y00386
X0067575Y0039275
X0068Y004025
X00687Y00377
X0069675
X007065
X00699Y00363
Y00352
X0069975Y0031275
X0069Y003025
Y002925
Y002825
X00701667
X00713333
X00684999Y00320999
X00699Y00417
X00696Y00427
X00707
X00602Y00434
X00592
X0055Y00398
X0071625Y00377
X00726
X00719Y00363
Y00352
X00735Y0035
X00745
X00755
Y0036
Y0037
X00763749Y0034475
X00773Y00347
X00784
X0079575Y0034475
X008Y00365
Y00375
X0081
Y00365
Y00385
X008
X0079
Y00375
Y00365
X00824Y0038
X00834667
X00845333
X00856
X00868Y00375
X00878
X00883749Y0036075
X00902Y00359118
X00915749Y0036075
X00932Y00359118
X00947749Y0036075
X00963749
X00955749Y0034475
X00947749Y0032875
X00963749
X00955749Y0031275
X00942Y003085
Y00318
X01013Y00319
X01022
X01031
Y00268
X01022
X01013
X00993Y002625
X00982
X00891749Y0024875
X00875749
X00859749
X00843749
X00827749
Y0028075
X00843749
X00859749
X00875749
X00875Y00295
X00885
X00891749Y0028075
X00898Y00375
X00908
X00851749Y0039275
X0083575
X00843749Y0040875
X00859749
X00851749Y0042475
X008325Y004225
Y004325
Y004425
X00843749Y0044075
X00859749
X008025Y004425
Y004325
Y004225
X0075Y00411
X007375
X00725
Y003025
Y002925
X00725Y002825
X0077975Y0028075
X007875Y002925
Y003025
X0077975Y0031275
X0079575
X00786Y00259
X0077975Y0024875
T03
X00206Y00431
X00477
Y00419
X00602Y00456
T04
X007075Y002475
Y002975
T05
X0102Y001371
Y001625
Y001879
X00101Y001607
Y001353
X00115Y000754
Y0005
Y000246
X001039Y00447
X001293
X001547
X001801
X002452
X002706
X00296
X003214
X003468
X004876
X00513
X005384
X005638
X00575Y00245
X005496
X006004
X008175Y004073
Y004327
T06
X00995Y0005
X00045Y0033
M30
