M48
;Layer_Color=7618602
;FILE_FORMAT=4:4
METRIC,LZ
;TYPE=PLATED
T1F00S00C0.2000
T2F00S00C0.4000
T3F00S00C1.0000
T4F00S00C1.1000
T5F00S00C3.3000
%
T01
X0042Y00416
X0043
Y00426
X0042
T02
X00787749Y-0007125
X00803749
X0081975
X0083575
X00851749
X00867749
X00883749
X00899749
X00915749
X00931749
X00947749
X00939749Y-0005525
X00923749
X00907749
X00931749Y-0003925
X00947749
X00939749Y-0002325
X00923749
X0093Y00007
X00955749Y0000875
X00971749
X00987749
X01003749
X01019749
X01027749Y0002475
Y0005675
X01019749Y0007275
X01011749Y0008875
X01027749
X01019749Y0010475
X01003749
X00987749
X00995749Y0012075
X01011749
X01027749
X00995749Y0015275
X01003749Y0016875
X00981Y00173
Y00184
X01002Y00214
X01002608Y00228
X01027749Y0021675
X00931749
X00938Y00224
Y00235
X00923749Y0023275
X00915749Y0021675
X00899749
X00883749
X00867749
X00851749
X0083575
X00843749Y0020075
X00859749
X00875749
X00891749
X00899749Y0018475
X00923749Y0016875
X00939749
X009425Y00105
X009525
X009625
X00961Y00073
X00971749Y0007275
X00963749Y0005675
X00964Y00043
Y00032
Y00022
X00947749Y0005675
X00931749
X0091625Y0007325
X00911Y00045
X00898Y00089
X00904Y00097
X00891Y00098
X0088Y00103
X0087
X0086
X00851
X00815Y00111
X00803
Y00086
X00815
X00791
X00803749Y-0000725
X0077975Y-0002325
Y-0005525
X00824Y-00037
Y-00027
X0088Y-00028
Y-00038
X00863Y00163
X00785Y00195
Y00206
X00764Y00217
X00752
X00718Y0021
X00995749Y0008875
X0052375Y0023275
X00487Y0022
X00475
X00436Y00238
X00426
X00413999Y00239
X00378Y002235
X00352999Y0023
X0031Y00239
X00295Y00217
X00265Y00216
X00248Y00215
X00236
X00225
X00214
X00196Y00222
X00185
X00174
X00169Y00232
X00188Y00238
X00196
X0013975Y0023275
X0014775Y0021675
X00114375Y00226625
X00103Y00237
X00089
Y00203
X001
Y00177
X0011575Y0015275
X0013975Y0016875
Y0013675
Y0010475
X0013175Y0008875
X0013975Y0007275
X0013175Y0005675
X0013975Y0004075
X0013175Y0002475
X0013975Y0000875
X0012375
X0010775
X0009175
X0007575
X0009175Y0004075
X00057Y0004
X00057Y00058
X00031Y00049
X0003Y00024
Y00075
X0009175Y0010475
X0027775Y0023175
X00269Y00241
X00286Y00244
X00309Y00251
X00298Y00296
X002855
X0029175Y0031275
X0027575
X0025975
X00246Y00315999
X00246Y0035
X00255Y00343
X00263Y00351
X00279
X00292
X00299Y00335
X00299Y00406999
X00299Y00427
X00275Y00416
X00265
X00241
X00232
X00223
X00214
Y00407
X00223
X00232
X00241
X00254Y00403
X00252999Y00383999
X00236999Y00372999
X00223Y00377
X00224Y00358
X0020375Y0036075
X00178Y00359
X00178366Y00348203
X00166Y00328
X001845Y00318
X00215Y00328
X00218Y00283499
X00219018Y00273
X002315Y00263
X001745Y00269
X001655
Y00278
X001745
X00156
Y00269
X00157Y00289
X00148
Y00299
X00157
X0014Y00331
X0012375Y0032875
Y0036075
X00124Y00386
X0014775Y0037675
X00174Y00379
X00183
X00178Y00397
X00156Y00398
X00161Y00426
X00149
X00174
X00186
X00203Y00454
X00282Y00457
X003155Y00396
X00105Y00402
X00095
X0009175Y0039275
X0008375Y0037675
X0009975
X0009175Y0036075
X0007575
X0005975
X0004375
X0002775
X0001975Y0037675
X0003575
X0005175
X0006775
X0008375Y0034475
X0009975
X0009175Y0032875
X0007575
X0008375Y0031275
X0009975
X0009175Y0029675
X0007575
X0005975
X0004375
X0002775
X0009975Y0028075
X0009175Y0026475
X0009975Y0024875
X0014775Y0034475
X00115Y00417
Y00431
X0009175Y0042475
X0032Y00427
X00345Y00429
X0037175Y0044075
X0037975Y0045675
X0036375
X0038Y00419
X00401Y00421
X0042Y0044
X00429999Y00439999
X00454Y00431
X0046775Y0044075
X0048375
X0049975
X0051575
X0053175
X0054775
X0055575Y0045675
X0057175
X00587749
X00589Y00434
X006
X00571Y00433
X0052375Y0042475
X0050775
X0049175
X0047575
X00483Y00406
X0049975Y0040875
X0051575
X00514Y00394
X005265Y003935
X005375
X0055Y00398
X0054Y00375
X0051575Y0037675
X0050525Y0036625
X0051Y00349
X00524
X00534
X005595Y003415
Y003325
X005695
Y003415
X0057975Y0034475
X0058Y00322
X00589Y00312
X0056375Y0031275
X0057975Y0028075
X00575Y00265
X005875
X0054775Y0028075
X00524Y00274
X00487Y00266
Y00256
Y00246
X00433Y00258
X00419Y0025775
X003995Y002535
X00374
X00365
X00383Y003085
X00398Y003185
X00437Y00314
Y00304
X00453Y00301
X00462
Y0031
X00453
X00445Y00337
X00433
X004625Y0034775
Y0035875
Y0036975
Y0038175
X00477Y00385
X00487
X00463Y0041
X0044375Y0039275
X00427Y00389
X00416
Y00379
X00398Y00374
Y00385
X0037975Y0039275
X0038Y00376
X00369
X003255Y00396
X00319361Y00358361
X00329999Y00346999
X003205Y002885
X00513Y00323
Y00333
X00499Y00337
X006005Y003405
X00603Y00378
X00612
X00655Y00386
Y00396
X00667
Y00386
X00687Y00377
X0069675
X007065
X00699Y00363
Y00352
X00684999Y00320999
X00691749Y0031275
X0069Y003025
Y002925
Y002825
X00701667
X00713333
X00699Y00417
X00696Y00427
X00707
X0068Y004025
X00725Y00411
X007375
X0075
X00755Y0037
Y0036
Y0035
X00745
X00735
X00719Y00352
Y00363
X0071625Y00377
X00726
X0079Y00375
Y00365
X008
Y00375
X0081
Y00365
Y00385
X008
X0079
X00824Y0038
X00834667
X00845333
X00856
X00859749Y0039275
X00843749
X0083575Y0040875
X00851749
X00859749Y0042475
X00843749
X008325Y004225
Y004325
Y004425
X00827749Y0045675
X00843749
X00859749
X00851749Y0044075
X008025Y004425
Y004325
Y004225
X0079575Y0045675
X00811749
X00784Y00347
X00773
X00787749Y0031275
X007875Y003025
Y002925
X00787749Y0028075
X00786Y00259
X00787749Y0024875
X0083575
X00851749
X00867749
X00883749
X00899749
Y0028075
X00883749
X00885Y00295
X00875
X00867749Y0028075
X00851749
X0083575
X00725Y002825
X00725Y002925
Y003025
X00868Y00375
X00878
X00898
X00908
X00902Y00359118
X00932
X00931749Y0037675
X00947749
X00963749
X00955749Y0036075
X00963749Y0034475
X00955749Y0032875
X00939749
X00942Y00318
Y003085
X00963749Y0031275
X01013Y00319
X01022
X01031
Y00268
X01022
X01013
X00993Y002625
X00982
T03
X007075Y002475
Y002975
T04
X0102Y001371
Y001625
Y001879
X00101Y001607
Y001353
X00115Y000754
Y0005
Y000246
X001039Y00447
X001293
X001547
X001801
X002452
X002706
X00296
X003214
X003468
X005496Y00245
X00575
X006004
X008175Y004073
Y004327
T05
X00995Y0005
X00045Y0033
M30
