G04*
G04 #@! TF.GenerationSoftware,Altium Limited,Altium Designer,19.1.9 (167)*
G04*
G04 Layer_Physical_Order=3*
G04 Layer_Color=14605976*
%FSLAX44Y44*%
%MOMM*%
G71*
G01*
G75*
%ADD96C,2.0000*%
%ADD100C,0.8000*%
G36*
X854816Y460166D02*
X854098Y459091D01*
X853632Y456750D01*
X854098Y454408D01*
X855424Y452424D01*
X857408Y451098D01*
X859749Y450632D01*
X862091Y451098D01*
X864075Y452424D01*
X865401Y454408D01*
X865666Y455741D01*
X866936Y455616D01*
Y425883D01*
X865666Y425758D01*
X865401Y427091D01*
X864075Y429075D01*
X862091Y430401D01*
X859749Y430867D01*
X857408Y430401D01*
X855424Y429075D01*
X854098Y427091D01*
X853632Y424750D01*
X854098Y422408D01*
X855424Y420424D01*
X857408Y419098D01*
X859749Y418632D01*
X862091Y419098D01*
X864075Y420424D01*
X865401Y422408D01*
X865666Y423741D01*
X866936Y423616D01*
Y393883D01*
X865666Y393758D01*
X865401Y395091D01*
X864075Y397075D01*
X862091Y398401D01*
X859749Y398867D01*
X857408Y398401D01*
X855424Y397075D01*
X854098Y395091D01*
X853632Y392750D01*
X854098Y390409D01*
X855424Y388424D01*
X857408Y387098D01*
X857087Y385901D01*
X856000Y386118D01*
X853659Y385652D01*
X851674Y384326D01*
X851302Y383768D01*
X850032D01*
X849659Y384326D01*
X847674Y385652D01*
X846414Y385903D01*
X846265Y386453D01*
X846280Y387224D01*
X848075Y388424D01*
X849401Y390409D01*
X849867Y392750D01*
X849401Y395091D01*
X848075Y397075D01*
X846090Y398401D01*
X843749Y398867D01*
X841408Y398401D01*
X839424Y397075D01*
X838098Y395091D01*
X837632Y392750D01*
X838098Y390409D01*
X839424Y388424D01*
X841408Y387098D01*
X842669Y386847D01*
X842818Y386297D01*
X842803Y385525D01*
X841008Y384326D01*
X840635Y383768D01*
X839365D01*
X838992Y384326D01*
X837008Y385652D01*
X834667Y386118D01*
X832326Y385652D01*
X830341Y384326D01*
X829968Y383768D01*
X828698D01*
X828326Y384326D01*
X826341Y385652D01*
X824000Y386118D01*
X821659Y385652D01*
X819674Y384326D01*
X818348Y382341D01*
X817883Y380000D01*
X818348Y377659D01*
X819674Y375674D01*
X821659Y374348D01*
X824000Y373882D01*
X826341Y374348D01*
X828326Y375674D01*
X828698Y376232D01*
X829968D01*
X830341Y375674D01*
X832326Y374348D01*
X834667Y373882D01*
X837008Y374348D01*
X838992Y375674D01*
X839365Y376232D01*
X840635D01*
X841008Y375674D01*
X842992Y374348D01*
X845333Y373882D01*
X847674Y374348D01*
X849659Y375674D01*
X850032Y376232D01*
X851302D01*
X851674Y375674D01*
X853659Y374348D01*
X856000Y373882D01*
X858341Y374348D01*
X860326Y375674D01*
X860890Y376518D01*
X862086Y376022D01*
X861882Y375000D01*
X862348Y372659D01*
X863674Y370674D01*
X865659Y369348D01*
X868000Y368882D01*
X870341Y369348D01*
X872202Y370592D01*
X872638Y370733D01*
X873362D01*
X873798Y370592D01*
X875659Y369348D01*
X878000Y368882D01*
X880341Y369348D01*
X882326Y370674D01*
X883652Y372659D01*
X884118Y375000D01*
X883652Y377341D01*
X882326Y379326D01*
X880694Y380416D01*
X881079Y381686D01*
X894921D01*
X895306Y380416D01*
X893674Y379326D01*
X892348Y377341D01*
X891882Y375000D01*
X892348Y372659D01*
X893674Y370674D01*
X895659Y369348D01*
X898000Y368882D01*
X900341Y369348D01*
X902202Y370592D01*
X902638Y370733D01*
X903362D01*
X903798Y370592D01*
X905659Y369348D01*
X908000Y368882D01*
X910341Y369348D01*
X912326Y370674D01*
X913652Y372659D01*
X914118Y375000D01*
X913652Y377341D01*
X912326Y379326D01*
X910694Y380416D01*
X911079Y381686D01*
X926304D01*
X926983Y380416D01*
X926097Y379091D01*
X925632Y376750D01*
X926097Y374408D01*
X927424Y372424D01*
X929408Y371098D01*
X931749Y370632D01*
X934090Y371098D01*
X936075Y372424D01*
X937401Y374408D01*
X937867Y376750D01*
X937401Y379091D01*
X936516Y380416D01*
X937194Y381686D01*
X942305D01*
X942983Y380416D01*
X942097Y379091D01*
X941632Y376750D01*
X942097Y374408D01*
X943424Y372424D01*
X945408Y371098D01*
X947749Y370632D01*
X950090Y371098D01*
X952075Y372424D01*
X953401Y374408D01*
X953867Y376750D01*
X953401Y379091D01*
X952515Y380416D01*
X953194Y381686D01*
X958305D01*
X958983Y380416D01*
X958098Y379091D01*
X957632Y376750D01*
X958098Y374408D01*
X959424Y372424D01*
X961408Y371098D01*
X963749Y370632D01*
X966090Y371098D01*
X968075Y372424D01*
X969401Y374408D01*
X969867Y376750D01*
X969401Y379091D01*
X968515Y380416D01*
X969194Y381686D01*
X1036686D01*
Y323575D01*
X1035416Y323190D01*
X1035326Y323326D01*
X1033341Y324652D01*
X1031000Y325117D01*
X1028659Y324652D01*
X1027489Y323870D01*
X1026500Y323407D01*
X1025511Y323870D01*
X1024341Y324652D01*
X1022000Y325117D01*
X1019659Y324652D01*
X1018489Y323870D01*
X1017500Y323407D01*
X1016511Y323870D01*
X1015341Y324652D01*
X1013000Y325117D01*
X1010659Y324652D01*
X1008674Y323326D01*
X1007348Y321341D01*
X1006882Y319000D01*
X1007348Y316659D01*
X1008674Y314674D01*
X1010659Y313348D01*
X1013000Y312882D01*
X1015341Y313348D01*
X1016511Y314130D01*
X1017500Y314593D01*
X1018489Y314130D01*
X1019659Y313348D01*
X1022000Y312882D01*
X1024341Y313348D01*
X1025511Y314130D01*
X1026500Y314593D01*
X1027489Y314130D01*
X1028659Y313348D01*
X1031000Y312882D01*
X1033341Y313348D01*
X1035326Y314674D01*
X1035416Y314810D01*
X1036686Y314425D01*
Y272575D01*
X1035416Y272190D01*
X1035326Y272326D01*
X1033341Y273652D01*
X1031000Y274118D01*
X1028659Y273652D01*
X1027489Y272870D01*
X1026500Y272407D01*
X1025511Y272870D01*
X1024341Y273652D01*
X1022000Y274118D01*
X1019659Y273652D01*
X1018489Y272870D01*
X1017500Y272407D01*
X1016511Y272870D01*
X1015341Y273652D01*
X1013000Y274118D01*
X1010659Y273652D01*
X1008674Y272326D01*
X1007348Y270341D01*
X1006882Y268000D01*
X1007348Y265659D01*
X1008674Y263674D01*
X1010659Y262348D01*
X1013000Y261882D01*
X1015341Y262348D01*
X1016511Y263130D01*
X1017500Y263593D01*
X1018489Y263130D01*
X1019659Y262348D01*
X1022000Y261882D01*
X1024341Y262348D01*
X1025511Y263130D01*
X1026500Y263593D01*
X1027489Y263130D01*
X1028659Y262348D01*
X1031000Y261882D01*
X1033341Y262348D01*
X1035326Y263674D01*
X1035416Y263810D01*
X1036686Y263425D01*
Y3064D01*
X1024325D01*
X1023940Y4334D01*
X1024075Y4424D01*
X1025401Y6409D01*
X1025867Y8750D01*
X1025401Y11091D01*
X1024075Y13075D01*
X1022091Y14402D01*
X1019749Y14867D01*
X1017408Y14402D01*
X1015424Y13075D01*
X1014098Y11091D01*
X1013632Y8750D01*
X1014098Y6409D01*
X1015424Y4424D01*
X1015559Y4334D01*
X1015174Y3064D01*
X1008325D01*
X1007940Y4334D01*
X1008075Y4424D01*
X1009401Y6409D01*
X1009867Y8750D01*
X1009401Y11091D01*
X1008075Y13075D01*
X1006090Y14402D01*
X1003749Y14867D01*
X1001408Y14402D01*
X999424Y13075D01*
X998098Y11091D01*
X997632Y8750D01*
X998098Y6409D01*
X999424Y4424D01*
X999559Y4334D01*
X999174Y3064D01*
X992325D01*
X991940Y4334D01*
X992075Y4424D01*
X993401Y6409D01*
X993867Y8750D01*
X993401Y11091D01*
X992075Y13075D01*
X990090Y14402D01*
X987749Y14867D01*
X985408Y14402D01*
X983424Y13075D01*
X982097Y11091D01*
X981632Y8750D01*
X982097Y6409D01*
X983424Y4424D01*
X983559Y4334D01*
X983174Y3064D01*
X976325D01*
X975940Y4334D01*
X976075Y4424D01*
X977401Y6409D01*
X977867Y8750D01*
X977401Y11091D01*
X976075Y13075D01*
X974090Y14402D01*
X971749Y14867D01*
X969408Y14402D01*
X967424Y13075D01*
X966097Y11091D01*
X965632Y8750D01*
X966097Y6409D01*
X967424Y4424D01*
X967559Y4334D01*
X967174Y3064D01*
X960325D01*
X960234Y3159D01*
X959943Y4336D01*
X960075Y4424D01*
X961401Y6409D01*
X961867Y8750D01*
X961401Y11091D01*
X960075Y13075D01*
X958091Y14402D01*
X955749Y14867D01*
X953408Y14402D01*
X951424Y13075D01*
X950098Y11091D01*
X949632Y8750D01*
X950098Y6409D01*
X951424Y4424D01*
X953408Y3098D01*
X955749Y2632D01*
X956963Y2874D01*
X957655Y1716D01*
X957189Y1018D01*
X956936Y-250D01*
Y-76686D01*
X952525D01*
X952182Y-75416D01*
X953401Y-73591D01*
X953867Y-71250D01*
X953401Y-68909D01*
X952075Y-66925D01*
X950090Y-65598D01*
X947749Y-65133D01*
X945408Y-65598D01*
X943424Y-66925D01*
X942097Y-68909D01*
X941632Y-71250D01*
X942097Y-73591D01*
X943317Y-75416D01*
X942974Y-76686D01*
X936525D01*
X936182Y-75416D01*
X937401Y-73591D01*
X937867Y-71250D01*
X937401Y-68909D01*
X936075Y-66925D01*
X934090Y-65598D01*
X931749Y-65133D01*
X929408Y-65598D01*
X927424Y-66925D01*
X926097Y-68909D01*
X925632Y-71250D01*
X926097Y-73591D01*
X927317Y-75416D01*
X926974Y-76686D01*
X920525D01*
X920182Y-75416D01*
X921401Y-73591D01*
X921867Y-71250D01*
X921401Y-68909D01*
X920075Y-66925D01*
X918091Y-65598D01*
X915749Y-65133D01*
X913408Y-65598D01*
X911424Y-66925D01*
X910098Y-68909D01*
X909632Y-71250D01*
X910098Y-73591D01*
X911317Y-75416D01*
X910974Y-76686D01*
X904525D01*
X904182Y-75416D01*
X905401Y-73591D01*
X905867Y-71250D01*
X905401Y-68909D01*
X904075Y-66925D01*
X902091Y-65598D01*
X899749Y-65133D01*
X897408Y-65598D01*
X895424Y-66925D01*
X894098Y-68909D01*
X893632Y-71250D01*
X894098Y-73591D01*
X895317Y-75416D01*
X894974Y-76686D01*
X888525D01*
X888182Y-75416D01*
X889401Y-73591D01*
X889867Y-71250D01*
X889401Y-68909D01*
X888075Y-66925D01*
X886090Y-65598D01*
X883749Y-65133D01*
X881408Y-65598D01*
X879424Y-66925D01*
X878098Y-68909D01*
X877632Y-71250D01*
X878098Y-73591D01*
X879317Y-75416D01*
X878974Y-76686D01*
X872525D01*
X872182Y-75416D01*
X873401Y-73591D01*
X873867Y-71250D01*
X873401Y-68909D01*
X872075Y-66925D01*
X870090Y-65598D01*
X867749Y-65133D01*
X865408Y-65598D01*
X863424Y-66925D01*
X862098Y-68909D01*
X861632Y-71250D01*
X862098Y-73591D01*
X863317Y-75416D01*
X862974Y-76686D01*
X856525D01*
X856182Y-75416D01*
X857401Y-73591D01*
X857867Y-71250D01*
X857401Y-68909D01*
X856075Y-66925D01*
X854090Y-65598D01*
X851749Y-65133D01*
X849408Y-65598D01*
X847424Y-66925D01*
X846098Y-68909D01*
X845632Y-71250D01*
X846098Y-73591D01*
X847317Y-75416D01*
X846974Y-76686D01*
X840525D01*
X840182Y-75416D01*
X841401Y-73591D01*
X841867Y-71250D01*
X841401Y-68909D01*
X840075Y-66925D01*
X838091Y-65598D01*
X835750Y-65133D01*
X833408Y-65598D01*
X831424Y-66925D01*
X830098Y-68909D01*
X829632Y-71250D01*
X830098Y-73591D01*
X831317Y-75416D01*
X830974Y-76686D01*
X824525D01*
X824182Y-75416D01*
X825401Y-73591D01*
X825867Y-71250D01*
X825401Y-68909D01*
X824075Y-66925D01*
X822091Y-65598D01*
X819750Y-65133D01*
X817408Y-65598D01*
X815424Y-66925D01*
X814098Y-68909D01*
X813632Y-71250D01*
X814098Y-73591D01*
X815317Y-75416D01*
X814974Y-76686D01*
X808525D01*
X808182Y-75416D01*
X809401Y-73591D01*
X809867Y-71250D01*
X809401Y-68909D01*
X808075Y-66925D01*
X806091Y-65598D01*
X803749Y-65133D01*
X801408Y-65598D01*
X799424Y-66925D01*
X798098Y-68909D01*
X797632Y-71250D01*
X798098Y-73591D01*
X799317Y-75416D01*
X798974Y-76686D01*
X792525D01*
X792182Y-75416D01*
X793401Y-73591D01*
X793867Y-71250D01*
X793401Y-68909D01*
X792075Y-66925D01*
X790091Y-65598D01*
X787749Y-65133D01*
X785408Y-65598D01*
X783424Y-66925D01*
X782098Y-68909D01*
X781632Y-71250D01*
X782098Y-73591D01*
X783317Y-75416D01*
X782974Y-76686D01*
X775064D01*
Y-60863D01*
X776334Y-60184D01*
X777408Y-60902D01*
X779750Y-61368D01*
X782091Y-60902D01*
X784075Y-59576D01*
X785401Y-57591D01*
X785867Y-55250D01*
X785401Y-52909D01*
X784075Y-50925D01*
X782091Y-49598D01*
X779750Y-49133D01*
X777408Y-49598D01*
X776334Y-50316D01*
X775064Y-49638D01*
Y-28863D01*
X776334Y-28184D01*
X777408Y-28902D01*
X779750Y-29368D01*
X782091Y-28902D01*
X784075Y-27576D01*
X785401Y-25591D01*
X785867Y-23250D01*
X785401Y-20909D01*
X784075Y-18924D01*
X782091Y-17598D01*
X779750Y-17133D01*
X777408Y-17598D01*
X776334Y-18316D01*
X775064Y-17638D01*
Y198750D01*
X774811Y200018D01*
X774093Y201093D01*
X773018Y201811D01*
X771750Y202064D01*
X153750D01*
X152482Y201811D01*
X151407Y201093D01*
X150689Y200018D01*
X150436Y198750D01*
Y3314D01*
X144526D01*
X144182Y4584D01*
X145402Y6409D01*
X145867Y8750D01*
X145402Y11091D01*
X144075Y13075D01*
X142091Y14402D01*
X139750Y14867D01*
X137409Y14402D01*
X135424Y13075D01*
X134098Y11091D01*
X133632Y8750D01*
X134098Y6409D01*
X135317Y4584D01*
X134974Y3314D01*
X128526D01*
X128182Y4584D01*
X129402Y6409D01*
X129867Y8750D01*
X129402Y11091D01*
X128076Y13075D01*
X126091Y14402D01*
X124039Y14810D01*
X123640Y15761D01*
X123599Y16094D01*
X125482Y18548D01*
X126120Y20089D01*
X126931Y20298D01*
X127588Y20314D01*
X129409Y19098D01*
X131750Y18632D01*
X134091Y19098D01*
X136075Y20424D01*
X137402Y22409D01*
X137867Y24750D01*
X137402Y27091D01*
X136075Y29076D01*
X134091Y30402D01*
X131750Y30867D01*
X129409Y30402D01*
X127491Y29120D01*
X127238Y29018D01*
X126113Y29129D01*
X125482Y30652D01*
X123559Y33159D01*
X121052Y35082D01*
X118133Y36291D01*
X115904Y36584D01*
X115335Y36660D01*
Y37940D01*
X115904Y38015D01*
X118133Y38309D01*
X121052Y39518D01*
X123559Y41441D01*
X125482Y43948D01*
X126691Y46867D01*
X127104Y50000D01*
X126943Y51218D01*
X128127Y51954D01*
X129409Y51098D01*
X131750Y50632D01*
X134091Y51098D01*
X136075Y52424D01*
X137402Y54409D01*
X137867Y56750D01*
X137402Y59091D01*
X136075Y61076D01*
X134091Y62402D01*
X131750Y62867D01*
X129409Y62402D01*
X127424Y61076D01*
X126098Y59091D01*
X125821Y57697D01*
X124463Y57380D01*
X123559Y58559D01*
X121052Y60482D01*
X118133Y61691D01*
X115000Y62104D01*
X111867Y61691D01*
X108948Y60482D01*
X106441Y58559D01*
X104518Y56052D01*
X103309Y53133D01*
X102896Y50000D01*
X103309Y46867D01*
X104518Y43948D01*
X106441Y41441D01*
X108948Y39518D01*
X111867Y38309D01*
X114096Y38015D01*
X114665Y37940D01*
Y36660D01*
X114096Y36584D01*
X111867Y36291D01*
X108948Y35082D01*
X106441Y33159D01*
X104518Y30652D01*
X103309Y27733D01*
X102896Y24600D01*
X103309Y21467D01*
X104518Y18548D01*
X106441Y16042D01*
X106586Y15931D01*
X106269Y14573D01*
X105409Y14402D01*
X103424Y13075D01*
X102098Y11091D01*
X101632Y8750D01*
X102098Y6409D01*
X103317Y4584D01*
X102974Y3314D01*
X96526D01*
X96182Y4584D01*
X97402Y6409D01*
X97867Y8750D01*
X97402Y11091D01*
X96075Y13075D01*
X94091Y14402D01*
X91750Y14867D01*
X89409Y14402D01*
X87424Y13075D01*
X86098Y11091D01*
X85632Y8750D01*
X86098Y6409D01*
X87317Y4584D01*
X86974Y3314D01*
X80526D01*
X80182Y4584D01*
X81402Y6409D01*
X81867Y8750D01*
X81402Y11091D01*
X80076Y13075D01*
X78091Y14402D01*
X75750Y14867D01*
X73409Y14402D01*
X71424Y13075D01*
X70098Y11091D01*
X69632Y8750D01*
X70098Y6409D01*
X71317Y4584D01*
X70974Y3314D01*
X3314D01*
Y91686D01*
X80000D01*
X81268Y91939D01*
X82343Y92657D01*
X83061Y93732D01*
X83314Y95000D01*
Y232425D01*
X84584Y232810D01*
X84674Y232674D01*
X86659Y231348D01*
X89000Y230882D01*
X91341Y231348D01*
X93326Y232674D01*
X94652Y234659D01*
X95118Y237000D01*
X94652Y239341D01*
X93326Y241326D01*
X91341Y242652D01*
X89000Y243118D01*
X86659Y242652D01*
X84674Y241326D01*
X84584Y241190D01*
X83314Y241575D01*
Y285000D01*
X83061Y286268D01*
X82343Y287343D01*
X81268Y288061D01*
X80000Y288314D01*
X79875Y288289D01*
X79750Y288314D01*
X3314D01*
Y381686D01*
X14305D01*
X14984Y380416D01*
X14098Y379091D01*
X13632Y376750D01*
X14098Y374408D01*
X15424Y372424D01*
X17409Y371098D01*
X19750Y370632D01*
X22091Y371098D01*
X24076Y372424D01*
X25402Y374408D01*
X25867Y376750D01*
X25402Y379091D01*
X24516Y380416D01*
X25195Y381686D01*
X30305D01*
X30984Y380416D01*
X30098Y379091D01*
X29632Y376750D01*
X30098Y374408D01*
X31424Y372424D01*
X33409Y371098D01*
X35750Y370632D01*
X38091Y371098D01*
X40075Y372424D01*
X41402Y374408D01*
X41867Y376750D01*
X41402Y379091D01*
X40516Y380416D01*
X41195Y381686D01*
X46305D01*
X46984Y380416D01*
X46098Y379091D01*
X45632Y376750D01*
X46098Y374408D01*
X47424Y372424D01*
X49409Y371098D01*
X51750Y370632D01*
X54091Y371098D01*
X56076Y372424D01*
X57402Y374408D01*
X57867Y376750D01*
X57402Y379091D01*
X56516Y380416D01*
X57195Y381686D01*
X62305D01*
X62984Y380416D01*
X62098Y379091D01*
X61632Y376750D01*
X62098Y374408D01*
X63424Y372424D01*
X65409Y371098D01*
X67750Y370632D01*
X70091Y371098D01*
X72076Y372424D01*
X73402Y374408D01*
X73867Y376750D01*
X73402Y379091D01*
X72516Y380416D01*
X73195Y381686D01*
X78305D01*
X78984Y380416D01*
X78098Y379091D01*
X77632Y376750D01*
X78098Y374408D01*
X79424Y372424D01*
X81409Y371098D01*
X83750Y370632D01*
X86091Y371098D01*
X88076Y372424D01*
X89402Y374408D01*
X89867Y376750D01*
X89402Y379091D01*
X88076Y381075D01*
X86091Y382402D01*
X83980Y382821D01*
X83683Y383116D01*
X83410Y383500D01*
X83122Y384037D01*
X83314Y385000D01*
Y461436D01*
X276221D01*
X276900Y460166D01*
X276348Y459341D01*
X276225Y458721D01*
X275105Y458123D01*
X273733Y458691D01*
X270600Y459104D01*
X267467Y458691D01*
X264548Y457482D01*
X262041Y455559D01*
X260118Y453052D01*
X258909Y450133D01*
X258496Y447000D01*
X258909Y443867D01*
X260118Y440948D01*
X262041Y438442D01*
X264548Y436518D01*
X267467Y435309D01*
X270600Y434896D01*
X273733Y435309D01*
X276652Y436518D01*
X279158Y438442D01*
X281082Y440948D01*
X282291Y443867D01*
X282659Y446665D01*
X283941D01*
X284309Y443867D01*
X285518Y440948D01*
X287442Y438442D01*
X289948Y436518D01*
X292867Y435309D01*
X296000Y434896D01*
X299133Y435309D01*
X302052Y436518D01*
X304559Y438442D01*
X306482Y440948D01*
X307691Y443867D01*
X307985Y446096D01*
X308060Y446665D01*
X309340D01*
X309415Y446096D01*
X309709Y443867D01*
X310918Y440948D01*
X312841Y438442D01*
X315348Y436518D01*
X318267Y435309D01*
X321400Y434896D01*
X324533Y435309D01*
X327452Y436518D01*
X329958Y438442D01*
X331882Y440948D01*
X333091Y443867D01*
X333385Y446096D01*
X333460Y446665D01*
X334740D01*
X334815Y446096D01*
X335109Y443867D01*
X336318Y440948D01*
X338242Y438442D01*
X340748Y436518D01*
X342348Y435855D01*
X342442Y435492D01*
X342382Y434467D01*
X340674Y433326D01*
X339348Y431341D01*
X338882Y429000D01*
X339348Y426659D01*
X340674Y424674D01*
X342659Y423348D01*
X345000Y422882D01*
X347341Y423348D01*
X349326Y424674D01*
X350652Y426659D01*
X351118Y429000D01*
X350652Y431341D01*
X349326Y433326D01*
X348548Y433846D01*
X348856Y435167D01*
X349933Y435309D01*
X352852Y436518D01*
X355359Y438442D01*
X357282Y440948D01*
X358491Y443867D01*
X358904Y447000D01*
X358491Y450133D01*
X357282Y453052D01*
X355359Y455559D01*
X352852Y457482D01*
X349933Y458691D01*
X346800Y459104D01*
X343667Y458691D01*
X340748Y457482D01*
X338242Y455559D01*
X336318Y453052D01*
X335109Y450133D01*
X334815Y447904D01*
X334740Y447335D01*
X333460D01*
X333385Y447904D01*
X333091Y450133D01*
X331882Y453052D01*
X329958Y455559D01*
X327452Y457482D01*
X324533Y458691D01*
X321400Y459104D01*
X318267Y458691D01*
X315348Y457482D01*
X312841Y455559D01*
X310918Y453052D01*
X309709Y450133D01*
X309415Y447904D01*
X309340Y447335D01*
X308060D01*
X307985Y447904D01*
X307691Y450133D01*
X306482Y453052D01*
X304559Y455559D01*
X302052Y457482D01*
X299133Y458691D01*
X296000Y459104D01*
X292867Y458691D01*
X289948Y457482D01*
X289313Y456994D01*
X288001Y457588D01*
X287652Y459341D01*
X287101Y460166D01*
X287779Y461436D01*
X358138D01*
X358816Y460166D01*
X358098Y459091D01*
X357632Y456750D01*
X358098Y454408D01*
X359424Y452424D01*
X361409Y451098D01*
X363750Y450632D01*
X366091Y451098D01*
X368075Y452424D01*
X369402Y454408D01*
X369867Y456750D01*
X369402Y459091D01*
X368683Y460166D01*
X369362Y461436D01*
X374138D01*
X374817Y460166D01*
X374098Y459091D01*
X373632Y456750D01*
X374098Y454408D01*
X375424Y452424D01*
X377408Y451098D01*
X379750Y450632D01*
X382091Y451098D01*
X384075Y452424D01*
X385401Y454408D01*
X385867Y456750D01*
X385401Y459091D01*
X384683Y460166D01*
X385362Y461436D01*
X550138D01*
X550816Y460166D01*
X550098Y459091D01*
X549632Y456750D01*
X550098Y454408D01*
X551424Y452424D01*
X553409Y451098D01*
X555750Y450632D01*
X558091Y451098D01*
X560075Y452424D01*
X561401Y454408D01*
X561867Y456750D01*
X561401Y459091D01*
X560683Y460166D01*
X561362Y461436D01*
X566138D01*
X566816Y460166D01*
X566098Y459091D01*
X565632Y456750D01*
X566098Y454408D01*
X567424Y452424D01*
X569408Y451098D01*
X571750Y450632D01*
X574091Y451098D01*
X576075Y452424D01*
X577401Y454408D01*
X577867Y456750D01*
X577401Y459091D01*
X576683Y460166D01*
X577361Y461436D01*
X582138D01*
X582816Y460166D01*
X582098Y459091D01*
X581632Y456750D01*
X582098Y454408D01*
X583424Y452424D01*
X585409Y451098D01*
X587749Y450632D01*
X590091Y451098D01*
X592075Y452424D01*
X593401Y454408D01*
X593867Y456750D01*
X593401Y459091D01*
X592683Y460166D01*
X593362Y461436D01*
X790137D01*
X790816Y460166D01*
X790098Y459091D01*
X789632Y456750D01*
X790098Y454408D01*
X791424Y452424D01*
X793408Y451098D01*
X795750Y450632D01*
X798091Y451098D01*
X800075Y452424D01*
X801401Y454408D01*
X801867Y456750D01*
X801401Y459091D01*
X800683Y460166D01*
X801361Y461436D01*
X806137D01*
X806816Y460166D01*
X806098Y459091D01*
X805632Y456750D01*
X806098Y454408D01*
X807424Y452424D01*
X809408Y451098D01*
X811749Y450632D01*
X814090Y451098D01*
X816075Y452424D01*
X817401Y454408D01*
X817867Y456750D01*
X817401Y459091D01*
X816683Y460166D01*
X817361Y461436D01*
X822138D01*
X822816Y460166D01*
X822098Y459091D01*
X821632Y456750D01*
X822098Y454408D01*
X823424Y452424D01*
X825408Y451098D01*
X827749Y450632D01*
X830090Y451098D01*
X832075Y452424D01*
X833401Y454408D01*
X833867Y456750D01*
X833401Y459091D01*
X832683Y460166D01*
X833361Y461436D01*
X838138D01*
X838816Y460166D01*
X838098Y459091D01*
X837632Y456750D01*
X838098Y454408D01*
X839424Y452424D01*
X841408Y451098D01*
X843749Y450632D01*
X846090Y451098D01*
X848075Y452424D01*
X849401Y454408D01*
X849867Y456750D01*
X849401Y459091D01*
X848683Y460166D01*
X849361Y461436D01*
X854137D01*
X854816Y460166D01*
D02*
G37*
%LPC*%
G36*
X203000Y460117D02*
X200659Y459652D01*
X198674Y458326D01*
X197348Y456341D01*
X196882Y454000D01*
X197348Y451659D01*
X198674Y449674D01*
X200659Y448348D01*
X203000Y447882D01*
X205341Y448348D01*
X207326Y449674D01*
X208652Y451659D01*
X209118Y454000D01*
X208652Y456341D01*
X207326Y458326D01*
X205341Y459652D01*
X203000Y460117D01*
D02*
G37*
G36*
X154700Y459104D02*
X151567Y458691D01*
X148648Y457482D01*
X146142Y455559D01*
X144218Y453052D01*
X143009Y450133D01*
X142716Y447904D01*
X142640Y447335D01*
X141360D01*
X141285Y447904D01*
X140991Y450133D01*
X139782Y453052D01*
X137858Y455559D01*
X135352Y457482D01*
X132433Y458691D01*
X129300Y459104D01*
X126167Y458691D01*
X123248Y457482D01*
X120742Y455559D01*
X118818Y453052D01*
X117609Y450133D01*
X117196Y447000D01*
X117609Y443867D01*
X118818Y440948D01*
X120742Y438442D01*
X123248Y436518D01*
X126167Y435309D01*
X129300Y434896D01*
X132433Y435309D01*
X135352Y436518D01*
X137858Y438442D01*
X139782Y440948D01*
X140991Y443867D01*
X141285Y446096D01*
X141360Y446665D01*
X142640D01*
X142716Y446096D01*
X143009Y443867D01*
X144218Y440948D01*
X146142Y438442D01*
X148648Y436518D01*
X151567Y435309D01*
X154700Y434896D01*
X157833Y435309D01*
X160752Y436518D01*
X163258Y438442D01*
X165182Y440948D01*
X166391Y443867D01*
X166804Y447000D01*
X166391Y450133D01*
X165182Y453052D01*
X163258Y455559D01*
X160752Y457482D01*
X157833Y458691D01*
X154700Y459104D01*
D02*
G37*
G36*
X832500Y448618D02*
X830159Y448152D01*
X828174Y446826D01*
X826848Y444841D01*
X826402Y442596D01*
X826001Y442310D01*
X825204Y441914D01*
X823552Y443182D01*
X820633Y444391D01*
X817500Y444804D01*
X814367Y444391D01*
X811448Y443182D01*
X809796Y441914D01*
X808999Y442310D01*
X808598Y442596D01*
X808152Y444841D01*
X806826Y446826D01*
X804841Y448152D01*
X802500Y448618D01*
X800159Y448152D01*
X798174Y446826D01*
X796848Y444841D01*
X796383Y442500D01*
X796848Y440159D01*
X798092Y438298D01*
X798233Y437862D01*
Y437138D01*
X798092Y436702D01*
X796848Y434841D01*
X796383Y432500D01*
X796848Y430159D01*
X798092Y428298D01*
X798233Y427862D01*
Y427138D01*
X798092Y426702D01*
X796848Y424841D01*
X796383Y422500D01*
X796848Y420159D01*
X798174Y418174D01*
X800159Y416848D01*
X802500Y416382D01*
X804230Y416726D01*
X805500Y415877D01*
Y395300D01*
X829500D01*
Y405017D01*
X830770Y405402D01*
X831424Y404424D01*
X833408Y403098D01*
X835750Y402632D01*
X838091Y403098D01*
X840075Y404424D01*
X841401Y406409D01*
X841867Y408750D01*
X841401Y411091D01*
X840075Y413075D01*
X838091Y414402D01*
X835750Y414867D01*
X833408Y414402D01*
X831424Y413075D01*
X830770Y412097D01*
X829500Y412482D01*
Y415877D01*
X830770Y416727D01*
X832500Y416382D01*
X834841Y416848D01*
X836826Y418174D01*
X838152Y420159D01*
X838160Y420202D01*
X839406Y420450D01*
X839424Y420424D01*
X841408Y419098D01*
X843749Y418632D01*
X846090Y419098D01*
X848075Y420424D01*
X849401Y422408D01*
X849867Y424750D01*
X849401Y427091D01*
X848075Y429075D01*
X846090Y430401D01*
X843749Y430867D01*
X841408Y430401D01*
X839424Y429075D01*
X838319Y427422D01*
X837511Y427637D01*
X837250Y428809D01*
X838152Y430159D01*
X838618Y432500D01*
X838152Y434841D01*
X836908Y436702D01*
X836767Y437138D01*
Y437862D01*
X836908Y438298D01*
X838152Y440159D01*
X838618Y442500D01*
X838152Y444841D01*
X836826Y446826D01*
X834841Y448152D01*
X832500Y448618D01*
D02*
G37*
G36*
X600000Y440117D02*
X597659Y439652D01*
X595674Y438326D01*
X595135Y437519D01*
X593865D01*
X593326Y438326D01*
X591341Y439652D01*
X589000Y440117D01*
X586659Y439652D01*
X584674Y438326D01*
X583348Y436341D01*
X582882Y434000D01*
X583348Y431659D01*
X584674Y429674D01*
X586659Y428348D01*
X589000Y427882D01*
X591341Y428348D01*
X593326Y429674D01*
X593865Y430481D01*
X595135D01*
X595674Y429674D01*
X597659Y428348D01*
X600000Y427882D01*
X602341Y428348D01*
X604326Y429674D01*
X605652Y431659D01*
X606118Y434000D01*
X605652Y436341D01*
X604326Y438326D01*
X602341Y439652D01*
X600000Y440117D01*
D02*
G37*
G36*
X257200Y459000D02*
X233200D01*
Y435000D01*
X257200D01*
Y459000D01*
D02*
G37*
G36*
X192100D02*
X168100D01*
Y435000D01*
X192100D01*
Y459000D01*
D02*
G37*
G36*
X851749Y446867D02*
X849408Y446401D01*
X847424Y445075D01*
X846098Y443091D01*
X845632Y440750D01*
X846098Y438409D01*
X847424Y436424D01*
X849408Y435098D01*
X851749Y434632D01*
X854090Y435098D01*
X856075Y436424D01*
X857401Y438409D01*
X857867Y440750D01*
X857401Y443091D01*
X856075Y445075D01*
X854090Y446401D01*
X851749Y446867D01*
D02*
G37*
G36*
X547750D02*
X545409Y446401D01*
X543424Y445075D01*
X542098Y443091D01*
X541632Y440750D01*
X542098Y438409D01*
X543424Y436424D01*
X545409Y435098D01*
X547750Y434632D01*
X550091Y435098D01*
X552075Y436424D01*
X553401Y438409D01*
X553867Y440750D01*
X553401Y443091D01*
X552075Y445075D01*
X550091Y446401D01*
X547750Y446867D01*
D02*
G37*
G36*
X531750D02*
X529408Y446401D01*
X527424Y445075D01*
X526098Y443091D01*
X525632Y440750D01*
X526098Y438409D01*
X527424Y436424D01*
X529408Y435098D01*
X531750Y434632D01*
X534091Y435098D01*
X536075Y436424D01*
X537402Y438409D01*
X537867Y440750D01*
X537402Y443091D01*
X536075Y445075D01*
X534091Y446401D01*
X531750Y446867D01*
D02*
G37*
G36*
X515750D02*
X513409Y446401D01*
X511424Y445075D01*
X510098Y443091D01*
X509632Y440750D01*
X510098Y438409D01*
X511424Y436424D01*
X513409Y435098D01*
X515750Y434632D01*
X518091Y435098D01*
X520075Y436424D01*
X521401Y438409D01*
X521867Y440750D01*
X521401Y443091D01*
X520075Y445075D01*
X518091Y446401D01*
X515750Y446867D01*
D02*
G37*
G36*
X499750D02*
X497408Y446401D01*
X495424Y445075D01*
X494098Y443091D01*
X493632Y440750D01*
X494098Y438409D01*
X495424Y436424D01*
X497408Y435098D01*
X499750Y434632D01*
X502091Y435098D01*
X504075Y436424D01*
X505401Y438409D01*
X505867Y440750D01*
X505401Y443091D01*
X504075Y445075D01*
X502091Y446401D01*
X499750Y446867D01*
D02*
G37*
G36*
X483750D02*
X481409Y446401D01*
X479424Y445075D01*
X478098Y443091D01*
X477632Y440750D01*
X478098Y438409D01*
X479424Y436424D01*
X481409Y435098D01*
X483750Y434632D01*
X486091Y435098D01*
X488075Y436424D01*
X489402Y438409D01*
X489867Y440750D01*
X489402Y443091D01*
X488075Y445075D01*
X486091Y446401D01*
X483750Y446867D01*
D02*
G37*
G36*
X467750D02*
X465409Y446401D01*
X463424Y445075D01*
X462098Y443091D01*
X461632Y440750D01*
X462098Y438409D01*
X463424Y436424D01*
X465409Y435098D01*
X467750Y434632D01*
X470091Y435098D01*
X472075Y436424D01*
X473401Y438409D01*
X473867Y440750D01*
X473401Y443091D01*
X472075Y445075D01*
X470091Y446401D01*
X467750Y446867D01*
D02*
G37*
G36*
X371750D02*
X369409Y446401D01*
X367424Y445075D01*
X366098Y443091D01*
X365632Y440750D01*
X366098Y438409D01*
X367424Y436424D01*
X369409Y435098D01*
X371750Y434632D01*
X374091Y435098D01*
X376075Y436424D01*
X377402Y438409D01*
X377867Y440750D01*
X377402Y443091D01*
X376075Y445075D01*
X374091Y446401D01*
X371750Y446867D01*
D02*
G37*
G36*
X420000Y446118D02*
X417659Y445652D01*
X415674Y444326D01*
X414348Y442341D01*
X413882Y440000D01*
X414348Y437659D01*
X415674Y435674D01*
X417659Y434348D01*
X420000Y433882D01*
X422341Y434348D01*
X424326Y435674D01*
X424364Y435732D01*
X425634D01*
X425673Y435673D01*
X427658Y434347D01*
X429999Y433882D01*
X432340Y434347D01*
X434325Y435673D01*
X435651Y437658D01*
X436117Y439999D01*
X435651Y442340D01*
X434325Y444325D01*
X432340Y445651D01*
X429999Y446117D01*
X427658Y445651D01*
X425673Y444325D01*
X425635Y444267D01*
X424365D01*
X424326Y444326D01*
X422341Y445652D01*
X420000Y446118D01*
D02*
G37*
G36*
X707000Y433117D02*
X704659Y432652D01*
X702674Y431326D01*
X702135Y430519D01*
X700865D01*
X700326Y431326D01*
X698341Y432652D01*
X696000Y433117D01*
X693659Y432652D01*
X691674Y431326D01*
X690348Y429341D01*
X689883Y427000D01*
X690348Y424659D01*
X691674Y422674D01*
X693315Y421578D01*
X693863Y420111D01*
X693348Y419341D01*
X692883Y417000D01*
X693348Y414659D01*
X694674Y412674D01*
X696659Y411348D01*
X699000Y410882D01*
X701341Y411348D01*
X703326Y412674D01*
X704652Y414659D01*
X705117Y417000D01*
X704652Y419341D01*
X704026Y420278D01*
X704347Y420820D01*
X704866Y421307D01*
X707000Y420882D01*
X709341Y421348D01*
X711326Y422674D01*
X712652Y424659D01*
X713118Y427000D01*
X712652Y429341D01*
X711326Y431326D01*
X709341Y432652D01*
X707000Y433117D01*
D02*
G37*
G36*
X186000Y432118D02*
X183659Y431652D01*
X181674Y430326D01*
X180734Y428918D01*
X179266D01*
X178326Y430326D01*
X176341Y431652D01*
X174000Y432118D01*
X171659Y431652D01*
X169674Y430326D01*
X168348Y428341D01*
X168147Y427332D01*
X166853D01*
X166652Y428341D01*
X165326Y430326D01*
X163341Y431652D01*
X161000Y432118D01*
X158659Y431652D01*
X156674Y430326D01*
X155733Y428918D01*
X154267D01*
X153326Y430326D01*
X151341Y431652D01*
X149000Y432118D01*
X146659Y431652D01*
X144674Y430326D01*
X143348Y428341D01*
X142882Y426000D01*
X143348Y423659D01*
X144674Y421674D01*
X146659Y420348D01*
X149000Y419882D01*
X151341Y420348D01*
X153326Y421674D01*
X154267Y423082D01*
X155733D01*
X156674Y421674D01*
X158659Y420348D01*
X161000Y419882D01*
X163341Y420348D01*
X165326Y421674D01*
X166652Y423659D01*
X166853Y424668D01*
X168147D01*
X168348Y423659D01*
X169674Y421674D01*
X171659Y420348D01*
X174000Y419882D01*
X176341Y420348D01*
X178326Y421674D01*
X179266Y423082D01*
X180734D01*
X181674Y421674D01*
X183659Y420348D01*
X186000Y419882D01*
X188341Y420348D01*
X190326Y421674D01*
X191652Y423659D01*
X192118Y426000D01*
X191652Y428341D01*
X190326Y430326D01*
X188341Y431652D01*
X186000Y432118D01*
D02*
G37*
G36*
X430000Y430588D02*
X428244Y430239D01*
X426756Y429244D01*
X425761Y427756D01*
X425648Y427184D01*
X424353D01*
X424239Y427756D01*
X423244Y429244D01*
X421756Y430239D01*
X420000Y430588D01*
X418244Y430239D01*
X416756Y429244D01*
X415761Y427756D01*
X415412Y426000D01*
X415761Y424244D01*
X416756Y422756D01*
X418244Y421761D01*
X418816Y421647D01*
Y420353D01*
X418244Y420239D01*
X416756Y419244D01*
X415761Y417756D01*
X415412Y416000D01*
X415761Y414244D01*
X416756Y412756D01*
X418244Y411761D01*
X420000Y411412D01*
X421756Y411761D01*
X423244Y412756D01*
X424239Y414244D01*
X424353Y414816D01*
X425648D01*
X425761Y414244D01*
X426756Y412756D01*
X428244Y411761D01*
X430000Y411412D01*
X431756Y411761D01*
X433244Y412756D01*
X434239Y414244D01*
X434588Y416000D01*
X434239Y417756D01*
X433244Y419244D01*
X431756Y420239D01*
X431185Y420353D01*
Y421647D01*
X431756Y421761D01*
X433244Y422756D01*
X434239Y424244D01*
X434588Y426000D01*
X434239Y427756D01*
X433244Y429244D01*
X431756Y430239D01*
X430000Y430588D01*
D02*
G37*
G36*
X571000Y439118D02*
X568659Y438652D01*
X566674Y437326D01*
X565348Y435341D01*
X564883Y433000D01*
X565348Y430659D01*
X566674Y428674D01*
X568659Y427348D01*
X571000Y426883D01*
X573341Y427348D01*
X575326Y428674D01*
X576652Y430659D01*
X577118Y433000D01*
X576652Y435341D01*
X575326Y437326D01*
X573341Y438652D01*
X571000Y439118D01*
D02*
G37*
G36*
X320000Y433117D02*
X317659Y432652D01*
X315674Y431326D01*
X314348Y429341D01*
X313883Y427000D01*
X314348Y424659D01*
X315674Y422674D01*
X317659Y421348D01*
X320000Y420882D01*
X322341Y421348D01*
X324326Y422674D01*
X325652Y424659D01*
X326118Y427000D01*
X325652Y429341D01*
X324326Y431326D01*
X322341Y432652D01*
X320000Y433117D01*
D02*
G37*
G36*
X299000D02*
X296659Y432652D01*
X294674Y431326D01*
X293348Y429341D01*
X292882Y427000D01*
X293348Y424659D01*
X294674Y422674D01*
X296659Y421348D01*
X299000Y420882D01*
X301341Y421348D01*
X303326Y422674D01*
X304652Y424659D01*
X305118Y427000D01*
X304652Y429341D01*
X303326Y431326D01*
X301341Y432652D01*
X299000Y433117D01*
D02*
G37*
G36*
X523750Y430867D02*
X521409Y430401D01*
X519424Y429075D01*
X518098Y427091D01*
X517632Y424750D01*
X518098Y422408D01*
X519424Y420424D01*
X521409Y419098D01*
X523750Y418632D01*
X526091Y419098D01*
X528075Y420424D01*
X529402Y422408D01*
X529867Y424750D01*
X529402Y427091D01*
X528075Y429075D01*
X526091Y430401D01*
X523750Y430867D01*
D02*
G37*
G36*
X507750D02*
X505409Y430401D01*
X503424Y429075D01*
X502098Y427091D01*
X501632Y424750D01*
X502098Y422408D01*
X503424Y420424D01*
X505409Y419098D01*
X507750Y418632D01*
X510091Y419098D01*
X512075Y420424D01*
X513401Y422408D01*
X513867Y424750D01*
X513401Y427091D01*
X512075Y429075D01*
X510091Y430401D01*
X507750Y430867D01*
D02*
G37*
G36*
X491750D02*
X489408Y430401D01*
X487424Y429075D01*
X486098Y427091D01*
X485632Y424750D01*
X486098Y422408D01*
X487424Y420424D01*
X489408Y419098D01*
X491750Y418632D01*
X494091Y419098D01*
X496075Y420424D01*
X497402Y422408D01*
X497867Y424750D01*
X497402Y427091D01*
X496075Y429075D01*
X494091Y430401D01*
X491750Y430867D01*
D02*
G37*
G36*
X475750D02*
X473409Y430401D01*
X471424Y429075D01*
X470098Y427091D01*
X469632Y424750D01*
X470098Y422408D01*
X471424Y420424D01*
X473409Y419098D01*
X475750Y418632D01*
X478091Y419098D01*
X480075Y420424D01*
X481401Y422408D01*
X481867Y424750D01*
X481401Y427091D01*
X480075Y429075D01*
X478091Y430401D01*
X475750Y430867D01*
D02*
G37*
G36*
X91750D02*
X89409Y430401D01*
X87424Y429075D01*
X86098Y427091D01*
X85632Y424750D01*
X86098Y422408D01*
X87424Y420424D01*
X89409Y419098D01*
X91750Y418632D01*
X94091Y419098D01*
X96075Y420424D01*
X97402Y422408D01*
X97867Y424750D01*
X97402Y427091D01*
X96075Y429075D01*
X94091Y430401D01*
X91750Y430867D01*
D02*
G37*
G36*
X401000Y427118D02*
X398659Y426652D01*
X396674Y425326D01*
X395348Y423341D01*
X394883Y421000D01*
X395348Y418659D01*
X396674Y416674D01*
X398659Y415348D01*
X401000Y414883D01*
X403341Y415348D01*
X405326Y416674D01*
X406652Y418659D01*
X407118Y421000D01*
X406652Y423341D01*
X405326Y425326D01*
X403341Y426652D01*
X401000Y427118D01*
D02*
G37*
G36*
X750000Y417118D02*
X747659Y416652D01*
X745674Y415326D01*
X744424Y413455D01*
X743750Y413395D01*
X743076Y413455D01*
X741826Y415326D01*
X739841Y416652D01*
X737500Y417118D01*
X735159Y416652D01*
X733174Y415326D01*
X731924Y413455D01*
X731250Y413395D01*
X730576Y413455D01*
X729326Y415326D01*
X727341Y416652D01*
X725000Y417118D01*
X722659Y416652D01*
X720674Y415326D01*
X719348Y413341D01*
X718883Y411000D01*
X719348Y408659D01*
X720674Y406674D01*
X722659Y405348D01*
X725000Y404883D01*
X727341Y405348D01*
X729326Y406674D01*
X730576Y408545D01*
X731250Y408605D01*
X731924Y408545D01*
X733174Y406674D01*
X735159Y405348D01*
X737500Y404883D01*
X739841Y405348D01*
X741826Y406674D01*
X743076Y408545D01*
X743750Y408605D01*
X744424Y408545D01*
X745674Y406674D01*
X747659Y405348D01*
X750000Y404883D01*
X752341Y405348D01*
X754326Y406674D01*
X755652Y408659D01*
X756117Y411000D01*
X755652Y413341D01*
X754326Y415326D01*
X752341Y416652D01*
X750000Y417118D01*
D02*
G37*
G36*
X380000Y425117D02*
X377659Y424652D01*
X375674Y423326D01*
X374348Y421341D01*
X373882Y419000D01*
X374348Y416659D01*
X375674Y414674D01*
X377659Y413348D01*
X380000Y412882D01*
X382341Y413348D01*
X384326Y414674D01*
X385652Y416659D01*
X386118Y419000D01*
X385652Y421341D01*
X384326Y423326D01*
X382341Y424652D01*
X380000Y425117D01*
D02*
G37*
G36*
X105000Y408117D02*
X102659Y407652D01*
X100798Y406408D01*
X100362Y406267D01*
X99638D01*
X99202Y406408D01*
X97341Y407652D01*
X95000Y408117D01*
X92659Y407652D01*
X90674Y406326D01*
X89348Y404341D01*
X88882Y402000D01*
X89348Y399659D01*
X89391Y399594D01*
X88892Y398056D01*
X87424Y397075D01*
X86098Y395091D01*
X85632Y392750D01*
X86098Y390409D01*
X87424Y388424D01*
X89409Y387098D01*
X91750Y386632D01*
X94091Y387098D01*
X96075Y388424D01*
X97402Y390409D01*
X97867Y392750D01*
X97402Y395091D01*
X97359Y395155D01*
X97858Y396694D01*
X99202Y397592D01*
X99638Y397733D01*
X100362D01*
X100798Y397592D01*
X102659Y396348D01*
X105000Y395882D01*
X107341Y396348D01*
X109326Y397674D01*
X110652Y399659D01*
X111117Y402000D01*
X110652Y404341D01*
X109326Y406326D01*
X107341Y407652D01*
X105000Y408117D01*
D02*
G37*
G36*
X463000Y416118D02*
X460659Y415652D01*
X458674Y414326D01*
X457348Y412341D01*
X456883Y410000D01*
X457348Y407659D01*
X458674Y405674D01*
X460659Y404348D01*
X463000Y403882D01*
X465341Y404348D01*
X467326Y405674D01*
X468652Y407659D01*
X469118Y410000D01*
X468652Y412341D01*
X467326Y414326D01*
X465341Y415652D01*
X463000Y416118D01*
D02*
G37*
G36*
X851749Y414867D02*
X849408Y414402D01*
X847424Y413075D01*
X846098Y411091D01*
X845632Y408750D01*
X846098Y406409D01*
X847424Y404424D01*
X849408Y403098D01*
X851749Y402632D01*
X854090Y403098D01*
X856075Y404424D01*
X857401Y406409D01*
X857867Y408750D01*
X857401Y411091D01*
X856075Y413075D01*
X854090Y414402D01*
X851749Y414867D01*
D02*
G37*
G36*
X515750D02*
X513409Y414402D01*
X511424Y413075D01*
X510098Y411091D01*
X509632Y408750D01*
X510098Y406409D01*
X511424Y404424D01*
X513409Y403098D01*
X515750Y402632D01*
X518091Y403098D01*
X520075Y404424D01*
X521401Y406409D01*
X521867Y408750D01*
X521401Y411091D01*
X520075Y413075D01*
X518091Y414402D01*
X515750Y414867D01*
D02*
G37*
G36*
X499750D02*
X497408Y414402D01*
X495424Y413075D01*
X494098Y411091D01*
X493632Y408750D01*
X494098Y406409D01*
X495424Y404424D01*
X497408Y403098D01*
X499750Y402632D01*
X502091Y403098D01*
X504075Y404424D01*
X505401Y406409D01*
X505867Y408750D01*
X505401Y411091D01*
X504075Y413075D01*
X502091Y414402D01*
X499750Y414867D01*
D02*
G37*
G36*
X299000Y413117D02*
X296658Y412651D01*
X294674Y411325D01*
X293348Y409340D01*
X292882Y406999D01*
X293348Y404658D01*
X294674Y402673D01*
X296658Y401347D01*
X299000Y400882D01*
X301341Y401347D01*
X303325Y402673D01*
X304651Y404658D01*
X305117Y406999D01*
X304651Y409340D01*
X303325Y411325D01*
X301341Y412651D01*
X299000Y413117D01*
D02*
G37*
G36*
X325500Y402118D02*
X323159Y401652D01*
X321298Y400408D01*
X320862Y400267D01*
X320138D01*
X319702Y400408D01*
X317841Y401652D01*
X315500Y402118D01*
X313159Y401652D01*
X311174Y400326D01*
X309848Y398341D01*
X309382Y396000D01*
X309848Y393659D01*
X311174Y391674D01*
X313159Y390348D01*
X315500Y389883D01*
X317841Y390348D01*
X319702Y391592D01*
X320138Y391733D01*
X320862D01*
X321298Y391592D01*
X323159Y390348D01*
X325500Y389883D01*
X327841Y390348D01*
X329826Y391674D01*
X331152Y393659D01*
X331618Y396000D01*
X331152Y398341D01*
X329826Y400326D01*
X327841Y401652D01*
X325500Y402118D01*
D02*
G37*
G36*
X667000D02*
X664659Y401652D01*
X662674Y400326D01*
X661733Y398918D01*
X660266D01*
X659326Y400326D01*
X657341Y401652D01*
X655000Y402118D01*
X652659Y401652D01*
X650674Y400326D01*
X649348Y398341D01*
X648883Y396000D01*
X649348Y393659D01*
X650592Y391798D01*
X650733Y391362D01*
Y390638D01*
X650592Y390202D01*
X649348Y388341D01*
X648883Y386000D01*
X649348Y383659D01*
X650674Y381674D01*
X652659Y380348D01*
X655000Y379883D01*
X657341Y380348D01*
X659326Y381674D01*
X660266Y383082D01*
X661733D01*
X662674Y381674D01*
X664659Y380348D01*
X667000Y379883D01*
X669341Y380348D01*
X671326Y381674D01*
X672652Y383659D01*
X673118Y386000D01*
X672652Y388341D01*
X671408Y390202D01*
X671267Y390638D01*
Y391362D01*
X671408Y391798D01*
X672652Y393659D01*
X673118Y396000D01*
X672652Y398341D01*
X671326Y400326D01*
X669341Y401652D01*
X667000Y402118D01*
D02*
G37*
G36*
X254000Y409118D02*
X251659Y408652D01*
X249674Y407326D01*
X248348Y405341D01*
X247882Y403000D01*
X248348Y400659D01*
X249674Y398674D01*
X251659Y397348D01*
X254000Y396883D01*
X256341Y397348D01*
X258326Y398674D01*
X259652Y400659D01*
X260117Y403000D01*
X259652Y405341D01*
X258326Y407326D01*
X256341Y408652D01*
X254000Y409118D01*
D02*
G37*
G36*
X680000Y408618D02*
X677659Y408152D01*
X675674Y406826D01*
X674348Y404841D01*
X673883Y402500D01*
X674348Y400159D01*
X675674Y398174D01*
X677659Y396848D01*
X680000Y396382D01*
X682341Y396848D01*
X684326Y398174D01*
X685652Y400159D01*
X686118Y402500D01*
X685652Y404841D01*
X684326Y406826D01*
X682341Y408152D01*
X680000Y408618D01*
D02*
G37*
G36*
X550000Y404118D02*
X547659Y403652D01*
X545674Y402326D01*
X544348Y400341D01*
X543882Y398000D01*
X544156Y396624D01*
X542960Y396129D01*
X541826Y397826D01*
X539841Y399152D01*
X537500Y399618D01*
X535159Y399152D01*
X533174Y397826D01*
X532635Y397019D01*
X531365D01*
X530826Y397826D01*
X528841Y399152D01*
X526500Y399618D01*
X524159Y399152D01*
X522174Y397826D01*
X521001Y396069D01*
X520061Y396085D01*
X519679Y396204D01*
X519652Y396341D01*
X518326Y398326D01*
X516341Y399652D01*
X514000Y400117D01*
X511659Y399652D01*
X509674Y398326D01*
X508348Y396341D01*
X507882Y394000D01*
X508348Y391659D01*
X509674Y389674D01*
X511659Y388348D01*
X514000Y387882D01*
X516341Y388348D01*
X518326Y389674D01*
X519499Y391431D01*
X520439Y391415D01*
X520821Y391296D01*
X520848Y391159D01*
X522174Y389174D01*
X524159Y387848D01*
X526500Y387383D01*
X528841Y387848D01*
X530826Y389174D01*
X531365Y389981D01*
X532635D01*
X533174Y389174D01*
X535159Y387848D01*
X537500Y387383D01*
X539841Y387848D01*
X541826Y389174D01*
X543152Y391159D01*
X543618Y393500D01*
X543344Y394876D01*
X544540Y395371D01*
X545674Y393674D01*
X547659Y392348D01*
X550000Y391883D01*
X552341Y392348D01*
X554326Y393674D01*
X555652Y395659D01*
X556118Y398000D01*
X555652Y400341D01*
X554326Y402326D01*
X552341Y403652D01*
X550000Y404118D01*
D02*
G37*
G36*
X427000Y395117D02*
X424659Y394652D01*
X422674Y393326D01*
X422135Y392519D01*
X420865D01*
X420326Y393326D01*
X418341Y394652D01*
X416000Y395117D01*
X413659Y394652D01*
X411674Y393326D01*
X410348Y391341D01*
X409883Y389000D01*
X410348Y386659D01*
X411592Y384798D01*
X411733Y384362D01*
Y383638D01*
X411592Y383202D01*
X410348Y381341D01*
X409883Y379000D01*
X410348Y376659D01*
X411674Y374674D01*
X413659Y373348D01*
X416000Y372882D01*
X418341Y373348D01*
X420326Y374674D01*
X421652Y376659D01*
X422118Y379000D01*
X421652Y381341D01*
X420408Y383202D01*
X420267Y383638D01*
Y384362D01*
X420408Y384798D01*
X420865Y385481D01*
X422135D01*
X422674Y384674D01*
X424659Y383348D01*
X427000Y382882D01*
X429341Y383348D01*
X431326Y384674D01*
X432652Y386659D01*
X433117Y389000D01*
X432652Y391341D01*
X431326Y393326D01*
X429341Y394652D01*
X427000Y395117D01*
D02*
G37*
G36*
X156000Y404118D02*
X153659Y403652D01*
X151674Y402326D01*
X150348Y400341D01*
X149882Y398000D01*
X150348Y395659D01*
X151674Y393674D01*
X153659Y392348D01*
X156000Y391883D01*
X158341Y392348D01*
X160326Y393674D01*
X161652Y395659D01*
X162118Y398000D01*
X161652Y400341D01*
X160326Y402326D01*
X158341Y403652D01*
X156000Y404118D01*
D02*
G37*
G36*
X178000Y403117D02*
X175659Y402652D01*
X173674Y401326D01*
X172348Y399341D01*
X171882Y397000D01*
X172348Y394659D01*
X173674Y392674D01*
X175659Y391348D01*
X178000Y390882D01*
X180341Y391348D01*
X182326Y392674D01*
X183652Y394659D01*
X184118Y397000D01*
X183652Y399341D01*
X182326Y401326D01*
X180341Y402652D01*
X178000Y403117D01*
D02*
G37*
G36*
X487000Y391118D02*
X484659Y390652D01*
X482798Y389408D01*
X482362Y389267D01*
X481638D01*
X481202Y389408D01*
X479341Y390652D01*
X477000Y391118D01*
X474659Y390652D01*
X472674Y389326D01*
X471348Y387341D01*
X470882Y385000D01*
X471348Y382659D01*
X472674Y380674D01*
X474659Y379348D01*
X477000Y378882D01*
X479341Y379348D01*
X481202Y380592D01*
X481638Y380733D01*
X482362D01*
X482798Y380592D01*
X484659Y379348D01*
X487000Y378882D01*
X489341Y379348D01*
X491326Y380674D01*
X492652Y382659D01*
X493117Y385000D01*
X492652Y387341D01*
X491326Y389326D01*
X489341Y390652D01*
X487000Y391118D01*
D02*
G37*
G36*
X443750Y398867D02*
X441409Y398401D01*
X439424Y397075D01*
X438098Y395091D01*
X437632Y392750D01*
X438098Y390409D01*
X439424Y388424D01*
X441409Y387098D01*
X443750Y386632D01*
X446091Y387098D01*
X448075Y388424D01*
X449402Y390409D01*
X449867Y392750D01*
X449402Y395091D01*
X448075Y397075D01*
X446091Y398401D01*
X443750Y398867D01*
D02*
G37*
G36*
X379750D02*
X377408Y398401D01*
X375424Y397075D01*
X374098Y395091D01*
X373632Y392750D01*
X374098Y390409D01*
X375424Y388424D01*
X377408Y387098D01*
X379750Y386632D01*
X382091Y387098D01*
X384075Y388424D01*
X385401Y390409D01*
X385867Y392750D01*
X385401Y395091D01*
X384075Y397075D01*
X382091Y398401D01*
X379750Y398867D01*
D02*
G37*
G36*
X183000Y385117D02*
X180659Y384652D01*
X179489Y383870D01*
X178500Y383407D01*
X177511Y383870D01*
X176341Y384652D01*
X174000Y385117D01*
X171659Y384652D01*
X169674Y383326D01*
X168348Y381341D01*
X167882Y379000D01*
X168348Y376659D01*
X169674Y374674D01*
X171659Y373348D01*
X174000Y372882D01*
X176341Y373348D01*
X177511Y374130D01*
X178500Y374593D01*
X179489Y374130D01*
X180659Y373348D01*
X183000Y372882D01*
X185341Y373348D01*
X187326Y374674D01*
X188652Y376659D01*
X189118Y379000D01*
X188652Y381341D01*
X187326Y383326D01*
X185341Y384652D01*
X183000Y385117D01*
D02*
G37*
G36*
X612000Y384118D02*
X609659Y383652D01*
X608489Y382870D01*
X607500Y382407D01*
X606511Y382870D01*
X605341Y383652D01*
X603000Y384118D01*
X600659Y383652D01*
X598674Y382326D01*
X597348Y380341D01*
X596882Y378000D01*
X597348Y375659D01*
X598674Y373674D01*
X600659Y372348D01*
X603000Y371883D01*
X605341Y372348D01*
X606511Y373130D01*
X607500Y373593D01*
X608489Y373130D01*
X609659Y372348D01*
X612000Y371883D01*
X614341Y372348D01*
X616326Y373674D01*
X617652Y375659D01*
X618117Y378000D01*
X617652Y380341D01*
X616326Y382326D01*
X614341Y383652D01*
X612000Y384118D01*
D02*
G37*
G36*
X726000Y383117D02*
X723659Y382652D01*
X721674Y381326D01*
X720576D01*
X718591Y382652D01*
X716250Y383117D01*
X713909Y382652D01*
X711924Y381326D01*
X710826D01*
X708841Y382652D01*
X706500Y383117D01*
X704159Y382652D01*
X702174Y381326D01*
X701076D01*
X699091Y382652D01*
X696750Y383117D01*
X694409Y382652D01*
X692424Y381326D01*
X691326D01*
X689341Y382652D01*
X687000Y383117D01*
X684659Y382652D01*
X682674Y381326D01*
X681348Y379341D01*
X680882Y377000D01*
X681348Y374659D01*
X682674Y372674D01*
X684659Y371348D01*
X687000Y370882D01*
X689341Y371348D01*
X691326Y372674D01*
X692424D01*
X694409Y371348D01*
X696750Y370882D01*
X699091Y371348D01*
X701076Y372674D01*
X702174D01*
X704159Y371348D01*
X706500Y370882D01*
X708841Y371348D01*
X710826Y372674D01*
X711924D01*
X713909Y371348D01*
X716250Y370882D01*
X718591Y371348D01*
X720576Y372674D01*
X721674D01*
X723659Y371348D01*
X726000Y370882D01*
X728341Y371348D01*
X730326Y372674D01*
X731652Y374659D01*
X732117Y377000D01*
X731652Y379341D01*
X730326Y381326D01*
X728341Y382652D01*
X726000Y383117D01*
D02*
G37*
G36*
X124000Y392118D02*
X121659Y391652D01*
X119674Y390326D01*
X118348Y388341D01*
X117882Y386000D01*
X118348Y383659D01*
X119674Y381674D01*
X121659Y380348D01*
X124000Y379883D01*
X126341Y380348D01*
X128326Y381674D01*
X129652Y383659D01*
X130118Y386000D01*
X129652Y388341D01*
X128326Y390326D01*
X126341Y391652D01*
X124000Y392118D01*
D02*
G37*
G36*
X380000Y382118D02*
X377659Y381652D01*
X375674Y380326D01*
X375135Y379519D01*
X373865D01*
X373326Y380326D01*
X371341Y381652D01*
X369000Y382118D01*
X366659Y381652D01*
X364674Y380326D01*
X363348Y378341D01*
X362882Y376000D01*
X363348Y373659D01*
X364674Y371674D01*
X366659Y370348D01*
X369000Y369883D01*
X371341Y370348D01*
X373326Y371674D01*
X373865Y372481D01*
X375135D01*
X375674Y371674D01*
X377659Y370348D01*
X380000Y369883D01*
X382341Y370348D01*
X384326Y371674D01*
X385652Y373659D01*
X386118Y376000D01*
X385652Y378341D01*
X384326Y380326D01*
X382341Y381652D01*
X380000Y382118D01*
D02*
G37*
G36*
X252999Y390117D02*
X250658Y389651D01*
X248674Y388325D01*
X247348Y386340D01*
X246882Y383999D01*
X247348Y381658D01*
X248674Y379674D01*
X250658Y378347D01*
X252999Y377882D01*
X255341Y378347D01*
X257325Y379674D01*
X258651Y381658D01*
X259117Y383999D01*
X258651Y386340D01*
X257325Y388325D01*
X255341Y389651D01*
X252999Y390117D01*
D02*
G37*
G36*
X223000Y383117D02*
X220659Y382652D01*
X218674Y381326D01*
X217348Y379341D01*
X216882Y377000D01*
X217348Y374659D01*
X218674Y372674D01*
X220659Y371348D01*
X223000Y370882D01*
X225341Y371348D01*
X227326Y372674D01*
X228652Y374659D01*
X229118Y377000D01*
X228652Y379341D01*
X227326Y381326D01*
X225341Y382652D01*
X223000Y383117D01*
D02*
G37*
G36*
X515750Y382867D02*
X513409Y382402D01*
X511424Y381075D01*
X510098Y379091D01*
X509632Y376750D01*
X510098Y374408D01*
X511424Y372424D01*
X513409Y371098D01*
X515750Y370632D01*
X518091Y371098D01*
X520075Y372424D01*
X521401Y374408D01*
X521867Y376750D01*
X521401Y379091D01*
X520075Y381075D01*
X518091Y382402D01*
X515750Y382867D01*
D02*
G37*
G36*
X147750D02*
X145409Y382402D01*
X143424Y381075D01*
X142098Y379091D01*
X141632Y376750D01*
X142098Y374408D01*
X143424Y372424D01*
X145409Y371098D01*
X147750Y370632D01*
X150091Y371098D01*
X152076Y372424D01*
X153402Y374408D01*
X153867Y376750D01*
X153402Y379091D01*
X152076Y381075D01*
X150091Y382402D01*
X147750Y382867D01*
D02*
G37*
G36*
X99750D02*
X97409Y382402D01*
X95424Y381075D01*
X94098Y379091D01*
X93632Y376750D01*
X94098Y374408D01*
X95424Y372424D01*
X97409Y371098D01*
X99750Y370632D01*
X102091Y371098D01*
X104075Y372424D01*
X105402Y374408D01*
X105867Y376750D01*
X105402Y379091D01*
X104075Y381075D01*
X102091Y382402D01*
X99750Y382867D01*
D02*
G37*
G36*
X540000Y381118D02*
X537659Y380652D01*
X535674Y379326D01*
X534348Y377341D01*
X533882Y375000D01*
X534348Y372659D01*
X535674Y370674D01*
X537659Y369348D01*
X540000Y368882D01*
X542341Y369348D01*
X544326Y370674D01*
X545652Y372659D01*
X546118Y375000D01*
X545652Y377341D01*
X544326Y379326D01*
X542341Y380652D01*
X540000Y381118D01*
D02*
G37*
G36*
X398000Y391118D02*
X395659Y390652D01*
X393674Y389326D01*
X392348Y387341D01*
X391883Y385000D01*
X392348Y382659D01*
X393674Y380674D01*
X394481Y380135D01*
Y378865D01*
X393674Y378326D01*
X392348Y376341D01*
X391883Y374000D01*
X392348Y371659D01*
X393674Y369674D01*
X395659Y368348D01*
X398000Y367882D01*
X400341Y368348D01*
X402326Y369674D01*
X403652Y371659D01*
X404118Y374000D01*
X403652Y376341D01*
X402326Y378326D01*
X401519Y378865D01*
Y380135D01*
X402326Y380674D01*
X403652Y382659D01*
X404118Y385000D01*
X403652Y387341D01*
X402326Y389326D01*
X400341Y390652D01*
X398000Y391118D01*
D02*
G37*
G36*
X505250Y372368D02*
X502909Y371902D01*
X500924Y370576D01*
X499598Y368591D01*
X499132Y366250D01*
X499598Y363909D01*
X500924Y361924D01*
X502909Y360598D01*
X505250Y360132D01*
X507591Y360598D01*
X509576Y361924D01*
X510902Y363909D01*
X511367Y366250D01*
X510902Y368591D01*
X509576Y370576D01*
X507591Y371902D01*
X505250Y372368D01*
D02*
G37*
G36*
X59750Y366867D02*
X57409Y366401D01*
X55424Y365075D01*
X54098Y363091D01*
X53632Y360750D01*
X54098Y358409D01*
X55056Y356975D01*
X54214Y355949D01*
X53524Y356235D01*
X50036Y357072D01*
X49411Y358388D01*
X49422Y358508D01*
X49867Y360750D01*
X49402Y363091D01*
X48075Y365075D01*
X46091Y366401D01*
X43750Y366867D01*
X41409Y366401D01*
X39424Y365075D01*
X38098Y363091D01*
X37632Y360750D01*
X38098Y358409D01*
X38508Y357794D01*
X38045Y356612D01*
X36476Y356235D01*
X32477Y354578D01*
X28786Y352317D01*
X25494Y349506D01*
X22683Y346214D01*
X20422Y342523D01*
X18765Y338524D01*
X17755Y334315D01*
X17415Y330000D01*
X17755Y325685D01*
X18765Y321476D01*
X20422Y317477D01*
X22683Y313786D01*
X25494Y310494D01*
X28786Y307683D01*
X32477Y305422D01*
X36476Y303765D01*
X39924Y302937D01*
X40168Y301572D01*
X39424Y301075D01*
X38098Y299091D01*
X37632Y296750D01*
X38098Y294409D01*
X39424Y292424D01*
X41409Y291098D01*
X43750Y290632D01*
X46091Y291098D01*
X48075Y292424D01*
X49402Y294409D01*
X49867Y296750D01*
X49402Y299091D01*
X48075Y301075D01*
X47664Y301351D01*
X48003Y302651D01*
X49315Y302755D01*
X53524Y303765D01*
X57523Y305422D01*
X61214Y307683D01*
X64506Y310494D01*
X67317Y313786D01*
X69578Y317477D01*
X71235Y321476D01*
X71612Y323045D01*
X72794Y323508D01*
X73409Y323098D01*
X75750Y322632D01*
X78091Y323098D01*
X80076Y324424D01*
X81402Y326409D01*
X81867Y328750D01*
X81402Y331091D01*
X80076Y333075D01*
X78091Y334402D01*
X75750Y334867D01*
X73508Y334421D01*
X73388Y334411D01*
X72072Y335036D01*
X71235Y338524D01*
X69578Y342523D01*
X67317Y346214D01*
X64506Y349506D01*
X61214Y352317D01*
X59452Y353396D01*
X59691Y354390D01*
X59838Y354650D01*
X62091Y355098D01*
X64075Y356424D01*
X65402Y358409D01*
X65867Y360750D01*
X65402Y363091D01*
X64075Y365075D01*
X62091Y366401D01*
X59750Y366867D01*
D02*
G37*
G36*
X955749D02*
X953408Y366401D01*
X951424Y365075D01*
X950098Y363091D01*
X949632Y360750D01*
X950098Y358409D01*
X951424Y356424D01*
X953408Y355098D01*
X955749Y354632D01*
X958091Y355098D01*
X960075Y356424D01*
X961401Y358409D01*
X961867Y360750D01*
X961401Y363091D01*
X960075Y365075D01*
X958091Y366401D01*
X955749Y366867D01*
D02*
G37*
G36*
X203750D02*
X201409Y366401D01*
X199424Y365075D01*
X198098Y363091D01*
X197632Y360750D01*
X198098Y358409D01*
X199424Y356424D01*
X201409Y355098D01*
X203750Y354632D01*
X206091Y355098D01*
X208076Y356424D01*
X209402Y358409D01*
X209867Y360750D01*
X209402Y363091D01*
X208076Y365075D01*
X206091Y366401D01*
X203750Y366867D01*
D02*
G37*
G36*
X123750D02*
X121409Y366401D01*
X119424Y365075D01*
X118098Y363091D01*
X117632Y360750D01*
X118098Y358409D01*
X119424Y356424D01*
X121409Y355098D01*
X123750Y354632D01*
X126091Y355098D01*
X128076Y356424D01*
X129402Y358409D01*
X129867Y360750D01*
X129402Y363091D01*
X128076Y365075D01*
X126091Y366401D01*
X123750Y366867D01*
D02*
G37*
G36*
X91750D02*
X89409Y366401D01*
X87424Y365075D01*
X86098Y363091D01*
X85632Y360750D01*
X86098Y358409D01*
X87424Y356424D01*
X89409Y355098D01*
X91750Y354632D01*
X94091Y355098D01*
X96075Y356424D01*
X97402Y358409D01*
X97867Y360750D01*
X97402Y363091D01*
X96075Y365075D01*
X94091Y366401D01*
X91750Y366867D01*
D02*
G37*
G36*
X75750D02*
X73409Y366401D01*
X71424Y365075D01*
X70098Y363091D01*
X69632Y360750D01*
X70098Y358409D01*
X71424Y356424D01*
X73409Y355098D01*
X75750Y354632D01*
X78091Y355098D01*
X80076Y356424D01*
X81402Y358409D01*
X81867Y360750D01*
X81402Y363091D01*
X80076Y365075D01*
X78091Y366401D01*
X75750Y366867D01*
D02*
G37*
G36*
X27750D02*
X25409Y366401D01*
X23424Y365075D01*
X22098Y363091D01*
X21632Y360750D01*
X22098Y358409D01*
X23424Y356424D01*
X25409Y355098D01*
X27750Y354632D01*
X30091Y355098D01*
X32076Y356424D01*
X33402Y358409D01*
X33867Y360750D01*
X33402Y363091D01*
X32076Y365075D01*
X30091Y366401D01*
X27750Y366867D01*
D02*
G37*
G36*
X755000Y376118D02*
X752659Y375652D01*
X750674Y374326D01*
X749348Y372341D01*
X748882Y370000D01*
X749348Y367659D01*
X750592Y365798D01*
X750733Y365362D01*
Y364638D01*
X750592Y364202D01*
X749348Y362341D01*
X748882Y360000D01*
X749348Y357659D01*
X750592Y355798D01*
X750683Y355517D01*
X750516Y355145D01*
X749855Y354484D01*
X749483Y354318D01*
X749202Y354408D01*
X747341Y355652D01*
X745000Y356118D01*
X742659Y355652D01*
X740798Y354408D01*
X740362Y354267D01*
X739638D01*
X739202Y354408D01*
X737341Y355652D01*
X735000Y356118D01*
X732659Y355652D01*
X730674Y354326D01*
X729348Y352341D01*
X728883Y350000D01*
X729348Y347659D01*
X730674Y345674D01*
X732659Y344348D01*
X735000Y343882D01*
X737341Y344348D01*
X739202Y345592D01*
X739638Y345733D01*
X740362D01*
X740798Y345592D01*
X742659Y344348D01*
X745000Y343882D01*
X747341Y344348D01*
X749326Y345674D01*
X749365Y345733D01*
X750635D01*
X750674Y345674D01*
X752659Y344348D01*
X755000Y343882D01*
X757341Y344348D01*
X759326Y345674D01*
X760652Y347659D01*
X761117Y350000D01*
X760652Y352341D01*
X759408Y354202D01*
X759267Y354638D01*
Y355362D01*
X759408Y355798D01*
X760652Y357659D01*
X761117Y360000D01*
X760652Y362341D01*
X759408Y364202D01*
X759267Y364638D01*
Y365362D01*
X759408Y365798D01*
X760652Y367659D01*
X761117Y370000D01*
X760652Y372341D01*
X759326Y374326D01*
X757341Y375652D01*
X755000Y376118D01*
D02*
G37*
G36*
X534000Y355117D02*
X531659Y354652D01*
X529798Y353408D01*
X529362Y353267D01*
X528638D01*
X528202Y353408D01*
X526341Y354652D01*
X524000Y355117D01*
X521659Y354652D01*
X519674Y353326D01*
X518348Y351341D01*
X517882Y349000D01*
X518348Y346659D01*
X519674Y344674D01*
X521659Y343348D01*
X524000Y342882D01*
X526341Y343348D01*
X528326Y344674D01*
X528365Y344733D01*
X529635D01*
X529674Y344674D01*
X531659Y343348D01*
X534000Y342882D01*
X536341Y343348D01*
X538326Y344674D01*
X539652Y346659D01*
X540118Y349000D01*
X539652Y351341D01*
X538326Y353326D01*
X536341Y354652D01*
X534000Y355117D01*
D02*
G37*
G36*
X932000Y365235D02*
X929659Y364769D01*
X927674Y363443D01*
X926348Y361459D01*
X925882Y359118D01*
X926348Y356777D01*
X927674Y354792D01*
X929659Y353466D01*
X932000Y353000D01*
X934341Y353466D01*
X936326Y354792D01*
X937652Y356777D01*
X938118Y359118D01*
X937652Y361459D01*
X936326Y363443D01*
X934341Y364769D01*
X932000Y365235D01*
D02*
G37*
G36*
X902000D02*
X899659Y364769D01*
X897674Y363443D01*
X896348Y361459D01*
X895882Y359118D01*
X896348Y356777D01*
X897674Y354792D01*
X899659Y353466D01*
X902000Y353000D01*
X904341Y353466D01*
X906326Y354792D01*
X907652Y356777D01*
X908118Y359118D01*
X907652Y361459D01*
X906326Y363443D01*
X904341Y364769D01*
X902000Y365235D01*
D02*
G37*
G36*
X784000Y353117D02*
X781659Y352652D01*
X779674Y351326D01*
X779135Y350519D01*
X777865D01*
X777326Y351326D01*
X775341Y352652D01*
X773000Y353117D01*
X770659Y352652D01*
X768674Y351326D01*
X767348Y349341D01*
X766882Y347000D01*
X767348Y344659D01*
X768674Y342674D01*
X770659Y341348D01*
X773000Y340882D01*
X775341Y341348D01*
X777326Y342674D01*
X777865Y343481D01*
X779135D01*
X779674Y342674D01*
X781659Y341348D01*
X784000Y340882D01*
X786341Y341348D01*
X788326Y342674D01*
X789652Y344659D01*
X790117Y347000D01*
X789652Y349341D01*
X788326Y351326D01*
X786341Y352652D01*
X784000Y353117D01*
D02*
G37*
G36*
X263000Y357118D02*
X260659Y356652D01*
X258674Y355326D01*
X257348Y353341D01*
X256882Y351000D01*
X257082Y349998D01*
X256002Y348918D01*
X255000Y349118D01*
X252659Y348652D01*
X250674Y347326D01*
X249348Y345341D01*
X248883Y343000D01*
X249348Y340659D01*
X250674Y338674D01*
X252659Y337348D01*
X255000Y336883D01*
X257341Y337348D01*
X259326Y338674D01*
X260652Y340659D01*
X261117Y343000D01*
X260918Y344002D01*
X261998Y345082D01*
X263000Y344883D01*
X265341Y345348D01*
X267326Y346674D01*
X268652Y348659D01*
X269118Y351000D01*
X268652Y353341D01*
X267326Y355326D01*
X265341Y356652D01*
X263000Y357118D01*
D02*
G37*
G36*
X579750Y350867D02*
X577408Y350401D01*
X575424Y349075D01*
X574098Y347091D01*
X572701Y346577D01*
X571841Y347152D01*
X569500Y347617D01*
X567159Y347152D01*
X565298Y345908D01*
X564862Y345767D01*
X564138D01*
X563702Y345908D01*
X561841Y347152D01*
X559500Y347617D01*
X557159Y347152D01*
X555174Y345826D01*
X553848Y343841D01*
X553382Y341500D01*
X553848Y339159D01*
X554630Y337989D01*
X555093Y337000D01*
X554630Y336011D01*
X553848Y334841D01*
X553382Y332500D01*
X553848Y330159D01*
X555174Y328174D01*
X557159Y326848D01*
X559500Y326382D01*
X561841Y326848D01*
X563702Y328092D01*
X564138Y328233D01*
X564862D01*
X565298Y328092D01*
X567159Y326848D01*
X569500Y326382D01*
X571841Y326848D01*
X573826Y328174D01*
X575152Y330159D01*
X575617Y332500D01*
X575152Y334841D01*
X574370Y336011D01*
X573907Y337000D01*
X574370Y337989D01*
X575152Y339159D01*
X576549Y339672D01*
X577408Y339098D01*
X579750Y338632D01*
X582091Y339098D01*
X584075Y340424D01*
X585401Y342408D01*
X585867Y344750D01*
X585401Y347091D01*
X584075Y349075D01*
X582091Y350401D01*
X579750Y350867D01*
D02*
G37*
G36*
X719000Y369118D02*
X716659Y368652D01*
X714674Y367326D01*
X713348Y365341D01*
X712883Y363000D01*
X713348Y360659D01*
X714674Y358674D01*
X715481Y358135D01*
Y356865D01*
X714674Y356326D01*
X713348Y354341D01*
X712883Y352000D01*
X713348Y349659D01*
X714674Y347674D01*
X716659Y346348D01*
X719000Y345882D01*
X721341Y346348D01*
X723326Y347674D01*
X724652Y349659D01*
X725117Y352000D01*
X724652Y354341D01*
X723326Y356326D01*
X722519Y356865D01*
Y358135D01*
X723326Y358674D01*
X724652Y360659D01*
X725117Y363000D01*
X724652Y365341D01*
X723326Y367326D01*
X721341Y368652D01*
X719000Y369118D01*
D02*
G37*
G36*
X699000D02*
X696659Y368652D01*
X694674Y367326D01*
X693348Y365341D01*
X692883Y363000D01*
X693348Y360659D01*
X694674Y358674D01*
X695481Y358135D01*
Y356865D01*
X694674Y356326D01*
X693348Y354341D01*
X692883Y352000D01*
X693348Y349659D01*
X694674Y347674D01*
X696659Y346348D01*
X699000Y345882D01*
X701341Y346348D01*
X703326Y347674D01*
X704652Y349659D01*
X705117Y352000D01*
X704652Y354341D01*
X703326Y356326D01*
X702519Y356865D01*
Y358135D01*
X703326Y358674D01*
X704652Y360659D01*
X705117Y363000D01*
X704652Y365341D01*
X703326Y367326D01*
X701341Y368652D01*
X699000Y369118D01*
D02*
G37*
G36*
X279000Y357118D02*
X276659Y356652D01*
X274674Y355326D01*
X273348Y353341D01*
X272882Y351000D01*
X273348Y348659D01*
X274674Y346674D01*
X276659Y345348D01*
X279000Y344883D01*
X281341Y345348D01*
X283326Y346674D01*
X284652Y348659D01*
X285118Y351000D01*
X284652Y353341D01*
X283326Y355326D01*
X281341Y356652D01*
X279000Y357118D01*
D02*
G37*
G36*
X510000Y355117D02*
X507659Y354652D01*
X505674Y353326D01*
X504348Y351341D01*
X503882Y349000D01*
X504348Y346659D01*
X505674Y344674D01*
X507659Y343348D01*
X510000Y342882D01*
X512341Y343348D01*
X514326Y344674D01*
X515652Y346659D01*
X516118Y349000D01*
X515652Y351341D01*
X514326Y353326D01*
X512341Y354652D01*
X510000Y355117D01*
D02*
G37*
G36*
X178000Y365117D02*
X175659Y364652D01*
X173674Y363326D01*
X172348Y361341D01*
X171882Y359000D01*
X172348Y356659D01*
X173674Y354674D01*
X174512Y354114D01*
Y352844D01*
X174040Y352529D01*
X172714Y350544D01*
X172248Y348203D01*
X172714Y345862D01*
X174040Y343877D01*
X176025Y342551D01*
X178366Y342085D01*
X180707Y342551D01*
X182691Y343877D01*
X184018Y345862D01*
X184483Y348203D01*
X184018Y350544D01*
X182691Y352529D01*
X181854Y353089D01*
Y354359D01*
X182326Y354674D01*
X183652Y356659D01*
X184118Y359000D01*
X183652Y361341D01*
X182326Y363326D01*
X180341Y364652D01*
X178000Y365117D01*
D02*
G37*
G36*
X462500Y387868D02*
X460159Y387402D01*
X458174Y386076D01*
X456848Y384091D01*
X456382Y381750D01*
X456848Y379409D01*
X458174Y377424D01*
X459582Y376483D01*
Y375017D01*
X458174Y374076D01*
X456848Y372091D01*
X456382Y369750D01*
X456848Y367409D01*
X458174Y365424D01*
X458981Y364885D01*
Y363615D01*
X458174Y363076D01*
X456848Y361091D01*
X456382Y358750D01*
X456848Y356409D01*
X458174Y354424D01*
X458981Y353885D01*
Y352615D01*
X458174Y352076D01*
X456848Y350091D01*
X456382Y347750D01*
X456848Y345409D01*
X458174Y343424D01*
X460159Y342098D01*
X462500Y341632D01*
X464841Y342098D01*
X466826Y343424D01*
X468152Y345409D01*
X468618Y347750D01*
X468152Y350091D01*
X466826Y352076D01*
X466019Y352615D01*
Y353885D01*
X466826Y354424D01*
X468152Y356409D01*
X468618Y358750D01*
X468152Y361091D01*
X466826Y363076D01*
X466019Y363615D01*
Y364885D01*
X466826Y365424D01*
X468152Y367409D01*
X468618Y369750D01*
X468152Y372091D01*
X466826Y374076D01*
X465418Y375017D01*
Y376483D01*
X466826Y377424D01*
X468152Y379409D01*
X468618Y381750D01*
X468152Y384091D01*
X466826Y386076D01*
X464841Y387402D01*
X462500Y387868D01*
D02*
G37*
G36*
X329999Y353117D02*
X327658Y352651D01*
X325674Y351325D01*
X324347Y349340D01*
X323882Y346999D01*
X324347Y344658D01*
X325674Y342674D01*
X327658Y341347D01*
X329999Y340882D01*
X332340Y341347D01*
X334325Y342674D01*
X335651Y344658D01*
X336117Y346999D01*
X335651Y349340D01*
X334325Y351325D01*
X332340Y352651D01*
X329999Y353117D01*
D02*
G37*
G36*
X963749Y350867D02*
X961408Y350401D01*
X959424Y349075D01*
X958098Y347091D01*
X957632Y344750D01*
X958098Y342408D01*
X959424Y340424D01*
X961408Y339098D01*
X963749Y338632D01*
X966090Y339098D01*
X968075Y340424D01*
X969401Y342408D01*
X969867Y344750D01*
X969401Y347091D01*
X968075Y349075D01*
X966090Y350401D01*
X963749Y350867D01*
D02*
G37*
G36*
X147750D02*
X145409Y350401D01*
X143424Y349075D01*
X142098Y347091D01*
X141632Y344750D01*
X142098Y342408D01*
X143424Y340424D01*
X145409Y339098D01*
X147750Y338632D01*
X150091Y339098D01*
X152076Y340424D01*
X153402Y342408D01*
X153867Y344750D01*
X153402Y347091D01*
X152076Y349075D01*
X150091Y350401D01*
X147750Y350867D01*
D02*
G37*
G36*
X99750D02*
X97409Y350401D01*
X95424Y349075D01*
X94098Y347091D01*
X93632Y344750D01*
X94098Y342408D01*
X95424Y340424D01*
X97409Y339098D01*
X99750Y338632D01*
X102091Y339098D01*
X104075Y340424D01*
X105402Y342408D01*
X105867Y344750D01*
X105402Y347091D01*
X104075Y349075D01*
X102091Y350401D01*
X99750Y350867D01*
D02*
G37*
G36*
X83750D02*
X81409Y350401D01*
X79424Y349075D01*
X78098Y347091D01*
X77632Y344750D01*
X78098Y342408D01*
X79424Y340424D01*
X81409Y339098D01*
X83750Y338632D01*
X86091Y339098D01*
X88076Y340424D01*
X89402Y342408D01*
X89867Y344750D01*
X89402Y347091D01*
X88076Y349075D01*
X86091Y350401D01*
X83750Y350867D01*
D02*
G37*
G36*
X600500Y346618D02*
X598159Y346152D01*
X596174Y344826D01*
X594848Y342841D01*
X594383Y340500D01*
X594848Y338159D01*
X596174Y336174D01*
X598159Y334848D01*
X600500Y334383D01*
X602841Y334848D01*
X604826Y336174D01*
X606152Y338159D01*
X606618Y340500D01*
X606152Y342841D01*
X604826Y344826D01*
X602841Y346152D01*
X600500Y346618D01*
D02*
G37*
G36*
X299000Y341118D02*
X296659Y340652D01*
X294674Y339326D01*
X293348Y337341D01*
X292882Y335000D01*
X293348Y332659D01*
X294674Y330674D01*
X296659Y329348D01*
X299000Y328882D01*
X301341Y329348D01*
X303326Y330674D01*
X304652Y332659D01*
X305118Y335000D01*
X304652Y337341D01*
X303326Y339326D01*
X301341Y340652D01*
X299000Y341118D01*
D02*
G37*
G36*
X140000Y337118D02*
X137659Y336652D01*
X135674Y335326D01*
X134348Y333341D01*
X133883Y331000D01*
X134348Y328659D01*
X135674Y326674D01*
X137659Y325348D01*
X140000Y324883D01*
X142341Y325348D01*
X144326Y326674D01*
X145652Y328659D01*
X146117Y331000D01*
X145652Y333341D01*
X144326Y335326D01*
X142341Y336652D01*
X140000Y337118D01*
D02*
G37*
G36*
X955749Y334867D02*
X953408Y334402D01*
X951424Y333075D01*
X950098Y331091D01*
X949632Y328750D01*
X950098Y326409D01*
X951424Y324424D01*
X953408Y323098D01*
X955749Y322632D01*
X958091Y323098D01*
X960075Y324424D01*
X961401Y326409D01*
X961867Y328750D01*
X961401Y331091D01*
X960075Y333075D01*
X958091Y334402D01*
X955749Y334867D01*
D02*
G37*
G36*
X123750D02*
X121409Y334402D01*
X119424Y333075D01*
X118098Y331091D01*
X117632Y328750D01*
X118098Y326409D01*
X119424Y324424D01*
X121409Y323098D01*
X123750Y322632D01*
X126091Y323098D01*
X128076Y324424D01*
X129402Y326409D01*
X129867Y328750D01*
X129402Y331091D01*
X128076Y333075D01*
X126091Y334402D01*
X123750Y334867D01*
D02*
G37*
G36*
X91750D02*
X89409Y334402D01*
X87424Y333075D01*
X86098Y331091D01*
X85632Y328750D01*
X86098Y326409D01*
X87424Y324424D01*
X89409Y323098D01*
X91750Y322632D01*
X94091Y323098D01*
X96075Y324424D01*
X97402Y326409D01*
X97867Y328750D01*
X97402Y331091D01*
X96075Y333075D01*
X94091Y334402D01*
X91750Y334867D01*
D02*
G37*
G36*
X215000Y334118D02*
X212659Y333652D01*
X210674Y332326D01*
X209348Y330341D01*
X208883Y328000D01*
X209348Y325659D01*
X210674Y323674D01*
X212659Y322348D01*
X215000Y321883D01*
X217341Y322348D01*
X219326Y323674D01*
X220652Y325659D01*
X221118Y328000D01*
X220652Y330341D01*
X219326Y332326D01*
X217341Y333652D01*
X215000Y334118D01*
D02*
G37*
G36*
X513000Y339118D02*
X510659Y338652D01*
X508674Y337326D01*
X507348Y335341D01*
X506883Y333000D01*
X507348Y330659D01*
X508592Y328798D01*
X508733Y328362D01*
Y327638D01*
X508592Y327202D01*
X507348Y325341D01*
X506883Y323000D01*
X507348Y320659D01*
X508674Y318674D01*
X510659Y317348D01*
X513000Y316882D01*
X515341Y317348D01*
X517326Y318674D01*
X518652Y320659D01*
X519118Y323000D01*
X518652Y325341D01*
X517408Y327202D01*
X517267Y327638D01*
Y328362D01*
X517408Y328798D01*
X518652Y330659D01*
X519118Y333000D01*
X518652Y335341D01*
X517326Y337326D01*
X515341Y338652D01*
X513000Y339118D01*
D02*
G37*
G36*
X580000Y328117D02*
X577659Y327652D01*
X575674Y326326D01*
X574348Y324341D01*
X573882Y322000D01*
X574348Y319659D01*
X575674Y317674D01*
X577659Y316348D01*
X580000Y315882D01*
X582341Y316348D01*
X584326Y317674D01*
X585652Y319659D01*
X586118Y322000D01*
X585652Y324341D01*
X584326Y326326D01*
X582341Y327652D01*
X580000Y328117D01*
D02*
G37*
G36*
X398000Y324618D02*
X395659Y324152D01*
X393674Y322826D01*
X392348Y320841D01*
X391883Y318500D01*
X392348Y316159D01*
X393674Y314174D01*
X395659Y312848D01*
X398000Y312383D01*
X400341Y312848D01*
X402326Y314174D01*
X403652Y316159D01*
X404118Y318500D01*
X403652Y320841D01*
X402326Y322826D01*
X400341Y324152D01*
X398000Y324618D01*
D02*
G37*
G36*
X184500Y324118D02*
X182159Y323652D01*
X180174Y322326D01*
X178848Y320341D01*
X178382Y318000D01*
X178848Y315659D01*
X180174Y313674D01*
X182159Y312348D01*
X184500Y311882D01*
X186841Y312348D01*
X188826Y313674D01*
X190152Y315659D01*
X190618Y318000D01*
X190152Y320341D01*
X188826Y322326D01*
X186841Y323652D01*
X184500Y324118D01*
D02*
G37*
G36*
X246000Y322117D02*
X243659Y321651D01*
X241674Y320325D01*
X240348Y318340D01*
X239882Y315999D01*
X240348Y313658D01*
X241674Y311674D01*
X243659Y310347D01*
X246000Y309882D01*
X248341Y310347D01*
X250325Y311674D01*
X251651Y313658D01*
X252117Y315999D01*
X251651Y318340D01*
X250325Y320325D01*
X248341Y321651D01*
X246000Y322117D01*
D02*
G37*
G36*
X963749Y318867D02*
X961408Y318402D01*
X959424Y317075D01*
X958098Y315091D01*
X957632Y312750D01*
X958098Y310408D01*
X959424Y308424D01*
X961408Y307098D01*
X963749Y306632D01*
X966090Y307098D01*
X968075Y308424D01*
X969401Y310408D01*
X969867Y312750D01*
X969401Y315091D01*
X968075Y317075D01*
X966090Y318402D01*
X963749Y318867D01*
D02*
G37*
G36*
X563750D02*
X561409Y318402D01*
X559424Y317075D01*
X558098Y315091D01*
X557632Y312750D01*
X558098Y310408D01*
X559424Y308424D01*
X561409Y307098D01*
X563750Y306632D01*
X566091Y307098D01*
X568075Y308424D01*
X569402Y310408D01*
X569867Y312750D01*
X569402Y315091D01*
X568075Y317075D01*
X566091Y318402D01*
X563750Y318867D01*
D02*
G37*
G36*
X291750D02*
X289409Y318402D01*
X287424Y317075D01*
X286098Y315091D01*
X285632Y312750D01*
X286098Y310408D01*
X287424Y308424D01*
X289409Y307098D01*
X291750Y306632D01*
X294091Y307098D01*
X296075Y308424D01*
X297402Y310408D01*
X297867Y312750D01*
X297402Y315091D01*
X296075Y317075D01*
X294091Y318402D01*
X291750Y318867D01*
D02*
G37*
G36*
X275750D02*
X273409Y318402D01*
X271424Y317075D01*
X270098Y315091D01*
X269632Y312750D01*
X270098Y310408D01*
X271424Y308424D01*
X273409Y307098D01*
X275750Y306632D01*
X278091Y307098D01*
X280075Y308424D01*
X281402Y310408D01*
X281867Y312750D01*
X281402Y315091D01*
X280075Y317075D01*
X278091Y318402D01*
X275750Y318867D01*
D02*
G37*
G36*
X259750D02*
X257409Y318402D01*
X255424Y317075D01*
X254098Y315091D01*
X253632Y312750D01*
X254098Y310408D01*
X255424Y308424D01*
X257409Y307098D01*
X259750Y306632D01*
X262091Y307098D01*
X264075Y308424D01*
X265402Y310408D01*
X265867Y312750D01*
X265402Y315091D01*
X264075Y317075D01*
X262091Y318402D01*
X259750Y318867D01*
D02*
G37*
G36*
X99750D02*
X97409Y318402D01*
X95424Y317075D01*
X94098Y315091D01*
X93632Y312750D01*
X94098Y310408D01*
X95424Y308424D01*
X97409Y307098D01*
X99750Y306632D01*
X102091Y307098D01*
X104075Y308424D01*
X105402Y310408D01*
X105867Y312750D01*
X105402Y315091D01*
X104075Y317075D01*
X102091Y318402D01*
X99750Y318867D01*
D02*
G37*
G36*
X83750D02*
X81409Y318402D01*
X79424Y317075D01*
X78098Y315091D01*
X77632Y312750D01*
X78098Y310408D01*
X79424Y308424D01*
X81409Y307098D01*
X83750Y306632D01*
X86091Y307098D01*
X88076Y308424D01*
X89402Y310408D01*
X89867Y312750D01*
X89402Y315091D01*
X88076Y317075D01*
X86091Y318402D01*
X83750Y318867D01*
D02*
G37*
G36*
X589000Y318118D02*
X586659Y317652D01*
X584674Y316326D01*
X583348Y314341D01*
X582882Y312000D01*
X583348Y309659D01*
X584674Y307674D01*
X586659Y306348D01*
X589000Y305882D01*
X591341Y306348D01*
X593326Y307674D01*
X594652Y309659D01*
X595117Y312000D01*
X594652Y314341D01*
X593326Y316326D01*
X591341Y317652D01*
X589000Y318118D01*
D02*
G37*
G36*
X157000Y305117D02*
X154659Y304652D01*
X153489Y303870D01*
X152500Y303407D01*
X151511Y303870D01*
X150341Y304652D01*
X148000Y305117D01*
X145659Y304652D01*
X143674Y303326D01*
X142348Y301341D01*
X141882Y299000D01*
X142348Y296659D01*
X143592Y294798D01*
X143733Y294362D01*
Y293638D01*
X143592Y293202D01*
X142348Y291341D01*
X141882Y289000D01*
X142348Y286659D01*
X143674Y284674D01*
X145659Y283348D01*
X148000Y282882D01*
X150341Y283348D01*
X152326Y284674D01*
X152674D01*
X154659Y283348D01*
X157000Y282882D01*
X159341Y283348D01*
X161326Y284674D01*
X162652Y286659D01*
X163118Y289000D01*
X162652Y291341D01*
X161408Y293202D01*
X161267Y293638D01*
Y294362D01*
X161408Y294798D01*
X162652Y296659D01*
X163118Y299000D01*
X162652Y301341D01*
X161326Y303326D01*
X159341Y304652D01*
X157000Y305117D01*
D02*
G37*
G36*
X939749Y334867D02*
X937408Y334402D01*
X935424Y333075D01*
X934098Y331091D01*
X933632Y328750D01*
X934098Y326409D01*
X935424Y324424D01*
X936976Y323387D01*
X937389Y322759D01*
X937335Y321818D01*
X936348Y320341D01*
X935882Y318000D01*
X936348Y315659D01*
X937361Y314144D01*
X937573Y313250D01*
X937361Y312356D01*
X936348Y310841D01*
X935882Y308500D01*
X936348Y306159D01*
X937674Y304174D01*
X939659Y302848D01*
X942000Y302383D01*
X944341Y302848D01*
X946326Y304174D01*
X947652Y306159D01*
X948118Y308500D01*
X947652Y310841D01*
X946639Y312356D01*
X946427Y313250D01*
X946639Y314144D01*
X947652Y315659D01*
X948118Y318000D01*
X947652Y320341D01*
X946326Y322326D01*
X944773Y323363D01*
X944361Y323990D01*
X944415Y324932D01*
X945401Y326409D01*
X945867Y328750D01*
X945401Y331091D01*
X944075Y333075D01*
X942091Y334402D01*
X939749Y334867D01*
D02*
G37*
G36*
X383000Y314618D02*
X380659Y314152D01*
X378674Y312826D01*
X377348Y310841D01*
X376883Y308500D01*
X377348Y306159D01*
X378674Y304174D01*
X380659Y302848D01*
X383000Y302383D01*
X385341Y302848D01*
X387326Y304174D01*
X388652Y306159D01*
X389118Y308500D01*
X388652Y310841D01*
X387326Y312826D01*
X385341Y314152D01*
X383000Y314618D01*
D02*
G37*
G36*
X885000Y301117D02*
X882659Y300652D01*
X880674Y299326D01*
X880635Y299267D01*
X879365D01*
X879326Y299326D01*
X877341Y300652D01*
X875000Y301117D01*
X872659Y300652D01*
X870674Y299326D01*
X869348Y297341D01*
X868883Y295000D01*
X869348Y292659D01*
X870674Y290674D01*
X872659Y289348D01*
X875000Y288883D01*
X877341Y289348D01*
X879326Y290674D01*
X879365Y290733D01*
X880635D01*
X880674Y290674D01*
X882659Y289348D01*
X885000Y288883D01*
X887341Y289348D01*
X889326Y290674D01*
X890652Y292659D01*
X891117Y295000D01*
X890652Y297341D01*
X889326Y299326D01*
X887341Y300652D01*
X885000Y301117D01*
D02*
G37*
G36*
X927553Y298538D02*
X927500Y298529D01*
X927447Y298538D01*
X926531Y298514D01*
X926478Y298503D01*
X926424Y298509D01*
X925511Y298437D01*
X925459Y298422D01*
X925405Y298426D01*
X924496Y298306D01*
X924445Y298289D01*
X924391Y298290D01*
X923490Y298123D01*
X923440Y298103D01*
X923385Y298100D01*
X922495Y297887D01*
X922445Y297864D01*
X922392Y297859D01*
X921513Y297599D01*
X921465Y297574D01*
X921412Y297566D01*
X920548Y297260D01*
X920501Y297232D01*
X920448Y297222D01*
X919602Y296871D01*
X919557Y296841D01*
X919504Y296828D01*
X918677Y296433D01*
X918634Y296401D01*
X918582Y296385D01*
X917777Y295947D01*
X917735Y295913D01*
X917684Y295894D01*
X916903Y295415D01*
X916864Y295379D01*
X916814Y295357D01*
X916059Y294838D01*
X916021Y294799D01*
X915972Y294776D01*
X915246Y294218D01*
X915210Y294177D01*
X915163Y294151D01*
X914466Y293556D01*
X914432Y293513D01*
X914387Y293484D01*
X913722Y292854D01*
X913691Y292809D01*
X913646Y292778D01*
X913016Y292113D01*
X912987Y292068D01*
X912944Y292034D01*
X912349Y291338D01*
X912323Y291290D01*
X912282Y291255D01*
X911724Y290528D01*
X911701Y290479D01*
X911662Y290441D01*
X911143Y289686D01*
X911121Y289636D01*
X911085Y289597D01*
X910606Y288815D01*
X910587Y288765D01*
X910553Y288723D01*
X910115Y287918D01*
X910099Y287866D01*
X910067Y287823D01*
X909672Y286996D01*
X909659Y286943D01*
X909629Y286898D01*
X909278Y286052D01*
X909268Y285999D01*
X909240Y285952D01*
X908934Y285089D01*
X908926Y285035D01*
X908901Y284987D01*
X908641Y284109D01*
X908636Y284055D01*
X908613Y284005D01*
X908400Y283114D01*
X908397Y283060D01*
X908377Y283010D01*
X908210Y282109D01*
X908211Y282055D01*
X908194Y282004D01*
X908074Y281095D01*
X908078Y281041D01*
X908063Y280989D01*
X907991Y280076D01*
X907997Y280022D01*
X907986Y279969D01*
X907962Y279053D01*
X907971Y279000D01*
X907962Y278947D01*
X907986Y278031D01*
X907997Y277978D01*
X907991Y277924D01*
X908063Y277011D01*
X908078Y276959D01*
X908074Y276905D01*
X908194Y275996D01*
X908211Y275945D01*
X908210Y275891D01*
X908377Y274990D01*
X908397Y274940D01*
X908400Y274886D01*
X908613Y273995D01*
X908636Y273946D01*
X908641Y273892D01*
X908901Y273013D01*
X908926Y272965D01*
X908934Y272912D01*
X909240Y272048D01*
X909268Y272001D01*
X909278Y271948D01*
X909629Y271102D01*
X909659Y271057D01*
X909672Y271004D01*
X910067Y270177D01*
X910099Y270134D01*
X910115Y270082D01*
X910553Y269277D01*
X910587Y269235D01*
X910606Y269184D01*
X911085Y268403D01*
X911121Y268364D01*
X911143Y268314D01*
X911662Y267559D01*
X911700Y267521D01*
X911724Y267472D01*
X912282Y266745D01*
X912323Y266710D01*
X912349Y266663D01*
X912944Y265966D01*
X912987Y265932D01*
X913016Y265887D01*
X913646Y265222D01*
X913691Y265191D01*
X913722Y265146D01*
X914387Y264516D01*
X914432Y264487D01*
X914466Y264444D01*
X915163Y263849D01*
X915210Y263823D01*
X915246Y263782D01*
X915972Y263224D01*
X916021Y263200D01*
X916059Y263162D01*
X916814Y262643D01*
X916864Y262621D01*
X916903Y262585D01*
X917684Y262106D01*
X917735Y262087D01*
X917777Y262052D01*
X918582Y261615D01*
X918634Y261599D01*
X918677Y261567D01*
X919504Y261172D01*
X919557Y261159D01*
X919602Y261129D01*
X920448Y260778D01*
X920501Y260768D01*
X920548Y260740D01*
X921412Y260434D01*
X921465Y260427D01*
X921513Y260401D01*
X922392Y260141D01*
X922446Y260136D01*
X922495Y260114D01*
X923385Y259900D01*
X923440Y259897D01*
X923490Y259877D01*
X924391Y259710D01*
X924445Y259711D01*
X924496Y259694D01*
X925405Y259574D01*
X925459Y259578D01*
X925511Y259563D01*
X926424Y259491D01*
X926478Y259497D01*
X926531Y259485D01*
X927447Y259461D01*
X927500Y259471D01*
X927553Y259461D01*
X928469Y259485D01*
X928522Y259497D01*
X928576Y259491D01*
X929489Y259563D01*
X929541Y259578D01*
X929595Y259574D01*
X930504Y259694D01*
X930555Y259711D01*
X930609Y259710D01*
X931510Y259877D01*
X931560Y259897D01*
X931615Y259900D01*
X932505Y260113D01*
X932555Y260136D01*
X932608Y260141D01*
X933487Y260401D01*
X933535Y260427D01*
X933588Y260434D01*
X934452Y260740D01*
X934499Y260768D01*
X934552Y260778D01*
X935398Y261129D01*
X935443Y261159D01*
X935496Y261172D01*
X936323Y261567D01*
X936366Y261599D01*
X936418Y261615D01*
X937223Y262052D01*
X937265Y262087D01*
X937316Y262106D01*
X938097Y262585D01*
X938136Y262621D01*
X938186Y262643D01*
X938941Y263162D01*
X938979Y263200D01*
X939028Y263224D01*
X939754Y263782D01*
X939790Y263823D01*
X939837Y263849D01*
X940534Y264444D01*
X940568Y264487D01*
X940613Y264516D01*
X941278Y265147D01*
X941309Y265191D01*
X941354Y265222D01*
X941984Y265886D01*
X942013Y265932D01*
X942056Y265966D01*
X942651Y266663D01*
X942677Y266710D01*
X942718Y266745D01*
X943276Y267472D01*
X943299Y267521D01*
X943338Y267559D01*
X943857Y268314D01*
X943879Y268364D01*
X943915Y268403D01*
X944394Y269185D01*
X944413Y269235D01*
X944447Y269277D01*
X944885Y270082D01*
X944901Y270134D01*
X944933Y270177D01*
X945328Y271004D01*
X945341Y271057D01*
X945371Y271102D01*
X945722Y271948D01*
X945732Y272001D01*
X945760Y272048D01*
X946066Y272911D01*
X946074Y272965D01*
X946099Y273013D01*
X946359Y273892D01*
X946364Y273946D01*
X946386Y273995D01*
X946600Y274886D01*
X946603Y274940D01*
X946623Y274990D01*
X946790Y275891D01*
X946789Y275945D01*
X946806Y275996D01*
X946926Y276905D01*
X946922Y276959D01*
X946937Y277011D01*
X947009Y277924D01*
X947003Y277978D01*
X947014Y278031D01*
X947038Y278947D01*
X947029Y279000D01*
X947038Y279053D01*
X947014Y279969D01*
X947003Y280022D01*
X947009Y280076D01*
X946937Y280989D01*
X946922Y281041D01*
X946926Y281095D01*
X946806Y282004D01*
X946789Y282055D01*
X946790Y282109D01*
X946623Y283010D01*
X946603Y283060D01*
X946600Y283114D01*
X946387Y284005D01*
X946364Y284055D01*
X946359Y284109D01*
X946099Y284987D01*
X946074Y285035D01*
X946066Y285089D01*
X945760Y285952D01*
X945732Y285999D01*
X945722Y286052D01*
X945371Y286898D01*
X945341Y286943D01*
X945328Y286996D01*
X944933Y287823D01*
X944901Y287866D01*
X944885Y287918D01*
X944447Y288723D01*
X944413Y288765D01*
X944394Y288815D01*
X943915Y289597D01*
X943879Y289636D01*
X943857Y289686D01*
X943338Y290441D01*
X943300Y290479D01*
X943276Y290528D01*
X942718Y291255D01*
X942677Y291290D01*
X942651Y291338D01*
X942056Y292034D01*
X942013Y292068D01*
X941984Y292113D01*
X941354Y292778D01*
X941309Y292809D01*
X941278Y292854D01*
X940613Y293484D01*
X940568Y293513D01*
X940534Y293556D01*
X939837Y294151D01*
X939790Y294177D01*
X939754Y294218D01*
X939028Y294776D01*
X938979Y294800D01*
X938941Y294838D01*
X938186Y295357D01*
X938136Y295379D01*
X938097Y295415D01*
X937316Y295894D01*
X937265Y295913D01*
X937223Y295947D01*
X936418Y296385D01*
X936366Y296401D01*
X936323Y296433D01*
X935496Y296828D01*
X935443Y296841D01*
X935398Y296871D01*
X934552Y297222D01*
X934499Y297232D01*
X934452Y297260D01*
X933588Y297566D01*
X933535Y297574D01*
X933487Y297599D01*
X932608Y297859D01*
X932555Y297864D01*
X932505Y297887D01*
X931615Y298100D01*
X931560Y298103D01*
X931510Y298123D01*
X930609Y298290D01*
X930555Y298289D01*
X930504Y298306D01*
X929595Y298426D01*
X929541Y298422D01*
X929489Y298437D01*
X928576Y298509D01*
X928522Y298503D01*
X928469Y298514D01*
X927553Y298538D01*
D02*
G37*
G36*
X437000Y320117D02*
X434659Y319652D01*
X432674Y318326D01*
X431348Y316341D01*
X430882Y314000D01*
X431348Y311659D01*
X432592Y309798D01*
X432733Y309362D01*
Y308638D01*
X432592Y308202D01*
X431348Y306341D01*
X430882Y304000D01*
X431348Y301659D01*
X432674Y299674D01*
X434659Y298348D01*
X437000Y297882D01*
X439341Y298348D01*
X441326Y299674D01*
X442652Y301659D01*
X443118Y304000D01*
X442652Y306341D01*
X441408Y308202D01*
X441267Y308638D01*
Y309362D01*
X441408Y309798D01*
X442652Y311659D01*
X443118Y314000D01*
X442652Y316341D01*
X441326Y318326D01*
X439341Y319652D01*
X437000Y320117D01*
D02*
G37*
G36*
X91750Y302867D02*
X89409Y302402D01*
X87424Y301075D01*
X86098Y299091D01*
X85632Y296750D01*
X86098Y294409D01*
X87424Y292424D01*
X89409Y291098D01*
X91750Y290632D01*
X94091Y291098D01*
X96075Y292424D01*
X97402Y294409D01*
X97867Y296750D01*
X97402Y299091D01*
X96075Y301075D01*
X94091Y302402D01*
X91750Y302867D01*
D02*
G37*
G36*
X75750D02*
X73409Y302402D01*
X71424Y301075D01*
X70098Y299091D01*
X69632Y296750D01*
X70098Y294409D01*
X71424Y292424D01*
X73409Y291098D01*
X75750Y290632D01*
X78091Y291098D01*
X80076Y292424D01*
X81402Y294409D01*
X81867Y296750D01*
X81402Y299091D01*
X80076Y301075D01*
X78091Y302402D01*
X75750Y302867D01*
D02*
G37*
G36*
X59750D02*
X57409Y302402D01*
X55424Y301075D01*
X54098Y299091D01*
X53632Y296750D01*
X54098Y294409D01*
X55424Y292424D01*
X57409Y291098D01*
X59750Y290632D01*
X62091Y291098D01*
X64075Y292424D01*
X65402Y294409D01*
X65867Y296750D01*
X65402Y299091D01*
X64075Y301075D01*
X62091Y302402D01*
X59750Y302867D01*
D02*
G37*
G36*
X27750D02*
X25409Y302402D01*
X23424Y301075D01*
X22098Y299091D01*
X21632Y296750D01*
X22098Y294409D01*
X23424Y292424D01*
X25409Y291098D01*
X27750Y290632D01*
X30091Y291098D01*
X32076Y292424D01*
X33402Y294409D01*
X33867Y296750D01*
X33402Y299091D01*
X32076Y301075D01*
X30091Y302402D01*
X27750Y302867D01*
D02*
G37*
G36*
X285500Y302118D02*
X283159Y301652D01*
X281174Y300326D01*
X279848Y298341D01*
X279382Y296000D01*
X279848Y293659D01*
X281174Y291674D01*
X283159Y290348D01*
X285500Y289883D01*
X287841Y290348D01*
X289826Y291674D01*
X291152Y293659D01*
X291618Y296000D01*
X291152Y298341D01*
X289826Y300326D01*
X287841Y301652D01*
X285500Y302118D01*
D02*
G37*
G36*
X320500Y294618D02*
X318159Y294152D01*
X316174Y292826D01*
X314848Y290841D01*
X314382Y288500D01*
X314848Y286159D01*
X316174Y284174D01*
X318159Y282848D01*
X320500Y282383D01*
X322841Y282848D01*
X324826Y284174D01*
X326152Y286159D01*
X326618Y288500D01*
X326152Y290841D01*
X324826Y292826D01*
X322841Y294152D01*
X320500Y294618D01*
D02*
G37*
G36*
X684999Y327117D02*
X682657Y326651D01*
X680673Y325325D01*
X679347Y323340D01*
X678881Y320999D01*
X679347Y318658D01*
X680673Y316674D01*
X682657Y315347D01*
X684865Y314908D01*
X684999Y314882D01*
X685832Y313753D01*
X685632Y312750D01*
X686098Y310408D01*
X687424Y308424D01*
X686646Y307475D01*
X685674Y306826D01*
X684348Y304841D01*
X683883Y302500D01*
X684348Y300159D01*
X685592Y298298D01*
X685733Y297862D01*
Y297138D01*
X685592Y296702D01*
X684348Y294841D01*
X683883Y292500D01*
X684348Y290159D01*
X685592Y288298D01*
X685733Y287862D01*
Y287138D01*
X685592Y286702D01*
X684348Y284841D01*
X683883Y282500D01*
X684348Y280159D01*
X685674Y278174D01*
X687659Y276848D01*
X690000Y276383D01*
X692341Y276848D01*
X694326Y278174D01*
X695070Y279287D01*
X696597D01*
X697341Y278174D01*
X699326Y276848D01*
X701667Y276383D01*
X704008Y276848D01*
X705992Y278174D01*
X706736Y279287D01*
X708264D01*
X709007Y278174D01*
X710992Y276848D01*
X713333Y276383D01*
X715674Y276848D01*
X717659Y278174D01*
X718403Y279287D01*
X719930D01*
X720674Y278174D01*
X722659Y276848D01*
X725000Y276383D01*
X727341Y276848D01*
X729326Y278174D01*
X730652Y280159D01*
X731117Y282500D01*
X730652Y284841D01*
X729408Y286702D01*
X729267Y287138D01*
Y287862D01*
X729408Y288298D01*
X730652Y290159D01*
X731117Y292500D01*
X730652Y294841D01*
X729408Y296702D01*
X729267Y297138D01*
Y297862D01*
X729408Y298298D01*
X730652Y300159D01*
X731117Y302500D01*
X730652Y304841D01*
X729326Y306826D01*
X727341Y308152D01*
X725000Y308617D01*
X722659Y308152D01*
X720674Y306826D01*
X719348Y304841D01*
X718883Y302500D01*
X719042Y301698D01*
X717821Y301328D01*
X717109Y303047D01*
X715345Y305345D01*
X713047Y307108D01*
X710372Y308217D01*
X707500Y308595D01*
X704628Y308217D01*
X701953Y307108D01*
X699655Y305345D01*
X697891Y303047D01*
X697179Y301328D01*
X695958Y301698D01*
X696117Y302500D01*
X695652Y304841D01*
X694326Y306826D01*
X695103Y307774D01*
X696075Y308424D01*
X697401Y310408D01*
X697867Y312750D01*
X697401Y315091D01*
X696075Y317075D01*
X694091Y318402D01*
X691883Y318841D01*
X691749Y318867D01*
X690917Y319996D01*
X691116Y320999D01*
X690650Y323340D01*
X689324Y325325D01*
X687340Y326651D01*
X684999Y327117D01*
D02*
G37*
G36*
X899749Y286867D02*
X897408Y286402D01*
X895424Y285075D01*
X894098Y283091D01*
X893632Y280750D01*
X894098Y278409D01*
X895424Y276424D01*
X897408Y275098D01*
X899749Y274632D01*
X902091Y275098D01*
X904075Y276424D01*
X905401Y278409D01*
X905867Y280750D01*
X905401Y283091D01*
X904075Y285075D01*
X902091Y286402D01*
X899749Y286867D01*
D02*
G37*
G36*
X883749D02*
X881408Y286402D01*
X879424Y285075D01*
X878098Y283091D01*
X877632Y280750D01*
X878098Y278409D01*
X879424Y276424D01*
X881408Y275098D01*
X883749Y274632D01*
X886090Y275098D01*
X888075Y276424D01*
X889401Y278409D01*
X889867Y280750D01*
X889401Y283091D01*
X888075Y285075D01*
X886090Y286402D01*
X883749Y286867D01*
D02*
G37*
G36*
X867749D02*
X865408Y286402D01*
X863424Y285075D01*
X862098Y283091D01*
X861632Y280750D01*
X862098Y278409D01*
X863424Y276424D01*
X865408Y275098D01*
X867749Y274632D01*
X870090Y275098D01*
X872075Y276424D01*
X873401Y278409D01*
X873867Y280750D01*
X873401Y283091D01*
X872075Y285075D01*
X870090Y286402D01*
X867749Y286867D01*
D02*
G37*
G36*
X851749D02*
X849408Y286402D01*
X847424Y285075D01*
X846098Y283091D01*
X845632Y280750D01*
X846098Y278409D01*
X847424Y276424D01*
X849408Y275098D01*
X851749Y274632D01*
X854090Y275098D01*
X856075Y276424D01*
X857401Y278409D01*
X857867Y280750D01*
X857401Y283091D01*
X856075Y285075D01*
X854090Y286402D01*
X851749Y286867D01*
D02*
G37*
G36*
X835750D02*
X833408Y286402D01*
X831424Y285075D01*
X830098Y283091D01*
X829632Y280750D01*
X830098Y278409D01*
X831424Y276424D01*
X833408Y275098D01*
X835750Y274632D01*
X838091Y275098D01*
X840075Y276424D01*
X841401Y278409D01*
X841867Y280750D01*
X841401Y283091D01*
X840075Y285075D01*
X838091Y286402D01*
X835750Y286867D01*
D02*
G37*
G36*
X787749Y318867D02*
X785408Y318402D01*
X783424Y317075D01*
X782098Y315091D01*
X781632Y312750D01*
X782098Y310408D01*
X783379Y308490D01*
X783544Y308138D01*
Y307073D01*
X783174Y306826D01*
X781848Y304841D01*
X781383Y302500D01*
X781848Y300159D01*
X783092Y298298D01*
X783233Y297862D01*
Y297138D01*
X783092Y296702D01*
X781848Y294841D01*
X781383Y292500D01*
X781848Y290159D01*
X783174Y288174D01*
X784475Y287305D01*
X784486Y285786D01*
X783424Y285075D01*
X782098Y283091D01*
X781632Y280750D01*
X782098Y278409D01*
X783424Y276424D01*
X785408Y275098D01*
X787749Y274632D01*
X790091Y275098D01*
X792075Y276424D01*
X793401Y278409D01*
X793867Y280750D01*
X793401Y283091D01*
X792075Y285075D01*
X790775Y285944D01*
X790763Y287464D01*
X791826Y288174D01*
X793152Y290159D01*
X793617Y292500D01*
X793152Y294841D01*
X791908Y296702D01*
X791767Y297138D01*
Y297862D01*
X791908Y298298D01*
X793152Y300159D01*
X793617Y302500D01*
X793152Y304841D01*
X791870Y306759D01*
X791705Y307112D01*
Y308176D01*
X792075Y308424D01*
X793401Y310408D01*
X793867Y312750D01*
X793401Y315091D01*
X792075Y317075D01*
X790091Y318402D01*
X787749Y318867D01*
D02*
G37*
G36*
X579750Y286867D02*
X577408Y286402D01*
X575424Y285075D01*
X574098Y283091D01*
X573632Y280750D01*
X574098Y278409D01*
X575424Y276424D01*
X577408Y275098D01*
X579750Y274632D01*
X582091Y275098D01*
X584075Y276424D01*
X585401Y278409D01*
X585867Y280750D01*
X585401Y283091D01*
X584075Y285075D01*
X582091Y286402D01*
X579750Y286867D01*
D02*
G37*
G36*
X547750D02*
X545409Y286402D01*
X543424Y285075D01*
X542098Y283091D01*
X541632Y280750D01*
X542098Y278409D01*
X543424Y276424D01*
X545409Y275098D01*
X547750Y274632D01*
X550091Y275098D01*
X552075Y276424D01*
X553401Y278409D01*
X553867Y280750D01*
X553401Y283091D01*
X552075Y285075D01*
X550091Y286402D01*
X547750Y286867D01*
D02*
G37*
G36*
X99750D02*
X97409Y286402D01*
X95424Y285075D01*
X94098Y283091D01*
X93632Y280750D01*
X94098Y278409D01*
X95424Y276424D01*
X97409Y275098D01*
X99750Y274632D01*
X102091Y275098D01*
X104075Y276424D01*
X105402Y278409D01*
X105867Y280750D01*
X105402Y283091D01*
X104075Y285075D01*
X102091Y286402D01*
X99750Y286867D01*
D02*
G37*
G36*
X524000Y280117D02*
X521659Y279652D01*
X519674Y278326D01*
X518348Y276341D01*
X517882Y274000D01*
X518348Y271659D01*
X519674Y269674D01*
X521659Y268348D01*
X524000Y267882D01*
X526341Y268348D01*
X528326Y269674D01*
X529652Y271659D01*
X530117Y274000D01*
X529652Y276341D01*
X528326Y278326D01*
X526341Y279652D01*
X524000Y280117D01*
D02*
G37*
G36*
X587500Y271117D02*
X585159Y270652D01*
X583174Y269326D01*
X581924Y267455D01*
X581250Y267395D01*
X580576Y267455D01*
X579326Y269326D01*
X577341Y270652D01*
X575000Y271117D01*
X572659Y270652D01*
X570674Y269326D01*
X569348Y267341D01*
X568882Y265000D01*
X569348Y262659D01*
X570674Y260674D01*
X572659Y259348D01*
X575000Y258883D01*
X577341Y259348D01*
X579326Y260674D01*
X580576Y262545D01*
X581250Y262605D01*
X581924Y262545D01*
X583174Y260674D01*
X585159Y259348D01*
X587500Y258883D01*
X589841Y259348D01*
X591826Y260674D01*
X593152Y262659D01*
X593618Y265000D01*
X593152Y267341D01*
X591826Y269326D01*
X589841Y270652D01*
X587500Y271117D01*
D02*
G37*
G36*
X218000Y289617D02*
X215659Y289151D01*
X213674Y287825D01*
X212348Y285840D01*
X211882Y283499D01*
X212348Y281158D01*
X213674Y279174D01*
X214631Y278534D01*
X214526Y277077D01*
X213366Y275341D01*
X212900Y273000D01*
X213366Y270659D01*
X214692Y268674D01*
X216677Y267348D01*
X219018Y266882D01*
X221359Y267348D01*
X223344Y268674D01*
X224670Y270659D01*
X225135Y273000D01*
X224670Y275341D01*
X223344Y277326D01*
X222386Y277965D01*
X222492Y279422D01*
X223652Y281158D01*
X224117Y283499D01*
X223652Y285840D01*
X222325Y287825D01*
X220341Y289151D01*
X218000Y289617D01*
D02*
G37*
G36*
X993000Y268617D02*
X990659Y268152D01*
X988674Y266826D01*
X988135Y266019D01*
X986865D01*
X986326Y266826D01*
X984341Y268152D01*
X982000Y268617D01*
X979659Y268152D01*
X977674Y266826D01*
X976348Y264841D01*
X975882Y262500D01*
X976348Y260159D01*
X977674Y258174D01*
X979659Y256848D01*
X982000Y256382D01*
X984341Y256848D01*
X986326Y258174D01*
X986865Y258981D01*
X988135D01*
X988674Y258174D01*
X990659Y256848D01*
X993000Y256382D01*
X995341Y256848D01*
X997326Y258174D01*
X998652Y260159D01*
X999118Y262500D01*
X998652Y264841D01*
X997326Y266826D01*
X995341Y268152D01*
X993000Y268617D01*
D02*
G37*
G36*
X91750Y270867D02*
X89409Y270401D01*
X87424Y269075D01*
X86098Y267091D01*
X85632Y264750D01*
X86098Y262409D01*
X87424Y260424D01*
X89409Y259098D01*
X91750Y258632D01*
X94091Y259098D01*
X96075Y260424D01*
X97402Y262409D01*
X97867Y264750D01*
X97402Y267091D01*
X96075Y269075D01*
X94091Y270401D01*
X91750Y270867D01*
D02*
G37*
G36*
X374000Y259618D02*
X371659Y259152D01*
X370489Y258370D01*
X369500Y257907D01*
X368511Y258370D01*
X367341Y259152D01*
X365000Y259618D01*
X362659Y259152D01*
X360674Y257826D01*
X359348Y255841D01*
X358882Y253500D01*
X359348Y251159D01*
X360674Y249174D01*
X362659Y247848D01*
X365000Y247383D01*
X367341Y247848D01*
X368511Y248630D01*
X369500Y249093D01*
X370489Y248630D01*
X371659Y247848D01*
X374000Y247383D01*
X376341Y247848D01*
X378326Y249174D01*
X379652Y251159D01*
X380117Y253500D01*
X379652Y255841D01*
X378326Y257826D01*
X376341Y259152D01*
X374000Y259618D01*
D02*
G37*
G36*
X231500Y269118D02*
X229159Y268652D01*
X227174Y267326D01*
X225848Y265341D01*
X225383Y263000D01*
X225848Y260659D01*
X227174Y258674D01*
X229159Y257348D01*
X231500Y256882D01*
X233841Y257348D01*
X235826Y258674D01*
X237152Y260659D01*
X237618Y263000D01*
X237152Y265341D01*
X235826Y267326D01*
X233841Y268652D01*
X231500Y269118D01*
D02*
G37*
G36*
X433000Y264118D02*
X430659Y263652D01*
X428674Y262326D01*
X427348Y260341D01*
X426883Y258000D01*
X427348Y255659D01*
X428674Y253674D01*
X430659Y252348D01*
X433000Y251882D01*
X435341Y252348D01*
X437326Y253674D01*
X438652Y255659D01*
X439118Y258000D01*
X438652Y260341D01*
X437326Y262326D01*
X435341Y263652D01*
X433000Y264118D01*
D02*
G37*
G36*
X419000Y263867D02*
X416659Y263402D01*
X414674Y262076D01*
X413348Y260091D01*
X412882Y257750D01*
X413348Y255409D01*
X414674Y253424D01*
X416659Y252098D01*
X419000Y251632D01*
X421341Y252098D01*
X423326Y253424D01*
X424652Y255409D01*
X425117Y257750D01*
X424652Y260091D01*
X423326Y262076D01*
X421341Y263402D01*
X419000Y263867D01*
D02*
G37*
G36*
X399500Y259618D02*
X397159Y259152D01*
X395174Y257826D01*
X393848Y255841D01*
X393382Y253500D01*
X393848Y251159D01*
X395174Y249174D01*
X397159Y247848D01*
X399500Y247383D01*
X401841Y247848D01*
X403826Y249174D01*
X405152Y251159D01*
X405617Y253500D01*
X405152Y255841D01*
X403826Y257826D01*
X401841Y259152D01*
X399500Y259618D01*
D02*
G37*
G36*
X575000Y257104D02*
X571867Y256691D01*
X568948Y255482D01*
X566441Y253559D01*
X564518Y251052D01*
X563309Y248133D01*
X563016Y245904D01*
X562940Y245334D01*
X561660D01*
X561585Y245904D01*
X561291Y248133D01*
X560082Y251052D01*
X558158Y253559D01*
X555652Y255482D01*
X552733Y256691D01*
X549600Y257104D01*
X546467Y256691D01*
X543548Y255482D01*
X541041Y253559D01*
X539118Y251052D01*
X537909Y248133D01*
X537496Y245000D01*
X537909Y241867D01*
X539118Y238948D01*
X541041Y236441D01*
X543548Y234518D01*
X546467Y233309D01*
X549600Y232896D01*
X552733Y233309D01*
X555652Y234518D01*
X558158Y236441D01*
X560082Y238948D01*
X561291Y241867D01*
X561585Y244095D01*
X561660Y244665D01*
X562940D01*
X563016Y244096D01*
X563309Y241867D01*
X564518Y238948D01*
X566441Y236441D01*
X568948Y234518D01*
X571867Y233309D01*
X575000Y232896D01*
X578133Y233309D01*
X581052Y234518D01*
X583559Y236441D01*
X585482Y238948D01*
X586691Y241867D01*
X587104Y245000D01*
X586691Y248133D01*
X585482Y251052D01*
X583559Y253559D01*
X581052Y255482D01*
X578133Y256691D01*
X575000Y257104D01*
D02*
G37*
G36*
X899749Y254867D02*
X897408Y254401D01*
X895424Y253075D01*
X894098Y251091D01*
X893632Y248750D01*
X894098Y246409D01*
X895424Y244424D01*
X897408Y243098D01*
X899749Y242632D01*
X902091Y243098D01*
X904075Y244424D01*
X905401Y246409D01*
X905867Y248750D01*
X905401Y251091D01*
X904075Y253075D01*
X902091Y254401D01*
X899749Y254867D01*
D02*
G37*
G36*
X883749D02*
X881408Y254401D01*
X879424Y253075D01*
X878098Y251091D01*
X877632Y248750D01*
X878098Y246409D01*
X879424Y244424D01*
X881408Y243098D01*
X883749Y242632D01*
X886090Y243098D01*
X888075Y244424D01*
X889401Y246409D01*
X889867Y248750D01*
X889401Y251091D01*
X888075Y253075D01*
X886090Y254401D01*
X883749Y254867D01*
D02*
G37*
G36*
X867749D02*
X865408Y254401D01*
X863424Y253075D01*
X862098Y251091D01*
X861632Y248750D01*
X862098Y246409D01*
X863424Y244424D01*
X865408Y243098D01*
X867749Y242632D01*
X870090Y243098D01*
X872075Y244424D01*
X873401Y246409D01*
X873867Y248750D01*
X873401Y251091D01*
X872075Y253075D01*
X870090Y254401D01*
X867749Y254867D01*
D02*
G37*
G36*
X851749D02*
X849408Y254401D01*
X847424Y253075D01*
X846098Y251091D01*
X845632Y248750D01*
X846098Y246409D01*
X847424Y244424D01*
X849408Y243098D01*
X851749Y242632D01*
X854090Y243098D01*
X856075Y244424D01*
X857401Y246409D01*
X857867Y248750D01*
X857401Y251091D01*
X856075Y253075D01*
X854090Y254401D01*
X851749Y254867D01*
D02*
G37*
G36*
X835750D02*
X833408Y254401D01*
X831424Y253075D01*
X830098Y251091D01*
X829632Y248750D01*
X830098Y246409D01*
X831424Y244424D01*
X833408Y243098D01*
X835750Y242632D01*
X838091Y243098D01*
X840075Y244424D01*
X841401Y246409D01*
X841867Y248750D01*
X841401Y251091D01*
X840075Y253075D01*
X838091Y254401D01*
X835750Y254867D01*
D02*
G37*
G36*
X786000Y265117D02*
X783659Y264652D01*
X781674Y263326D01*
X780348Y261341D01*
X779883Y259000D01*
X780348Y256659D01*
X781674Y254674D01*
X782647Y254025D01*
X783424Y253075D01*
X782098Y251091D01*
X781632Y248750D01*
X782098Y246409D01*
X783424Y244424D01*
X785408Y243098D01*
X787749Y242632D01*
X790091Y243098D01*
X792075Y244424D01*
X793401Y246409D01*
X793867Y248750D01*
X793401Y251091D01*
X792075Y253075D01*
X791103Y253725D01*
X790326Y254674D01*
X791652Y256659D01*
X792117Y259000D01*
X791652Y261341D01*
X790326Y263326D01*
X788341Y264652D01*
X786000Y265117D01*
D02*
G37*
G36*
X196000Y244118D02*
X193659Y243652D01*
X192000Y242543D01*
X190341Y243652D01*
X188000Y244118D01*
X185659Y243652D01*
X183674Y242326D01*
X182348Y240341D01*
X181882Y238000D01*
X182348Y235659D01*
X183674Y233674D01*
X185659Y232348D01*
X188000Y231882D01*
X190341Y232348D01*
X192000Y233457D01*
X193659Y232348D01*
X196000Y231882D01*
X198341Y232348D01*
X200326Y233674D01*
X201652Y235659D01*
X202118Y238000D01*
X201652Y240341D01*
X200326Y242326D01*
X198341Y243652D01*
X196000Y244118D01*
D02*
G37*
G36*
X487000Y272118D02*
X484659Y271652D01*
X482674Y270326D01*
X481348Y268341D01*
X480882Y266000D01*
X481348Y263659D01*
X482592Y261798D01*
X482733Y261362D01*
Y260638D01*
X482592Y260202D01*
X481348Y258341D01*
X480882Y256000D01*
X481348Y253659D01*
X482592Y251798D01*
X482733Y251362D01*
Y250638D01*
X482592Y250202D01*
X481348Y248341D01*
X480882Y246000D01*
X481348Y243659D01*
X482674Y241674D01*
X484659Y240348D01*
X487000Y239883D01*
X489341Y240348D01*
X491326Y241674D01*
X492652Y243659D01*
X493117Y246000D01*
X492652Y248341D01*
X491408Y250202D01*
X491267Y250638D01*
Y251362D01*
X491408Y251798D01*
X492652Y253659D01*
X493117Y256000D01*
X492652Y258341D01*
X491408Y260202D01*
X491267Y260638D01*
Y261362D01*
X491408Y261798D01*
X492652Y263659D01*
X493117Y266000D01*
X492652Y268341D01*
X491326Y270326D01*
X489341Y271652D01*
X487000Y272118D01*
D02*
G37*
G36*
X286000Y250117D02*
X283658Y249651D01*
X281674Y248325D01*
X280348Y246341D01*
X279882Y244000D01*
X280348Y241658D01*
X281674Y239674D01*
X283658Y238348D01*
X286000Y237882D01*
X288341Y238348D01*
X290325Y239674D01*
X291651Y241658D01*
X292117Y244000D01*
X291651Y246341D01*
X290325Y248325D01*
X288341Y249651D01*
X286000Y250117D01*
D02*
G37*
G36*
X713000Y258500D02*
X702000D01*
X696500Y253000D01*
Y242000D01*
X702000Y236500D01*
X713000D01*
X718500Y242000D01*
Y253000D01*
X713000Y258500D01*
D02*
G37*
G36*
X612400Y257000D02*
X588400D01*
Y233000D01*
X612400D01*
Y257000D01*
D02*
G37*
G36*
X309000Y257117D02*
X306658Y256651D01*
X304674Y255325D01*
X303348Y253341D01*
X302882Y251000D01*
X303348Y248658D01*
X304674Y246674D01*
X306536Y245429D01*
X306693Y244774D01*
X306738Y244037D01*
X305674Y243326D01*
X304348Y241341D01*
X303883Y239000D01*
X304348Y236659D01*
X305674Y234674D01*
X307659Y233348D01*
X310000Y232882D01*
X312341Y233348D01*
X314326Y234674D01*
X315652Y236659D01*
X316118Y239000D01*
X315652Y241341D01*
X314326Y243326D01*
X312463Y244570D01*
X312306Y245225D01*
X312261Y245963D01*
X313325Y246674D01*
X314651Y248658D01*
X315117Y251000D01*
X314651Y253341D01*
X313325Y255325D01*
X311341Y256651D01*
X309000Y257117D01*
D02*
G37*
G36*
X413999Y245117D02*
X411658Y244651D01*
X409673Y243325D01*
X408347Y241341D01*
X407882Y239000D01*
X408347Y236658D01*
X409673Y234674D01*
X411658Y233348D01*
X413999Y232882D01*
X416340Y233348D01*
X418325Y234674D01*
X419037Y235740D01*
X419776Y235694D01*
X420429Y235537D01*
X421674Y233674D01*
X423659Y232348D01*
X426000Y231882D01*
X428341Y232348D01*
X430202Y233592D01*
X430638Y233733D01*
X431362D01*
X431798Y233592D01*
X433659Y232348D01*
X436000Y231882D01*
X438341Y232348D01*
X440326Y233674D01*
X441652Y235659D01*
X442118Y238000D01*
X441652Y240341D01*
X440326Y242326D01*
X438341Y243652D01*
X436000Y244118D01*
X433659Y243652D01*
X431674Y242326D01*
X431635Y242267D01*
X430365D01*
X430326Y242326D01*
X428341Y243652D01*
X426000Y244118D01*
X423659Y243652D01*
X421674Y242326D01*
X420962Y241260D01*
X420223Y241305D01*
X419570Y241462D01*
X418325Y243325D01*
X416340Y244651D01*
X413999Y245117D01*
D02*
G37*
G36*
X99750Y254867D02*
X97409Y254401D01*
X95424Y253075D01*
X94098Y251091D01*
X93632Y248750D01*
X94098Y246409D01*
X95424Y244424D01*
X97409Y243098D01*
X98666Y242848D01*
X98934Y241500D01*
X98674Y241326D01*
X97348Y239341D01*
X96882Y237000D01*
X97348Y234659D01*
X98674Y232674D01*
X100659Y231348D01*
X103000Y230882D01*
X105341Y231348D01*
X107326Y232674D01*
X108652Y234659D01*
X109117Y237000D01*
X108652Y239341D01*
X107326Y241326D01*
X105341Y242652D01*
X104084Y242902D01*
X103815Y244250D01*
X104075Y244424D01*
X105402Y246409D01*
X105867Y248750D01*
X105402Y251091D01*
X104075Y253075D01*
X102091Y254401D01*
X99750Y254867D01*
D02*
G37*
G36*
X923749Y238867D02*
X921408Y238402D01*
X919424Y237075D01*
X918098Y235091D01*
X917632Y232750D01*
X918098Y230409D01*
X919424Y228424D01*
X921408Y227098D01*
X923749Y226632D01*
X926090Y227098D01*
X928075Y228424D01*
X929401Y230409D01*
X929867Y232750D01*
X929401Y235091D01*
X928075Y237075D01*
X926090Y238402D01*
X923749Y238867D01*
D02*
G37*
G36*
X523750D02*
X521409Y238402D01*
X519424Y237075D01*
X518098Y235091D01*
X517632Y232750D01*
X518098Y230409D01*
X519424Y228424D01*
X521409Y227098D01*
X523750Y226632D01*
X526091Y227098D01*
X528075Y228424D01*
X529402Y230409D01*
X529867Y232750D01*
X529402Y235091D01*
X528075Y237075D01*
X526091Y238402D01*
X523750Y238867D01*
D02*
G37*
G36*
X139750D02*
X137409Y238402D01*
X135424Y237075D01*
X134098Y235091D01*
X133632Y232750D01*
X134098Y230409D01*
X135424Y228424D01*
X137409Y227098D01*
X139750Y226632D01*
X142091Y227098D01*
X144075Y228424D01*
X145402Y230409D01*
X145867Y232750D01*
X145402Y235091D01*
X144075Y237075D01*
X142091Y238402D01*
X139750Y238867D01*
D02*
G37*
G36*
X269000Y247118D02*
X266659Y246652D01*
X264674Y245326D01*
X263348Y243341D01*
X262882Y241000D01*
X263348Y238659D01*
X264674Y236674D01*
X266659Y235348D01*
X269000Y234883D01*
X271341Y235348D01*
X271467Y235432D01*
X272382Y234516D01*
X272098Y234091D01*
X271632Y231750D01*
X272098Y229409D01*
X273424Y227424D01*
X275409Y226098D01*
X277750Y225632D01*
X280091Y226098D01*
X282076Y227424D01*
X283402Y229409D01*
X283868Y231750D01*
X283402Y234091D01*
X282076Y236076D01*
X280091Y237402D01*
X277750Y237868D01*
X275409Y237402D01*
X275283Y237318D01*
X274368Y238234D01*
X274652Y238659D01*
X275117Y241000D01*
X274652Y243341D01*
X273326Y245326D01*
X271341Y246652D01*
X269000Y247118D01*
D02*
G37*
G36*
X352999Y236117D02*
X350658Y235651D01*
X348674Y234325D01*
X347347Y232341D01*
X346882Y230000D01*
X347347Y227658D01*
X348674Y225674D01*
X350658Y224348D01*
X352999Y223882D01*
X355340Y224348D01*
X357325Y225674D01*
X358651Y227658D01*
X359117Y230000D01*
X358651Y232341D01*
X357325Y234325D01*
X355340Y235651D01*
X352999Y236117D01*
D02*
G37*
G36*
X487000Y226117D02*
X484659Y225652D01*
X482674Y224326D01*
X481734Y222918D01*
X480266D01*
X479326Y224326D01*
X477341Y225652D01*
X475000Y226117D01*
X472659Y225652D01*
X470674Y224326D01*
X469348Y222341D01*
X468882Y220000D01*
X469348Y217659D01*
X470674Y215674D01*
X472659Y214348D01*
X475000Y213883D01*
X477341Y214348D01*
X479326Y215674D01*
X480266Y217082D01*
X481734D01*
X482674Y215674D01*
X484659Y214348D01*
X487000Y213883D01*
X489341Y214348D01*
X491326Y215674D01*
X492652Y217659D01*
X493117Y220000D01*
X492652Y222341D01*
X491326Y224326D01*
X489341Y225652D01*
X487000Y226117D01*
D02*
G37*
G36*
X1002608Y234118D02*
X1000267Y233652D01*
X998282Y232326D01*
X996956Y230341D01*
X996490Y228000D01*
X996956Y225659D01*
X998282Y223674D01*
X1000267Y222348D01*
X1002608Y221882D01*
X1004949Y222348D01*
X1006934Y223674D01*
X1008260Y225659D01*
X1008725Y228000D01*
X1008260Y230341D01*
X1006934Y232326D01*
X1004949Y233652D01*
X1002608Y234118D01*
D02*
G37*
G36*
X114375Y232743D02*
X112034Y232277D01*
X110049Y230951D01*
X108723Y228966D01*
X108258Y226625D01*
X108723Y224284D01*
X110049Y222299D01*
X112034Y220973D01*
X114375Y220508D01*
X116716Y220973D01*
X118701Y222299D01*
X120027Y224284D01*
X120493Y226625D01*
X120027Y228966D01*
X118701Y230951D01*
X116716Y232277D01*
X114375Y232743D01*
D02*
G37*
G36*
X764000Y223118D02*
X761659Y222652D01*
X759674Y221326D01*
X758734Y219918D01*
X757266D01*
X756326Y221326D01*
X754341Y222652D01*
X752000Y223118D01*
X749659Y222652D01*
X747674Y221326D01*
X746348Y219341D01*
X745882Y217000D01*
X746348Y214659D01*
X747674Y212674D01*
X749659Y211348D01*
X752000Y210882D01*
X754341Y211348D01*
X756326Y212674D01*
X757266Y214082D01*
X758734D01*
X759674Y212674D01*
X761659Y211348D01*
X764000Y210882D01*
X766341Y211348D01*
X768326Y212674D01*
X769652Y214659D01*
X770117Y217000D01*
X769652Y219341D01*
X768326Y221326D01*
X766341Y222652D01*
X764000Y223118D01*
D02*
G37*
G36*
X248000Y221117D02*
X245659Y220652D01*
X243674Y219326D01*
X242733Y217918D01*
X241266D01*
X240326Y219326D01*
X238341Y220652D01*
X236000Y221117D01*
X233659Y220652D01*
X231674Y219326D01*
X231135Y218519D01*
X229865D01*
X229326Y219326D01*
X227341Y220652D01*
X225000Y221117D01*
X222659Y220652D01*
X220674Y219326D01*
X220135Y218519D01*
X218865D01*
X218326Y219326D01*
X216341Y220652D01*
X214000Y221117D01*
X211659Y220652D01*
X209674Y219326D01*
X208348Y217341D01*
X207882Y215000D01*
X208348Y212659D01*
X209674Y210674D01*
X211659Y209348D01*
X214000Y208883D01*
X216341Y209348D01*
X218326Y210674D01*
X218865Y211481D01*
X220135D01*
X220674Y210674D01*
X222659Y209348D01*
X225000Y208883D01*
X227341Y209348D01*
X229326Y210674D01*
X229865Y211481D01*
X231135D01*
X231674Y210674D01*
X233659Y209348D01*
X236000Y208883D01*
X238341Y209348D01*
X240326Y210674D01*
X241266Y212082D01*
X242733D01*
X243674Y210674D01*
X245659Y209348D01*
X248000Y208883D01*
X250341Y209348D01*
X252326Y210674D01*
X253652Y212659D01*
X254118Y215000D01*
X253652Y217341D01*
X252326Y219326D01*
X250341Y220652D01*
X248000Y221117D01*
D02*
G37*
G36*
X378000Y229618D02*
X375659Y229152D01*
X373674Y227826D01*
X372348Y225841D01*
X371883Y223500D01*
X372348Y221159D01*
X373674Y219174D01*
X375659Y217848D01*
X378000Y217383D01*
X380341Y217848D01*
X382326Y219174D01*
X383652Y221159D01*
X384118Y223500D01*
X383652Y225841D01*
X382326Y227826D01*
X380341Y229152D01*
X378000Y229618D01*
D02*
G37*
G36*
X169000Y238118D02*
X166659Y237652D01*
X164674Y236326D01*
X163348Y234341D01*
X162882Y232000D01*
X163348Y229659D01*
X164674Y227674D01*
X166659Y226348D01*
X167985Y226084D01*
X168570Y224673D01*
X168348Y224341D01*
X167882Y222000D01*
X168348Y219659D01*
X169674Y217674D01*
X171659Y216348D01*
X174000Y215882D01*
X176341Y216348D01*
X178326Y217674D01*
X178865Y218481D01*
X180135D01*
X180674Y217674D01*
X182659Y216348D01*
X185000Y215882D01*
X187341Y216348D01*
X189326Y217674D01*
X189865Y218481D01*
X191135D01*
X191674Y217674D01*
X193659Y216348D01*
X196000Y215882D01*
X198341Y216348D01*
X200326Y217674D01*
X201652Y219659D01*
X202118Y222000D01*
X201652Y224341D01*
X200326Y226326D01*
X198341Y227652D01*
X196000Y228118D01*
X193659Y227652D01*
X191674Y226326D01*
X191135Y225519D01*
X189865D01*
X189326Y226326D01*
X187341Y227652D01*
X185000Y228118D01*
X182659Y227652D01*
X180674Y226326D01*
X180135Y225519D01*
X178865D01*
X178326Y226326D01*
X176341Y227652D01*
X175015Y227916D01*
X174430Y229327D01*
X174652Y229659D01*
X175118Y232000D01*
X174652Y234341D01*
X173326Y236326D01*
X171341Y237652D01*
X169000Y238118D01*
D02*
G37*
G36*
X938000Y241118D02*
X935659Y240652D01*
X933674Y239326D01*
X932348Y237341D01*
X931882Y235000D01*
X932348Y232659D01*
X933674Y230674D01*
X934481Y230135D01*
Y228865D01*
X933674Y228326D01*
X932348Y226341D01*
X931882Y224000D01*
X930848Y222688D01*
X929408Y222402D01*
X927424Y221075D01*
X926097Y219091D01*
X925632Y216750D01*
X926097Y214409D01*
X926532Y213758D01*
X926518Y213593D01*
X925869Y212465D01*
X925511Y212437D01*
X925459Y212422D01*
X925405Y212426D01*
X924496Y212306D01*
X924445Y212289D01*
X924391Y212290D01*
X923490Y212123D01*
X923440Y212103D01*
X923385Y212100D01*
X922495Y211887D01*
X922445Y211864D01*
X922392Y211859D01*
X921513Y211599D01*
X921068Y211676D01*
X920502Y213064D01*
X921401Y214409D01*
X921867Y216750D01*
X921401Y219091D01*
X920075Y221075D01*
X918091Y222402D01*
X915749Y222867D01*
X913408Y222402D01*
X911424Y221075D01*
X910098Y219091D01*
X909632Y216750D01*
X910098Y214409D01*
X911424Y212424D01*
X913408Y211098D01*
X915749Y210632D01*
X916799Y210841D01*
X917269Y209639D01*
X916903Y209415D01*
X916864Y209379D01*
X916814Y209357D01*
X916059Y208838D01*
X916021Y208799D01*
X915972Y208776D01*
X915246Y208218D01*
X915210Y208177D01*
X915163Y208151D01*
X914466Y207556D01*
X914432Y207513D01*
X914387Y207484D01*
X913722Y206854D01*
X913691Y206809D01*
X913646Y206778D01*
X913016Y206113D01*
X912987Y206068D01*
X912944Y206034D01*
X912349Y205338D01*
X912323Y205290D01*
X912282Y205254D01*
X911724Y204528D01*
X911701Y204479D01*
X911662Y204441D01*
X911143Y203686D01*
X911121Y203636D01*
X911085Y203597D01*
X910606Y202815D01*
X910587Y202765D01*
X910553Y202723D01*
X910115Y201918D01*
X910099Y201866D01*
X910067Y201823D01*
X909672Y200996D01*
X909659Y200943D01*
X909629Y200898D01*
X909278Y200052D01*
X909268Y199999D01*
X909240Y199952D01*
X908934Y199088D01*
X908926Y199035D01*
X908901Y198987D01*
X908641Y198109D01*
X908636Y198055D01*
X908613Y198005D01*
X908400Y197115D01*
X908397Y197060D01*
X908377Y197010D01*
X908210Y196109D01*
X908211Y196055D01*
X908194Y196004D01*
X908074Y195095D01*
X908078Y195041D01*
X908063Y194989D01*
X907991Y194076D01*
X907997Y194022D01*
X907986Y193969D01*
X907962Y193053D01*
X907971Y193000D01*
X907962Y192947D01*
X907986Y192031D01*
X907997Y191978D01*
X907991Y191924D01*
X908063Y191011D01*
X908078Y190959D01*
X908074Y190905D01*
X908194Y189996D01*
X908211Y189945D01*
X908210Y189891D01*
X908377Y188990D01*
X908397Y188940D01*
X908400Y188886D01*
X908613Y187995D01*
X908636Y187945D01*
X908641Y187892D01*
X908901Y187013D01*
X908926Y186965D01*
X908934Y186912D01*
X909240Y186048D01*
X909268Y186001D01*
X909278Y185948D01*
X909629Y185102D01*
X909659Y185057D01*
X909672Y185004D01*
X910067Y184177D01*
X910099Y184134D01*
X910115Y184082D01*
X910553Y183277D01*
X910587Y183235D01*
X910606Y183185D01*
X911085Y182403D01*
X911121Y182364D01*
X911143Y182314D01*
X911662Y181559D01*
X911700Y181521D01*
X911724Y181472D01*
X912282Y180746D01*
X912323Y180710D01*
X912349Y180662D01*
X912944Y179966D01*
X912987Y179932D01*
X913016Y179887D01*
X913646Y179222D01*
X913691Y179191D01*
X913722Y179146D01*
X914387Y178516D01*
X914432Y178487D01*
X914466Y178444D01*
X915163Y177849D01*
X915210Y177823D01*
X915246Y177782D01*
X915972Y177224D01*
X916021Y177201D01*
X916059Y177162D01*
X916814Y176643D01*
X916864Y176621D01*
X916903Y176585D01*
X917684Y176106D01*
X917735Y176087D01*
X917777Y176052D01*
X918582Y175615D01*
X918634Y175599D01*
X918677Y175567D01*
X919504Y175172D01*
X919557Y175159D01*
X919602Y175129D01*
X919978Y174973D01*
X920193Y173739D01*
X920124Y173543D01*
X919424Y173075D01*
X918098Y171091D01*
X917632Y168750D01*
X918098Y166409D01*
X919424Y164424D01*
X921408Y163098D01*
X923749Y162632D01*
X926090Y163098D01*
X928075Y164424D01*
X929401Y166409D01*
X929867Y168750D01*
X929401Y171091D01*
X928634Y172238D01*
X929287Y173547D01*
X929489Y173563D01*
X929541Y173578D01*
X929595Y173574D01*
X930504Y173694D01*
X930555Y173711D01*
X930609Y173710D01*
X931510Y173877D01*
X931560Y173897D01*
X931615Y173900D01*
X932505Y174113D01*
X932555Y174136D01*
X932608Y174141D01*
X933487Y174401D01*
X933535Y174426D01*
X933588Y174434D01*
X934452Y174740D01*
X934499Y174768D01*
X934552Y174778D01*
X935398Y175129D01*
X935443Y175159D01*
X935496Y175172D01*
X936323Y175567D01*
X936366Y175599D01*
X936418Y175615D01*
X937223Y176052D01*
X937265Y176087D01*
X937316Y176106D01*
X938097Y176585D01*
X938137Y176621D01*
X938186Y176643D01*
X938941Y177162D01*
X938979Y177201D01*
X939028Y177224D01*
X939754Y177782D01*
X939790Y177823D01*
X939837Y177849D01*
X940534Y178444D01*
X940568Y178487D01*
X940613Y178516D01*
X941278Y179146D01*
X941309Y179191D01*
X941354Y179222D01*
X941984Y179886D01*
X942013Y179932D01*
X942056Y179966D01*
X942651Y180662D01*
X942677Y180710D01*
X942718Y180746D01*
X943276Y181472D01*
X943299Y181521D01*
X943338Y181559D01*
X943857Y182314D01*
X943879Y182364D01*
X943915Y182403D01*
X944394Y183185D01*
X944413Y183235D01*
X944447Y183277D01*
X944885Y184082D01*
X944901Y184134D01*
X944933Y184177D01*
X945328Y185004D01*
X945341Y185057D01*
X945371Y185102D01*
X945722Y185948D01*
X945732Y186001D01*
X945760Y186048D01*
X946066Y186912D01*
X946074Y186965D01*
X946099Y187013D01*
X946359Y187892D01*
X946364Y187945D01*
X946386Y187995D01*
X946600Y188885D01*
X946603Y188940D01*
X946623Y188990D01*
X946790Y189891D01*
X946789Y189945D01*
X946806Y189996D01*
X946926Y190905D01*
X946922Y190959D01*
X946937Y191011D01*
X947009Y191924D01*
X947003Y191978D01*
X947014Y192031D01*
X947038Y192947D01*
X947029Y193000D01*
X947038Y193053D01*
X947014Y193969D01*
X947003Y194022D01*
X947009Y194076D01*
X946937Y194989D01*
X946922Y195041D01*
X946926Y195095D01*
X946806Y196004D01*
X946789Y196055D01*
X946790Y196109D01*
X946623Y197010D01*
X946603Y197060D01*
X946600Y197115D01*
X946386Y198005D01*
X946364Y198055D01*
X946359Y198108D01*
X946099Y198987D01*
X946074Y199035D01*
X946066Y199088D01*
X945760Y199952D01*
X945732Y199999D01*
X945722Y200052D01*
X945371Y200898D01*
X945341Y200943D01*
X945328Y200996D01*
X944933Y201823D01*
X944901Y201866D01*
X944885Y201918D01*
X944447Y202723D01*
X944413Y202765D01*
X944394Y202815D01*
X943915Y203597D01*
X943879Y203636D01*
X943857Y203686D01*
X943338Y204441D01*
X943300Y204479D01*
X943276Y204528D01*
X942718Y205254D01*
X942677Y205290D01*
X942651Y205338D01*
X942056Y206034D01*
X942013Y206068D01*
X941984Y206113D01*
X941354Y206778D01*
X941309Y206809D01*
X941278Y206854D01*
X940613Y207484D01*
X940568Y207513D01*
X940534Y207556D01*
X939837Y208151D01*
X939790Y208177D01*
X939754Y208218D01*
X939028Y208776D01*
X938979Y208800D01*
X938941Y208838D01*
X938186Y209357D01*
X938136Y209379D01*
X938097Y209415D01*
X937316Y209894D01*
X937265Y209913D01*
X937223Y209947D01*
X936418Y210385D01*
X936366Y210401D01*
X936323Y210433D01*
X935774Y210695D01*
X935546Y211612D01*
X935651Y212141D01*
X936075Y212424D01*
X937401Y214409D01*
X937867Y216750D01*
X938901Y218062D01*
X940341Y218348D01*
X942326Y219674D01*
X943652Y221659D01*
X944118Y224000D01*
X943652Y226341D01*
X942326Y228326D01*
X941519Y228865D01*
Y230135D01*
X942326Y230674D01*
X943652Y232659D01*
X944118Y235000D01*
X943652Y237341D01*
X942326Y239326D01*
X940341Y240652D01*
X938000Y241118D01*
D02*
G37*
G36*
X295000Y223118D02*
X292659Y222652D01*
X290674Y221326D01*
X289348Y219341D01*
X288883Y217000D01*
X289348Y214659D01*
X290674Y212674D01*
X292659Y211348D01*
X295000Y210882D01*
X297341Y211348D01*
X299326Y212674D01*
X300652Y214659D01*
X301118Y217000D01*
X300652Y219341D01*
X299326Y221326D01*
X297341Y222652D01*
X295000Y223118D01*
D02*
G37*
G36*
X1027749Y222867D02*
X1025408Y222402D01*
X1023424Y221075D01*
X1022097Y219091D01*
X1021632Y216750D01*
X1022097Y214409D01*
X1023424Y212424D01*
X1025408Y211098D01*
X1027749Y210632D01*
X1030090Y211098D01*
X1032075Y212424D01*
X1033401Y214409D01*
X1033867Y216750D01*
X1033401Y219091D01*
X1032075Y221075D01*
X1030090Y222402D01*
X1027749Y222867D01*
D02*
G37*
G36*
X899749D02*
X897408Y222402D01*
X895424Y221075D01*
X894098Y219091D01*
X893632Y216750D01*
X894098Y214409D01*
X895424Y212424D01*
X897408Y211098D01*
X899749Y210632D01*
X902091Y211098D01*
X904075Y212424D01*
X905401Y214409D01*
X905867Y216750D01*
X905401Y219091D01*
X904075Y221075D01*
X902091Y222402D01*
X899749Y222867D01*
D02*
G37*
G36*
X883749D02*
X881408Y222402D01*
X879424Y221075D01*
X878098Y219091D01*
X877632Y216750D01*
X878098Y214409D01*
X879424Y212424D01*
X881408Y211098D01*
X883749Y210632D01*
X886090Y211098D01*
X888075Y212424D01*
X889401Y214409D01*
X889867Y216750D01*
X889401Y219091D01*
X888075Y221075D01*
X886090Y222402D01*
X883749Y222867D01*
D02*
G37*
G36*
X867749D02*
X865408Y222402D01*
X863424Y221075D01*
X862098Y219091D01*
X861632Y216750D01*
X862098Y214409D01*
X863424Y212424D01*
X865408Y211098D01*
X867749Y210632D01*
X870090Y211098D01*
X872075Y212424D01*
X873401Y214409D01*
X873867Y216750D01*
X873401Y219091D01*
X872075Y221075D01*
X870090Y222402D01*
X867749Y222867D01*
D02*
G37*
G36*
X851749D02*
X849408Y222402D01*
X847424Y221075D01*
X846098Y219091D01*
X845632Y216750D01*
X846098Y214409D01*
X847424Y212424D01*
X849408Y211098D01*
X851749Y210632D01*
X854090Y211098D01*
X856075Y212424D01*
X857401Y214409D01*
X857867Y216750D01*
X857401Y219091D01*
X856075Y221075D01*
X854090Y222402D01*
X851749Y222867D01*
D02*
G37*
G36*
X835750D02*
X833408Y222402D01*
X831424Y221075D01*
X830098Y219091D01*
X829632Y216750D01*
X830098Y214409D01*
X831424Y212424D01*
X833408Y211098D01*
X835750Y210632D01*
X838091Y211098D01*
X840075Y212424D01*
X841401Y214409D01*
X841867Y216750D01*
X841401Y219091D01*
X840075Y221075D01*
X838091Y222402D01*
X835750Y222867D01*
D02*
G37*
G36*
X147750D02*
X145409Y222402D01*
X143424Y221075D01*
X142098Y219091D01*
X141632Y216750D01*
X142098Y214409D01*
X143424Y212424D01*
X145409Y211098D01*
X147750Y210632D01*
X150091Y211098D01*
X152076Y212424D01*
X153402Y214409D01*
X153867Y216750D01*
X153402Y219091D01*
X152076Y221075D01*
X150091Y222402D01*
X147750Y222867D01*
D02*
G37*
G36*
X265000Y222118D02*
X262659Y221652D01*
X260674Y220326D01*
X259348Y218341D01*
X258883Y216000D01*
X259348Y213659D01*
X260674Y211674D01*
X262659Y210348D01*
X265000Y209883D01*
X267341Y210348D01*
X269326Y211674D01*
X270652Y213659D01*
X271117Y216000D01*
X270652Y218341D01*
X269326Y220326D01*
X267341Y221652D01*
X265000Y222118D01*
D02*
G37*
G36*
X1002000Y220117D02*
X999659Y219652D01*
X997674Y218326D01*
X996348Y216341D01*
X995882Y214000D01*
X996348Y211659D01*
X997674Y209674D01*
X999659Y208348D01*
X1002000Y207882D01*
X1004341Y208348D01*
X1006326Y209674D01*
X1007652Y211659D01*
X1008118Y214000D01*
X1007652Y216341D01*
X1006326Y218326D01*
X1004341Y219652D01*
X1002000Y220117D01*
D02*
G37*
G36*
X718000Y216118D02*
X715659Y215652D01*
X713674Y214326D01*
X712348Y212341D01*
X711882Y210000D01*
X712348Y207659D01*
X713674Y205674D01*
X715659Y204348D01*
X718000Y203883D01*
X720341Y204348D01*
X722326Y205674D01*
X723652Y207659D01*
X724118Y210000D01*
X723652Y212341D01*
X722326Y214326D01*
X720341Y215652D01*
X718000Y216118D01*
D02*
G37*
G36*
X891749Y206867D02*
X889408Y206402D01*
X887424Y205075D01*
X886097Y203091D01*
X885632Y200750D01*
X886097Y198409D01*
X887424Y196424D01*
X889408Y195098D01*
X891749Y194632D01*
X894090Y195098D01*
X896075Y196424D01*
X897401Y198409D01*
X897867Y200750D01*
X897401Y203091D01*
X896075Y205075D01*
X894090Y206402D01*
X891749Y206867D01*
D02*
G37*
G36*
X875749D02*
X873408Y206402D01*
X871424Y205075D01*
X870098Y203091D01*
X869632Y200750D01*
X870098Y198409D01*
X871424Y196424D01*
X873408Y195098D01*
X875749Y194632D01*
X878091Y195098D01*
X880075Y196424D01*
X881401Y198409D01*
X881867Y200750D01*
X881401Y203091D01*
X880075Y205075D01*
X878091Y206402D01*
X875749Y206867D01*
D02*
G37*
G36*
X859749D02*
X857408Y206402D01*
X855424Y205075D01*
X854098Y203091D01*
X853632Y200750D01*
X854098Y198409D01*
X855424Y196424D01*
X857408Y195098D01*
X859749Y194632D01*
X862091Y195098D01*
X864075Y196424D01*
X865401Y198409D01*
X865867Y200750D01*
X865401Y203091D01*
X864075Y205075D01*
X862091Y206402D01*
X859749Y206867D01*
D02*
G37*
G36*
X843749D02*
X841408Y206402D01*
X839424Y205075D01*
X838098Y203091D01*
X837632Y200750D01*
X838098Y198409D01*
X839424Y196424D01*
X841408Y195098D01*
X843749Y194632D01*
X846090Y195098D01*
X848075Y196424D01*
X849401Y198409D01*
X849867Y200750D01*
X849401Y203091D01*
X848075Y205075D01*
X846090Y206402D01*
X843749Y206867D01*
D02*
G37*
G36*
X785000Y212118D02*
X782659Y211652D01*
X780674Y210326D01*
X779348Y208341D01*
X778883Y206000D01*
X779348Y203659D01*
X780674Y201674D01*
X781481Y201135D01*
Y199865D01*
X780674Y199326D01*
X779348Y197341D01*
X778883Y195000D01*
X779348Y192659D01*
X780674Y190674D01*
X782659Y189348D01*
X785000Y188883D01*
X787341Y189348D01*
X789326Y190674D01*
X790652Y192659D01*
X791117Y195000D01*
X790652Y197341D01*
X789326Y199326D01*
X788519Y199865D01*
Y201135D01*
X789326Y201674D01*
X790652Y203659D01*
X791117Y206000D01*
X790652Y208341D01*
X789326Y210326D01*
X787341Y211652D01*
X785000Y212118D01*
D02*
G37*
G36*
X899749Y190867D02*
X897408Y190402D01*
X895424Y189075D01*
X894098Y187091D01*
X893632Y184750D01*
X894098Y182409D01*
X895424Y180424D01*
X897408Y179098D01*
X899749Y178632D01*
X902091Y179098D01*
X904075Y180424D01*
X905401Y182409D01*
X905867Y184750D01*
X905401Y187091D01*
X904075Y189075D01*
X902091Y190402D01*
X899749Y190867D01*
D02*
G37*
G36*
X1032000Y199900D02*
X1008000D01*
Y175900D01*
X1032000D01*
Y199900D01*
D02*
G37*
G36*
X981000Y190117D02*
X978659Y189652D01*
X976674Y188326D01*
X975348Y186341D01*
X974883Y184000D01*
X975348Y181659D01*
X976674Y179674D01*
X977481Y179135D01*
Y177865D01*
X976674Y177326D01*
X975348Y175341D01*
X974883Y173000D01*
X975348Y170659D01*
X976674Y168674D01*
X978659Y167348D01*
X981000Y166882D01*
X983341Y167348D01*
X985326Y168674D01*
X986652Y170659D01*
X987117Y173000D01*
X986652Y175341D01*
X985326Y177326D01*
X984519Y177865D01*
Y179135D01*
X985326Y179674D01*
X986652Y181659D01*
X987117Y184000D01*
X986652Y186341D01*
X985326Y188326D01*
X983341Y189652D01*
X981000Y190117D01*
D02*
G37*
G36*
X939749Y174867D02*
X937408Y174402D01*
X935424Y173075D01*
X934098Y171091D01*
X933632Y168750D01*
X934098Y166409D01*
X935424Y164424D01*
X937408Y163098D01*
X939749Y162632D01*
X942091Y163098D01*
X944075Y164424D01*
X945401Y166409D01*
X945867Y168750D01*
X945401Y171091D01*
X944075Y173075D01*
X942091Y174402D01*
X939749Y174867D01*
D02*
G37*
G36*
X139750D02*
X137409Y174402D01*
X135424Y173075D01*
X134098Y171091D01*
X133632Y168750D01*
X134098Y166409D01*
X135424Y164424D01*
X137409Y163098D01*
X139750Y162632D01*
X142091Y163098D01*
X144075Y164424D01*
X145402Y166409D01*
X145867Y168750D01*
X145402Y171091D01*
X144075Y173075D01*
X142091Y174402D01*
X139750Y174867D01*
D02*
G37*
G36*
X863000Y169118D02*
X860659Y168652D01*
X858674Y167326D01*
X857348Y165341D01*
X856882Y163000D01*
X857348Y160659D01*
X858674Y158674D01*
X860659Y157348D01*
X863000Y156882D01*
X865341Y157348D01*
X867326Y158674D01*
X868652Y160659D01*
X869118Y163000D01*
X868652Y165341D01*
X867326Y167326D01*
X865341Y168652D01*
X863000Y169118D01*
D02*
G37*
G36*
X995749Y158867D02*
X993408Y158402D01*
X991424Y157076D01*
X990098Y155091D01*
X989632Y152750D01*
X990098Y150409D01*
X991424Y148424D01*
X993408Y147098D01*
X995749Y146632D01*
X998091Y147098D01*
X1000075Y148424D01*
X1001401Y150409D01*
X1001867Y152750D01*
X1001401Y155091D01*
X1000075Y157076D01*
X998091Y158402D01*
X995749Y158867D01*
D02*
G37*
G36*
X100000Y183118D02*
X97659Y182652D01*
X95674Y181326D01*
X94348Y179341D01*
X93883Y177000D01*
X94348Y174659D01*
X95578Y172818D01*
X95618Y172100D01*
X95552Y171432D01*
X94948Y171182D01*
X92442Y169258D01*
X90518Y166752D01*
X89309Y163833D01*
X88896Y160700D01*
X89309Y157567D01*
X90518Y154648D01*
X92442Y152142D01*
X94948Y150218D01*
X97867Y149009D01*
X101000Y148596D01*
X104133Y149009D01*
X107052Y150218D01*
X108604Y151409D01*
X110004Y150882D01*
X110098Y150409D01*
X111326Y148570D01*
X111159Y147931D01*
X110820Y147300D01*
X89000D01*
Y123300D01*
X113000D01*
Y145960D01*
X114270Y146926D01*
X115750Y146632D01*
X118091Y147098D01*
X120076Y148424D01*
X121402Y150409D01*
X121867Y152750D01*
X121402Y155091D01*
X120076Y157076D01*
X118091Y158402D01*
X115750Y158867D01*
X114100Y158539D01*
X112946Y159504D01*
X113104Y160700D01*
X112691Y163833D01*
X111482Y166752D01*
X109558Y169258D01*
X107052Y171182D01*
X105294Y171910D01*
X104855Y173466D01*
X105652Y174659D01*
X106117Y177000D01*
X105652Y179341D01*
X104326Y181326D01*
X102341Y182652D01*
X100000Y183118D01*
D02*
G37*
G36*
X139750Y142867D02*
X137409Y142402D01*
X135424Y141075D01*
X134098Y139091D01*
X133632Y136750D01*
X134098Y134409D01*
X135424Y132424D01*
X137409Y131098D01*
X139750Y130632D01*
X142091Y131098D01*
X144075Y132424D01*
X145402Y134409D01*
X145867Y136750D01*
X145402Y139091D01*
X144075Y141075D01*
X142091Y142402D01*
X139750Y142867D01*
D02*
G37*
G36*
X1003749Y174867D02*
X1001408Y174402D01*
X999424Y173075D01*
X998098Y171091D01*
X997632Y168750D01*
X998098Y166409D01*
X999424Y164424D01*
X1001408Y163098D01*
X1003749Y162632D01*
X1006090Y163098D01*
X1006752Y163540D01*
X1007936Y162804D01*
X1007896Y162500D01*
X1008309Y159367D01*
X1009518Y156448D01*
X1011441Y153941D01*
X1013948Y152018D01*
X1016867Y150809D01*
X1019096Y150515D01*
X1019665Y150440D01*
Y149160D01*
X1019096Y149085D01*
X1016867Y148791D01*
X1013948Y147582D01*
X1011441Y145659D01*
X1009518Y143152D01*
X1008309Y140233D01*
X1007896Y137100D01*
X1008309Y133967D01*
X1009518Y131048D01*
X1011441Y128541D01*
X1012001Y128112D01*
X1011846Y127345D01*
X1011581Y126834D01*
X1009408Y126402D01*
X1007424Y125076D01*
X1006097Y123091D01*
X1005632Y120750D01*
X1006097Y118409D01*
X1007424Y116424D01*
X1009408Y115098D01*
X1011749Y114632D01*
X1014090Y115098D01*
X1016075Y116424D01*
X1017401Y118409D01*
X1017867Y120750D01*
X1017401Y123091D01*
X1016689Y124157D01*
X1017429Y125335D01*
X1020000Y124996D01*
X1022021Y125262D01*
X1022757Y124079D01*
X1022097Y123091D01*
X1021632Y120750D01*
X1022097Y118409D01*
X1023424Y116424D01*
X1025408Y115098D01*
X1027749Y114632D01*
X1030090Y115098D01*
X1032075Y116424D01*
X1033401Y118409D01*
X1033867Y120750D01*
X1033401Y123091D01*
X1032075Y125076D01*
X1030090Y126402D01*
X1028316Y126755D01*
X1027999Y128112D01*
X1028559Y128541D01*
X1030482Y131048D01*
X1031691Y133967D01*
X1032104Y137100D01*
X1031691Y140233D01*
X1030482Y143152D01*
X1028559Y145659D01*
X1026052Y147582D01*
X1023133Y148791D01*
X1020904Y149085D01*
X1020334Y149160D01*
Y150440D01*
X1020904Y150515D01*
X1023133Y150809D01*
X1026052Y152018D01*
X1028559Y153941D01*
X1030482Y156448D01*
X1031691Y159367D01*
X1032104Y162500D01*
X1031691Y165633D01*
X1030482Y168552D01*
X1028559Y171059D01*
X1026052Y172982D01*
X1023133Y174191D01*
X1020000Y174604D01*
X1016867Y174191D01*
X1013948Y172982D01*
X1011441Y171059D01*
X1010763Y170174D01*
X1009526Y170463D01*
X1009401Y171091D01*
X1008075Y173075D01*
X1006090Y174402D01*
X1003749Y174867D01*
D02*
G37*
G36*
X995749Y126867D02*
X993408Y126402D01*
X991424Y125076D01*
X990098Y123091D01*
X989632Y120750D01*
X990098Y118409D01*
X991424Y116424D01*
X993408Y115098D01*
X995749Y114632D01*
X998091Y115098D01*
X1000075Y116424D01*
X1001401Y118409D01*
X1001867Y120750D01*
X1001401Y123091D01*
X1000075Y125076D01*
X998091Y126402D01*
X995749Y126867D01*
D02*
G37*
G36*
X815000Y117118D02*
X812659Y116652D01*
X810674Y115326D01*
X809734Y113918D01*
X808267D01*
X807326Y115326D01*
X805341Y116652D01*
X803000Y117118D01*
X800659Y116652D01*
X798674Y115326D01*
X797348Y113341D01*
X796882Y111000D01*
X797348Y108659D01*
X798674Y106674D01*
X800659Y105348D01*
X803000Y104882D01*
X805341Y105348D01*
X807326Y106674D01*
X808267Y108082D01*
X809734D01*
X810674Y106674D01*
X812659Y105348D01*
X815000Y104882D01*
X817341Y105348D01*
X819326Y106674D01*
X820652Y108659D01*
X821117Y111000D01*
X820652Y113341D01*
X819326Y115326D01*
X817341Y116652D01*
X815000Y117118D01*
D02*
G37*
G36*
X962500Y111117D02*
X960159Y110652D01*
X958174Y109326D01*
X958135Y109267D01*
X956865D01*
X956826Y109326D01*
X954841Y110652D01*
X952500Y111117D01*
X950159Y110652D01*
X948174Y109326D01*
X948135Y109267D01*
X946865D01*
X946826Y109326D01*
X944841Y110652D01*
X942500Y111117D01*
X940159Y110652D01*
X938174Y109326D01*
X936848Y107341D01*
X936383Y105000D01*
X936848Y102659D01*
X938174Y100674D01*
X940159Y99348D01*
X942500Y98883D01*
X944841Y99348D01*
X946826Y100674D01*
X946865Y100733D01*
X948135D01*
X948174Y100674D01*
X950159Y99348D01*
X952500Y98883D01*
X954841Y99348D01*
X956826Y100674D01*
X956865Y100733D01*
X958135D01*
X958174Y100674D01*
X960159Y99348D01*
X962500Y98883D01*
X964841Y99348D01*
X966826Y100674D01*
X968152Y102659D01*
X968617Y105000D01*
X968152Y107341D01*
X966826Y109326D01*
X964841Y110652D01*
X962500Y111117D01*
D02*
G37*
G36*
X880000Y109117D02*
X877659Y108652D01*
X875674Y107326D01*
X875635Y107267D01*
X874365D01*
X874326Y107326D01*
X872341Y108652D01*
X870000Y109117D01*
X867659Y108652D01*
X865674Y107326D01*
X865635Y107267D01*
X864365D01*
X864326Y107326D01*
X862341Y108652D01*
X860000Y109117D01*
X857659Y108652D01*
X856489Y107870D01*
X855500Y107407D01*
X854511Y107870D01*
X853341Y108652D01*
X851000Y109117D01*
X848659Y108652D01*
X846674Y107326D01*
X845348Y105341D01*
X844883Y103000D01*
X845348Y100659D01*
X846674Y98674D01*
X848659Y97348D01*
X851000Y96882D01*
X853341Y97348D01*
X854511Y98130D01*
X855500Y98593D01*
X856489Y98130D01*
X857659Y97348D01*
X860000Y96882D01*
X862341Y97348D01*
X864326Y98674D01*
X864365Y98733D01*
X865635D01*
X865674Y98674D01*
X867659Y97348D01*
X870000Y96882D01*
X872341Y97348D01*
X874326Y98674D01*
X874365Y98733D01*
X875635D01*
X875674Y98674D01*
X877659Y97348D01*
X880000Y96882D01*
X882341Y97348D01*
X883643Y98218D01*
X883952Y98164D01*
X884967Y97575D01*
X885348Y95659D01*
X886674Y93674D01*
X888659Y92348D01*
X891000Y91882D01*
X891345Y91951D01*
X892248Y90836D01*
X891882Y89000D01*
X892348Y86659D01*
X893674Y84674D01*
X895659Y83348D01*
X898000Y82882D01*
X900341Y83348D01*
X902326Y84674D01*
X903652Y86659D01*
X904118Y89000D01*
X903980Y89690D01*
X904998Y91081D01*
X906341Y91348D01*
X908326Y92674D01*
X909652Y94659D01*
X910117Y97000D01*
X909652Y99341D01*
X908326Y101326D01*
X906341Y102652D01*
X904000Y103118D01*
X901659Y102652D01*
X899674Y101326D01*
X898348Y99341D01*
X898247Y98832D01*
X896952D01*
X896652Y100341D01*
X895326Y102326D01*
X893341Y103652D01*
X891000Y104117D01*
X888659Y103652D01*
X887357Y102782D01*
X887048Y102836D01*
X886033Y103425D01*
X885652Y105341D01*
X884326Y107326D01*
X882341Y108652D01*
X880000Y109117D01*
D02*
G37*
G36*
X1019749Y110867D02*
X1017408Y110402D01*
X1015424Y109075D01*
X1014098Y107091D01*
X1013632Y104750D01*
X1014098Y102409D01*
X1015424Y100424D01*
X1017408Y99098D01*
X1019749Y98632D01*
X1022091Y99098D01*
X1024075Y100424D01*
X1025401Y102409D01*
X1025867Y104750D01*
X1025401Y107091D01*
X1024075Y109075D01*
X1022091Y110402D01*
X1019749Y110867D01*
D02*
G37*
G36*
X1003749D02*
X1001408Y110402D01*
X999424Y109075D01*
X998098Y107091D01*
X997632Y104750D01*
X998098Y102409D01*
X999424Y100424D01*
X1001408Y99098D01*
X1003749Y98632D01*
X1006090Y99098D01*
X1008075Y100424D01*
X1009401Y102409D01*
X1009867Y104750D01*
X1009401Y107091D01*
X1008075Y109075D01*
X1006090Y110402D01*
X1003749Y110867D01*
D02*
G37*
G36*
X987749D02*
X985408Y110402D01*
X983424Y109075D01*
X982097Y107091D01*
X981632Y104750D01*
X982097Y102409D01*
X983424Y100424D01*
X985408Y99098D01*
X987749Y98632D01*
X990090Y99098D01*
X992075Y100424D01*
X993401Y102409D01*
X993867Y104750D01*
X993401Y107091D01*
X992075Y109075D01*
X990090Y110402D01*
X987749Y110867D01*
D02*
G37*
G36*
X139750D02*
X137409Y110402D01*
X135424Y109075D01*
X134098Y107091D01*
X133632Y104750D01*
X134098Y102409D01*
X135424Y100424D01*
X137409Y99098D01*
X139750Y98632D01*
X142091Y99098D01*
X144075Y100424D01*
X145402Y102409D01*
X145867Y104750D01*
X145402Y107091D01*
X144075Y109075D01*
X142091Y110402D01*
X139750Y110867D01*
D02*
G37*
G36*
X91750D02*
X89409Y110402D01*
X87424Y109075D01*
X86098Y107091D01*
X85632Y104750D01*
X86098Y102409D01*
X87424Y100424D01*
X89409Y99098D01*
X91750Y98632D01*
X94091Y99098D01*
X96075Y100424D01*
X97402Y102409D01*
X97867Y104750D01*
X97402Y107091D01*
X96075Y109075D01*
X94091Y110402D01*
X91750Y110867D01*
D02*
G37*
G36*
X815000Y92118D02*
X812659Y91652D01*
X810674Y90326D01*
X809734Y88918D01*
X808267D01*
X807326Y90326D01*
X805341Y91652D01*
X803000Y92118D01*
X800659Y91652D01*
X798674Y90326D01*
X797734Y88918D01*
X796266D01*
X795326Y90326D01*
X793341Y91652D01*
X791000Y92118D01*
X788659Y91652D01*
X786674Y90326D01*
X785348Y88341D01*
X784883Y86000D01*
X785348Y83659D01*
X786674Y81674D01*
X788659Y80348D01*
X791000Y79882D01*
X793341Y80348D01*
X795326Y81674D01*
X796266Y83082D01*
X797734D01*
X798674Y81674D01*
X800659Y80348D01*
X803000Y79882D01*
X805341Y80348D01*
X807326Y81674D01*
X808267Y83082D01*
X809734D01*
X810674Y81674D01*
X812659Y80348D01*
X815000Y79882D01*
X817341Y80348D01*
X819326Y81674D01*
X820652Y83659D01*
X821117Y86000D01*
X820652Y88341D01*
X819326Y90326D01*
X817341Y91652D01*
X815000Y92118D01*
D02*
G37*
G36*
X1027749Y94867D02*
X1025408Y94402D01*
X1023424Y93076D01*
X1022097Y91091D01*
X1021632Y88750D01*
X1022097Y86409D01*
X1023424Y84424D01*
X1025408Y83098D01*
X1027749Y82632D01*
X1030090Y83098D01*
X1032075Y84424D01*
X1033401Y86409D01*
X1033867Y88750D01*
X1033401Y91091D01*
X1032075Y93076D01*
X1030090Y94402D01*
X1027749Y94867D01*
D02*
G37*
G36*
X1011749D02*
X1009408Y94402D01*
X1007424Y93076D01*
X1006097Y91091D01*
X1005632Y88750D01*
X1006097Y86409D01*
X1007424Y84424D01*
X1009408Y83098D01*
X1011749Y82632D01*
X1014090Y83098D01*
X1016075Y84424D01*
X1017401Y86409D01*
X1017867Y88750D01*
X1017401Y91091D01*
X1016075Y93076D01*
X1014090Y94402D01*
X1011749Y94867D01*
D02*
G37*
G36*
X995749D02*
X993408Y94402D01*
X991424Y93076D01*
X990098Y91091D01*
X989632Y88750D01*
X990098Y86409D01*
X991424Y84424D01*
X993408Y83098D01*
X995749Y82632D01*
X998091Y83098D01*
X1000075Y84424D01*
X1001401Y86409D01*
X1001867Y88750D01*
X1001401Y91091D01*
X1000075Y93076D01*
X998091Y94402D01*
X995749Y94867D01*
D02*
G37*
G36*
X131750D02*
X129409Y94402D01*
X127424Y93076D01*
X126098Y91091D01*
X125632Y88750D01*
X125705Y88382D01*
X124900Y87400D01*
X103000D01*
Y63400D01*
X127000D01*
Y83180D01*
X128270Y83859D01*
X129409Y83098D01*
X131750Y82632D01*
X134091Y83098D01*
X136075Y84424D01*
X137402Y86409D01*
X137867Y88750D01*
X137402Y91091D01*
X136075Y93076D01*
X134091Y94402D01*
X131750Y94867D01*
D02*
G37*
G36*
X1019749Y78867D02*
X1017408Y78402D01*
X1015424Y77076D01*
X1014098Y75091D01*
X1013632Y72750D01*
X1013830Y71753D01*
X1012671Y71073D01*
X1011214Y72317D01*
X1007523Y74578D01*
X1003524Y76235D01*
X999315Y77245D01*
X995000Y77585D01*
X990685Y77245D01*
X986476Y76235D01*
X982477Y74578D01*
X979110Y72515D01*
X978679Y72597D01*
X978163Y72829D01*
X977790Y73136D01*
X977401Y75091D01*
X976075Y77076D01*
X974090Y78402D01*
X971749Y78867D01*
X969408Y78402D01*
X967424Y77076D01*
X966097Y75091D01*
X965632Y72750D01*
X966097Y70409D01*
X967424Y68424D01*
X969408Y67098D01*
X971482Y66685D01*
X972026Y65894D01*
X972201Y65427D01*
X970422Y62523D01*
X969669Y60706D01*
X968405Y60582D01*
X968075Y61076D01*
X966090Y62402D01*
X963749Y62867D01*
X961408Y62402D01*
X959424Y61076D01*
X958098Y59091D01*
X957632Y56750D01*
X958098Y54409D01*
X959424Y52424D01*
X961408Y51098D01*
X963749Y50632D01*
X966090Y51098D01*
X966370Y51284D01*
X967466Y50642D01*
X967415Y50000D01*
X967472Y49270D01*
X966488Y48693D01*
X966246Y48671D01*
X964000Y49117D01*
X961659Y48652D01*
X959674Y47326D01*
X958348Y45341D01*
X957883Y43000D01*
X958348Y40659D01*
X959674Y38674D01*
X960481Y38135D01*
Y36865D01*
X959674Y36326D01*
X958348Y34341D01*
X957883Y32000D01*
X958348Y29659D01*
X959592Y27798D01*
X959733Y27362D01*
Y26638D01*
X959592Y26202D01*
X958348Y24341D01*
X957883Y22000D01*
X958348Y19659D01*
X959674Y17674D01*
X961659Y16348D01*
X964000Y15883D01*
X966341Y16348D01*
X968326Y17674D01*
X969652Y19659D01*
X970117Y22000D01*
X969652Y24341D01*
X968408Y26202D01*
X968267Y26638D01*
Y27362D01*
X968408Y27798D01*
X969652Y29659D01*
X970117Y32000D01*
X969652Y34341D01*
X968326Y36326D01*
X967519Y36865D01*
Y38135D01*
X968326Y38674D01*
X968565Y39032D01*
X969829Y38908D01*
X970422Y37477D01*
X972683Y33786D01*
X975494Y30494D01*
X978786Y27683D01*
X982477Y25422D01*
X986476Y23765D01*
X990685Y22755D01*
X995000Y22415D01*
X999315Y22755D01*
X1003524Y23765D01*
X1007523Y25422D01*
X1011214Y27683D01*
X1014506Y30494D01*
X1017317Y33786D01*
X1019578Y37477D01*
X1021235Y41476D01*
X1022245Y45685D01*
X1022585Y50000D01*
X1022445Y51776D01*
X1023682Y52252D01*
X1025408Y51098D01*
X1027749Y50632D01*
X1030090Y51098D01*
X1032075Y52424D01*
X1033401Y54409D01*
X1033867Y56750D01*
X1033401Y59091D01*
X1032075Y61076D01*
X1030090Y62402D01*
X1027749Y62867D01*
X1025408Y62402D01*
X1023424Y61076D01*
X1022269Y59347D01*
X1021308Y59279D01*
X1020880Y59381D01*
X1019578Y62523D01*
X1017591Y65767D01*
X1018356Y66909D01*
X1019749Y66632D01*
X1022091Y67098D01*
X1024075Y68424D01*
X1025401Y70409D01*
X1025867Y72750D01*
X1025401Y75091D01*
X1024075Y77076D01*
X1022091Y78402D01*
X1019749Y78867D01*
D02*
G37*
G36*
X30000Y81117D02*
X27659Y80652D01*
X25674Y79326D01*
X24348Y77341D01*
X23883Y75000D01*
X24348Y72659D01*
X25674Y70674D01*
X27659Y69348D01*
X30000Y68882D01*
X32341Y69348D01*
X34326Y70674D01*
X35652Y72659D01*
X36117Y75000D01*
X35652Y77341D01*
X34326Y79326D01*
X32341Y80652D01*
X30000Y81117D01*
D02*
G37*
G36*
X916250Y79367D02*
X913909Y78902D01*
X911924Y77576D01*
X910598Y75591D01*
X910133Y73250D01*
X910598Y70909D01*
X911924Y68924D01*
X913909Y67598D01*
X916250Y67133D01*
X918591Y67598D01*
X920576Y68924D01*
X921902Y70909D01*
X922367Y73250D01*
X921902Y75591D01*
X920576Y77576D01*
X918591Y78902D01*
X916250Y79367D01*
D02*
G37*
G36*
X139750Y78867D02*
X137409Y78402D01*
X135424Y77076D01*
X134098Y75091D01*
X133632Y72750D01*
X134098Y70409D01*
X135424Y68424D01*
X137409Y67098D01*
X139750Y66632D01*
X142091Y67098D01*
X144075Y68424D01*
X145402Y70409D01*
X145867Y72750D01*
X145402Y75091D01*
X144075Y77076D01*
X142091Y78402D01*
X139750Y78867D01*
D02*
G37*
G36*
X947749Y62867D02*
X945408Y62402D01*
X943424Y61076D01*
X942097Y59091D01*
X941632Y56750D01*
X942097Y54409D01*
X943424Y52424D01*
X945408Y51098D01*
X947749Y50632D01*
X950090Y51098D01*
X952075Y52424D01*
X953401Y54409D01*
X953867Y56750D01*
X953401Y59091D01*
X952075Y61076D01*
X950090Y62402D01*
X947749Y62867D01*
D02*
G37*
G36*
X931749D02*
X929408Y62402D01*
X927424Y61076D01*
X926097Y59091D01*
X925632Y56750D01*
X926097Y54409D01*
X927424Y52424D01*
X929408Y51098D01*
X931749Y50632D01*
X934090Y51098D01*
X936075Y52424D01*
X937401Y54409D01*
X937867Y56750D01*
X937401Y59091D01*
X936075Y61076D01*
X934090Y62402D01*
X931749Y62867D01*
D02*
G37*
G36*
X31000Y55118D02*
X28659Y54652D01*
X26674Y53326D01*
X25348Y51341D01*
X24882Y49000D01*
X25348Y46659D01*
X26674Y44674D01*
X28659Y43348D01*
X31000Y42882D01*
X33341Y43348D01*
X35326Y44674D01*
X36652Y46659D01*
X37118Y49000D01*
X36652Y51341D01*
X35326Y53326D01*
X33341Y54652D01*
X31000Y55118D01*
D02*
G37*
G36*
X911000Y51118D02*
X908659Y50652D01*
X906674Y49326D01*
X905348Y47341D01*
X904883Y45000D01*
X905348Y42659D01*
X906674Y40674D01*
X908659Y39348D01*
X911000Y38883D01*
X913341Y39348D01*
X915326Y40674D01*
X916652Y42659D01*
X917117Y45000D01*
X916652Y47341D01*
X915326Y49326D01*
X913341Y50652D01*
X911000Y51118D01*
D02*
G37*
G36*
X139750Y46867D02*
X137409Y46402D01*
X135424Y45075D01*
X134098Y43091D01*
X133632Y40750D01*
X134098Y38409D01*
X135424Y36424D01*
X137409Y35098D01*
X139750Y34632D01*
X142091Y35098D01*
X144075Y36424D01*
X145402Y38409D01*
X145867Y40750D01*
X145402Y43091D01*
X144075Y45075D01*
X142091Y46402D01*
X139750Y46867D01*
D02*
G37*
G36*
X91750D02*
X89409Y46402D01*
X87424Y45075D01*
X86098Y43091D01*
X85632Y40750D01*
X86098Y38409D01*
X87424Y36424D01*
X89409Y35098D01*
X91750Y34632D01*
X94091Y35098D01*
X96075Y36424D01*
X97402Y38409D01*
X97867Y40750D01*
X97402Y43091D01*
X96075Y45075D01*
X94091Y46402D01*
X91750Y46867D01*
D02*
G37*
G36*
X1027749Y30867D02*
X1025408Y30402D01*
X1023424Y29076D01*
X1022097Y27091D01*
X1021632Y24750D01*
X1022097Y22409D01*
X1023424Y20424D01*
X1025408Y19098D01*
X1027749Y18632D01*
X1030090Y19098D01*
X1032075Y20424D01*
X1033401Y22409D01*
X1033867Y24750D01*
X1033401Y27091D01*
X1032075Y29076D01*
X1030090Y30402D01*
X1027749Y30867D01*
D02*
G37*
G36*
X30000Y30117D02*
X27659Y29652D01*
X25674Y28326D01*
X24348Y26341D01*
X23883Y24000D01*
X24348Y21659D01*
X25674Y19674D01*
X27659Y18348D01*
X30000Y17882D01*
X32341Y18348D01*
X34326Y19674D01*
X35652Y21659D01*
X36117Y24000D01*
X35652Y26341D01*
X34326Y28326D01*
X32341Y29652D01*
X30000Y30117D01*
D02*
G37*
G36*
X930000Y13118D02*
X927659Y12652D01*
X925674Y11326D01*
X924348Y9341D01*
X923883Y7000D01*
X924348Y4659D01*
X925674Y2674D01*
X927659Y1348D01*
X930000Y882D01*
X932341Y1348D01*
X934326Y2674D01*
X935652Y4659D01*
X936117Y7000D01*
X935652Y9341D01*
X934326Y11326D01*
X932341Y12652D01*
X930000Y13118D01*
D02*
G37*
G36*
X803749Y-1133D02*
X801408Y-1598D01*
X799424Y-2925D01*
X798098Y-4909D01*
X797632Y-7250D01*
X798098Y-9591D01*
X799424Y-11576D01*
X801408Y-12902D01*
X803749Y-13368D01*
X806091Y-12902D01*
X808075Y-11576D01*
X809401Y-9591D01*
X809867Y-7250D01*
X809401Y-4909D01*
X808075Y-2925D01*
X806091Y-1598D01*
X803749Y-1133D01*
D02*
G37*
G36*
X939749Y-17133D02*
X937408Y-17598D01*
X935424Y-18924D01*
X934098Y-20909D01*
X933632Y-23250D01*
X934098Y-25591D01*
X935424Y-27576D01*
X937408Y-28902D01*
X939749Y-29368D01*
X942091Y-28902D01*
X944075Y-27576D01*
X945401Y-25591D01*
X945867Y-23250D01*
X945401Y-20909D01*
X944075Y-18924D01*
X942091Y-17598D01*
X939749Y-17133D01*
D02*
G37*
G36*
X923749D02*
X921408Y-17598D01*
X919424Y-18924D01*
X918098Y-20909D01*
X917632Y-23250D01*
X918098Y-25591D01*
X919424Y-27576D01*
X921408Y-28902D01*
X923749Y-29368D01*
X926090Y-28902D01*
X928075Y-27576D01*
X929401Y-25591D01*
X929867Y-23250D01*
X929401Y-20909D01*
X928075Y-18924D01*
X926090Y-17598D01*
X923749Y-17133D01*
D02*
G37*
G36*
X824000Y-20882D02*
X821659Y-21348D01*
X819674Y-22674D01*
X818348Y-24659D01*
X817883Y-27000D01*
X818348Y-29341D01*
X819592Y-31202D01*
X819733Y-31638D01*
Y-32362D01*
X819592Y-32798D01*
X818348Y-34659D01*
X817883Y-37000D01*
X818348Y-39341D01*
X819674Y-41326D01*
X821659Y-42652D01*
X824000Y-43117D01*
X826341Y-42652D01*
X828326Y-41326D01*
X829652Y-39341D01*
X830117Y-37000D01*
X829652Y-34659D01*
X828408Y-32798D01*
X828267Y-32362D01*
Y-31638D01*
X828408Y-31202D01*
X829652Y-29341D01*
X830117Y-27000D01*
X829652Y-24659D01*
X828326Y-22674D01*
X826341Y-21348D01*
X824000Y-20882D01*
D02*
G37*
G36*
X880000Y-21883D02*
X877659Y-22348D01*
X875674Y-23674D01*
X874348Y-25659D01*
X873883Y-28000D01*
X874348Y-30341D01*
X875592Y-32202D01*
X875733Y-32638D01*
Y-33362D01*
X875592Y-33798D01*
X874348Y-35659D01*
X873883Y-38000D01*
X874348Y-40341D01*
X875674Y-42326D01*
X877659Y-43652D01*
X880000Y-44117D01*
X882341Y-43652D01*
X884326Y-42326D01*
X885652Y-40341D01*
X886117Y-38000D01*
X885652Y-35659D01*
X884408Y-33798D01*
X884267Y-33362D01*
Y-32638D01*
X884408Y-32202D01*
X885652Y-30341D01*
X886117Y-28000D01*
X885652Y-25659D01*
X884326Y-23674D01*
X882341Y-22348D01*
X880000Y-21883D01*
D02*
G37*
G36*
X947749Y-33133D02*
X945408Y-33598D01*
X943424Y-34924D01*
X942097Y-36909D01*
X941632Y-39250D01*
X942097Y-41591D01*
X943424Y-43576D01*
X945408Y-44902D01*
X947749Y-45368D01*
X950090Y-44902D01*
X952075Y-43576D01*
X953401Y-41591D01*
X953867Y-39250D01*
X953401Y-36909D01*
X952075Y-34924D01*
X950090Y-33598D01*
X947749Y-33133D01*
D02*
G37*
G36*
X931749D02*
X929408Y-33598D01*
X927424Y-34924D01*
X926097Y-36909D01*
X925632Y-39250D01*
X926097Y-41591D01*
X927424Y-43576D01*
X929408Y-44902D01*
X931749Y-45368D01*
X934090Y-44902D01*
X936075Y-43576D01*
X937401Y-41591D01*
X937867Y-39250D01*
X937401Y-36909D01*
X936075Y-34924D01*
X934090Y-33598D01*
X931749Y-33133D01*
D02*
G37*
G36*
X939749Y-49133D02*
X937408Y-49598D01*
X935424Y-50925D01*
X934098Y-52909D01*
X933632Y-55250D01*
X934098Y-57591D01*
X935424Y-59576D01*
X937408Y-60902D01*
X939749Y-61368D01*
X942091Y-60902D01*
X944075Y-59576D01*
X945401Y-57591D01*
X945867Y-55250D01*
X945401Y-52909D01*
X944075Y-50925D01*
X942091Y-49598D01*
X939749Y-49133D01*
D02*
G37*
G36*
X923749D02*
X921408Y-49598D01*
X919424Y-50925D01*
X918098Y-52909D01*
X917632Y-55250D01*
X918098Y-57591D01*
X919424Y-59576D01*
X921408Y-60902D01*
X923749Y-61368D01*
X926090Y-60902D01*
X928075Y-59576D01*
X929401Y-57591D01*
X929867Y-55250D01*
X929401Y-52909D01*
X928075Y-50925D01*
X926090Y-49598D01*
X923749Y-49133D01*
D02*
G37*
G36*
X907749D02*
X905408Y-49598D01*
X903424Y-50925D01*
X902097Y-52909D01*
X901632Y-55250D01*
X902097Y-57591D01*
X903424Y-59576D01*
X905408Y-60902D01*
X907749Y-61368D01*
X910090Y-60902D01*
X912075Y-59576D01*
X913401Y-57591D01*
X913867Y-55250D01*
X913401Y-52909D01*
X912075Y-50925D01*
X910090Y-49598D01*
X907749Y-49133D01*
D02*
G37*
%LPD*%
D96*
X103900Y447000D02*
D03*
D100*
X462000Y301000D02*
D03*
X453000D02*
D03*
X246000Y350000D02*
D03*
X292000Y351000D02*
D03*
X319361Y358361D02*
D03*
X236999Y372999D02*
D03*
X115000Y417000D02*
D03*
X462000Y310000D02*
D03*
X275000Y416000D02*
D03*
X265000D02*
D03*
X483000Y406000D02*
D03*
X499000Y337000D02*
D03*
X214000Y416000D02*
D03*
Y407000D02*
D03*
X232000D02*
D03*
Y416000D02*
D03*
X241000Y407000D02*
D03*
X223000Y416000D02*
D03*
X445000Y337000D02*
D03*
X433000D02*
D03*
X224000Y358000D02*
D03*
X241000Y416000D02*
D03*
X223000Y407000D02*
D03*
X454000Y431000D02*
D03*
X166000Y328000D02*
D03*
X298000Y296000D02*
D03*
X89000Y203000D02*
D03*
X100000D02*
D03*
X57000Y58000D02*
D03*
X57000Y40000D02*
D03*
X174500Y269000D02*
D03*
X156000D02*
D03*
Y278000D02*
D03*
X165500Y269000D02*
D03*
X174500Y278000D02*
D03*
X453000Y310000D02*
D03*
X165500Y278000D02*
D03*
X115000Y431000D02*
D03*
X961000Y73000D02*
D03*
X810000Y365000D02*
D03*
X800000D02*
D03*
X790000D02*
D03*
X810000Y375000D02*
D03*
X800000D02*
D03*
X790000D02*
D03*
Y385000D02*
D03*
X800000D02*
D03*
X810000D02*
D03*
M02*
