G04*
G04 #@! TF.GenerationSoftware,Altium Limited,Altium Designer,19.1.9 (167)*
G04*
G04 Layer_Color=8421504*
%FSLAX44Y44*%
%MOMM*%
G71*
G01*
G75*
%ADD19O,0.7000X2.5000*%
%ADD20O,2.5000X0.7000*%
%ADD21R,0.6000X0.6000*%
%ADD22R,0.6000X0.6000*%
%ADD23R,0.4000X0.5000*%
%ADD24O,1.4000X0.3000*%
G04:AMPARAMS|DCode=25|XSize=1.55mm|YSize=0.6mm|CornerRadius=0.3mm|HoleSize=0mm|Usage=FLASHONLY|Rotation=270.000|XOffset=0mm|YOffset=0mm|HoleType=Round|Shape=RoundedRectangle|*
%AMROUNDEDRECTD25*
21,1,1.5500,0.0000,0,0,270.0*
21,1,0.9500,0.6000,0,0,270.0*
1,1,0.6000,0.0000,-0.4750*
1,1,0.6000,0.0000,0.4750*
1,1,0.6000,0.0000,0.4750*
1,1,0.6000,0.0000,-0.4750*
%
%ADD25ROUNDEDRECTD25*%
%ADD26R,1.2500X1.0000*%
%ADD27R,0.5000X0.4000*%
%ADD28R,1.1000X0.6000*%
%ADD29R,0.5000X1.0000*%
%ADD30R,1.0000X1.2500*%
%ADD31R,0.9100X1.2200*%
%ADD32R,1.4000X1.4000*%
%ADD33R,1.1000X1.8000*%
%ADD34P,0.8485X4X90.0*%
%ADD35P,0.8485X4X360.0*%
%ADD36O,0.3000X1.4000*%
%ADD37R,1.5000X2.4000*%
%ADD38R,0.8500X0.4500*%
%ADD39R,1.0000X0.5500*%
%ADD40R,1.1000X1.0000*%
%ADD41R,3.0000X1.0000*%
%ADD42R,1.2000X1.7500*%
%ADD43R,0.6000X1.1000*%
%ADD44O,1.3500X0.4500*%
%ADD45R,1.0500X1.0000*%
%ADD46R,2.2000X1.0500*%
%ADD47R,1.2000X1.6000*%
%ADD48R,1.8000X1.3000*%
G36*
X481500Y367750D02*
Y365250D01*
X478500D01*
Y367750D01*
X481500D01*
D02*
G37*
G36*
Y362750D02*
Y359750D01*
X479000D01*
Y362750D01*
X481500D01*
D02*
G37*
G36*
X486500D02*
Y359750D01*
X484000D01*
Y362750D01*
X486500D01*
D02*
G37*
G36*
X481500Y372750D02*
Y370250D01*
X478500D01*
Y372750D01*
X481500D01*
D02*
G37*
G36*
Y378250D02*
Y375250D01*
X479000D01*
Y378250D01*
X481500D01*
D02*
G37*
G36*
X486500D02*
Y375250D01*
X484000D01*
Y378250D01*
X486500D01*
D02*
G37*
G36*
X491500Y362750D02*
Y359750D01*
X489000D01*
Y362750D01*
X491500D01*
D02*
G37*
G36*
X496500D02*
Y359750D01*
X494000D01*
Y362750D01*
X496500D01*
D02*
G37*
G36*
X497000Y367750D02*
Y365250D01*
X494000D01*
Y367750D01*
X497000D01*
D02*
G37*
G36*
X491500Y378250D02*
Y375250D01*
X489000D01*
Y378250D01*
X491500D01*
D02*
G37*
G36*
X496500D02*
Y375250D01*
X494000D01*
Y378250D01*
X496500D01*
D02*
G37*
G36*
X497000Y372750D02*
Y370250D01*
X494000D01*
Y372750D01*
X497000D01*
D02*
G37*
D19*
X929000Y141500D02*
D03*
X907000D02*
D03*
X885000D02*
D03*
X863000D02*
D03*
X841000D02*
D03*
X918000D02*
D03*
X896000D02*
D03*
X874000D02*
D03*
X852000D02*
D03*
X907000Y313500D02*
D03*
X929000D02*
D03*
X852000D02*
D03*
X874000D02*
D03*
X918000D02*
D03*
X896000D02*
D03*
X885000D02*
D03*
X863000D02*
D03*
X841000D02*
D03*
D20*
X808500Y216500D02*
D03*
Y238500D02*
D03*
Y260500D02*
D03*
Y282500D02*
D03*
Y161500D02*
D03*
Y183500D02*
D03*
Y293500D02*
D03*
Y271500D02*
D03*
Y249500D02*
D03*
Y227500D02*
D03*
Y205500D02*
D03*
Y194500D02*
D03*
Y172500D02*
D03*
X961500Y282500D02*
D03*
Y260500D02*
D03*
Y238500D02*
D03*
Y216500D02*
D03*
Y194500D02*
D03*
Y161500D02*
D03*
Y293500D02*
D03*
Y271500D02*
D03*
Y249500D02*
D03*
Y227500D02*
D03*
Y205500D02*
D03*
Y183500D02*
D03*
Y172500D02*
D03*
D21*
X488000Y425000D02*
D03*
X498000D02*
D03*
X993000Y200000D02*
D03*
X983000D02*
D03*
Y214000D02*
D03*
X993000D02*
D03*
X983000Y228000D02*
D03*
X993000D02*
D03*
X524000Y307000D02*
D03*
X534000D02*
D03*
X451000Y251000D02*
D03*
X461000D02*
D03*
X534000Y318000D02*
D03*
X524000D02*
D03*
X495000Y394000D02*
D03*
X505000D02*
D03*
X490000Y349000D02*
D03*
X500000D02*
D03*
X75000Y24000D02*
D03*
X65000D02*
D03*
X40000D02*
D03*
X50000D02*
D03*
X64000Y49000D02*
D03*
X74000D02*
D03*
X40000D02*
D03*
X50000D02*
D03*
X40000Y75000D02*
D03*
X50000D02*
D03*
X74000D02*
D03*
X64000D02*
D03*
X90000Y213000D02*
D03*
X100000D02*
D03*
X223000Y454000D02*
D03*
X213000D02*
D03*
X450500Y263500D02*
D03*
X460500D02*
D03*
X483000Y311000D02*
D03*
X473000D02*
D03*
X551000Y423000D02*
D03*
X541000D02*
D03*
Y413000D02*
D03*
X551000D02*
D03*
X351000Y341000D02*
D03*
X341000D02*
D03*
X351000Y331000D02*
D03*
X341000D02*
D03*
X197000Y328000D02*
D03*
X207000D02*
D03*
X185000D02*
D03*
X175000D02*
D03*
X164000Y372000D02*
D03*
X174000D02*
D03*
X193000D02*
D03*
X183000D02*
D03*
X836000Y-34000D02*
D03*
X846000D02*
D03*
X870000D02*
D03*
X860000D02*
D03*
X804000Y-24000D02*
D03*
X794000D02*
D03*
X611500Y332500D02*
D03*
X621500D02*
D03*
X621500Y321500D02*
D03*
X611500D02*
D03*
X877500Y350000D02*
D03*
X867500D02*
D03*
X877500Y337500D02*
D03*
X867500D02*
D03*
X992000Y293500D02*
D03*
X982000D02*
D03*
D22*
X728000Y220000D02*
D03*
Y210000D02*
D03*
X685000Y339000D02*
D03*
Y329000D02*
D03*
X932000Y350000D02*
D03*
Y340000D02*
D03*
X902000Y350000D02*
D03*
Y340000D02*
D03*
X922000Y350000D02*
D03*
Y340000D02*
D03*
X891000Y111000D02*
D03*
Y121000D02*
D03*
X859000Y111000D02*
D03*
Y121000D02*
D03*
X355500Y249931D02*
D03*
Y259931D02*
D03*
X343000Y249931D02*
D03*
Y259931D02*
D03*
X330500Y249931D02*
D03*
Y259931D02*
D03*
X318000Y249931D02*
D03*
Y259931D02*
D03*
X248000Y223000D02*
D03*
Y233000D02*
D03*
X214000Y223000D02*
D03*
Y233000D02*
D03*
X236000Y223000D02*
D03*
Y233000D02*
D03*
X225000Y223000D02*
D03*
Y233000D02*
D03*
X912000Y340000D02*
D03*
Y350000D02*
D03*
X104000Y414000D02*
D03*
Y424000D02*
D03*
X524000Y338000D02*
D03*
Y328000D02*
D03*
X89000Y194000D02*
D03*
Y184000D02*
D03*
X100000Y184000D02*
D03*
Y194000D02*
D03*
X111000Y184000D02*
D03*
Y194000D02*
D03*
X870000Y111000D02*
D03*
Y121000D02*
D03*
X880000Y111000D02*
D03*
Y121000D02*
D03*
X498000Y238500D02*
D03*
Y248500D02*
D03*
X445500Y223500D02*
D03*
Y233500D02*
D03*
X259000Y233000D02*
D03*
Y223000D02*
D03*
X270000Y223000D02*
D03*
Y233000D02*
D03*
X549500Y385500D02*
D03*
Y375500D02*
D03*
X263000Y392000D02*
D03*
Y402000D02*
D03*
X162500Y255000D02*
D03*
Y245000D02*
D03*
X139000Y417000D02*
D03*
Y407000D02*
D03*
X149000D02*
D03*
Y417000D02*
D03*
X186000Y407000D02*
D03*
Y417000D02*
D03*
X197000D02*
D03*
Y407000D02*
D03*
X359000Y416000D02*
D03*
Y406000D02*
D03*
X333000Y416000D02*
D03*
Y406000D02*
D03*
X308000Y416000D02*
D03*
Y406000D02*
D03*
X216000Y363000D02*
D03*
Y373000D02*
D03*
X741000Y210000D02*
D03*
Y220000D02*
D03*
X833000Y95000D02*
D03*
Y105000D02*
D03*
X791000Y95000D02*
D03*
Y105000D02*
D03*
X803000Y95000D02*
D03*
Y105000D02*
D03*
X815000Y95000D02*
D03*
Y105000D02*
D03*
X287000Y392000D02*
D03*
Y402000D02*
D03*
X815000Y131000D02*
D03*
Y121000D02*
D03*
X803000Y131000D02*
D03*
Y121000D02*
D03*
X275000Y392000D02*
D03*
Y402000D02*
D03*
X454000Y421000D02*
D03*
Y411000D02*
D03*
X791000Y131000D02*
D03*
Y121000D02*
D03*
X951000Y83000D02*
D03*
Y73000D02*
D03*
X938000D02*
D03*
Y83000D02*
D03*
X925000Y73000D02*
D03*
Y83000D02*
D03*
X589500Y321500D02*
D03*
Y331500D02*
D03*
X534000Y328000D02*
D03*
Y338000D02*
D03*
X600500Y331500D02*
D03*
Y321500D02*
D03*
X685000Y361000D02*
D03*
Y351000D02*
D03*
X736000Y325000D02*
D03*
Y335000D02*
D03*
X748000Y325000D02*
D03*
Y335000D02*
D03*
X982000Y271500D02*
D03*
Y281500D02*
D03*
X993000Y271500D02*
D03*
Y281500D02*
D03*
X677000Y430000D02*
D03*
Y440000D02*
D03*
D23*
X944000Y353000D02*
D03*
Y340000D02*
D03*
X890000Y353000D02*
D03*
Y340000D02*
D03*
X847000Y108000D02*
D03*
Y121000D02*
D03*
X904000Y108000D02*
D03*
Y121000D02*
D03*
X151000Y331000D02*
D03*
Y318000D02*
D03*
X417000Y352000D02*
D03*
Y339000D02*
D03*
X161000Y418000D02*
D03*
Y405000D02*
D03*
X174000Y418000D02*
D03*
Y405000D02*
D03*
X371000Y419000D02*
D03*
Y406000D02*
D03*
X345000Y419000D02*
D03*
Y406000D02*
D03*
X320000Y419000D02*
D03*
Y406000D02*
D03*
X725000Y423000D02*
D03*
Y436000D02*
D03*
D24*
X312500Y316000D02*
D03*
Y351000D02*
D03*
Y346000D02*
D03*
Y341000D02*
D03*
Y336000D02*
D03*
Y331000D02*
D03*
Y326000D02*
D03*
Y321000D02*
D03*
Y311000D02*
D03*
Y306000D02*
D03*
Y301000D02*
D03*
Y296000D02*
D03*
X228500D02*
D03*
Y301000D02*
D03*
Y306000D02*
D03*
Y311000D02*
D03*
Y316000D02*
D03*
Y321000D02*
D03*
Y326000D02*
D03*
Y331000D02*
D03*
Y336000D02*
D03*
Y341000D02*
D03*
Y346000D02*
D03*
Y351000D02*
D03*
D25*
X429550Y278000D02*
D03*
X416850D02*
D03*
X404150D02*
D03*
X391450D02*
D03*
Y224000D02*
D03*
X404150D02*
D03*
X416850D02*
D03*
X429550D02*
D03*
D26*
X439000Y355000D02*
D03*
Y375000D02*
D03*
X145000Y269000D02*
D03*
Y249000D02*
D03*
X399000Y359000D02*
D03*
Y339000D02*
D03*
X373000Y359000D02*
D03*
Y339000D02*
D03*
X975000Y115000D02*
D03*
Y95000D02*
D03*
X849000Y347000D02*
D03*
Y367000D02*
D03*
X830000Y347000D02*
D03*
Y367000D02*
D03*
X639000Y369000D02*
D03*
Y389000D02*
D03*
X743000Y445000D02*
D03*
Y425000D02*
D03*
D27*
X90000Y227000D02*
D03*
X103000D02*
D03*
X795000Y353000D02*
D03*
X808000D02*
D03*
D28*
X463000Y239000D02*
D03*
Y220000D02*
D03*
X487000Y229500D02*
D03*
X481000Y277500D02*
D03*
Y296500D02*
D03*
X457000Y287000D02*
D03*
X758000Y227500D02*
D03*
Y208500D02*
D03*
X782000Y218000D02*
D03*
X950000Y96500D02*
D03*
Y115500D02*
D03*
X926000Y106000D02*
D03*
X764000Y335500D02*
D03*
Y316500D02*
D03*
X788000Y326000D02*
D03*
D29*
X234000Y394000D02*
D03*
X241000D02*
D03*
D30*
X196500Y250000D02*
D03*
X176500D02*
D03*
X617500Y420000D02*
D03*
X597500D02*
D03*
X709000Y392000D02*
D03*
X689000D02*
D03*
D31*
X256250Y417000D02*
D03*
X289000D02*
D03*
D32*
X169500Y294000D02*
D03*
X191500D02*
D03*
D33*
X165498Y350998D02*
D03*
X190499D02*
D03*
D34*
X234536Y360465D02*
D03*
X227465Y367536D02*
D03*
X309464Y284536D02*
D03*
X316536Y277464D02*
D03*
D35*
X309464Y361465D02*
D03*
X316536Y368536D02*
D03*
X231535Y284536D02*
D03*
X224464Y277464D02*
D03*
D36*
X243000Y365500D02*
D03*
X248000D02*
D03*
X253000D02*
D03*
X258000D02*
D03*
X263000D02*
D03*
X268000D02*
D03*
X273000D02*
D03*
X278000D02*
D03*
X283000D02*
D03*
X288000D02*
D03*
X293000D02*
D03*
X298000D02*
D03*
Y281500D02*
D03*
X293000D02*
D03*
X288000D02*
D03*
X283000D02*
D03*
X278000D02*
D03*
X273000D02*
D03*
X268000D02*
D03*
X263000D02*
D03*
X258000D02*
D03*
X253000D02*
D03*
X248000D02*
D03*
X243000D02*
D03*
D37*
X425000Y421000D02*
D03*
D38*
X439500Y411000D02*
D03*
Y421000D02*
D03*
Y431000D02*
D03*
X410500Y411000D02*
D03*
Y421000D02*
D03*
Y431000D02*
D03*
D39*
X953500Y22500D02*
D03*
Y32000D02*
D03*
Y41500D02*
D03*
X933000D02*
D03*
Y32000D02*
D03*
Y22500D02*
D03*
D40*
X911500Y57900D02*
D03*
Y32500D02*
D03*
Y7100D02*
D03*
X793500Y57900D02*
D03*
Y32500D02*
D03*
Y7100D02*
D03*
D41*
X852500Y85500D02*
D03*
Y-20500D02*
D03*
D42*
X595750Y394000D02*
D03*
X570250D02*
D03*
D43*
X699500Y334000D02*
D03*
X718500D02*
D03*
X709000Y358000D02*
D03*
Y439500D02*
D03*
X699500D02*
D03*
X690000D02*
D03*
Y413500D02*
D03*
X709000D02*
D03*
D44*
X564750Y370250D02*
D03*
Y363750D02*
D03*
Y357250D02*
D03*
Y350750D02*
D03*
X608250Y370250D02*
D03*
Y363750D02*
D03*
Y357250D02*
D03*
Y350750D02*
D03*
D45*
X1006750Y293500D02*
D03*
D46*
X1022000Y308250D02*
D03*
Y278750D02*
D03*
D47*
X773000Y366000D02*
D03*
X741000D02*
D03*
D48*
X767500Y415500D02*
D03*
Y444500D02*
D03*
M02*
