G04*
G04 #@! TF.GenerationSoftware,Altium Limited,Altium Designer,19.1.9 (167)*
G04*
G04 Layer_Physical_Order=4*
G04 Layer_Color=13727573*
%FSLAX44Y44*%
%MOMM*%
G71*
G01*
G75*
%ADD14C,0.3000*%
%ADD15C,0.6000*%
%ADD16C,0.4000*%
%ADD94C,2.0000*%
%ADD95R,2.0000X2.0000*%
%ADD96P,1.9483X8X112.5*%
%ADD97C,1.8000*%
%ADD98R,2.0000X2.0000*%
%ADD99C,5.1000*%
%ADD100C,0.8000*%
%ADD101C,1.0000*%
%ADD102C,0.5000*%
G36*
X440361Y444592D02*
X439736Y443422D01*
X439001Y443568D01*
X434831D01*
X434325Y444325D01*
X432340Y445651D01*
X429999Y446117D01*
X427658Y445651D01*
X425798Y444408D01*
X425360Y444267D01*
X424638D01*
X424202Y444408D01*
X422341Y445652D01*
X420000Y446118D01*
X417659Y445652D01*
X415674Y444326D01*
X415168Y443569D01*
X397000D01*
X395634Y443297D01*
X394477Y442523D01*
X387977Y436023D01*
X387203Y434866D01*
X386931Y433500D01*
Y356000D01*
X387203Y354634D01*
X387977Y353477D01*
X403432Y338022D01*
Y323283D01*
X402161Y322935D01*
X400341Y324152D01*
X398000Y324618D01*
X395659Y324152D01*
X393674Y322826D01*
X393168Y322069D01*
X374978D01*
X369569Y327478D01*
Y366000D01*
X369297Y367366D01*
X368523Y368523D01*
X352023Y385023D01*
X350866Y385797D01*
X349500Y386069D01*
X266478D01*
X261289Y391258D01*
X261775Y392431D01*
X297900D01*
X299265Y392703D01*
X300423Y393477D01*
X310378Y403431D01*
X349000D01*
X350366Y403703D01*
X351523Y404477D01*
X394478Y447431D01*
X437522D01*
X440361Y444592D01*
D02*
G37*
G36*
X382670Y460263D02*
X345976Y423569D01*
X297579D01*
X285624Y435523D01*
X284466Y436297D01*
X283101Y436568D01*
X257200D01*
Y459000D01*
X233200D01*
Y436568D01*
X229478D01*
X221523Y444523D01*
X220366Y445297D01*
X219000Y445569D01*
X199000D01*
X197634Y445297D01*
X196477Y444523D01*
X193370Y441417D01*
X192100Y441943D01*
Y459000D01*
X168100D01*
Y435000D01*
X191810D01*
Y431857D01*
X190765Y430811D01*
X132869D01*
Y435489D01*
X135352Y436518D01*
X137858Y438442D01*
X139782Y440948D01*
X140991Y443867D01*
X141404Y447000D01*
X140991Y450133D01*
X139782Y453052D01*
X137858Y455559D01*
X135352Y457482D01*
X132433Y458691D01*
X129300Y459104D01*
X126167Y458691D01*
X123248Y457482D01*
X120742Y455559D01*
X118818Y453052D01*
X117609Y450133D01*
X117316Y447904D01*
X117240Y447335D01*
X115960D01*
X115885Y447904D01*
X115591Y450133D01*
X114382Y453052D01*
X112458Y455559D01*
X109952Y457482D01*
X107033Y458691D01*
X103900Y459104D01*
X100767Y458691D01*
X97848Y457482D01*
X95342Y455559D01*
X93418Y453052D01*
X92209Y450133D01*
X91796Y447000D01*
X92209Y443867D01*
X93418Y440948D01*
X95342Y438442D01*
X97848Y436518D01*
X100767Y435309D01*
X103900Y434896D01*
X107033Y435309D01*
X109952Y436518D01*
X112458Y438442D01*
X114382Y440948D01*
X115591Y443867D01*
X115885Y446096D01*
X115960Y446665D01*
X117240D01*
X117316Y446096D01*
X117609Y443867D01*
X118818Y440948D01*
X120742Y438442D01*
X123248Y436518D01*
X125731Y435489D01*
Y428700D01*
X126003Y427334D01*
X126777Y426177D01*
X128234Y424719D01*
X129392Y423946D01*
X130757Y423674D01*
X192243D01*
X193608Y423946D01*
X194766Y424719D01*
X197902Y427855D01*
X198179Y428270D01*
X199612Y428129D01*
X199886Y427470D01*
X201007Y426008D01*
X202470Y424885D01*
X204173Y424180D01*
X205291Y424033D01*
X205746Y422692D01*
X201122Y418068D01*
X128499D01*
X127134Y417796D01*
X125976Y417023D01*
X107477Y398523D01*
X106703Y397366D01*
X106431Y396000D01*
Y231000D01*
X106703Y229634D01*
X107477Y228477D01*
X108435Y227518D01*
X108258Y226625D01*
X108723Y224284D01*
X110049Y222299D01*
X112034Y220973D01*
X114375Y220508D01*
X116716Y220973D01*
X118701Y222299D01*
X120027Y224284D01*
X120493Y226625D01*
X120027Y228966D01*
X118701Y230951D01*
X116716Y232277D01*
X114375Y232743D01*
X113569Y233404D01*
Y394522D01*
X129180Y410133D01*
X129272Y410115D01*
X129690Y408737D01*
X119477Y398523D01*
X118703Y397366D01*
X118431Y396000D01*
Y390196D01*
X117674Y389690D01*
X116348Y387705D01*
X115883Y385364D01*
X116348Y383023D01*
X117674Y381038D01*
X119659Y379712D01*
X122000Y379246D01*
X124341Y379712D01*
X126326Y381038D01*
X127652Y383023D01*
X128118Y385364D01*
X127652Y387705D01*
X126326Y389690D01*
X125569Y390196D01*
Y394522D01*
X128161Y397115D01*
X129431Y396589D01*
Y272000D01*
X129703Y270634D01*
X130477Y269477D01*
X158431Y241522D01*
Y224000D01*
X158703Y222634D01*
X159477Y221477D01*
X177716Y203237D01*
X177230Y202064D01*
X153750D01*
X152482Y201811D01*
X151407Y201093D01*
X150689Y200018D01*
X150436Y198750D01*
Y3314D01*
X3314D01*
Y91686D01*
X80000D01*
X81268Y91939D01*
X82343Y92657D01*
X83061Y93732D01*
X83314Y95000D01*
Y198425D01*
X84584Y198810D01*
X84674Y198674D01*
X86659Y197348D01*
X89000Y196882D01*
X91341Y197348D01*
X93326Y198674D01*
X93865Y199481D01*
X95135D01*
X95674Y198674D01*
X97659Y197348D01*
X100000Y196882D01*
X102341Y197348D01*
X104326Y198674D01*
X105652Y200659D01*
X106117Y203000D01*
X105652Y205341D01*
X104326Y207326D01*
X102341Y208652D01*
X100000Y209118D01*
X97659Y208652D01*
X95674Y207326D01*
X95135Y206519D01*
X93865D01*
X93326Y207326D01*
X91341Y208652D01*
X89000Y209118D01*
X86659Y208652D01*
X84674Y207326D01*
X84584Y207190D01*
X83314Y207575D01*
Y285000D01*
X83061Y286268D01*
X82343Y287343D01*
X81268Y288061D01*
X80000Y288314D01*
X3314D01*
Y381686D01*
X80000D01*
X81268Y381939D01*
X82343Y382657D01*
X83061Y383732D01*
X83314Y385000D01*
Y461436D01*
X382184D01*
X382670Y460263D01*
D02*
G37*
G36*
X259896Y419161D02*
X259348Y418341D01*
X258883Y416000D01*
X259348Y413659D01*
X260674Y411674D01*
X262659Y410348D01*
X265000Y409883D01*
X267341Y410348D01*
X269202Y411592D01*
X269638Y411733D01*
X270362D01*
X270798Y411592D01*
X272659Y410348D01*
X275000Y409883D01*
X277341Y410348D01*
X279326Y411674D01*
X280652Y413659D01*
X280828Y414542D01*
X282043Y414910D01*
X291521Y405433D01*
X292679Y404659D01*
X293449Y404506D01*
X294674Y402673D01*
X296506Y401449D01*
X296851Y400661D01*
X296596Y400217D01*
X295988Y399569D01*
X213302D01*
X213195Y399748D01*
X213995Y400884D01*
X214000Y400882D01*
X216341Y401348D01*
X217511Y402130D01*
X218500Y402593D01*
X219489Y402130D01*
X220659Y401348D01*
X223000Y400882D01*
X225341Y401348D01*
X226511Y402130D01*
X227500Y402593D01*
X228489Y402130D01*
X229659Y401348D01*
X232000Y400882D01*
X234341Y401348D01*
X235511Y402130D01*
X236500Y402593D01*
X237489Y402130D01*
X238659Y401348D01*
X241000Y400882D01*
X243341Y401348D01*
X245326Y402674D01*
X246652Y404659D01*
X247118Y407000D01*
X246652Y409341D01*
X245870Y410511D01*
X245407Y411500D01*
X245870Y412489D01*
X246652Y413659D01*
X247118Y416000D01*
X246652Y418341D01*
X246104Y419161D01*
X246783Y420431D01*
X259217D01*
X259896Y419161D01*
D02*
G37*
G36*
X465249Y395977D02*
X466407Y395203D01*
X467772Y394931D01*
X508601D01*
X509966Y395203D01*
X511124Y395977D01*
X520579Y405431D01*
X552522D01*
X558431Y399522D01*
Y382478D01*
X554522Y378569D01*
X544832D01*
X544326Y379326D01*
X542341Y380652D01*
X540000Y381118D01*
X537659Y380652D01*
X536839Y380104D01*
X535569Y380783D01*
Y386766D01*
X536550Y387571D01*
X537500Y387383D01*
X539841Y387848D01*
X541826Y389174D01*
X543152Y391159D01*
X543618Y393500D01*
X543152Y395841D01*
X541826Y397826D01*
X539841Y399152D01*
X537500Y399618D01*
X535159Y399152D01*
X534330Y398598D01*
X529670D01*
X528841Y399152D01*
X526500Y399618D01*
X524159Y399152D01*
X522174Y397826D01*
X520848Y395841D01*
X520382Y393500D01*
X520848Y391159D01*
X522174Y389174D01*
X524159Y387848D01*
X526500Y387383D01*
X527450Y387571D01*
X528431Y386766D01*
Y370680D01*
X527161Y369717D01*
X526650Y369819D01*
X510082D01*
X509576Y370576D01*
X507591Y371902D01*
X505250Y372368D01*
X502909Y371902D01*
X500924Y370576D01*
X499598Y368591D01*
X499132Y366250D01*
X499598Y363909D01*
X500924Y361924D01*
X502909Y360598D01*
X505250Y360132D01*
X507591Y360598D01*
X509576Y361924D01*
X510082Y362681D01*
X525171D01*
X541431Y346421D01*
Y311478D01*
X533522Y303569D01*
X492747D01*
X491737Y304839D01*
X491819Y305250D01*
Y335839D01*
X493089Y335964D01*
X493348Y334659D01*
X494674Y332674D01*
X496659Y331348D01*
X499000Y330882D01*
X501341Y331348D01*
X503326Y332674D01*
X504652Y334659D01*
X505117Y337000D01*
X504652Y339341D01*
X503326Y341326D01*
X501341Y342652D01*
X499000Y343118D01*
X496659Y342652D01*
X494674Y341326D01*
X493348Y339341D01*
X493089Y338036D01*
X491819Y338162D01*
Y341750D01*
X491547Y343116D01*
X490773Y344273D01*
X484773Y350273D01*
X483616Y351047D01*
X482250Y351319D01*
X467332D01*
X466826Y352076D01*
X466019Y352615D01*
Y353885D01*
X466826Y354424D01*
X468152Y356409D01*
X468618Y358750D01*
X468152Y361091D01*
X466826Y363076D01*
X466019Y363615D01*
Y364885D01*
X466826Y365424D01*
X468152Y367409D01*
X468618Y369750D01*
X468152Y372091D01*
X466826Y374076D01*
X465418Y375017D01*
Y376483D01*
X466826Y377424D01*
X468152Y379409D01*
X468618Y381750D01*
X468152Y384091D01*
X466826Y386076D01*
X464841Y387402D01*
X462500Y387868D01*
X460159Y387402D01*
X458174Y386076D01*
X457835Y385569D01*
X429000D01*
X427634Y385297D01*
X426477Y384523D01*
X414477Y372523D01*
X413703Y371366D01*
X413431Y370000D01*
Y348275D01*
X412258Y347789D01*
X409569Y350478D01*
Y395522D01*
X413478Y399431D01*
X435000D01*
X436366Y399703D01*
X437523Y400477D01*
X444523Y407477D01*
X445297Y408634D01*
X445569Y410000D01*
Y413997D01*
X446742Y414483D01*
X465249Y395977D01*
D02*
G37*
G36*
X866936Y385000D02*
X867189Y383732D01*
X867907Y382657D01*
X868982Y381939D01*
X870250Y381686D01*
X1036686D01*
Y3064D01*
X960250D01*
X958982Y2811D01*
X957907Y2093D01*
X957189Y1018D01*
X956936Y-250D01*
Y-76686D01*
X775064D01*
Y198750D01*
X774811Y200018D01*
X774093Y201093D01*
X773018Y201811D01*
X771750Y202064D01*
X276870D01*
X276384Y203237D01*
X288165Y215018D01*
X288544Y214903D01*
X289450Y214507D01*
X290674Y212674D01*
X292659Y211348D01*
X295000Y210882D01*
X295893Y211060D01*
X300977Y205977D01*
X302134Y205203D01*
X303500Y204931D01*
X493500D01*
X494866Y205203D01*
X496023Y205977D01*
X500103Y210056D01*
X710168D01*
X710674Y209299D01*
X712659Y207973D01*
X715000Y207507D01*
X717341Y207973D01*
X719326Y209299D01*
X720652Y211284D01*
X721117Y213625D01*
X720652Y215966D01*
X719326Y217951D01*
X717341Y219277D01*
X715000Y219743D01*
X712659Y219277D01*
X710674Y217951D01*
X710168Y217194D01*
X628900D01*
X628414Y218367D01*
X632478Y222431D01*
X891000D01*
X892366Y222703D01*
X893523Y223477D01*
X912478Y242431D01*
X951522D01*
X993477Y200477D01*
X994634Y199703D01*
X996000Y199431D01*
X1008000D01*
Y191978D01*
X998900D01*
X997339Y191668D01*
X996016Y190784D01*
X996016Y190784D01*
X990116Y184884D01*
X989232Y183561D01*
X988922Y182000D01*
X988922Y182000D01*
Y165689D01*
X983311Y160078D01*
X916689D01*
X884884Y191884D01*
X883561Y192768D01*
X882000Y193078D01*
X882000Y193078D01*
X854000D01*
X854000Y193078D01*
X852439Y192768D01*
X851116Y191884D01*
X851116Y191884D01*
X834116Y174884D01*
X833232Y173561D01*
X832922Y172000D01*
X832922Y172000D01*
Y142000D01*
X832922Y142000D01*
X833232Y140439D01*
X834116Y139116D01*
X865695Y107537D01*
X865674Y107326D01*
X864348Y105341D01*
X863883Y103000D01*
X864348Y100659D01*
X865674Y98674D01*
X867659Y97348D01*
X870000Y96882D01*
X872341Y97348D01*
X874326Y98674D01*
X874365Y98733D01*
X875635D01*
X875674Y98674D01*
X877659Y97348D01*
X880000Y96882D01*
X882341Y97348D01*
X884326Y98674D01*
X885652Y100659D01*
X886117Y103000D01*
X885652Y105341D01*
X884326Y107326D01*
X884078Y107491D01*
Y110000D01*
X884078Y110000D01*
X883768Y111561D01*
X882884Y112884D01*
X847078Y148689D01*
Y167311D01*
X858689Y178922D01*
X878311D01*
X923016Y134216D01*
X923016Y134216D01*
X924339Y133332D01*
X925900Y133022D01*
X925900Y133022D01*
X1008701D01*
X1009518Y131048D01*
X1011441Y128541D01*
X1013948Y126618D01*
X1016867Y125409D01*
X1020000Y124996D01*
X1023133Y125409D01*
X1026052Y126618D01*
X1028559Y128541D01*
X1030482Y131048D01*
X1031691Y133967D01*
X1032104Y137100D01*
X1031691Y140233D01*
X1030482Y143152D01*
X1028559Y145659D01*
X1026052Y147582D01*
X1023133Y148791D01*
X1020000Y149204D01*
X1016867Y148791D01*
X1013948Y147582D01*
X1011441Y145659D01*
X1009518Y143152D01*
X1008701Y141178D01*
X927589D01*
X918019Y150748D01*
X918505Y151922D01*
X985000D01*
X985000Y151922D01*
X986561Y152232D01*
X987884Y153116D01*
X995884Y161116D01*
X996768Y162439D01*
X997078Y164000D01*
Y180311D01*
X1000589Y183822D01*
X1008000D01*
Y175900D01*
X1032000D01*
Y199900D01*
X1011743D01*
X1011217Y201170D01*
X1016781Y206734D01*
X1017554Y207892D01*
X1017826Y209257D01*
Y225985D01*
X1017554Y227351D01*
X1016781Y228509D01*
X1014766Y230523D01*
X1013608Y231297D01*
X1012243Y231569D01*
X1007439D01*
X1006934Y232326D01*
X1004949Y233652D01*
X1002608Y234118D01*
X1000267Y233652D01*
X998282Y232326D01*
X996956Y230341D01*
X996490Y228000D01*
X996956Y225659D01*
X998282Y223674D01*
X1000267Y222348D01*
X1002608Y221882D01*
X1004949Y222348D01*
X1006934Y223674D01*
X1007439Y224431D01*
X1010689D01*
Y210735D01*
X1006522Y206569D01*
X997478D01*
X994885Y209161D01*
X995411Y210431D01*
X997168D01*
X997674Y209674D01*
X999659Y208348D01*
X1002000Y207882D01*
X1004341Y208348D01*
X1006326Y209674D01*
X1007652Y211659D01*
X1008118Y214000D01*
X1007652Y216341D01*
X1006326Y218326D01*
X1004341Y219652D01*
X1002000Y220117D01*
X999659Y219652D01*
X997674Y218326D01*
X997168Y217569D01*
X995478D01*
X958523Y254523D01*
X957366Y255297D01*
X956000Y255569D01*
X918478D01*
X901023Y273023D01*
X899866Y273797D01*
X898500Y274069D01*
X668000D01*
X666634Y273797D01*
X665477Y273023D01*
X619522Y227069D01*
X616275D01*
X615789Y228242D01*
X618523Y230977D01*
X619297Y232134D01*
X619569Y233500D01*
Y287022D01*
X649977Y317431D01*
X680167D01*
X680673Y316674D01*
X682657Y315347D01*
X684999Y314882D01*
X687340Y315347D01*
X689324Y316674D01*
X690650Y318658D01*
X691116Y320999D01*
X690688Y323151D01*
X691232Y324421D01*
X901382D01*
X901382Y324421D01*
X902943Y324731D01*
X904266Y325616D01*
X931708Y353058D01*
X932000Y353000D01*
X934341Y353466D01*
X936326Y354792D01*
X937652Y356777D01*
X938118Y359118D01*
X937652Y361459D01*
X936326Y363443D01*
X934341Y364769D01*
X932000Y365235D01*
X929659Y364769D01*
X927674Y363443D01*
X926348Y361459D01*
X925882Y359118D01*
X925940Y358826D01*
X899693Y332578D01*
X882887D01*
X882401Y333751D01*
X901708Y353058D01*
X902000Y353000D01*
X904341Y353466D01*
X906326Y354792D01*
X907652Y356777D01*
X908118Y359118D01*
X907652Y361459D01*
X906326Y363443D01*
X904341Y364769D01*
X902000Y365235D01*
X899659Y364769D01*
X897674Y363443D01*
X896348Y361459D01*
X895882Y359118D01*
X895940Y358826D01*
X875192Y338078D01*
X641499D01*
X641499Y338078D01*
X639939Y337767D01*
X638615Y336883D01*
X638615Y336883D01*
X609561Y307828D01*
X571250D01*
X569689Y307518D01*
X568366Y306634D01*
X568366Y306634D01*
X546716Y284984D01*
X545832Y283661D01*
X545522Y282100D01*
X545522Y282100D01*
Y256299D01*
X543548Y255482D01*
X541041Y253559D01*
X539839Y251991D01*
X538569Y252422D01*
Y277500D01*
X538297Y278866D01*
X537523Y280023D01*
X534023Y283523D01*
X532866Y284297D01*
X531500Y284569D01*
X488647D01*
X488161Y285742D01*
X494351Y291931D01*
X536864D01*
X538230Y292203D01*
X539387Y292977D01*
X555023Y308613D01*
X555797Y309770D01*
X556069Y311136D01*
Y347500D01*
X555797Y348866D01*
X555023Y350023D01*
X536354Y368693D01*
X537164Y369679D01*
X537659Y369348D01*
X540000Y368882D01*
X542341Y369348D01*
X544326Y370674D01*
X544832Y371431D01*
X556000D01*
X557366Y371703D01*
X558523Y372477D01*
X564523Y378477D01*
X565297Y379634D01*
X565569Y381000D01*
Y401000D01*
X565297Y402366D01*
X564523Y403523D01*
X556523Y411523D01*
X555366Y412297D01*
X554000Y412569D01*
X519100D01*
X517735Y412297D01*
X516577Y411523D01*
X513005Y407952D01*
X511767Y408187D01*
X511630Y408372D01*
X510325Y410325D01*
X508340Y411651D01*
X506800Y411957D01*
X506382Y413335D01*
X514228Y421181D01*
X558750D01*
X560116Y421453D01*
X561273Y422227D01*
X566323Y427277D01*
X567097Y428434D01*
X567369Y429800D01*
Y435000D01*
X575800D01*
Y459000D01*
X551800D01*
Y435000D01*
X560231D01*
Y431278D01*
X557272Y428318D01*
X514530D01*
X514003Y429589D01*
X515523Y431108D01*
X516297Y432266D01*
X516569Y433632D01*
Y435489D01*
X519052Y436518D01*
X521558Y438442D01*
X523482Y440948D01*
X524691Y443867D01*
X525103Y447000D01*
X524691Y450133D01*
X523482Y453052D01*
X521558Y455559D01*
X519052Y457482D01*
X516133Y458691D01*
X513000Y459104D01*
X509867Y458691D01*
X506948Y457482D01*
X504441Y455559D01*
X502518Y453052D01*
X501309Y450133D01*
X500941Y447335D01*
X499660D01*
X499291Y450133D01*
X498082Y453052D01*
X496158Y455559D01*
X493652Y457482D01*
X490733Y458691D01*
X487600Y459104D01*
X484467Y458691D01*
X481548Y457482D01*
X479041Y455559D01*
X477118Y453052D01*
X475909Y450133D01*
X475496Y447000D01*
X475909Y443867D01*
X477118Y440948D01*
X478503Y439143D01*
X477816Y437953D01*
X477000Y438060D01*
X475173Y437820D01*
X473470Y437114D01*
X472008Y435992D01*
X470886Y434530D01*
X470339Y433210D01*
X469069Y433462D01*
Y439500D01*
X468797Y440866D01*
X468023Y442023D01*
X449784Y460263D01*
X450270Y461436D01*
X866936D01*
Y385000D01*
D02*
G37*
G36*
X279572Y372619D02*
X263893Y356940D01*
X263000Y357118D01*
X260659Y356652D01*
X258674Y355326D01*
X257348Y353341D01*
X256882Y351000D01*
X257348Y348659D01*
X258674Y346674D01*
X260659Y345348D01*
X263000Y344883D01*
X265341Y345348D01*
X267326Y346674D01*
X268652Y348659D01*
X269118Y351000D01*
X268940Y351893D01*
X286339Y369292D01*
X289751D01*
X290277Y368022D01*
X279311Y357056D01*
X279000Y357118D01*
X276659Y356652D01*
X274674Y355326D01*
X273348Y353341D01*
X272882Y351000D01*
X273348Y348659D01*
X274674Y346674D01*
X276659Y345348D01*
X279000Y344883D01*
X281341Y345348D01*
X283326Y346674D01*
X284652Y348659D01*
X284853Y349668D01*
X286147D01*
X286348Y348659D01*
X287674Y346674D01*
X289659Y345348D01*
X291199Y345042D01*
X291617Y343664D01*
X286522Y338569D01*
X225411D01*
X224885Y339839D01*
X258839Y373792D01*
X279086D01*
X279572Y372619D01*
D02*
G37*
G36*
X163371Y397392D02*
Y387757D01*
X163643Y386392D01*
X164417Y385234D01*
X166174Y383477D01*
X167332Y382703D01*
X168697Y382431D01*
X187522D01*
X188477Y381477D01*
X189634Y380703D01*
X191000Y380431D01*
X248167D01*
X248674Y379674D01*
X250658Y378347D01*
X251541Y378172D01*
X251910Y376956D01*
X231030Y356077D01*
X229859Y356702D01*
X230117Y358000D01*
X229652Y360341D01*
X228326Y362326D01*
X226341Y363652D01*
X224000Y364118D01*
X221659Y363652D01*
X219674Y362326D01*
X218348Y360341D01*
X217882Y358000D01*
X218348Y355659D01*
X219674Y353674D01*
X221659Y352348D01*
X224000Y351883D01*
X225298Y352141D01*
X225923Y350970D01*
X219725Y344772D01*
X165275D01*
X159569Y350478D01*
Y393168D01*
X160326Y393674D01*
X161652Y395659D01*
X161880Y396805D01*
X163300Y397435D01*
X163371Y397392D01*
D02*
G37*
G36*
X340431Y353834D02*
Y319144D01*
X340063Y319009D01*
X339161Y318932D01*
X338523Y319887D01*
X328388Y330023D01*
X327230Y330796D01*
X325865Y331068D01*
X290701D01*
X290316Y332338D01*
X290523Y332477D01*
X301478Y343431D01*
X325167D01*
X325674Y342674D01*
X327658Y341347D01*
X329999Y340882D01*
X332340Y341347D01*
X334325Y342674D01*
X335651Y344658D01*
X336117Y346999D01*
X335651Y349340D01*
X334325Y351325D01*
X332340Y352651D01*
X329999Y353117D01*
X327658Y352651D01*
X325674Y351325D01*
X325168Y350569D01*
X300000D01*
X299299Y350429D01*
X298974Y350586D01*
X298088Y351293D01*
X298043Y351376D01*
X297652Y353341D01*
X296326Y355326D01*
X294341Y356652D01*
X292000Y357118D01*
X291079Y356934D01*
X290453Y358105D01*
X295140Y362792D01*
X313578D01*
X314257Y361522D01*
X313709Y360702D01*
X313243Y358361D01*
X313709Y356020D01*
X315035Y354035D01*
X317020Y352709D01*
X319361Y352243D01*
X321702Y352709D01*
X323686Y354035D01*
X325013Y356020D01*
X325478Y358361D01*
X325013Y360702D01*
X324464Y361522D01*
X325143Y362792D01*
X331474D01*
X340431Y353834D01*
D02*
G37*
G36*
X415674Y435674D02*
X417659Y434348D01*
X420000Y433882D01*
X422341Y434348D01*
X424201Y435591D01*
X424639Y435732D01*
X425361D01*
X425797Y435591D01*
X427658Y434347D01*
X429999Y433882D01*
X432340Y434347D01*
X434325Y435673D01*
X434831Y436431D01*
X437523D01*
X438431Y435522D01*
Y411478D01*
X433522Y406569D01*
X412000D01*
X410634Y406297D01*
X409477Y405523D01*
X403477Y399523D01*
X402703Y398366D01*
X402431Y397000D01*
Y350775D01*
X401258Y350289D01*
X394069Y357478D01*
Y432022D01*
X398478Y436431D01*
X415168D01*
X415674Y435674D01*
D02*
G37*
G36*
X458174Y354424D02*
X458981Y353885D01*
Y352615D01*
X458174Y352076D01*
X456848Y350091D01*
X456382Y347750D01*
X456848Y345409D01*
X458174Y343424D01*
X460159Y342098D01*
X462500Y341632D01*
X464841Y342098D01*
X466826Y343424D01*
X467332Y344181D01*
X480772D01*
X484682Y340272D01*
Y306728D01*
X464521Y286568D01*
X424274D01*
X423788Y287741D01*
X428523Y292477D01*
X429297Y293634D01*
X429569Y295000D01*
Y330765D01*
X429918Y330952D01*
X430839Y331312D01*
X433000Y330882D01*
X435341Y331348D01*
X437326Y332674D01*
X438266Y334082D01*
X439734D01*
X440674Y332674D01*
X442659Y331348D01*
X445000Y330882D01*
X447341Y331348D01*
X449326Y332674D01*
X450652Y334659D01*
X451118Y337000D01*
X450652Y339341D01*
X449326Y341326D01*
X447341Y342652D01*
X445000Y343118D01*
X442659Y342652D01*
X440674Y341326D01*
X439734Y339918D01*
X438266D01*
X437326Y341326D01*
X435493Y342550D01*
X435097Y343455D01*
X434982Y343835D01*
X446329Y355181D01*
X457668D01*
X458174Y354424D01*
D02*
G37*
G36*
X149952Y401082D02*
X150312Y400161D01*
X149882Y398000D01*
X150348Y395659D01*
X151674Y393674D01*
X152431Y393168D01*
Y349000D01*
X152703Y347634D01*
X153477Y346477D01*
X161274Y338680D01*
X162431Y337906D01*
X163797Y337635D01*
X183792D01*
X184318Y336365D01*
X181977Y334023D01*
X181203Y332866D01*
X180931Y331500D01*
Y322832D01*
X180174Y322326D01*
X178848Y320341D01*
X178382Y318000D01*
X178848Y315659D01*
X180174Y313674D01*
X182159Y312348D01*
X184500Y311882D01*
X186841Y312348D01*
X188826Y313674D01*
X190152Y315659D01*
X190618Y318000D01*
X190152Y320341D01*
X188826Y322326D01*
X188069Y322832D01*
Y330022D01*
X189478Y331431D01*
X232298D01*
X232684Y330161D01*
X232476Y330023D01*
X227022Y324569D01*
X212636D01*
X211270Y324297D01*
X210113Y323523D01*
X180977Y294387D01*
X180203Y293230D01*
X179931Y291864D01*
Y282783D01*
X178661Y282435D01*
X176841Y283652D01*
X174500Y284118D01*
X172159Y283652D01*
X170989Y282870D01*
X170000Y282407D01*
X169011Y282870D01*
X167841Y283652D01*
X165500Y284118D01*
X163159Y283652D01*
X161644Y282639D01*
X160750Y282427D01*
X159856Y282639D01*
X158341Y283652D01*
X156000Y284118D01*
X153659Y283652D01*
X151674Y282326D01*
X150348Y280341D01*
X149882Y278000D01*
X150348Y275659D01*
X151130Y274489D01*
X151593Y273500D01*
X151130Y272511D01*
X150348Y271341D01*
X149882Y269000D01*
X150348Y266659D01*
X151674Y264674D01*
X153659Y263348D01*
X156000Y262882D01*
X158341Y263348D01*
X159856Y264361D01*
X160750Y264573D01*
X161644Y264361D01*
X163159Y263348D01*
X165500Y262882D01*
X167841Y263348D01*
X169011Y264130D01*
X170000Y264593D01*
X170989Y264130D01*
X172159Y263348D01*
X174500Y262882D01*
X176841Y263348D01*
X178661Y264564D01*
X179931Y264217D01*
Y260399D01*
X180203Y259034D01*
X180977Y257876D01*
X210431Y228421D01*
Y219832D01*
X209674Y219326D01*
X208348Y217341D01*
X207882Y215000D01*
X208348Y212659D01*
X209674Y210674D01*
X211659Y209348D01*
X211707Y209339D01*
X211582Y208069D01*
X182978D01*
X165569Y225478D01*
Y243000D01*
X165297Y244366D01*
X164523Y245523D01*
X136569Y273478D01*
Y396522D01*
X141478Y401431D01*
X149765D01*
X149952Y401082D01*
D02*
G37*
G36*
X327431Y314522D02*
Y301000D01*
X327703Y299634D01*
X328477Y298477D01*
X341477Y285477D01*
X341562Y284609D01*
X336522Y279569D01*
X281478D01*
X254024Y307023D01*
X252866Y307796D01*
X251501Y308068D01*
X212774D01*
X212288Y309241D01*
X215978Y312931D01*
X230364D01*
X231730Y313203D01*
X232887Y313977D01*
X238342Y319431D01*
X322523D01*
X327431Y314522D01*
D02*
G37*
G36*
X531431Y275389D02*
Y240508D01*
X531703Y239142D01*
X532477Y237985D01*
X542220Y228242D01*
X541734Y227069D01*
X497978D01*
X472024Y253023D01*
X470866Y253796D01*
X469501Y254068D01*
X409236D01*
X407870Y253796D01*
X406712Y253023D01*
X403258Y249568D01*
X354002D01*
X353516Y250741D01*
X360206Y257431D01*
X405100D01*
X406466Y257703D01*
X407624Y258477D01*
X410578Y261431D01*
X475100D01*
X476466Y261703D01*
X477623Y262476D01*
X485579Y270431D01*
X519168D01*
X519674Y269674D01*
X521659Y268348D01*
X524000Y267882D01*
X526341Y268348D01*
X528326Y269674D01*
X529652Y271659D01*
X530117Y274000D01*
X529949Y274848D01*
X531091Y275614D01*
X531431Y275389D01*
D02*
G37*
G36*
X211544Y281402D02*
X212450Y281006D01*
X213674Y279174D01*
X215659Y277848D01*
X218000Y277382D01*
X220341Y277848D01*
X222325Y279174D01*
X222831Y279931D01*
X233022D01*
X254711Y258242D01*
X254225Y257069D01*
X242478D01*
X237440Y262107D01*
X237618Y263000D01*
X237152Y265341D01*
X235826Y267326D01*
X233841Y268652D01*
X231500Y269118D01*
X229159Y268652D01*
X227174Y267326D01*
X225848Y265341D01*
X225383Y263000D01*
X225848Y260659D01*
X227174Y258674D01*
X229159Y257348D01*
X231500Y256882D01*
X232393Y257060D01*
X238477Y250977D01*
X239634Y250203D01*
X241000Y249931D01*
X281792D01*
X282177Y248661D01*
X281674Y248325D01*
X280348Y246341D01*
X279882Y244000D01*
X280348Y241658D01*
X281674Y239674D01*
X282431Y239168D01*
Y226478D01*
X272336Y216383D01*
X270958Y216801D01*
X270652Y218341D01*
X269326Y220326D01*
X268569Y220832D01*
Y226000D01*
X268297Y227366D01*
X267523Y228523D01*
X264523Y231523D01*
X263366Y232297D01*
X262000Y232569D01*
X248232D01*
X210068Y270733D01*
Y280421D01*
X211165Y281517D01*
X211544Y281402D01*
D02*
G37*
G36*
X441431Y238522D02*
Y220000D01*
X441703Y218634D01*
X442477Y217477D01*
X446711Y213242D01*
X446225Y212069D01*
X304978D01*
X301033Y216014D01*
X301169Y217282D01*
X302217Y217982D01*
X302634Y217703D01*
X304000Y217431D01*
X328000D01*
X329366Y217703D01*
X330523Y218477D01*
X345478Y233431D01*
X346765D01*
X346952Y233081D01*
X347312Y232161D01*
X346882Y230000D01*
X347347Y227658D01*
X348674Y225674D01*
X349431Y225168D01*
Y225001D01*
X349702Y223635D01*
X350476Y222477D01*
X351977Y220977D01*
X353134Y220203D01*
X354500Y219931D01*
X373168D01*
X373674Y219174D01*
X375659Y217848D01*
X378000Y217383D01*
X380341Y217848D01*
X382326Y219174D01*
X383652Y221159D01*
X384118Y223500D01*
X383652Y225841D01*
X382326Y227826D01*
X381823Y228161D01*
X382209Y229431D01*
X408000D01*
X409365Y229703D01*
X410523Y230477D01*
X413106Y233060D01*
X413999Y232882D01*
X416340Y233348D01*
X418325Y234674D01*
X419651Y236658D01*
X420117Y239000D01*
X419687Y241161D01*
X420047Y242081D01*
X420234Y242431D01*
X437522D01*
X441431Y238522D01*
D02*
G37*
G36*
X610134Y298402D02*
X597516Y285784D01*
X596632Y284461D01*
X596322Y282900D01*
X596322Y282900D01*
Y257000D01*
X588400D01*
Y233000D01*
X587309Y232569D01*
X554264D01*
X554011Y233839D01*
X555652Y234518D01*
X558158Y236441D01*
X560082Y238948D01*
X561291Y241867D01*
X561704Y245000D01*
X561291Y248133D01*
X560082Y251052D01*
X558158Y253559D01*
X555652Y255482D01*
X553678Y256299D01*
Y280411D01*
X572939Y299672D01*
X609608D01*
X610134Y298402D01*
D02*
G37*
G36*
X913211Y250742D02*
X912725Y249569D01*
X911000D01*
X909634Y249297D01*
X908477Y248523D01*
X889522Y229569D01*
X633775D01*
X633289Y230742D01*
X669478Y266931D01*
X897022D01*
X913211Y250742D01*
D02*
G37*
G36*
X493703Y221250D02*
X489022Y216569D01*
X453478D01*
X448569Y221478D01*
Y240000D01*
X448297Y241366D01*
X447523Y242523D01*
X444289Y245758D01*
X444775Y246931D01*
X468022D01*
X493703Y221250D01*
D02*
G37*
%LPC*%
G36*
X346800Y459104D02*
X343667Y458691D01*
X340748Y457482D01*
X338242Y455559D01*
X336318Y453052D01*
X335109Y450133D01*
X334815Y447904D01*
X334740Y447335D01*
X333460D01*
X333385Y447904D01*
X333091Y450133D01*
X331882Y453052D01*
X329958Y455559D01*
X327452Y457482D01*
X324533Y458691D01*
X321400Y459104D01*
X318267Y458691D01*
X315348Y457482D01*
X312841Y455559D01*
X310918Y453052D01*
X309709Y450133D01*
X309415Y447904D01*
X309340Y447335D01*
X308060D01*
X307985Y447904D01*
X307691Y450133D01*
X306482Y453052D01*
X304559Y455559D01*
X302052Y457482D01*
X299133Y458691D01*
X296000Y459104D01*
X292867Y458691D01*
X289948Y457482D01*
X287442Y455559D01*
X285518Y453052D01*
X284309Y450133D01*
X283896Y447000D01*
X284309Y443867D01*
X285518Y440948D01*
X287442Y438442D01*
X289948Y436518D01*
X292867Y435309D01*
X296000Y434896D01*
X299133Y435309D01*
X302052Y436518D01*
X304559Y438442D01*
X306482Y440948D01*
X307691Y443867D01*
X307985Y446096D01*
X308060Y446665D01*
X309340D01*
X309415Y446096D01*
X309709Y443867D01*
X310918Y440948D01*
X312841Y438442D01*
X315348Y436518D01*
X318267Y435309D01*
X321400Y434896D01*
X324533Y435309D01*
X327452Y436518D01*
X329958Y438442D01*
X331882Y440948D01*
X333091Y443867D01*
X333385Y446096D01*
X333460Y446665D01*
X334740D01*
X334815Y446096D01*
X335109Y443867D01*
X336318Y440948D01*
X338242Y438442D01*
X340748Y436518D01*
X343667Y435309D01*
X346800Y434896D01*
X349933Y435309D01*
X352852Y436518D01*
X355359Y438442D01*
X357282Y440948D01*
X358491Y443867D01*
X358904Y447000D01*
X358491Y450133D01*
X357282Y453052D01*
X355359Y455559D01*
X352852Y457482D01*
X349933Y458691D01*
X346800Y459104D01*
D02*
G37*
G36*
X115000Y437118D02*
X112659Y436652D01*
X110674Y435326D01*
X109348Y433341D01*
X108883Y431000D01*
X109348Y428659D01*
X110674Y426674D01*
X112659Y425348D01*
X115000Y424882D01*
X117341Y425348D01*
X119326Y426674D01*
X120652Y428659D01*
X121117Y431000D01*
X120652Y433341D01*
X119326Y435326D01*
X117341Y436652D01*
X115000Y437118D01*
D02*
G37*
G36*
Y423117D02*
X112659Y422652D01*
X110674Y421326D01*
X109348Y419341D01*
X108883Y417000D01*
X109348Y414659D01*
X110674Y412674D01*
X112659Y411348D01*
X115000Y410882D01*
X117341Y411348D01*
X119326Y412674D01*
X120652Y414659D01*
X121117Y417000D01*
X120652Y419341D01*
X119326Y421326D01*
X117341Y422652D01*
X115000Y423117D01*
D02*
G37*
G36*
X101000Y172804D02*
X97867Y172391D01*
X94948Y171182D01*
X92442Y169258D01*
X90518Y166752D01*
X89309Y163833D01*
X88896Y160700D01*
X89309Y157567D01*
X90518Y154648D01*
X92442Y152142D01*
X94948Y150218D01*
X97867Y149009D01*
X101000Y148596D01*
X104133Y149009D01*
X107052Y150218D01*
X109558Y152142D01*
X111482Y154648D01*
X112691Y157567D01*
X113104Y160700D01*
X112691Y163833D01*
X111482Y166752D01*
X109558Y169258D01*
X107052Y171182D01*
X104133Y172391D01*
X101000Y172804D01*
D02*
G37*
G36*
X113000Y147300D02*
X89000D01*
Y123300D01*
X113000D01*
Y147300D01*
D02*
G37*
G36*
X127000Y87400D02*
X103000D01*
Y63400D01*
X127000D01*
Y87400D01*
D02*
G37*
G36*
X57000Y64117D02*
X54659Y63652D01*
X52674Y62326D01*
X51348Y60341D01*
X50883Y58000D01*
X51348Y55659D01*
X52674Y53674D01*
X54659Y52348D01*
X57000Y51882D01*
X59341Y52348D01*
X61326Y53674D01*
X62652Y55659D01*
X63118Y58000D01*
X62652Y60341D01*
X61326Y62326D01*
X59341Y63652D01*
X57000Y64117D01*
D02*
G37*
G36*
X57000Y46118D02*
X54659Y45652D01*
X52674Y44326D01*
X51348Y42341D01*
X50882Y40000D01*
X51348Y37659D01*
X52674Y35674D01*
X54659Y34348D01*
X57000Y33883D01*
X59341Y34348D01*
X61326Y35674D01*
X62652Y37659D01*
X63117Y40000D01*
X62652Y42341D01*
X61326Y44326D01*
X59341Y45652D01*
X57000Y46118D01*
D02*
G37*
G36*
X115000Y62104D02*
X111867Y61691D01*
X108948Y60482D01*
X106441Y58559D01*
X104518Y56052D01*
X103309Y53133D01*
X102896Y50000D01*
X103309Y46867D01*
X104518Y43948D01*
X106441Y41441D01*
X108948Y39518D01*
X111867Y38309D01*
X114096Y38015D01*
X114665Y37940D01*
Y36660D01*
X114096Y36584D01*
X111867Y36291D01*
X108948Y35082D01*
X106441Y33159D01*
X104518Y30652D01*
X103309Y27733D01*
X102896Y24600D01*
X103309Y21467D01*
X104518Y18548D01*
X106441Y16042D01*
X108948Y14118D01*
X111867Y12909D01*
X115000Y12496D01*
X118133Y12909D01*
X121052Y14118D01*
X123559Y16042D01*
X125482Y18548D01*
X126691Y21467D01*
X127104Y24600D01*
X126691Y27733D01*
X125482Y30652D01*
X123559Y33159D01*
X121052Y35082D01*
X118133Y36291D01*
X115904Y36584D01*
X115335Y36660D01*
Y37940D01*
X115904Y38015D01*
X118133Y38309D01*
X121052Y39518D01*
X123559Y41441D01*
X125482Y43948D01*
X126691Y46867D01*
X127104Y50000D01*
X126691Y53133D01*
X125482Y56052D01*
X123559Y58559D01*
X121052Y60482D01*
X118133Y61691D01*
X115000Y62104D01*
D02*
G37*
G36*
X829500Y419300D02*
X805500D01*
Y395300D01*
X829500D01*
Y419300D01*
D02*
G37*
G36*
X810000Y391118D02*
X807659Y390652D01*
X805798Y389408D01*
X805362Y389267D01*
X804638D01*
X804202Y389408D01*
X802341Y390652D01*
X800000Y391118D01*
X797659Y390652D01*
X795798Y389408D01*
X795362Y389267D01*
X794638D01*
X794202Y389408D01*
X792341Y390652D01*
X790000Y391118D01*
X787659Y390652D01*
X785674Y389326D01*
X784348Y387341D01*
X783883Y385000D01*
X784348Y382659D01*
X785592Y380798D01*
X785733Y380362D01*
Y379638D01*
X785592Y379202D01*
X784348Y377341D01*
X783883Y375000D01*
X784348Y372659D01*
X785592Y370798D01*
X785733Y370362D01*
Y369638D01*
X785592Y369202D01*
X784348Y367341D01*
X783883Y365000D01*
X784348Y362659D01*
X785674Y360674D01*
X787659Y359348D01*
X790000Y358882D01*
X792341Y359348D01*
X794202Y360592D01*
X794638Y360733D01*
X795362D01*
X795798Y360592D01*
X797659Y359348D01*
X800000Y358882D01*
X802341Y359348D01*
X804202Y360592D01*
X804638Y360733D01*
X805362D01*
X805798Y360592D01*
X807659Y359348D01*
X810000Y358882D01*
X812341Y359348D01*
X814326Y360674D01*
X815652Y362659D01*
X816117Y365000D01*
X815652Y367341D01*
X814408Y369202D01*
X814267Y369638D01*
Y370362D01*
X814408Y370798D01*
X815652Y372659D01*
X816117Y375000D01*
X815652Y377341D01*
X814408Y379202D01*
X814267Y379638D01*
Y380362D01*
X814408Y380798D01*
X815652Y382659D01*
X816117Y385000D01*
X815652Y387341D01*
X814326Y389326D01*
X812341Y390652D01*
X810000Y391118D01*
D02*
G37*
G36*
X863000Y169118D02*
X860659Y168652D01*
X858674Y167326D01*
X857348Y165341D01*
X856882Y163000D01*
X857348Y160659D01*
X858674Y158674D01*
X860659Y157348D01*
X863000Y156882D01*
X865341Y157348D01*
X867326Y158674D01*
X867491Y158922D01*
X880311D01*
X912172Y127061D01*
Y77741D01*
X911924Y77576D01*
X910598Y75591D01*
X910133Y73250D01*
X910598Y70909D01*
X911924Y68924D01*
X913909Y67598D01*
X916250Y67133D01*
X918591Y67598D01*
X920576Y68924D01*
X921902Y70909D01*
X922367Y73250D01*
X921902Y75591D01*
X920576Y77576D01*
X920328Y77741D01*
Y128750D01*
X920018Y130311D01*
X919134Y131634D01*
X919134Y131634D01*
X884884Y165884D01*
X883561Y166768D01*
X882000Y167078D01*
X882000Y167078D01*
X867491D01*
X867326Y167326D01*
X865341Y168652D01*
X863000Y169118D01*
D02*
G37*
G36*
X961000Y79117D02*
X958659Y78652D01*
X956674Y77326D01*
X955348Y75341D01*
X954882Y73000D01*
X955348Y70659D01*
X956674Y68674D01*
X958659Y67348D01*
X961000Y66883D01*
X963341Y67348D01*
X965326Y68674D01*
X966652Y70659D01*
X967117Y73000D01*
X966652Y75341D01*
X965326Y77326D01*
X963341Y78652D01*
X961000Y79117D01*
D02*
G37*
G36*
X823324Y123569D02*
X804000D01*
X802634Y123297D01*
X801477Y122523D01*
X800477Y121523D01*
X799703Y120366D01*
X799431Y119000D01*
Y117832D01*
X798674Y117326D01*
X797348Y115341D01*
X796882Y113000D01*
X797348Y110659D01*
X798674Y108674D01*
X800659Y107348D01*
X803000Y106882D01*
X805341Y107348D01*
X807326Y108674D01*
X808267Y110082D01*
X809734D01*
X810674Y108674D01*
X812659Y107348D01*
X815000Y106882D01*
X815893Y107060D01*
X918477Y4477D01*
X919634Y3703D01*
X921000Y3431D01*
X925168D01*
X925674Y2674D01*
X927659Y1348D01*
X930000Y882D01*
X932341Y1348D01*
X934326Y2674D01*
X935652Y4659D01*
X936117Y7000D01*
X935652Y9341D01*
X934326Y11326D01*
X932341Y12652D01*
X930000Y13118D01*
X927659Y12652D01*
X925674Y11326D01*
X925168Y10569D01*
X922478D01*
X820940Y112107D01*
X821117Y113000D01*
X820688Y115161D01*
X820889Y115675D01*
X821924Y115970D01*
X822363Y115914D01*
X895800Y42477D01*
X896958Y41703D01*
X898324Y41431D01*
X906168D01*
X906674Y40674D01*
X908659Y39348D01*
X911000Y38883D01*
X913341Y39348D01*
X915326Y40674D01*
X916652Y42659D01*
X917117Y45000D01*
X916652Y47341D01*
X915326Y49326D01*
X913341Y50652D01*
X911000Y51118D01*
X908659Y50652D01*
X906674Y49326D01*
X906168Y48569D01*
X899802D01*
X825847Y122523D01*
X824689Y123297D01*
X823324Y123569D01*
D02*
G37*
G36*
X246000Y356118D02*
X243659Y355652D01*
X241674Y354326D01*
X240348Y352341D01*
X239883Y350000D01*
X240348Y347659D01*
X241674Y345674D01*
X243659Y344348D01*
X246000Y343882D01*
X248341Y344348D01*
X250326Y345674D01*
X251652Y347659D01*
X252118Y350000D01*
X251652Y352341D01*
X250326Y354326D01*
X248341Y355652D01*
X246000Y356118D01*
D02*
G37*
G36*
X236999Y379117D02*
X234658Y378651D01*
X232674Y377325D01*
X231348Y375340D01*
X230882Y372999D01*
X231348Y370658D01*
X232674Y368674D01*
X234658Y367347D01*
X236999Y366882D01*
X239341Y367347D01*
X241325Y368674D01*
X242651Y370658D01*
X243117Y372999D01*
X242651Y375340D01*
X241325Y377325D01*
X239341Y378651D01*
X236999Y379117D01*
D02*
G37*
G36*
X430000Y430588D02*
X428244Y430239D01*
X426756Y429244D01*
X425761Y427756D01*
X425648Y427184D01*
X424353D01*
X424239Y427756D01*
X423244Y429244D01*
X421756Y430239D01*
X420000Y430588D01*
X418244Y430239D01*
X416756Y429244D01*
X415761Y427756D01*
X415412Y426000D01*
X415761Y424244D01*
X416756Y422756D01*
X418244Y421761D01*
X418816Y421647D01*
Y420353D01*
X418244Y420239D01*
X416756Y419244D01*
X415761Y417756D01*
X415412Y416000D01*
X415761Y414244D01*
X416756Y412756D01*
X418244Y411761D01*
X420000Y411412D01*
X421756Y411761D01*
X423244Y412756D01*
X424239Y414244D01*
X424353Y414816D01*
X425648D01*
X425761Y414244D01*
X426756Y412756D01*
X428244Y411761D01*
X430000Y411412D01*
X431756Y411761D01*
X433244Y412756D01*
X434239Y414244D01*
X434588Y416000D01*
X434239Y417756D01*
X433244Y419244D01*
X431756Y420239D01*
X431185Y420353D01*
Y421647D01*
X431756Y421761D01*
X433244Y422756D01*
X434239Y424244D01*
X434588Y426000D01*
X434239Y427756D01*
X433244Y429244D01*
X431756Y430239D01*
X430000Y430588D01*
D02*
G37*
G36*
X462000Y316117D02*
X459659Y315652D01*
X458489Y314870D01*
X457500Y314407D01*
X456511Y314870D01*
X455341Y315652D01*
X453000Y316117D01*
X450659Y315652D01*
X448674Y314326D01*
X447348Y312341D01*
X446883Y310000D01*
X447348Y307659D01*
X448130Y306489D01*
X448593Y305500D01*
X448130Y304511D01*
X447348Y303341D01*
X446883Y301000D01*
X447348Y298659D01*
X448674Y296674D01*
X450659Y295348D01*
X453000Y294883D01*
X455341Y295348D01*
X456511Y296130D01*
X457500Y296593D01*
X458489Y296130D01*
X459659Y295348D01*
X462000Y294883D01*
X464341Y295348D01*
X466326Y296674D01*
X467652Y298659D01*
X468117Y301000D01*
X467652Y303341D01*
X466870Y304511D01*
X466407Y305500D01*
X466870Y306489D01*
X467652Y307659D01*
X468117Y310000D01*
X467652Y312341D01*
X466326Y314326D01*
X464341Y315652D01*
X462000Y316117D01*
D02*
G37*
G36*
X166000Y334118D02*
X163659Y333652D01*
X161674Y332326D01*
X160348Y330341D01*
X159882Y328000D01*
X160348Y325659D01*
X161674Y323674D01*
X163659Y322348D01*
X166000Y321883D01*
X168341Y322348D01*
X170326Y323674D01*
X171652Y325659D01*
X172118Y328000D01*
X171652Y330341D01*
X170326Y332326D01*
X168341Y333652D01*
X166000Y334118D01*
D02*
G37*
G36*
X298000Y302118D02*
X295659Y301652D01*
X293674Y300326D01*
X292348Y298341D01*
X291882Y296000D01*
X292348Y293659D01*
X293674Y291674D01*
X295659Y290348D01*
X298000Y289883D01*
X300341Y290348D01*
X302326Y291674D01*
X303652Y293659D01*
X304118Y296000D01*
X303652Y298341D01*
X302326Y300326D01*
X300341Y301652D01*
X298000Y302118D01*
D02*
G37*
G36*
X713000Y258500D02*
X702000D01*
X696500Y253000D01*
Y242000D01*
X702000Y236500D01*
X713000D01*
X718500Y242000D01*
Y253000D01*
X713000Y258500D01*
D02*
G37*
%LPD*%
D14*
X191000Y384000D02*
X255000D01*
X531500Y281000D02*
X535000Y277500D01*
X484737Y281000D02*
X531500D01*
X473236Y269499D02*
X484737Y281000D01*
X293100Y225000D02*
X300000D01*
X288000Y219900D02*
X293100Y225000D01*
X300000D02*
X304000Y221000D01*
X305737Y227000D02*
X326000D01*
X292999Y239737D02*
X305737Y227000D01*
X292999Y239737D02*
Y246899D01*
X344000Y237000D02*
X355899D01*
X328000Y221000D02*
X344000Y237000D01*
X304000Y221000D02*
X328000D01*
X340499Y241500D02*
X406600D01*
X326000Y227000D02*
X340499Y241500D01*
X335999Y246000D02*
X404736D01*
X322000Y232000D02*
X335999Y246000D01*
X307101Y232000D02*
X322000D01*
X321500Y239000D02*
X333091Y250591D01*
X310000Y239000D02*
X321500D01*
X333091Y250591D02*
X348319D01*
X616000Y288500D02*
X648499Y320999D01*
X616000Y233500D02*
Y288500D01*
X611500Y229000D02*
X616000Y233500D01*
X546508Y229000D02*
X611500D01*
X535000Y240508D02*
X546508Y229000D01*
X648499Y320999D02*
X684999D01*
X189000Y386000D02*
X191000Y384000D01*
X162000Y224000D02*
Y243000D01*
X133000Y272000D02*
X162000Y243000D01*
X133000Y272000D02*
Y398000D01*
X255000Y214000D02*
Y222500D01*
X253000Y224500D02*
X255000Y222500D01*
X244864Y224500D02*
X253000D01*
X361500Y308500D02*
X383000D01*
X358000Y312000D02*
X361500Y308500D01*
X358000Y312000D02*
Y362000D01*
X356000Y301500D02*
X388325D01*
X350000Y307500D02*
X356000Y301500D01*
X350000Y307500D02*
Y360000D01*
X350500Y297000D02*
X390189D01*
X344000Y303500D02*
X350500Y297000D01*
X344000Y303500D02*
Y355312D01*
X347500Y292500D02*
X392053D01*
X336000Y304000D02*
X347500Y292500D01*
X336000Y304000D02*
Y317364D01*
X236863Y322999D02*
X324001D01*
X230364Y316500D02*
X236863Y322999D01*
X214500Y316500D02*
X230364D01*
X234999Y327499D02*
X325865D01*
X228500Y321000D02*
X234999Y327499D01*
X212636Y321000D02*
X228500D01*
X163797Y341203D02*
X221203D01*
X156000Y349000D02*
X163797Y341203D01*
X156000Y349000D02*
Y398000D01*
X140000Y405000D02*
X162000D01*
X133000Y398000D02*
X140000Y405000D01*
X168697Y386000D02*
X189000D01*
X166940Y387757D02*
X168697Y386000D01*
X183500Y391500D02*
X256000D01*
X211000Y396000D02*
X297900D01*
X197001Y409999D02*
X211000Y396000D01*
X297900D02*
X308900Y407000D01*
X178000Y397000D02*
X183500Y391500D01*
X256000D02*
X265000Y382500D01*
X349500D01*
X366000Y366000D01*
X322591Y255091D02*
X346455D01*
X318499Y250999D02*
X322591Y255091D01*
X346455D02*
X356864Y265500D01*
X309000Y250999D02*
X318499D01*
X359898Y233000D02*
X408000D01*
X355899Y237000D02*
X359898Y233000D01*
X408000D02*
X413999Y239000D01*
X498625Y213625D02*
X715000D01*
X493500Y208500D02*
X498625Y213625D01*
X303500Y208500D02*
X493500D01*
X715000Y213625D02*
Y214000D01*
X714500Y214500D02*
X715000Y214000D01*
X631000Y226000D02*
X891000D01*
X624000Y219000D02*
X631000Y226000D01*
X496500Y219000D02*
X624000D01*
X668000Y270500D02*
X898500D01*
X621000Y223500D02*
X668000Y270500D01*
X496500Y223500D02*
X621000D01*
X490500Y213000D02*
X496500Y219000D01*
X452000Y213000D02*
X490500D01*
X445000Y220000D02*
X452000Y213000D01*
X445000Y220000D02*
Y240000D01*
X439001Y246000D02*
X445000Y240000D01*
X411100Y246000D02*
X439001D01*
X469501Y250499D02*
X496500Y223500D01*
X409236Y250499D02*
X469501D01*
X804000Y120000D02*
X823324D01*
X803000Y119000D02*
X804000Y120000D01*
X803000Y113000D02*
Y119000D01*
X815000Y113000D02*
X921000Y7000D01*
X930000D01*
X823324Y120000D02*
X898324Y45000D01*
X228000Y433000D02*
X283101D01*
X219000Y442000D02*
X228000Y433000D01*
X199000Y442000D02*
X219000D01*
X195379Y438379D02*
X199000Y442000D01*
X195379Y430379D02*
Y438379D01*
X294044Y407956D02*
X298043D01*
X278000Y424000D02*
X294044Y407956D01*
X298043D02*
X299000Y406999D01*
X212101Y424000D02*
X278000D01*
X562000Y381000D02*
Y401000D01*
X556000Y375000D02*
X562000Y381000D01*
X540000Y375000D02*
X556000D01*
X554000Y409000D02*
X562000Y401000D01*
X519100Y409000D02*
X554000D01*
X508601Y398500D02*
X519100Y409000D01*
X405100Y261000D02*
X409100Y265000D01*
X358728Y261000D02*
X405100D01*
X409100Y265000D02*
X475100D01*
X407236Y269499D02*
X473236D01*
X405372Y274000D02*
X471372D01*
X403508Y278500D02*
X469508D01*
X401644Y282999D02*
X465999D01*
X488250Y305250D01*
X469508Y278500D02*
X491009Y300000D01*
X471372Y274000D02*
X492873Y295500D01*
X135999Y409999D02*
X197001D01*
X122000Y396000D02*
X135999Y409999D01*
X122000Y385364D02*
Y396000D01*
X128499Y414499D02*
X202600D01*
X110000Y396000D02*
X128499Y414499D01*
X110000Y231000D02*
Y396000D01*
X389318Y455500D02*
X442636D01*
X349318Y415500D02*
X389318Y455500D01*
X294237Y415500D02*
X349318D01*
X390500Y356000D02*
Y433500D01*
Y356000D02*
X407000Y339500D01*
X390500Y433500D02*
X397000Y440000D01*
X512750Y424750D02*
X558750D01*
X491000Y403000D02*
X512750Y424750D01*
X469636Y403000D02*
X491000D01*
X487368Y408000D02*
X513000Y433632D01*
Y447000D01*
X471000Y408000D02*
X487368D01*
X467772Y398500D02*
X508601D01*
X447000Y419272D02*
X467772Y398500D01*
X447000Y419272D02*
Y443000D01*
X461000Y411636D02*
X469636Y403000D01*
X563800Y429800D02*
Y447000D01*
X558750Y424750D02*
X563800Y429800D01*
X393000Y451000D02*
X439000D01*
X349000Y407000D02*
X393000Y451000D01*
X445000Y460000D02*
X465500Y439500D01*
X387454Y460000D02*
X445000D01*
X347454Y420000D02*
X387454Y460000D01*
X465500Y413500D02*
Y439500D01*
X461000Y411636D02*
Y437136D01*
X442636Y455500D02*
X461000Y437136D01*
X222500Y428500D02*
X281237D01*
X220000Y431000D02*
X222500Y428500D01*
X206000Y431000D02*
X220000D01*
X281237Y428500D02*
X294237Y415500D01*
X130757Y427243D02*
X192243D01*
X129300Y428700D02*
X130757Y427243D01*
X129300Y428700D02*
Y447000D01*
X192243Y427243D02*
X195379Y430379D01*
X202600Y414499D02*
X212101Y424000D01*
X283101Y433000D02*
X296101Y420000D01*
X347454D01*
X439000Y451000D02*
X447000Y443000D01*
X465500Y413500D02*
X471000Y408000D01*
X442000Y410000D02*
Y437000D01*
X435000Y403000D02*
X442000Y410000D01*
X439001Y439999D02*
X442000Y437000D01*
X429999Y439999D02*
X439001D01*
X162000Y405000D02*
X166940Y400060D01*
X295000Y217000D02*
X303500Y208500D01*
X891000Y226000D02*
X911000Y246000D01*
X535000Y240508D02*
Y277500D01*
X484100Y274000D02*
X524000D01*
X475100Y265000D02*
X484100Y274000D01*
X956000Y252000D02*
X994000Y214000D01*
X917000Y252000D02*
X956000D01*
X898500Y270500D02*
X917000Y252000D01*
X404736Y246000D02*
X409236Y250499D01*
X406600Y241500D02*
X411100Y246000D01*
X994000Y214000D02*
X1002000D01*
X953000Y246000D02*
X996000Y203000D01*
X911000Y246000D02*
X953000D01*
X1008000Y203000D02*
X1014257Y209257D01*
X996000Y203000D02*
X1008000D01*
X1012243Y228000D02*
X1014257Y225985D01*
Y209257D02*
Y225985D01*
X1002608Y228000D02*
X1012243D01*
X206500Y269255D02*
X246754Y229000D01*
X206500Y269255D02*
Y281899D01*
X246754Y229000D02*
X262000D01*
X532000Y368000D02*
Y393500D01*
X210008Y304499D02*
X251501D01*
X197500Y265500D02*
X248000Y215000D01*
X366000Y326000D02*
Y366000D01*
X257361Y377361D02*
X342639D01*
X221203Y341203D02*
X257361Y377361D01*
X166940Y387757D02*
Y400060D01*
X288000Y335000D02*
X300000Y347000D01*
X188000Y335000D02*
X288000D01*
X184500Y331500D02*
X188000Y335000D01*
X300000Y347000D02*
X329999D01*
X325865Y327499D02*
X336000Y317364D01*
X324001Y322999D02*
X331000Y316000D01*
Y301000D02*
Y316000D01*
Y301000D02*
X344000Y288000D01*
X279000Y351698D02*
X293662Y366361D01*
X279000Y351000D02*
Y351698D01*
X293662Y366361D02*
X332952D01*
X329999Y347000D02*
X329999Y346999D01*
X184500Y318000D02*
Y331500D01*
X552500Y311136D02*
Y347500D01*
X532000Y368000D02*
X552500Y347500D01*
X110000Y231000D02*
X114375Y226625D01*
X280000Y276000D02*
X338000D01*
X251501Y304499D02*
X280000Y276000D01*
X270000Y267000D02*
X342864D01*
X242000Y295000D02*
X270000Y267000D01*
X213237Y295000D02*
X242000D01*
X264500Y262500D02*
X347500D01*
X236501Y290499D02*
X264500Y262500D01*
X215100Y290499D02*
X236501D01*
X397000Y440000D02*
X420000D01*
X412000Y403000D02*
X435000D01*
X406000Y397000D02*
X412000Y403000D01*
X406000Y349000D02*
Y397000D01*
X373500Y318500D02*
X398000D01*
X366000Y326000D02*
X373500Y318500D01*
X426000Y295000D02*
Y339899D01*
X418499Y287500D02*
X426000Y295000D01*
X399780Y287500D02*
X418499D01*
X421500Y300500D02*
Y357607D01*
X412999Y291999D02*
X421500Y300500D01*
X397916Y291999D02*
X412999D01*
X417000Y303000D02*
Y370000D01*
X410499Y296499D02*
X417000Y303000D01*
X396052Y296499D02*
X410499D01*
X407000Y309000D02*
Y339500D01*
X403499Y305499D02*
X407000Y309000D01*
X392324Y305499D02*
X403499D01*
X411500Y305500D02*
Y343500D01*
X406999Y300999D02*
X411500Y305500D01*
X394188Y300999D02*
X406999D01*
X345500Y283500D02*
X395780D01*
X388325Y301500D02*
X392324Y305499D01*
X390189Y297000D02*
X394188Y300999D01*
X392053Y292500D02*
X396052Y296499D01*
X393917Y288000D02*
X397916Y291999D01*
X344000Y288000D02*
X393917D01*
X395780Y283500D02*
X399780Y287500D01*
X397644Y279000D02*
X401644Y282999D01*
X348500Y279000D02*
X397644D01*
X399508Y274500D02*
X403508Y278500D01*
X350364Y274500D02*
X399508D01*
X401372Y270000D02*
X405372Y274000D01*
X355000Y270000D02*
X401372D01*
X403236Y265500D02*
X407236Y269499D01*
X356864Y265500D02*
X403236D01*
X545000Y310000D02*
Y347900D01*
X526650Y366250D02*
X545000Y347900D01*
X505250Y366250D02*
X526650D01*
X536864Y295500D02*
X552500Y311136D01*
X492873Y295500D02*
X536864D01*
X535000Y300000D02*
X545000Y310000D01*
X491009Y300000D02*
X535000D01*
X406000Y349000D02*
X411500Y343500D01*
X347500Y262500D02*
X355000Y270000D01*
X342864Y267000D02*
X350364Y274500D01*
X341000Y271500D02*
X348500Y279000D01*
X342639Y377361D02*
X358000Y362000D01*
X337139Y372861D02*
X350000Y360000D01*
X332952Y366361D02*
X344000Y355312D01*
X488250Y305250D02*
Y341750D01*
X482250Y347750D02*
X488250Y341750D01*
X462500Y347750D02*
X482250D01*
X426000Y339899D02*
X444851Y358750D01*
X462500D01*
X462250Y369500D02*
X462500Y369750D01*
X462250Y382000D02*
X462500Y381750D01*
X162000Y224000D02*
X181500Y204500D01*
X433393Y369500D02*
X462250D01*
X421500Y357607D02*
X433393Y369500D01*
X417000Y370000D02*
X429000Y382000D01*
X462250D01*
X348319Y250591D02*
X358728Y261000D01*
X288262Y258000D02*
X298000Y248263D01*
Y241101D02*
Y248263D01*
Y241101D02*
X307101Y232000D01*
X286399Y253500D02*
X292999Y246899D01*
X308900Y407000D02*
X349000D01*
X354500Y223500D02*
X378000D01*
X352999Y225001D02*
X354500Y223500D01*
X352999Y225001D02*
Y230000D01*
X286000Y225000D02*
Y244000D01*
X270000Y209000D02*
X286000Y225000D01*
X260000Y209000D02*
X270000D01*
X309000Y251000D02*
X309000Y250999D01*
X338000Y276000D02*
X345500Y283500D01*
X265000Y216000D02*
Y226000D01*
X262000Y229000D02*
X265000Y226000D01*
X288000Y219900D02*
Y219900D01*
X272600Y204500D02*
X288000Y219900D01*
X181500Y204500D02*
X272600D01*
X260000Y258000D02*
X288262D01*
X241000Y253500D02*
X286399D01*
X255000Y214000D02*
X260000Y209000D01*
X231500Y263000D02*
X241000Y253500D01*
X234501Y283499D02*
X260000Y258000D01*
X183500Y291864D02*
X212636Y321000D01*
X188500Y290500D02*
X214500Y316500D01*
X275500Y271500D02*
X341000D01*
X247001Y299999D02*
X275500Y271500D01*
X211872Y299999D02*
X247001D01*
X193000Y263628D02*
X229500Y227127D01*
X202000Y283763D02*
X213237Y295000D01*
X202000Y267391D02*
Y283763D01*
Y267391D02*
X205182Y264208D01*
Y264182D02*
Y264208D01*
X197500Y285627D02*
X211872Y299999D01*
X197500Y265500D02*
Y285627D01*
X193000Y287491D02*
X210008Y304499D01*
X193000Y263628D02*
Y287491D01*
X188500Y261764D02*
Y290500D01*
Y261764D02*
X225000Y225264D01*
X183500Y260399D02*
X214000Y229900D01*
X183500Y260399D02*
Y291864D01*
X206500Y281899D02*
X215100Y290499D01*
X205182Y264182D02*
X244864Y224500D01*
X229500Y221500D02*
X236000Y215000D01*
X229500Y221500D02*
Y227127D01*
X218000Y283499D02*
X234501D01*
X225000Y215000D02*
Y225264D01*
X214000Y215000D02*
Y229900D01*
X898324Y45000D02*
X911000D01*
X284861Y372861D02*
X337139D01*
X263000Y351000D02*
X284861Y372861D01*
D15*
X532000Y393500D02*
X537500D01*
X526500D02*
X532000D01*
D16*
X571250Y303750D02*
X611250D01*
X549600Y282100D02*
X571250Y303750D01*
X549600Y245000D02*
Y282100D01*
X641499Y333999D02*
X876882D01*
X611250Y303750D02*
X641499Y333999D01*
X882000Y163000D02*
X916250Y128750D01*
Y73250D02*
Y128750D01*
X870000Y103000D02*
Y109000D01*
X837000Y142000D02*
X870000Y109000D01*
X837000Y142000D02*
Y172000D01*
X880000Y103000D02*
Y110000D01*
X843000Y147000D02*
X880000Y110000D01*
X843000Y147000D02*
Y169000D01*
X993000Y182000D02*
X998900Y187900D01*
X993000Y164000D02*
Y182000D01*
X985000Y156000D02*
X993000Y164000D01*
X998900Y187900D02*
X1020000D01*
X915000Y156000D02*
X985000D01*
X843000Y169000D02*
X857000Y183000D01*
X880000D02*
X925900Y137100D01*
X857000Y183000D02*
X880000D01*
X882000Y189000D02*
X915000Y156000D01*
X854000Y189000D02*
X882000D01*
X925900Y137100D02*
X1020000D01*
X837000Y172000D02*
X854000Y189000D01*
X863000Y163000D02*
X882000D01*
X645999Y328499D02*
X901382D01*
X600400Y282900D02*
X645999Y328499D01*
X600400Y245000D02*
Y282900D01*
X901382Y328499D02*
X932000Y359118D01*
X876882Y333999D02*
X902000Y359118D01*
D94*
X513000Y447000D02*
D03*
X538400D02*
D03*
X487600D02*
D03*
X549600Y245000D02*
D03*
X575000D02*
D03*
X1020000Y137100D02*
D03*
Y162500D02*
D03*
X103900Y447000D02*
D03*
X154700D02*
D03*
X129300D02*
D03*
X346800D02*
D03*
X321400D02*
D03*
X270600D02*
D03*
X296000D02*
D03*
X101000Y160700D02*
D03*
X115000Y50000D02*
D03*
Y24600D02*
D03*
X817500Y432700D02*
D03*
D95*
X563800Y447000D02*
D03*
X600400Y245000D02*
D03*
X180100Y447000D02*
D03*
X245200D02*
D03*
D96*
X707500Y247500D02*
D03*
D97*
Y297500D02*
D03*
D98*
X1020000Y187900D02*
D03*
X101000Y135300D02*
D03*
X115000Y75400D02*
D03*
X817500Y407300D02*
D03*
D99*
X995000Y50000D02*
D03*
X45000Y330000D02*
D03*
D100*
X252999Y383999D02*
D03*
X254000Y403000D02*
D03*
X715000Y213625D02*
D03*
X204000Y362000D02*
D03*
X1027749Y104750D02*
D03*
Y72750D02*
D03*
Y40750D02*
D03*
Y8750D02*
D03*
X1019749Y120750D02*
D03*
X1011749Y104750D02*
D03*
X1019749Y88750D02*
D03*
Y24750D02*
D03*
X1011749Y8750D02*
D03*
X1003749Y152750D02*
D03*
Y120750D02*
D03*
X995749Y104750D02*
D03*
X1003749Y88750D02*
D03*
X995749Y8750D02*
D03*
X987749Y120750D02*
D03*
Y88750D02*
D03*
X979749Y8750D02*
D03*
X963749Y360750D02*
D03*
Y328750D02*
D03*
Y8750D02*
D03*
X947749Y360750D02*
D03*
X955749Y344750D02*
D03*
X947749Y328750D02*
D03*
X955749Y312750D02*
D03*
Y56750D02*
D03*
X947749Y-23250D02*
D03*
Y-55250D02*
D03*
X931749Y168750D02*
D03*
X939749Y56750D02*
D03*
X931749Y-23250D02*
D03*
X939749Y-39250D02*
D03*
X931749Y-55250D02*
D03*
X939749Y-71250D02*
D03*
X915749Y360750D02*
D03*
Y232750D02*
D03*
X923749Y216750D02*
D03*
X915749Y168750D02*
D03*
X923749Y-39250D02*
D03*
X915749Y-55250D02*
D03*
X923749Y-71250D02*
D03*
X907749Y216750D02*
D03*
X899749Y200750D02*
D03*
X907749Y-71250D02*
D03*
X883749Y360750D02*
D03*
X891749Y280750D02*
D03*
Y248750D02*
D03*
Y216750D02*
D03*
X883749Y200750D02*
D03*
Y72750D02*
D03*
X891749Y-71250D02*
D03*
X875749Y280750D02*
D03*
Y248750D02*
D03*
Y216750D02*
D03*
X867749Y200750D02*
D03*
X875749Y-71250D02*
D03*
X859749Y440750D02*
D03*
X851749Y424750D02*
D03*
X859749Y408750D02*
D03*
X851749Y392750D02*
D03*
X859749Y280750D02*
D03*
Y248750D02*
D03*
Y216750D02*
D03*
X851749Y200750D02*
D03*
X859749Y-71250D02*
D03*
X843749Y440750D02*
D03*
Y408750D02*
D03*
X835750Y392750D02*
D03*
X843749Y280750D02*
D03*
Y248750D02*
D03*
Y216750D02*
D03*
X835750Y200750D02*
D03*
X843749Y-71250D02*
D03*
X827749Y280750D02*
D03*
Y248750D02*
D03*
Y216750D02*
D03*
Y-71250D02*
D03*
X811749Y-7250D02*
D03*
Y-71250D02*
D03*
X795750Y344750D02*
D03*
Y312750D02*
D03*
X787749Y-55250D02*
D03*
X795750Y-71250D02*
D03*
X779750Y312750D02*
D03*
Y280750D02*
D03*
Y248750D02*
D03*
Y120750D02*
D03*
Y-7250D02*
D03*
Y-39250D02*
D03*
Y-71250D02*
D03*
X763749Y344750D02*
D03*
X699750Y312750D02*
D03*
X675750Y392750D02*
D03*
X587749Y280750D02*
D03*
X571750Y312750D02*
D03*
X563750Y264750D02*
D03*
X531750Y232750D02*
D03*
X523750Y376750D02*
D03*
Y248750D02*
D03*
X507750Y376750D02*
D03*
X379750Y408750D02*
D03*
X371750Y392750D02*
D03*
X283750Y312750D02*
D03*
X275750Y296750D02*
D03*
X267750Y312750D02*
D03*
X203750Y216750D02*
D03*
X147750Y360750D02*
D03*
Y232750D02*
D03*
X155750Y216750D02*
D03*
X139750D02*
D03*
Y184750D02*
D03*
Y152750D02*
D03*
Y120750D02*
D03*
X131750Y104750D02*
D03*
X139750Y88750D02*
D03*
X131750Y72750D02*
D03*
X139750Y56750D02*
D03*
X131750Y40750D02*
D03*
X139750Y24750D02*
D03*
X131750Y8750D02*
D03*
X123750Y344750D02*
D03*
Y312750D02*
D03*
X99750Y392750D02*
D03*
Y360750D02*
D03*
Y328750D02*
D03*
Y296750D02*
D03*
Y264750D02*
D03*
Y40750D02*
D03*
Y8750D02*
D03*
X91750Y376750D02*
D03*
X83750Y360750D02*
D03*
X91750Y344750D02*
D03*
X83750Y328750D02*
D03*
X91750Y312750D02*
D03*
X83750Y296750D02*
D03*
X91750Y280750D02*
D03*
Y248750D02*
D03*
X83750Y40750D02*
D03*
Y8750D02*
D03*
X67750Y360750D02*
D03*
X75750Y344750D02*
D03*
Y312750D02*
D03*
X67750Y296750D02*
D03*
Y8750D02*
D03*
X51750Y360750D02*
D03*
Y296750D02*
D03*
X35750Y360750D02*
D03*
Y296750D02*
D03*
Y40750D02*
D03*
X19750Y360750D02*
D03*
Y296750D02*
D03*
X803000Y113000D02*
D03*
X815000D02*
D03*
X122000Y385364D02*
D03*
X505999Y405999D02*
D03*
X299000Y428000D02*
D03*
X232000Y407000D02*
D03*
X241000D02*
D03*
X223000D02*
D03*
X214000D02*
D03*
X265000Y416000D02*
D03*
X454000Y431000D02*
D03*
X487000Y385000D02*
D03*
X439000Y395000D02*
D03*
X156000Y398000D02*
D03*
X785000Y206000D02*
D03*
Y195000D02*
D03*
X764000Y217000D02*
D03*
X752000D02*
D03*
X786000Y259000D02*
D03*
X784000Y347000D02*
D03*
X719000Y352000D02*
D03*
X475000Y220000D02*
D03*
X487000D02*
D03*
X462000Y301000D02*
D03*
X453000D02*
D03*
X962500Y105000D02*
D03*
X952500D02*
D03*
X942500D02*
D03*
X487000Y246000D02*
D03*
X587500Y265000D02*
D03*
X575000D02*
D03*
X699000Y352000D02*
D03*
X696750Y377000D02*
D03*
X687000D02*
D03*
X699000Y363000D02*
D03*
X716250Y377000D02*
D03*
X684999Y320999D02*
D03*
X365000Y253500D02*
D03*
X374000D02*
D03*
X399500D02*
D03*
X419000Y257750D02*
D03*
X433000Y258000D02*
D03*
X413999Y239000D02*
D03*
X932000Y359118D02*
D03*
X902000D02*
D03*
X885000Y295000D02*
D03*
X875000D02*
D03*
X851000Y103000D02*
D03*
X916250Y73250D02*
D03*
X860000Y103000D02*
D03*
X904000Y97000D02*
D03*
X863000Y163000D02*
D03*
X981000Y184000D02*
D03*
X1002608Y228000D02*
D03*
X1002000Y214000D02*
D03*
X938000Y235000D02*
D03*
Y224000D02*
D03*
X930000Y7000D02*
D03*
X880000Y-38000D02*
D03*
X870000Y103000D02*
D03*
X880000D02*
D03*
X898000Y89000D02*
D03*
X214000Y215000D02*
D03*
X248000D02*
D03*
X942000Y318000D02*
D03*
X320500Y288500D02*
D03*
X282000Y457000D02*
D03*
X223000Y377000D02*
D03*
X246000Y350000D02*
D03*
X299000Y335000D02*
D03*
X292000Y351000D02*
D03*
X319361Y358361D02*
D03*
X279000Y351000D02*
D03*
X236999Y372999D02*
D03*
X115000Y417000D02*
D03*
X178000Y397000D02*
D03*
X183000Y379000D02*
D03*
X140000Y331000D02*
D03*
X269000Y241000D02*
D03*
X277750Y231750D02*
D03*
X1031000Y319000D02*
D03*
Y268000D02*
D03*
X426000Y238000D02*
D03*
X383000Y308500D02*
D03*
X436000Y238000D02*
D03*
X550000Y398000D02*
D03*
X667000Y396000D02*
D03*
X603000Y378000D02*
D03*
X612000D02*
D03*
X589000Y312000D02*
D03*
X655000Y386000D02*
D03*
Y396000D02*
D03*
X580000Y322000D02*
D03*
X602000Y434000D02*
D03*
X592000D02*
D03*
X540000Y375000D02*
D03*
X462000Y310000D02*
D03*
X437000Y304000D02*
D03*
X524000Y274000D02*
D03*
X341000Y429000D02*
D03*
X320000Y428000D02*
D03*
X275000Y416000D02*
D03*
X513000Y333000D02*
D03*
Y323000D02*
D03*
X510000Y349000D02*
D03*
X524000D02*
D03*
X690000Y282500D02*
D03*
X534000Y349000D02*
D03*
X514000Y394000D02*
D03*
X499000Y337000D02*
D03*
X462500Y358750D02*
D03*
Y347750D02*
D03*
Y369750D02*
D03*
Y381750D02*
D03*
X174000Y379000D02*
D03*
X214000Y416000D02*
D03*
X95000Y402000D02*
D03*
X105000D02*
D03*
X114375Y226625D02*
D03*
X174000Y222000D02*
D03*
X169000Y232000D02*
D03*
X30000Y24000D02*
D03*
X232000Y416000D02*
D03*
X223000D02*
D03*
X445000Y337000D02*
D03*
X433000D02*
D03*
X295000Y217000D02*
D03*
X224000Y358000D02*
D03*
X241000Y416000D02*
D03*
X100000Y177000D02*
D03*
X891000Y98000D02*
D03*
X487000Y266000D02*
D03*
Y256000D02*
D03*
X265000Y216000D02*
D03*
X310000Y239000D02*
D03*
X309000Y251000D02*
D03*
X286000Y244000D02*
D03*
X352999Y230000D02*
D03*
X477000Y385000D02*
D03*
X526500Y393500D02*
D03*
X537500D02*
D03*
X215000Y328000D02*
D03*
X166000D02*
D03*
X416000Y379000D02*
D03*
X219018Y273000D02*
D03*
X231500Y263000D02*
D03*
X236000Y215000D02*
D03*
X188000Y238000D02*
D03*
X196000D02*
D03*
X218000Y283499D02*
D03*
X298000Y296000D02*
D03*
X505250Y366250D02*
D03*
X203000Y454000D02*
D03*
X773000Y347000D02*
D03*
X559500Y332500D02*
D03*
Y341500D02*
D03*
X569500Y332500D02*
D03*
X416000Y389000D02*
D03*
X427000D02*
D03*
X148000Y289000D02*
D03*
X89000Y237000D02*
D03*
Y203000D02*
D03*
X100000D02*
D03*
X57000Y58000D02*
D03*
X57000Y40000D02*
D03*
X30000Y75000D02*
D03*
X31000Y49000D02*
D03*
X184500Y318000D02*
D03*
X148000Y299000D02*
D03*
X103000Y237000D02*
D03*
X911000Y45000D02*
D03*
X437000Y314000D02*
D03*
X178000Y359000D02*
D03*
X178366Y348203D02*
D03*
X398000Y374000D02*
D03*
X225000Y215000D02*
D03*
X185000Y222000D02*
D03*
X196000D02*
D03*
X174500Y269000D02*
D03*
X156000D02*
D03*
Y278000D02*
D03*
X165500Y269000D02*
D03*
X174500Y278000D02*
D03*
X453000Y310000D02*
D03*
X690000Y302500D02*
D03*
X725000D02*
D03*
X787500Y292500D02*
D03*
X725000D02*
D03*
X787500Y302500D02*
D03*
X378000Y223500D02*
D03*
X398000Y318500D02*
D03*
X315500Y396000D02*
D03*
X329999Y346999D02*
D03*
X325500Y396000D02*
D03*
X369000Y376000D02*
D03*
X380000D02*
D03*
X398000Y385000D02*
D03*
X429999Y439999D02*
D03*
X420000Y440000D02*
D03*
X401000Y421000D02*
D03*
X263000Y351000D02*
D03*
X299000Y406999D02*
D03*
X157000Y299000D02*
D03*
Y289000D02*
D03*
X834667Y380000D02*
D03*
X845333D02*
D03*
X165500Y278000D02*
D03*
X246000Y315999D02*
D03*
X115000Y431000D02*
D03*
X690000Y292500D02*
D03*
X725000Y282500D02*
D03*
X713333D02*
D03*
X701667D02*
D03*
X380000Y419000D02*
D03*
X1022000Y268000D02*
D03*
X1013000D02*
D03*
X1022000Y319000D02*
D03*
X1013000D02*
D03*
X285500Y296000D02*
D03*
X255000Y343000D02*
D03*
X803000Y86000D02*
D03*
X964000Y43000D02*
D03*
X880000Y-28000D02*
D03*
X824000Y-37000D02*
D03*
Y-27000D02*
D03*
X964000Y22000D02*
D03*
Y32000D02*
D03*
X791000Y86000D02*
D03*
X815000D02*
D03*
X961000Y73000D02*
D03*
X755000Y350000D02*
D03*
X745000D02*
D03*
X735000D02*
D03*
X755000Y360000D02*
D03*
Y370000D02*
D03*
X810000Y365000D02*
D03*
X800000D02*
D03*
X790000D02*
D03*
X810000Y375000D02*
D03*
X800000D02*
D03*
X790000D02*
D03*
Y385000D02*
D03*
X800000D02*
D03*
X810000D02*
D03*
X600500Y340500D02*
D03*
X667000Y386000D02*
D03*
X680000Y402500D02*
D03*
X569500Y341500D02*
D03*
X719000Y363000D02*
D03*
X824000Y380000D02*
D03*
X856000D02*
D03*
X707000Y427000D02*
D03*
X706500Y377000D02*
D03*
X726000D02*
D03*
X898000Y375000D02*
D03*
X878000D02*
D03*
X868000D02*
D03*
X908000D02*
D03*
X981000Y173000D02*
D03*
X942000Y308500D02*
D03*
X982000Y262500D02*
D03*
X993000D02*
D03*
X802500Y442500D02*
D03*
Y432500D02*
D03*
X832500D02*
D03*
Y422500D02*
D03*
Y442500D02*
D03*
X802500Y422500D02*
D03*
X725000Y411000D02*
D03*
X750000D02*
D03*
X696000Y427000D02*
D03*
X699000Y417000D02*
D03*
X737500Y411000D02*
D03*
D101*
X206000Y431000D02*
D03*
X477000D02*
D03*
Y419000D02*
D03*
X602000Y456000D02*
D03*
D102*
X430000Y416000D02*
D03*
X420000D02*
D03*
X430000Y426000D02*
D03*
X420000D02*
D03*
M02*
