G04*
G04 #@! TF.GenerationSoftware,Altium Limited,Altium Designer,19.1.9 (167)*
G04*
G04 Layer_Color=7477623*
%FSLAX44Y44*%
%MOMM*%
G71*
G01*
G75*
%ADD49R,0.7500X0.7500*%
%ADD50R,0.7500X0.7500*%
%ADD51R,0.5500X0.6500*%
%ADD52O,1.5500X0.4500*%
G04:AMPARAMS|DCode=53|XSize=1.7mm|YSize=0.75mm|CornerRadius=0.375mm|HoleSize=0mm|Usage=FLASHONLY|Rotation=270.000|XOffset=0mm|YOffset=0mm|HoleType=Round|Shape=RoundedRectangle|*
%AMROUNDEDRECTD53*
21,1,1.7000,0.0000,0,0,270.0*
21,1,0.9500,0.7500,0,0,270.0*
1,1,0.7500,0.0000,-0.4750*
1,1,0.7500,0.0000,0.4750*
1,1,0.7500,0.0000,0.4750*
1,1,0.7500,0.0000,-0.4750*
%
%ADD53ROUNDEDRECTD53*%
%ADD54R,1.4000X1.1500*%
%ADD55R,0.6500X0.5500*%
%ADD56R,1.2500X0.7500*%
%ADD57R,0.6500X1.1500*%
%ADD58R,1.1500X1.4000*%
%ADD59R,1.0600X1.3700*%
%ADD60R,1.5500X1.5500*%
%ADD61R,1.2500X1.9500*%
%ADD62P,1.0607X4X90.0*%
%ADD63P,1.0607X4X360.0*%
%ADD64O,0.4500X1.5500*%
%ADD65R,1.6500X2.5500*%
%ADD66R,1.0000X0.6000*%
%ADD67O,2.6500X0.8500*%
%ADD68O,0.8500X2.6500*%
%ADD69R,1.1500X0.7000*%
%ADD70R,1.2500X1.1500*%
%ADD71R,3.1500X1.1500*%
%ADD72R,1.3500X1.9000*%
%ADD73R,0.7500X1.2500*%
%ADD74O,1.5000X0.6000*%
%ADD75R,1.2000X1.1500*%
%ADD76R,2.3500X1.2000*%
%ADD77R,1.3500X1.7500*%
%ADD78R,1.9500X1.4500*%
%ADD79C,0.2950*%
%ADD80C,2.1500*%
%ADD81R,2.1500X2.1500*%
%ADD82P,2.1107X8X112.5*%
%ADD83C,1.9500*%
%ADD84R,2.1500X2.1500*%
%ADD85C,5.2500*%
%ADD86C,0.6500*%
G36*
X482250Y368500D02*
Y364500D01*
X477750D01*
Y368500D01*
X482250D01*
D02*
G37*
G36*
Y363500D02*
Y359000D01*
X478250D01*
Y363500D01*
X482250D01*
D02*
G37*
G36*
X487250D02*
Y359000D01*
X483250D01*
Y363500D01*
X487250D01*
D02*
G37*
G36*
X482250Y373500D02*
Y369500D01*
X477750D01*
Y373500D01*
X482250D01*
D02*
G37*
G36*
Y379000D02*
Y374500D01*
X478250D01*
Y379000D01*
X482250D01*
D02*
G37*
G36*
X487250D02*
Y374500D01*
X483250D01*
Y379000D01*
X487250D01*
D02*
G37*
G36*
X492250Y363500D02*
Y359000D01*
X488250D01*
Y363500D01*
X492250D01*
D02*
G37*
G36*
X497250D02*
Y359000D01*
X493250D01*
Y363500D01*
X497250D01*
D02*
G37*
G36*
X497750Y368500D02*
Y364500D01*
X493250D01*
Y368500D01*
X497750D01*
D02*
G37*
G36*
X492250Y379000D02*
Y374500D01*
X488250D01*
Y379000D01*
X492250D01*
D02*
G37*
G36*
X497250D02*
Y374500D01*
X493250D01*
Y379000D01*
X497250D01*
D02*
G37*
G36*
X497750Y373500D02*
Y369500D01*
X493250D01*
Y373500D01*
X497750D01*
D02*
G37*
D49*
X488000Y425000D02*
D03*
X498000D02*
D03*
X993000Y200000D02*
D03*
X983000D02*
D03*
Y214000D02*
D03*
X993000D02*
D03*
X983000Y228000D02*
D03*
X993000D02*
D03*
X524000Y307000D02*
D03*
X534000D02*
D03*
X451000Y251000D02*
D03*
X461000D02*
D03*
X534000Y318000D02*
D03*
X524000D02*
D03*
X495000Y394000D02*
D03*
X505000D02*
D03*
X490000Y349000D02*
D03*
X500000D02*
D03*
X75000Y24000D02*
D03*
X65000D02*
D03*
X40000D02*
D03*
X50000D02*
D03*
X64000Y49000D02*
D03*
X74000D02*
D03*
X40000D02*
D03*
X50000D02*
D03*
X40000Y75000D02*
D03*
X50000D02*
D03*
X74000D02*
D03*
X64000D02*
D03*
X90000Y213000D02*
D03*
X100000D02*
D03*
X223000Y454000D02*
D03*
X213000D02*
D03*
X450500Y263500D02*
D03*
X460500D02*
D03*
X483000Y311000D02*
D03*
X473000D02*
D03*
X551000Y423000D02*
D03*
X541000D02*
D03*
Y413000D02*
D03*
X551000D02*
D03*
X351000Y341000D02*
D03*
X341000D02*
D03*
X351000Y331000D02*
D03*
X341000D02*
D03*
X197000Y328000D02*
D03*
X207000D02*
D03*
X185000D02*
D03*
X175000D02*
D03*
X164000Y372000D02*
D03*
X174000D02*
D03*
X193000D02*
D03*
X183000D02*
D03*
X836000Y-34000D02*
D03*
X846000D02*
D03*
X870000D02*
D03*
X860000D02*
D03*
X804000Y-24000D02*
D03*
X794000D02*
D03*
X611500Y332500D02*
D03*
X621500D02*
D03*
X621500Y321500D02*
D03*
X611500D02*
D03*
X877500Y350000D02*
D03*
X867500D02*
D03*
X877500Y337500D02*
D03*
X867500D02*
D03*
X992000Y293500D02*
D03*
X982000D02*
D03*
D50*
X728000Y220000D02*
D03*
Y210000D02*
D03*
X685000Y339000D02*
D03*
Y329000D02*
D03*
X932000Y350000D02*
D03*
Y340000D02*
D03*
X902000Y350000D02*
D03*
Y340000D02*
D03*
X922000Y350000D02*
D03*
Y340000D02*
D03*
X891000Y111000D02*
D03*
Y121000D02*
D03*
X859000Y111000D02*
D03*
Y121000D02*
D03*
X355500Y249931D02*
D03*
Y259931D02*
D03*
X343000Y249931D02*
D03*
Y259931D02*
D03*
X330500Y249931D02*
D03*
Y259931D02*
D03*
X318000Y249931D02*
D03*
Y259931D02*
D03*
X248000Y223000D02*
D03*
Y233000D02*
D03*
X214000Y223000D02*
D03*
Y233000D02*
D03*
X236000Y223000D02*
D03*
Y233000D02*
D03*
X225000Y223000D02*
D03*
Y233000D02*
D03*
X912000Y340000D02*
D03*
Y350000D02*
D03*
X104000Y414000D02*
D03*
Y424000D02*
D03*
X524000Y338000D02*
D03*
Y328000D02*
D03*
X89000Y194000D02*
D03*
Y184000D02*
D03*
X100000Y184000D02*
D03*
Y194000D02*
D03*
X111000Y184000D02*
D03*
Y194000D02*
D03*
X870000Y111000D02*
D03*
Y121000D02*
D03*
X880000Y111000D02*
D03*
Y121000D02*
D03*
X498000Y238500D02*
D03*
Y248500D02*
D03*
X445500Y223500D02*
D03*
Y233500D02*
D03*
X259000Y233000D02*
D03*
Y223000D02*
D03*
X270000Y223000D02*
D03*
Y233000D02*
D03*
X549500Y385500D02*
D03*
Y375500D02*
D03*
X263000Y392000D02*
D03*
Y402000D02*
D03*
X162500Y255000D02*
D03*
Y245000D02*
D03*
X139000Y417000D02*
D03*
Y407000D02*
D03*
X149000D02*
D03*
Y417000D02*
D03*
X186000Y407000D02*
D03*
Y417000D02*
D03*
X197000D02*
D03*
Y407000D02*
D03*
X359000Y416000D02*
D03*
Y406000D02*
D03*
X333000Y416000D02*
D03*
Y406000D02*
D03*
X308000Y416000D02*
D03*
Y406000D02*
D03*
X216000Y363000D02*
D03*
Y373000D02*
D03*
X741000Y210000D02*
D03*
Y220000D02*
D03*
X833000Y95000D02*
D03*
Y105000D02*
D03*
X791000Y95000D02*
D03*
Y105000D02*
D03*
X803000Y95000D02*
D03*
Y105000D02*
D03*
X815000Y95000D02*
D03*
Y105000D02*
D03*
X287000Y392000D02*
D03*
Y402000D02*
D03*
X815000Y131000D02*
D03*
Y121000D02*
D03*
X803000Y131000D02*
D03*
Y121000D02*
D03*
X275000Y392000D02*
D03*
Y402000D02*
D03*
X454000Y421000D02*
D03*
Y411000D02*
D03*
X791000Y131000D02*
D03*
Y121000D02*
D03*
X951000Y83000D02*
D03*
Y73000D02*
D03*
X938000D02*
D03*
Y83000D02*
D03*
X925000Y73000D02*
D03*
Y83000D02*
D03*
X589500Y321500D02*
D03*
Y331500D02*
D03*
X534000Y328000D02*
D03*
Y338000D02*
D03*
X600500Y331500D02*
D03*
Y321500D02*
D03*
X685000Y361000D02*
D03*
Y351000D02*
D03*
X736000Y325000D02*
D03*
Y335000D02*
D03*
X748000Y325000D02*
D03*
Y335000D02*
D03*
X982000Y271500D02*
D03*
Y281500D02*
D03*
X993000Y271500D02*
D03*
Y281500D02*
D03*
X677000Y430000D02*
D03*
Y440000D02*
D03*
D51*
X944000Y353000D02*
D03*
Y340000D02*
D03*
X890000Y353000D02*
D03*
Y340000D02*
D03*
X847000Y108000D02*
D03*
Y121000D02*
D03*
X904000Y108000D02*
D03*
Y121000D02*
D03*
X151000Y331000D02*
D03*
Y318000D02*
D03*
X417000Y352000D02*
D03*
Y339000D02*
D03*
X161000Y418000D02*
D03*
Y405000D02*
D03*
X174000Y418000D02*
D03*
Y405000D02*
D03*
X371000Y419000D02*
D03*
Y406000D02*
D03*
X345000Y419000D02*
D03*
Y406000D02*
D03*
X320000Y419000D02*
D03*
Y406000D02*
D03*
X725000Y423000D02*
D03*
Y436000D02*
D03*
D52*
X312500Y316000D02*
D03*
Y351000D02*
D03*
Y346000D02*
D03*
Y341000D02*
D03*
Y336000D02*
D03*
Y331000D02*
D03*
Y326000D02*
D03*
Y321000D02*
D03*
Y311000D02*
D03*
Y306000D02*
D03*
Y301000D02*
D03*
Y296000D02*
D03*
X228500D02*
D03*
Y301000D02*
D03*
Y306000D02*
D03*
Y311000D02*
D03*
Y316000D02*
D03*
Y321000D02*
D03*
Y326000D02*
D03*
Y331000D02*
D03*
Y336000D02*
D03*
Y341000D02*
D03*
Y346000D02*
D03*
Y351000D02*
D03*
D53*
X429550Y278000D02*
D03*
X416850D02*
D03*
X404150D02*
D03*
X391450D02*
D03*
Y224000D02*
D03*
X404150D02*
D03*
X416850D02*
D03*
X429550D02*
D03*
D54*
X439000Y355000D02*
D03*
Y375000D02*
D03*
X145000Y269000D02*
D03*
Y249000D02*
D03*
X399000Y359000D02*
D03*
Y339000D02*
D03*
X373000Y359000D02*
D03*
Y339000D02*
D03*
X975000Y115000D02*
D03*
Y95000D02*
D03*
X849000Y347000D02*
D03*
Y367000D02*
D03*
X830000Y347000D02*
D03*
Y367000D02*
D03*
X639000Y369000D02*
D03*
Y389000D02*
D03*
X743000Y445000D02*
D03*
Y425000D02*
D03*
D55*
X90000Y227000D02*
D03*
X103000D02*
D03*
X795000Y353000D02*
D03*
X808000D02*
D03*
D56*
X463000Y239000D02*
D03*
Y220000D02*
D03*
X487000Y229500D02*
D03*
X481000Y277500D02*
D03*
Y296500D02*
D03*
X457000Y287000D02*
D03*
X758000Y227500D02*
D03*
Y208500D02*
D03*
X782000Y218000D02*
D03*
X950000Y96500D02*
D03*
Y115500D02*
D03*
X926000Y106000D02*
D03*
X764000Y335500D02*
D03*
Y316500D02*
D03*
X788000Y326000D02*
D03*
D57*
X234000Y394000D02*
D03*
X241000D02*
D03*
D58*
X196500Y250000D02*
D03*
X176500D02*
D03*
X617500Y420000D02*
D03*
X597500D02*
D03*
X709000Y392000D02*
D03*
X689000D02*
D03*
D59*
X256250Y417000D02*
D03*
X289000D02*
D03*
D60*
X169500Y294000D02*
D03*
X191500D02*
D03*
D61*
X165498Y350998D02*
D03*
X190499D02*
D03*
D62*
X234536Y360465D02*
D03*
X227465Y367536D02*
D03*
X309464Y284536D02*
D03*
X316536Y277464D02*
D03*
D63*
X309464Y361465D02*
D03*
X316536Y368536D02*
D03*
X231535Y284536D02*
D03*
X224464Y277464D02*
D03*
D64*
X243000Y365500D02*
D03*
X248000D02*
D03*
X253000D02*
D03*
X258000D02*
D03*
X263000D02*
D03*
X268000D02*
D03*
X273000D02*
D03*
X278000D02*
D03*
X283000D02*
D03*
X288000D02*
D03*
X293000D02*
D03*
X298000D02*
D03*
Y281500D02*
D03*
X293000D02*
D03*
X288000D02*
D03*
X283000D02*
D03*
X278000D02*
D03*
X273000D02*
D03*
X268000D02*
D03*
X263000D02*
D03*
X258000D02*
D03*
X253000D02*
D03*
X248000D02*
D03*
X243000D02*
D03*
D65*
X425000Y421000D02*
D03*
D66*
X439500Y411000D02*
D03*
Y421000D02*
D03*
Y431000D02*
D03*
X410500Y411000D02*
D03*
Y421000D02*
D03*
Y431000D02*
D03*
D67*
X961500Y161500D02*
D03*
Y172500D02*
D03*
Y183500D02*
D03*
Y194500D02*
D03*
Y205500D02*
D03*
Y216500D02*
D03*
Y227500D02*
D03*
Y238500D02*
D03*
Y249500D02*
D03*
Y260500D02*
D03*
Y271500D02*
D03*
Y282500D02*
D03*
Y293500D02*
D03*
X808500D02*
D03*
Y282500D02*
D03*
Y271500D02*
D03*
Y260500D02*
D03*
Y249500D02*
D03*
Y238500D02*
D03*
Y227500D02*
D03*
Y216500D02*
D03*
Y205500D02*
D03*
Y194500D02*
D03*
Y183500D02*
D03*
Y172500D02*
D03*
Y161500D02*
D03*
D68*
X929000Y313500D02*
D03*
X918000D02*
D03*
X907000D02*
D03*
X896000D02*
D03*
X885000D02*
D03*
X874000D02*
D03*
X863000D02*
D03*
X852000D02*
D03*
X841000D02*
D03*
Y141500D02*
D03*
X852000D02*
D03*
X863000D02*
D03*
X874000D02*
D03*
X885000D02*
D03*
X896000D02*
D03*
X907000D02*
D03*
X918000D02*
D03*
X929000D02*
D03*
D69*
X953500Y22500D02*
D03*
Y32000D02*
D03*
Y41500D02*
D03*
X933000D02*
D03*
Y32000D02*
D03*
Y22500D02*
D03*
D70*
X911500Y57900D02*
D03*
Y32500D02*
D03*
Y7100D02*
D03*
X793500Y57900D02*
D03*
Y32500D02*
D03*
Y7100D02*
D03*
D71*
X852500Y85500D02*
D03*
Y-20500D02*
D03*
D72*
X595750Y394000D02*
D03*
X570250D02*
D03*
D73*
X699500Y334000D02*
D03*
X718500D02*
D03*
X709000Y358000D02*
D03*
Y439500D02*
D03*
X699500D02*
D03*
X690000D02*
D03*
Y413500D02*
D03*
X709000D02*
D03*
D74*
X564750Y370250D02*
D03*
Y363750D02*
D03*
Y357250D02*
D03*
Y350750D02*
D03*
X608250Y370250D02*
D03*
Y363750D02*
D03*
Y357250D02*
D03*
Y350750D02*
D03*
D75*
X1006750Y293500D02*
D03*
D76*
X1022000Y308250D02*
D03*
Y278750D02*
D03*
D77*
X773000Y366000D02*
D03*
X741000D02*
D03*
D78*
X767500Y415500D02*
D03*
Y444500D02*
D03*
D79*
X961500Y293500D02*
X982000D01*
X992000D02*
X1007750D01*
D80*
X513000Y447000D02*
D03*
X538400D02*
D03*
X487600D02*
D03*
X549600Y245000D02*
D03*
X575000D02*
D03*
X1020000Y137100D02*
D03*
Y162500D02*
D03*
X103900Y447000D02*
D03*
X154700D02*
D03*
X129300D02*
D03*
X346800D02*
D03*
X321400D02*
D03*
X270600D02*
D03*
X296000D02*
D03*
X101000Y160700D02*
D03*
X115000Y50000D02*
D03*
Y24600D02*
D03*
X817500Y432700D02*
D03*
D81*
X563800Y447000D02*
D03*
X600400Y245000D02*
D03*
X180100Y447000D02*
D03*
X245200D02*
D03*
D82*
X707500Y247500D02*
D03*
D83*
Y297500D02*
D03*
D84*
X1020000Y187900D02*
D03*
X101000Y135300D02*
D03*
X115000Y75400D02*
D03*
X817500Y407300D02*
D03*
D85*
X995000Y50000D02*
D03*
X45000Y330000D02*
D03*
D86*
X430000Y416000D02*
D03*
X420000D02*
D03*
X430000Y426000D02*
D03*
X420000D02*
D03*
M02*
