G04*
G04 #@! TF.GenerationSoftware,Altium Limited,Altium Designer,19.1.9 (167)*
G04*
G04 Layer_Physical_Order=4*
G04 Layer_Color=13727573*
%FSLAX44Y44*%
%MOMM*%
G71*
G01*
G75*
%ADD14C,0.3000*%
%ADD15C,0.6000*%
%ADD16C,0.4000*%
%ADD94P,1.9483X8X112.5*%
%ADD95C,1.8000*%
%ADD96C,2.0000*%
%ADD97R,2.0000X2.0000*%
%ADD98R,2.0000X2.0000*%
%ADD99C,5.1000*%
%ADD100C,0.8000*%
%ADD101C,0.5000*%
G36*
X295010Y412943D02*
X294896Y411474D01*
X294674Y411325D01*
X293348Y409340D01*
X292882Y406999D01*
X293348Y404658D01*
X294674Y402673D01*
X296506Y401449D01*
X296851Y400661D01*
X296596Y400217D01*
X295988Y399569D01*
X213302D01*
X213195Y399748D01*
X213995Y400884D01*
X214000Y400882D01*
X216341Y401348D01*
X217511Y402130D01*
X218500Y402593D01*
X219489Y402130D01*
X220659Y401348D01*
X223000Y400882D01*
X225341Y401348D01*
X226511Y402130D01*
X227500Y402593D01*
X228489Y402130D01*
X229659Y401348D01*
X232000Y400882D01*
X234341Y401348D01*
X235511Y402130D01*
X236500Y402593D01*
X237489Y402130D01*
X238659Y401348D01*
X241000Y400882D01*
X243341Y401348D01*
X245326Y402674D01*
X246652Y404659D01*
X247118Y407000D01*
X246652Y409341D01*
X245870Y410511D01*
X245407Y411500D01*
X245870Y412489D01*
X246652Y413659D01*
X247118Y416000D01*
X246652Y418341D01*
X245326Y420326D01*
X243341Y421652D01*
X241000Y422118D01*
X238659Y421652D01*
X237489Y420870D01*
X236500Y420407D01*
X235511Y420870D01*
X234341Y421652D01*
X232000Y422118D01*
X229659Y421652D01*
X228489Y420870D01*
X227500Y420407D01*
X226511Y420870D01*
X225341Y421652D01*
X223000Y422118D01*
X220659Y421652D01*
X219489Y420870D01*
X218500Y420407D01*
X217511Y420870D01*
X216341Y421652D01*
X214000Y422118D01*
X211659Y421652D01*
X209674Y420326D01*
X208348Y418341D01*
X207882Y416000D01*
X208348Y413659D01*
X209130Y412489D01*
X209593Y411500D01*
X209130Y410511D01*
X208348Y409341D01*
X207882Y407000D01*
X208141Y405702D01*
X206970Y405077D01*
X199268Y412779D01*
X199429Y414414D01*
X199523Y414477D01*
X214978Y429931D01*
X278022D01*
X295010Y412943D01*
D02*
G37*
G36*
X205711Y396242D02*
X205225Y395069D01*
X184978D01*
X183940Y396107D01*
X184118Y397000D01*
X183652Y399341D01*
X182326Y401326D01*
X180341Y402652D01*
X178000Y403117D01*
X175659Y402652D01*
X173674Y401326D01*
X172348Y399341D01*
X171882Y397000D01*
X172348Y394659D01*
X173674Y392674D01*
X175659Y391348D01*
X177903Y390902D01*
X178033Y390836D01*
X177371Y389569D01*
X170508D01*
Y400060D01*
X170237Y401426D01*
X169463Y402584D01*
X164885Y407161D01*
X165397Y408431D01*
X193522D01*
X205711Y396242D01*
D02*
G37*
G36*
X556431Y438522D02*
Y396478D01*
X540893Y380940D01*
X540000Y381118D01*
X537659Y380652D01*
X536839Y380104D01*
X535569Y380783D01*
Y386766D01*
X536550Y387571D01*
X537500Y387383D01*
X539841Y387848D01*
X541826Y389174D01*
X543152Y391159D01*
X543618Y393500D01*
X543152Y395841D01*
X541826Y397826D01*
X539841Y399152D01*
X537500Y399618D01*
X535159Y399152D01*
X534330Y398598D01*
X529670D01*
X528841Y399152D01*
X526500Y399618D01*
X524159Y399152D01*
X522174Y397826D01*
X520848Y395841D01*
X520382Y393500D01*
X520848Y391159D01*
X522174Y389174D01*
X524159Y387848D01*
X526500Y387383D01*
X527450Y387571D01*
X528431Y386766D01*
Y370680D01*
X527161Y369717D01*
X526650Y369819D01*
X510082D01*
X509576Y370576D01*
X507591Y371902D01*
X505250Y372368D01*
X502909Y371902D01*
X500924Y370576D01*
X499598Y368591D01*
X499132Y366250D01*
X499598Y363909D01*
X500924Y361924D01*
X502909Y360598D01*
X505250Y360132D01*
X507591Y360598D01*
X509576Y361924D01*
X510082Y362681D01*
X525171D01*
X541431Y346421D01*
Y311478D01*
X533522Y303569D01*
X492747D01*
X491737Y304839D01*
X491819Y305250D01*
Y335839D01*
X493089Y335964D01*
X493348Y334659D01*
X494674Y332674D01*
X496659Y331348D01*
X499000Y330882D01*
X501341Y331348D01*
X503326Y332674D01*
X504652Y334659D01*
X505117Y337000D01*
X504652Y339341D01*
X503326Y341326D01*
X501341Y342652D01*
X499000Y343118D01*
X496659Y342652D01*
X494674Y341326D01*
X493348Y339341D01*
X493089Y338036D01*
X491819Y338162D01*
Y341750D01*
X491547Y343116D01*
X490773Y344273D01*
X484773Y350273D01*
X483616Y351047D01*
X482250Y351319D01*
X467332D01*
X466826Y352076D01*
X466019Y352615D01*
Y353885D01*
X466826Y354424D01*
X468152Y356409D01*
X468618Y358750D01*
X468152Y361091D01*
X466826Y363076D01*
X466019Y363615D01*
Y364885D01*
X466826Y365424D01*
X468152Y367409D01*
X468618Y369750D01*
X468152Y372091D01*
X466826Y374076D01*
X465418Y375017D01*
Y376483D01*
X466826Y377424D01*
X468152Y379409D01*
X468618Y381750D01*
X468152Y384091D01*
X466826Y386076D01*
X464841Y387402D01*
X462500Y387868D01*
X460159Y387402D01*
X458174Y386076D01*
X457835Y385569D01*
X429000D01*
X427634Y385297D01*
X426477Y384523D01*
X414477Y372523D01*
X413703Y371366D01*
X413431Y370000D01*
Y348275D01*
X412258Y347789D01*
X409569Y350478D01*
Y395522D01*
X413478Y399431D01*
X435000D01*
X436366Y399703D01*
X437523Y400477D01*
X444523Y407477D01*
X445297Y408634D01*
X445569Y410000D01*
Y437000D01*
X445297Y438366D01*
X444523Y439523D01*
X441524Y442523D01*
X440367Y443296D01*
X439001Y443568D01*
X434831D01*
X434325Y444325D01*
X432340Y445651D01*
X429999Y446117D01*
X427658Y445651D01*
X425798Y444408D01*
X425360Y444267D01*
X424638D01*
X424202Y444408D01*
X422341Y445652D01*
X420000Y446118D01*
X417659Y445652D01*
X415674Y444326D01*
X415168Y443569D01*
X397000D01*
X395634Y443297D01*
X394477Y442523D01*
X387977Y436023D01*
X387203Y434866D01*
X386931Y433500D01*
Y356000D01*
X387203Y354634D01*
X387977Y353477D01*
X403432Y338022D01*
Y323283D01*
X402161Y322935D01*
X400341Y324152D01*
X398000Y324618D01*
X395659Y324152D01*
X393674Y322826D01*
X393168Y322069D01*
X374978D01*
X369569Y327478D01*
Y366000D01*
X369297Y367366D01*
X368523Y368523D01*
X348523Y388523D01*
X347366Y389297D01*
X346000Y389569D01*
X266378D01*
X264688Y391258D01*
X265174Y392431D01*
X297900D01*
X299265Y392703D01*
X300423Y393477D01*
X310378Y403431D01*
X349000D01*
X350366Y403703D01*
X351523Y404477D01*
X394478Y447431D01*
X547522D01*
X556431Y438522D01*
D02*
G37*
G36*
X866936Y385250D02*
X867189Y383982D01*
X867907Y382907D01*
X868057Y382807D01*
X868157Y382657D01*
X869232Y381939D01*
X870500Y381686D01*
X1036686D01*
Y3064D01*
X960250D01*
X958982Y2811D01*
X957907Y2093D01*
X957189Y1018D01*
X956936Y-250D01*
Y-76686D01*
X775064D01*
Y198750D01*
X774811Y200018D01*
X774093Y201093D01*
X773018Y201811D01*
X771750Y202064D01*
X276870D01*
X276384Y203237D01*
X288165Y215018D01*
X288544Y214903D01*
X289450Y214507D01*
X290674Y212674D01*
X292659Y211348D01*
X295000Y210882D01*
X295893Y211060D01*
X300977Y205977D01*
X302134Y205203D01*
X303500Y204931D01*
X479763D01*
X481000Y205177D01*
X482237Y204931D01*
X598692D01*
X600057Y205203D01*
X601215Y205977D01*
X601670Y206431D01*
X713168D01*
X713674Y205674D01*
X715659Y204348D01*
X718000Y203883D01*
X720341Y204348D01*
X722326Y205674D01*
X723652Y207659D01*
X724118Y210000D01*
X723652Y212341D01*
X722326Y214326D01*
X720341Y215652D01*
X718000Y216118D01*
X715659Y215652D01*
X713674Y214326D01*
X713168Y213569D01*
X600192D01*
X598826Y213297D01*
X597668Y212523D01*
X597214Y212069D01*
X495674D01*
X495188Y213242D01*
X496878Y214931D01*
X627760D01*
X629126Y215203D01*
X630284Y215977D01*
X636739Y222431D01*
X891000D01*
X892366Y222703D01*
X893523Y223477D01*
X912478Y242431D01*
X951522D01*
X993477Y200477D01*
X994634Y199703D01*
X996000Y199431D01*
X1008000D01*
Y191978D01*
X998900D01*
X997339Y191668D01*
X996016Y190784D01*
X996016Y190784D01*
X990116Y184884D01*
X989232Y183561D01*
X988922Y182000D01*
X988922Y182000D01*
Y165689D01*
X983311Y160078D01*
X916689D01*
X884884Y191884D01*
X883561Y192768D01*
X882000Y193078D01*
X882000Y193078D01*
X854000D01*
X854000Y193078D01*
X852439Y192768D01*
X851116Y191884D01*
X851116Y191884D01*
X834116Y174884D01*
X833232Y173561D01*
X832922Y172000D01*
X832922Y172000D01*
Y142000D01*
X832922Y142000D01*
X833232Y140439D01*
X834116Y139116D01*
X865695Y107537D01*
X865674Y107326D01*
X864348Y105341D01*
X863883Y103000D01*
X864348Y100659D01*
X865674Y98674D01*
X867659Y97348D01*
X870000Y96882D01*
X872341Y97348D01*
X874326Y98674D01*
X874365Y98733D01*
X875635D01*
X875674Y98674D01*
X877659Y97348D01*
X880000Y96882D01*
X882341Y97348D01*
X884326Y98674D01*
X885652Y100659D01*
X886117Y103000D01*
X885652Y105341D01*
X884326Y107326D01*
X884078Y107491D01*
Y110000D01*
X884078Y110000D01*
X883768Y111561D01*
X882884Y112884D01*
X847078Y148689D01*
Y167311D01*
X858689Y178922D01*
X878311D01*
X923016Y134216D01*
X923016Y134216D01*
X924339Y133332D01*
X925900Y133022D01*
X925900Y133022D01*
X1008701D01*
X1009518Y131048D01*
X1011441Y128541D01*
X1013948Y126618D01*
X1016867Y125409D01*
X1020000Y124996D01*
X1023133Y125409D01*
X1026052Y126618D01*
X1028559Y128541D01*
X1030482Y131048D01*
X1031691Y133967D01*
X1032104Y137100D01*
X1031691Y140233D01*
X1030482Y143152D01*
X1028559Y145659D01*
X1026052Y147582D01*
X1023133Y148791D01*
X1020000Y149204D01*
X1016867Y148791D01*
X1013948Y147582D01*
X1011441Y145659D01*
X1009518Y143152D01*
X1008701Y141178D01*
X927589D01*
X918019Y150748D01*
X918505Y151922D01*
X985000D01*
X985000Y151922D01*
X986561Y152232D01*
X987884Y153116D01*
X995884Y161116D01*
X996768Y162439D01*
X997078Y164000D01*
Y180311D01*
X1000589Y183822D01*
X1008000D01*
Y175900D01*
X1032000D01*
Y199900D01*
X1011743D01*
X1011217Y201170D01*
X1016781Y206734D01*
X1017554Y207892D01*
X1017826Y209257D01*
Y225985D01*
X1017554Y227351D01*
X1016781Y228509D01*
X1014766Y230523D01*
X1013608Y231297D01*
X1012243Y231569D01*
X1007439D01*
X1006934Y232326D01*
X1004949Y233652D01*
X1002608Y234118D01*
X1000267Y233652D01*
X998282Y232326D01*
X996956Y230341D01*
X996490Y228000D01*
X996956Y225659D01*
X998282Y223674D01*
X1000267Y222348D01*
X1002608Y221882D01*
X1004949Y222348D01*
X1006934Y223674D01*
X1007439Y224431D01*
X1010689D01*
Y210735D01*
X1006522Y206569D01*
X997478D01*
X994885Y209161D01*
X995411Y210431D01*
X997168D01*
X997674Y209674D01*
X999659Y208348D01*
X1002000Y207882D01*
X1004341Y208348D01*
X1006326Y209674D01*
X1007652Y211659D01*
X1008118Y214000D01*
X1007652Y216341D01*
X1006326Y218326D01*
X1004341Y219652D01*
X1002000Y220117D01*
X999659Y219652D01*
X997674Y218326D01*
X997168Y217569D01*
X995478D01*
X958523Y254523D01*
X957366Y255297D01*
X956000Y255569D01*
X918478D01*
X901023Y273023D01*
X899866Y273797D01*
X898500Y274069D01*
X668411D01*
X668286Y274207D01*
X667801Y275254D01*
X670023Y277477D01*
X670797Y278634D01*
X671069Y280000D01*
Y302023D01*
X684106Y315060D01*
X684999Y314882D01*
X687340Y315347D01*
X689324Y316674D01*
X690650Y318658D01*
X691116Y320999D01*
X690688Y323151D01*
X691232Y324421D01*
X901382D01*
X901382Y324421D01*
X902943Y324731D01*
X904266Y325616D01*
X931708Y353058D01*
X932000Y353000D01*
X934341Y353466D01*
X936326Y354792D01*
X937652Y356777D01*
X938118Y359118D01*
X937652Y361459D01*
X936326Y363443D01*
X934341Y364769D01*
X932000Y365235D01*
X929659Y364769D01*
X927674Y363443D01*
X926348Y361459D01*
X925882Y359118D01*
X925940Y358826D01*
X899693Y332578D01*
X882887D01*
X882401Y333751D01*
X901708Y353058D01*
X902000Y353000D01*
X904341Y353466D01*
X906326Y354792D01*
X907652Y356777D01*
X908118Y359118D01*
X907652Y361459D01*
X906326Y363443D01*
X904341Y364769D01*
X902000Y365235D01*
X899659Y364769D01*
X897674Y363443D01*
X896348Y361459D01*
X895882Y359118D01*
X895940Y358826D01*
X875192Y338078D01*
X636499D01*
X636499Y338078D01*
X634939Y337767D01*
X633615Y336883D01*
X633615Y336883D01*
X604561Y307828D01*
X583750D01*
X583750Y307828D01*
X582189Y307518D01*
X580866Y306634D01*
X580866Y306634D01*
X546716Y272484D01*
X545832Y271161D01*
X545522Y269600D01*
X545522Y269600D01*
Y256299D01*
X543548Y255482D01*
X541041Y253559D01*
X539839Y251991D01*
X538569Y252422D01*
Y277500D01*
X538297Y278866D01*
X537523Y280023D01*
X528023Y289523D01*
X526866Y290297D01*
X525500Y290569D01*
X496074D01*
X495395Y291839D01*
X495457Y291931D01*
X536864D01*
X538230Y292203D01*
X539387Y292977D01*
X555023Y308613D01*
X555797Y309770D01*
X556069Y311136D01*
Y347500D01*
X555797Y348866D01*
X555023Y350023D01*
X536354Y368693D01*
X537164Y369679D01*
X537659Y369348D01*
X540000Y368882D01*
X542341Y369348D01*
X544326Y370674D01*
X545652Y372659D01*
X546118Y375000D01*
X545940Y375893D01*
X562523Y392477D01*
X563297Y393634D01*
X563569Y395000D01*
Y440000D01*
X563297Y441366D01*
X562523Y442523D01*
X551523Y453523D01*
X550366Y454297D01*
X549000Y454569D01*
X393000D01*
X391634Y454297D01*
X390477Y453523D01*
X347522Y410569D01*
X308900D01*
X307534Y410297D01*
X306376Y409523D01*
X305835Y408981D01*
X305455Y409096D01*
X304550Y409493D01*
X303325Y411325D01*
X302568Y411831D01*
Y414001D01*
X302296Y415366D01*
X301523Y416524D01*
X282023Y436023D01*
X280866Y436797D01*
X279500Y437069D01*
X257200D01*
Y459000D01*
X233200D01*
Y437069D01*
X213500D01*
X212134Y436797D01*
X210977Y436023D01*
X195522Y420569D01*
X140000D01*
X138634Y420297D01*
X137477Y419523D01*
X107477Y389523D01*
X106703Y388366D01*
X106431Y387000D01*
Y231000D01*
X106703Y229634D01*
X107477Y228477D01*
X108435Y227518D01*
X108258Y226625D01*
X108723Y224284D01*
X110049Y222299D01*
X112034Y220973D01*
X114375Y220508D01*
X116716Y220973D01*
X118701Y222299D01*
X120027Y224284D01*
X120493Y226625D01*
X120027Y228966D01*
X118701Y230951D01*
X116716Y232277D01*
X114375Y232743D01*
X113569Y233404D01*
Y385522D01*
X117692Y389646D01*
X118679Y388836D01*
X118348Y388341D01*
X117882Y386000D01*
X118348Y383659D01*
X119674Y381674D01*
X121659Y380348D01*
X124000Y379883D01*
X126341Y380348D01*
X128161Y381564D01*
X129431Y381217D01*
Y279000D01*
X129703Y277634D01*
X130477Y276477D01*
X158431Y248522D01*
Y224000D01*
X158703Y222634D01*
X159477Y221477D01*
X177716Y203237D01*
X177230Y202064D01*
X153750D01*
X152482Y201811D01*
X151407Y201093D01*
X150689Y200018D01*
X150436Y198750D01*
Y3314D01*
X3314D01*
Y91686D01*
X80000D01*
X81268Y91939D01*
X82343Y92657D01*
X83061Y93732D01*
X83314Y95000D01*
Y198425D01*
X84584Y198810D01*
X84674Y198674D01*
X86659Y197348D01*
X89000Y196882D01*
X91341Y197348D01*
X93326Y198674D01*
X93865Y199481D01*
X95135D01*
X95674Y198674D01*
X97659Y197348D01*
X100000Y196882D01*
X102341Y197348D01*
X104326Y198674D01*
X105652Y200659D01*
X106117Y203000D01*
X105652Y205341D01*
X104326Y207326D01*
X102341Y208652D01*
X100000Y209118D01*
X97659Y208652D01*
X95674Y207326D01*
X95135Y206519D01*
X93865D01*
X93326Y207326D01*
X91341Y208652D01*
X89000Y209118D01*
X86659Y208652D01*
X84674Y207326D01*
X84584Y207190D01*
X83314Y207575D01*
Y285000D01*
X83061Y286268D01*
X82343Y287343D01*
X81268Y288061D01*
X80000Y288314D01*
X79875Y288289D01*
X79750Y288314D01*
X3314D01*
Y381686D01*
X80000D01*
X81268Y381939D01*
X82343Y382657D01*
X83061Y383732D01*
X83314Y385000D01*
Y461436D01*
X866936D01*
Y385250D01*
D02*
G37*
G36*
X262376Y383477D02*
X263534Y382703D01*
X264900Y382431D01*
X344522D01*
X361985Y364969D01*
X362002Y364665D01*
X361985Y364621D01*
X360559Y364470D01*
X360523Y364523D01*
X345163Y379884D01*
X344005Y380658D01*
X342639Y380929D01*
X259576D01*
X258759Y382199D01*
X259117Y383999D01*
X258883Y385173D01*
X260054Y385799D01*
X262376Y383477D01*
D02*
G37*
G36*
X458174Y377424D02*
X459582Y376483D01*
Y375017D01*
X458174Y374076D01*
X457501Y373069D01*
X433393D01*
X432028Y372797D01*
X430870Y372023D01*
X421742Y362895D01*
X420569Y363381D01*
Y368522D01*
X430478Y378431D01*
X457501D01*
X458174Y377424D01*
D02*
G37*
G36*
X150226Y400383D02*
X150312Y400161D01*
X149882Y398000D01*
X150348Y395659D01*
X151674Y393674D01*
X152431Y393168D01*
Y360669D01*
X152703Y359304D01*
X153477Y358146D01*
X172943Y338680D01*
X174100Y337906D01*
X175466Y337635D01*
X181265D01*
X182631Y337906D01*
X183789Y338680D01*
X185540Y340431D01*
X224000D01*
X225366Y340703D01*
X226523Y341477D01*
X258839Y373792D01*
X279086D01*
X279572Y372619D01*
X263893Y356940D01*
X263000Y357118D01*
X260659Y356652D01*
X258674Y355326D01*
X257348Y353341D01*
X256882Y351000D01*
X257348Y348659D01*
X258674Y346674D01*
X260659Y345348D01*
X263000Y344883D01*
X265341Y345348D01*
X267326Y346674D01*
X268652Y348659D01*
X269118Y351000D01*
X268940Y351893D01*
X286339Y369292D01*
X289751D01*
X290277Y368022D01*
X279311Y357056D01*
X279000Y357118D01*
X276659Y356652D01*
X274674Y355326D01*
X273348Y353341D01*
X272882Y351000D01*
X273348Y348659D01*
X274674Y346674D01*
X276659Y345348D01*
X279000Y344883D01*
X281341Y345348D01*
X283326Y346674D01*
X284652Y348659D01*
X284853Y349668D01*
X286147D01*
X286348Y348659D01*
X287674Y346674D01*
X289659Y345348D01*
X291199Y345042D01*
X291617Y343664D01*
X286522Y338569D01*
X188000D01*
X186634Y338297D01*
X185477Y337523D01*
X181977Y334023D01*
X181203Y332866D01*
X180931Y331500D01*
Y322832D01*
X180174Y322326D01*
X178848Y320341D01*
X178382Y318000D01*
X178848Y315659D01*
X180174Y313674D01*
X182159Y312348D01*
X184500Y311882D01*
X186841Y312348D01*
X188826Y313674D01*
X190152Y315659D01*
X190618Y318000D01*
X190152Y320341D01*
X188826Y322326D01*
X188069Y322832D01*
Y330022D01*
X189478Y331431D01*
X237798D01*
X238184Y330161D01*
X237976Y330023D01*
X232522Y324569D01*
X212636D01*
X211270Y324297D01*
X210113Y323523D01*
X180977Y294387D01*
X180203Y293230D01*
X179931Y291864D01*
Y282783D01*
X178661Y282435D01*
X176841Y283652D01*
X174500Y284118D01*
X172159Y283652D01*
X170989Y282870D01*
X170000Y282407D01*
X169011Y282870D01*
X167841Y283652D01*
X165500Y284118D01*
X163159Y283652D01*
X161644Y282639D01*
X160750Y282427D01*
X159856Y282639D01*
X158341Y283652D01*
X156000Y284118D01*
X153659Y283652D01*
X151674Y282326D01*
X150348Y280341D01*
X149882Y278000D01*
X150348Y275659D01*
X151130Y274489D01*
X151593Y273500D01*
X151130Y272511D01*
X150348Y271341D01*
X149882Y269000D01*
X149911Y268854D01*
X148792Y268255D01*
X136569Y280478D01*
Y388522D01*
X148727Y400680D01*
X148825Y400712D01*
X150226Y400383D01*
D02*
G37*
G36*
X163371Y397392D02*
Y387757D01*
X163643Y386392D01*
X164417Y385234D01*
X166174Y383477D01*
X167332Y382703D01*
X168697Y382431D01*
X222421D01*
X223376Y381477D01*
X224534Y380703D01*
X225900Y380431D01*
X248167D01*
X248674Y379674D01*
X250658Y378347D01*
X251541Y378172D01*
X251910Y376956D01*
X231030Y356077D01*
X229859Y356702D01*
X230117Y358000D01*
X229652Y360341D01*
X228326Y362326D01*
X226341Y363652D01*
X224000Y364118D01*
X221659Y363652D01*
X219674Y362326D01*
X218348Y360341D01*
X217882Y358000D01*
X218348Y355659D01*
X219674Y353674D01*
X221659Y352348D01*
X224000Y351883D01*
X225298Y352141D01*
X225923Y350970D01*
X222522Y347569D01*
X184062D01*
X182696Y347297D01*
X181539Y346523D01*
X179787Y344772D01*
X176944D01*
X159569Y362147D01*
Y393168D01*
X160326Y393674D01*
X161652Y395659D01*
X161880Y396805D01*
X163300Y397435D01*
X163371Y397392D01*
D02*
G37*
G36*
X340431Y353834D02*
Y319144D01*
X340063Y319009D01*
X339161Y318932D01*
X338523Y319887D01*
X328388Y330023D01*
X327230Y330796D01*
X325865Y331068D01*
X290701D01*
X290316Y332338D01*
X290523Y332477D01*
X301478Y343431D01*
X325167D01*
X325674Y342674D01*
X327658Y341347D01*
X329999Y340882D01*
X332340Y341347D01*
X334325Y342674D01*
X335651Y344658D01*
X336117Y346999D01*
X335651Y349340D01*
X334325Y351325D01*
X332340Y352651D01*
X329999Y353117D01*
X327658Y352651D01*
X325674Y351325D01*
X325168Y350569D01*
X300000D01*
X299299Y350429D01*
X298974Y350586D01*
X298088Y351293D01*
X298043Y351376D01*
X297652Y353341D01*
X296326Y355326D01*
X294341Y356652D01*
X292000Y357118D01*
X291079Y356934D01*
X290453Y358105D01*
X295140Y362792D01*
X313578D01*
X314257Y361522D01*
X313709Y360702D01*
X313243Y358361D01*
X313709Y356020D01*
X315035Y354035D01*
X317020Y352709D01*
X319361Y352243D01*
X321702Y352709D01*
X323686Y354035D01*
X325013Y356020D01*
X325478Y358361D01*
X325013Y360702D01*
X324464Y361522D01*
X325143Y362792D01*
X331474D01*
X340431Y353834D01*
D02*
G37*
G36*
X415674Y435674D02*
X417659Y434348D01*
X420000Y433882D01*
X422341Y434348D01*
X424326Y435674D01*
X424364Y435732D01*
X425634D01*
X425673Y435673D01*
X427658Y434347D01*
X429999Y433882D01*
X432340Y434347D01*
X434325Y435673D01*
X434831Y436431D01*
X437523D01*
X438431Y435522D01*
Y411478D01*
X433522Y406569D01*
X412000D01*
X410634Y406297D01*
X409477Y405523D01*
X403477Y399523D01*
X402703Y398366D01*
X402431Y397000D01*
Y350775D01*
X401258Y350289D01*
X394069Y357478D01*
Y432022D01*
X398478Y436431D01*
X415168D01*
X415674Y435674D01*
D02*
G37*
G36*
X458174Y365424D02*
X458981Y364885D01*
Y363615D01*
X458174Y363076D01*
X457668Y362319D01*
X444851D01*
X443485Y362047D01*
X442327Y361273D01*
X426242Y345188D01*
X425069Y345674D01*
Y356128D01*
X434872Y365931D01*
X457835D01*
X458174Y365424D01*
D02*
G37*
G36*
Y354424D02*
X458981Y353885D01*
Y352615D01*
X458174Y352076D01*
X456848Y350091D01*
X456382Y347750D01*
X456848Y345409D01*
X458174Y343424D01*
X460159Y342098D01*
X462500Y341632D01*
X464841Y342098D01*
X466826Y343424D01*
X467332Y344181D01*
X480772D01*
X484682Y340272D01*
Y306728D01*
X464521Y286568D01*
X424274D01*
X423788Y287741D01*
X428523Y292477D01*
X429297Y293634D01*
X429569Y295000D01*
Y330765D01*
X429918Y330952D01*
X430839Y331312D01*
X433000Y330882D01*
X435341Y331348D01*
X437326Y332674D01*
X438266Y334082D01*
X439734D01*
X440674Y332674D01*
X442659Y331348D01*
X445000Y330882D01*
X447341Y331348D01*
X449326Y332674D01*
X450652Y334659D01*
X451118Y337000D01*
X450652Y339341D01*
X449326Y341326D01*
X447341Y342652D01*
X445000Y343118D01*
X442659Y342652D01*
X440674Y341326D01*
X439734Y339918D01*
X438266D01*
X437326Y341326D01*
X435493Y342550D01*
X435097Y343455D01*
X434982Y343835D01*
X446329Y355181D01*
X457668D01*
X458174Y354424D01*
D02*
G37*
G36*
X640480Y328748D02*
X597516Y285784D01*
X596632Y284461D01*
X596322Y282900D01*
X596322Y282900D01*
Y257000D01*
X588400D01*
Y233000D01*
X612400D01*
Y257000D01*
X604478D01*
Y281211D01*
X647689Y324421D01*
X678765D01*
X679309Y323151D01*
X678881Y320999D01*
X679059Y320106D01*
X664977Y306024D01*
X664203Y304866D01*
X663931Y303501D01*
Y281478D01*
X613522Y231068D01*
X549713D01*
X549254Y231661D01*
X549421Y232257D01*
X549832Y232927D01*
X552733Y233309D01*
X555652Y234518D01*
X558158Y236441D01*
X560082Y238948D01*
X561291Y241867D01*
X561704Y245000D01*
X561291Y248133D01*
X560082Y251052D01*
X558158Y253559D01*
X555652Y255482D01*
X553678Y256299D01*
Y267911D01*
X585439Y299672D01*
X606250D01*
X606250Y299672D01*
X607811Y299982D01*
X609134Y300866D01*
X638189Y329921D01*
X639994D01*
X640480Y328748D01*
D02*
G37*
G36*
X526548Y280906D02*
X525922Y279735D01*
X524000Y280117D01*
X521659Y279652D01*
X519674Y278326D01*
X519168Y277569D01*
X488011D01*
X487525Y278742D01*
X492215Y283431D01*
X524022D01*
X526548Y280906D01*
D02*
G37*
G36*
X327431Y314522D02*
Y301000D01*
X327703Y299634D01*
X328477Y298477D01*
X341477Y285477D01*
X341562Y284609D01*
X336522Y279569D01*
X281478D01*
X254024Y307023D01*
X252866Y307796D01*
X251501Y308068D01*
X212774D01*
X212288Y309241D01*
X215978Y312931D01*
X236601D01*
X237966Y313203D01*
X239124Y313977D01*
X244578Y319431D01*
X322523D01*
X327431Y314522D01*
D02*
G37*
G36*
X531431Y275389D02*
Y240508D01*
X531703Y239142D01*
X532477Y237985D01*
X542719Y227742D01*
X542234Y226569D01*
X497478D01*
X471024Y253023D01*
X469866Y253796D01*
X468501Y254068D01*
X409236D01*
X407870Y253796D01*
X406712Y253023D01*
X403258Y249568D01*
X354002D01*
X353516Y250741D01*
X360206Y257431D01*
X405100D01*
X406466Y257703D01*
X407624Y258477D01*
X410578Y261431D01*
X475100D01*
X476466Y261703D01*
X477623Y262476D01*
X485579Y270431D01*
X519168D01*
X519674Y269674D01*
X521659Y268348D01*
X524000Y267882D01*
X526341Y268348D01*
X528326Y269674D01*
X529652Y271659D01*
X530117Y274000D01*
X529949Y274848D01*
X531091Y275614D01*
X531431Y275389D01*
D02*
G37*
G36*
X170989Y264130D02*
X172159Y263348D01*
X174500Y262882D01*
X176841Y263348D01*
X178661Y264564D01*
X179931Y264217D01*
Y260399D01*
X180203Y259034D01*
X180977Y257876D01*
X210431Y228421D01*
Y219832D01*
X209674Y219326D01*
X208348Y217341D01*
X207882Y215000D01*
X208348Y212659D01*
X209674Y210674D01*
X211659Y209348D01*
X211707Y209339D01*
X211582Y208069D01*
X182978D01*
X165569Y225478D01*
Y250000D01*
X165297Y251366D01*
X164523Y252523D01*
X155255Y261791D01*
X155854Y262911D01*
X156000Y262882D01*
X158341Y263348D01*
X159856Y264361D01*
X160750Y264573D01*
X161644Y264361D01*
X163159Y263348D01*
X165500Y262882D01*
X167841Y263348D01*
X169011Y264130D01*
X170000Y264593D01*
X170989Y264130D01*
D02*
G37*
G36*
X211544Y281402D02*
X212450Y281006D01*
X213674Y279174D01*
X215659Y277848D01*
X218000Y277382D01*
X220341Y277848D01*
X222325Y279174D01*
X222831Y279931D01*
X233022D01*
X254711Y258242D01*
X254225Y257069D01*
X242478D01*
X237440Y262107D01*
X237618Y263000D01*
X237152Y265341D01*
X235826Y267326D01*
X233841Y268652D01*
X231500Y269118D01*
X229159Y268652D01*
X227174Y267326D01*
X225848Y265341D01*
X225383Y263000D01*
X225848Y260659D01*
X227174Y258674D01*
X229159Y257348D01*
X231500Y256882D01*
X232393Y257060D01*
X238477Y250977D01*
X239634Y250203D01*
X241000Y249931D01*
X281792D01*
X282177Y248661D01*
X281674Y248325D01*
X280348Y246341D01*
X279882Y244000D01*
X280348Y241658D01*
X281674Y239674D01*
X282431Y239168D01*
Y226478D01*
X272336Y216383D01*
X270958Y216801D01*
X270652Y218341D01*
X269326Y220326D01*
X268569Y220832D01*
Y226000D01*
X268297Y227366D01*
X267523Y228523D01*
X264523Y231523D01*
X263366Y232297D01*
X262000Y232569D01*
X248232D01*
X210068Y270733D01*
Y280421D01*
X211165Y281517D01*
X211544Y281402D01*
D02*
G37*
G36*
X466812Y213242D02*
X466326Y212069D01*
X304978D01*
X301033Y216014D01*
X301169Y217282D01*
X302217Y217982D01*
X302634Y217703D01*
X304000Y217431D01*
X334100D01*
X335466Y217703D01*
X336624Y218477D01*
X346164Y228017D01*
X346544Y227902D01*
X347449Y227506D01*
X348674Y225674D01*
X349431Y225168D01*
Y225001D01*
X349702Y223635D01*
X350476Y222477D01*
X351977Y220977D01*
X353134Y220203D01*
X354500Y219931D01*
X373168D01*
X373674Y219174D01*
X375659Y217848D01*
X378000Y217383D01*
X380341Y217848D01*
X382326Y219174D01*
X383652Y221159D01*
X384118Y223500D01*
X383652Y225841D01*
X382326Y227826D01*
X381779Y228191D01*
X381917Y228964D01*
X382209Y229431D01*
X408000D01*
X409365Y229703D01*
X410523Y230477D01*
X413106Y233060D01*
X413999Y232882D01*
X416340Y233348D01*
X418325Y234674D01*
X419651Y236658D01*
X420117Y239000D01*
X419687Y241161D01*
X420047Y242081D01*
X420234Y242431D01*
X437623D01*
X466812Y213242D01*
D02*
G37*
G36*
X913211Y250742D02*
X912725Y249569D01*
X911000D01*
X909634Y249297D01*
X908477Y248523D01*
X889522Y229569D01*
X635260D01*
X635174Y229552D01*
X633717Y230534D01*
X633671Y230774D01*
X669828Y266931D01*
X897022D01*
X913211Y250742D01*
D02*
G37*
G36*
X492016Y221937D02*
X492014Y220161D01*
X488421Y216569D01*
X485579D01*
X483523Y218624D01*
X483523Y218624D01*
X482366Y219397D01*
X481000Y219669D01*
X479634Y219397D01*
X478477Y218624D01*
X478477Y218624D01*
X476421Y216569D01*
X473579D01*
X444390Y245758D01*
X444876Y246931D01*
X467022D01*
X492016Y221937D01*
D02*
G37*
%LPC*%
G36*
X275000Y422118D02*
X272659Y421652D01*
X270798Y420408D01*
X270362Y420267D01*
X269638D01*
X269202Y420408D01*
X267341Y421652D01*
X265000Y422118D01*
X262659Y421652D01*
X260674Y420326D01*
X259348Y418341D01*
X258883Y416000D01*
X259348Y413659D01*
X260674Y411674D01*
X262659Y410348D01*
X265000Y409883D01*
X267341Y410348D01*
X269202Y411592D01*
X269638Y411733D01*
X270362D01*
X270798Y411592D01*
X272659Y410348D01*
X275000Y409883D01*
X277341Y410348D01*
X279326Y411674D01*
X280652Y413659D01*
X281117Y416000D01*
X280652Y418341D01*
X279326Y420326D01*
X277341Y421652D01*
X275000Y422118D01*
D02*
G37*
G36*
X454000Y437118D02*
X451659Y436652D01*
X449674Y435326D01*
X448348Y433341D01*
X447882Y431000D01*
X448348Y428659D01*
X449674Y426674D01*
X451659Y425348D01*
X454000Y424883D01*
X456341Y425348D01*
X458326Y426674D01*
X459652Y428659D01*
X460118Y431000D01*
X459652Y433341D01*
X458326Y435326D01*
X456341Y436652D01*
X454000Y437118D01*
D02*
G37*
G36*
X483000Y412118D02*
X480659Y411652D01*
X478674Y410326D01*
X477348Y408341D01*
X476883Y406000D01*
X477348Y403659D01*
X478674Y401674D01*
X480659Y400348D01*
X483000Y399883D01*
X485341Y400348D01*
X487326Y401674D01*
X488652Y403659D01*
X489118Y406000D01*
X488652Y408341D01*
X487326Y410326D01*
X485341Y411652D01*
X483000Y412118D01*
D02*
G37*
G36*
X346800Y459104D02*
X343667Y458691D01*
X340748Y457482D01*
X338242Y455559D01*
X336318Y453052D01*
X335109Y450133D01*
X334815Y447904D01*
X334740Y447335D01*
X333460D01*
X333385Y447904D01*
X333091Y450133D01*
X331882Y453052D01*
X329958Y455559D01*
X327452Y457482D01*
X324533Y458691D01*
X321400Y459104D01*
X318267Y458691D01*
X315348Y457482D01*
X312841Y455559D01*
X310918Y453052D01*
X309709Y450133D01*
X309415Y447904D01*
X309340Y447335D01*
X308060D01*
X307985Y447904D01*
X307691Y450133D01*
X306482Y453052D01*
X304559Y455559D01*
X302052Y457482D01*
X299133Y458691D01*
X296000Y459104D01*
X292867Y458691D01*
X289948Y457482D01*
X287442Y455559D01*
X285518Y453052D01*
X284309Y450133D01*
X283896Y447000D01*
X284309Y443867D01*
X285518Y440948D01*
X287442Y438442D01*
X289948Y436518D01*
X292867Y435309D01*
X296000Y434896D01*
X299133Y435309D01*
X302052Y436518D01*
X304559Y438442D01*
X306482Y440948D01*
X307691Y443867D01*
X307985Y446096D01*
X308060Y446665D01*
X309340D01*
X309415Y446096D01*
X309709Y443867D01*
X310918Y440948D01*
X312841Y438442D01*
X315348Y436518D01*
X318267Y435309D01*
X321400Y434896D01*
X324533Y435309D01*
X327452Y436518D01*
X329958Y438442D01*
X331882Y440948D01*
X333091Y443867D01*
X333385Y446096D01*
X333460Y446665D01*
X334740D01*
X334815Y446096D01*
X335109Y443867D01*
X336318Y440948D01*
X338242Y438442D01*
X340748Y436518D01*
X343667Y435309D01*
X346800Y434896D01*
X349933Y435309D01*
X352852Y436518D01*
X355359Y438442D01*
X357282Y440948D01*
X358491Y443867D01*
X358904Y447000D01*
X358491Y450133D01*
X357282Y453052D01*
X355359Y455559D01*
X352852Y457482D01*
X349933Y458691D01*
X346800Y459104D01*
D02*
G37*
G36*
X129300D02*
X126167Y458691D01*
X123248Y457482D01*
X120742Y455559D01*
X118818Y453052D01*
X117609Y450133D01*
X117316Y447904D01*
X117240Y447335D01*
X115960D01*
X115885Y447904D01*
X115591Y450133D01*
X114382Y453052D01*
X112458Y455559D01*
X109952Y457482D01*
X107033Y458691D01*
X103900Y459104D01*
X100767Y458691D01*
X97848Y457482D01*
X95342Y455559D01*
X93418Y453052D01*
X92209Y450133D01*
X91796Y447000D01*
X92209Y443867D01*
X93418Y440948D01*
X95342Y438442D01*
X97848Y436518D01*
X100767Y435309D01*
X103900Y434896D01*
X107033Y435309D01*
X109952Y436518D01*
X112458Y438442D01*
X114382Y440948D01*
X115591Y443867D01*
X115885Y446096D01*
X115960Y446665D01*
X117240D01*
X117316Y446096D01*
X117609Y443867D01*
X118818Y440948D01*
X120742Y438442D01*
X123248Y436518D01*
X126167Y435309D01*
X129300Y434896D01*
X132433Y435309D01*
X135352Y436518D01*
X137858Y438442D01*
X139782Y440948D01*
X140991Y443867D01*
X141404Y447000D01*
X140991Y450133D01*
X139782Y453052D01*
X137858Y455559D01*
X135352Y457482D01*
X132433Y458691D01*
X129300Y459104D01*
D02*
G37*
G36*
X192100Y459000D02*
X168100D01*
Y435000D01*
X192100D01*
Y459000D01*
D02*
G37*
G36*
X115000Y437118D02*
X112659Y436652D01*
X110674Y435326D01*
X109348Y433341D01*
X108883Y431000D01*
X109348Y428659D01*
X110674Y426674D01*
X112659Y425348D01*
X115000Y424882D01*
X117341Y425348D01*
X119326Y426674D01*
X120652Y428659D01*
X121117Y431000D01*
X120652Y433341D01*
X119326Y435326D01*
X117341Y436652D01*
X115000Y437118D01*
D02*
G37*
G36*
Y423117D02*
X112659Y422652D01*
X110674Y421326D01*
X109348Y419341D01*
X108883Y417000D01*
X109348Y414659D01*
X110674Y412674D01*
X112659Y411348D01*
X115000Y410882D01*
X117341Y411348D01*
X119326Y412674D01*
X120652Y414659D01*
X121117Y417000D01*
X120652Y419341D01*
X119326Y421326D01*
X117341Y422652D01*
X115000Y423117D01*
D02*
G37*
G36*
X829500Y419300D02*
X805500D01*
Y395300D01*
X829500D01*
Y419300D01*
D02*
G37*
G36*
X810000Y391118D02*
X807659Y390652D01*
X805798Y389408D01*
X805362Y389267D01*
X804638D01*
X804202Y389408D01*
X802341Y390652D01*
X800000Y391118D01*
X797659Y390652D01*
X795798Y389408D01*
X795362Y389267D01*
X794638D01*
X794202Y389408D01*
X792341Y390652D01*
X790000Y391118D01*
X787659Y390652D01*
X785674Y389326D01*
X784348Y387341D01*
X783883Y385000D01*
X784348Y382659D01*
X785592Y380798D01*
X785733Y380362D01*
Y379638D01*
X785592Y379202D01*
X784348Y377341D01*
X783883Y375000D01*
X784348Y372659D01*
X785592Y370798D01*
X785733Y370362D01*
Y369638D01*
X785592Y369202D01*
X784348Y367341D01*
X783883Y365000D01*
X784348Y362659D01*
X785674Y360674D01*
X787659Y359348D01*
X790000Y358882D01*
X792341Y359348D01*
X794202Y360592D01*
X794638Y360733D01*
X795362D01*
X795798Y360592D01*
X797659Y359348D01*
X800000Y358882D01*
X802341Y359348D01*
X804202Y360592D01*
X804638Y360733D01*
X805362D01*
X805798Y360592D01*
X807659Y359348D01*
X810000Y358882D01*
X812341Y359348D01*
X814326Y360674D01*
X815652Y362659D01*
X816117Y365000D01*
X815652Y367341D01*
X814408Y369202D01*
X814267Y369638D01*
Y370362D01*
X814408Y370798D01*
X815652Y372659D01*
X816117Y375000D01*
X815652Y377341D01*
X814408Y379202D01*
X814267Y379638D01*
Y380362D01*
X814408Y380798D01*
X815652Y382659D01*
X816117Y385000D01*
X815652Y387341D01*
X814326Y389326D01*
X812341Y390652D01*
X810000Y391118D01*
D02*
G37*
G36*
X927553Y298538D02*
X927500Y298529D01*
X927447Y298538D01*
X926531Y298514D01*
X926478Y298503D01*
X926424Y298509D01*
X925511Y298437D01*
X925459Y298422D01*
X925405Y298426D01*
X924496Y298306D01*
X924445Y298289D01*
X924391Y298290D01*
X923490Y298123D01*
X923440Y298103D01*
X923385Y298100D01*
X922495Y297887D01*
X922445Y297864D01*
X922392Y297859D01*
X921513Y297599D01*
X921465Y297574D01*
X921412Y297566D01*
X920548Y297260D01*
X920501Y297232D01*
X920448Y297222D01*
X919602Y296871D01*
X919557Y296841D01*
X919504Y296828D01*
X918677Y296433D01*
X918634Y296401D01*
X918582Y296385D01*
X917777Y295947D01*
X917735Y295913D01*
X917684Y295894D01*
X916903Y295415D01*
X916864Y295379D01*
X916814Y295357D01*
X916059Y294838D01*
X916021Y294799D01*
X915972Y294776D01*
X915246Y294218D01*
X915210Y294177D01*
X915163Y294151D01*
X914466Y293556D01*
X914432Y293513D01*
X914387Y293484D01*
X913722Y292854D01*
X913691Y292809D01*
X913646Y292778D01*
X913016Y292113D01*
X912987Y292068D01*
X912944Y292034D01*
X912349Y291338D01*
X912323Y291290D01*
X912282Y291255D01*
X911724Y290528D01*
X911701Y290479D01*
X911662Y290441D01*
X911143Y289686D01*
X911121Y289636D01*
X911085Y289597D01*
X910606Y288815D01*
X910587Y288765D01*
X910553Y288723D01*
X910115Y287918D01*
X910099Y287866D01*
X910067Y287823D01*
X909672Y286996D01*
X909659Y286943D01*
X909629Y286898D01*
X909278Y286052D01*
X909268Y285999D01*
X909240Y285952D01*
X908934Y285089D01*
X908926Y285035D01*
X908901Y284987D01*
X908641Y284109D01*
X908636Y284055D01*
X908613Y284005D01*
X908400Y283114D01*
X908397Y283060D01*
X908377Y283010D01*
X908210Y282109D01*
X908211Y282055D01*
X908194Y282004D01*
X908074Y281095D01*
X908078Y281041D01*
X908063Y280989D01*
X907991Y280076D01*
X907997Y280022D01*
X907986Y279969D01*
X907962Y279053D01*
X907971Y279000D01*
X907962Y278947D01*
X907986Y278031D01*
X907997Y277978D01*
X907991Y277924D01*
X908063Y277011D01*
X908078Y276959D01*
X908074Y276905D01*
X908194Y275996D01*
X908211Y275945D01*
X908210Y275891D01*
X908377Y274990D01*
X908397Y274940D01*
X908400Y274886D01*
X908613Y273995D01*
X908636Y273946D01*
X908641Y273892D01*
X908901Y273013D01*
X908926Y272965D01*
X908934Y272912D01*
X909240Y272048D01*
X909268Y272001D01*
X909278Y271948D01*
X909629Y271102D01*
X909659Y271057D01*
X909672Y271004D01*
X910067Y270177D01*
X910099Y270134D01*
X910115Y270082D01*
X910553Y269277D01*
X910587Y269235D01*
X910606Y269184D01*
X911085Y268403D01*
X911121Y268364D01*
X911143Y268314D01*
X911662Y267559D01*
X911700Y267521D01*
X911724Y267472D01*
X912282Y266745D01*
X912323Y266710D01*
X912349Y266663D01*
X912944Y265966D01*
X912987Y265932D01*
X913016Y265887D01*
X913646Y265222D01*
X913691Y265191D01*
X913722Y265146D01*
X914387Y264516D01*
X914432Y264487D01*
X914466Y264444D01*
X915163Y263849D01*
X915210Y263823D01*
X915246Y263782D01*
X915972Y263224D01*
X916021Y263200D01*
X916059Y263162D01*
X916814Y262643D01*
X916864Y262621D01*
X916903Y262585D01*
X917684Y262106D01*
X917735Y262087D01*
X917777Y262052D01*
X918582Y261615D01*
X918634Y261599D01*
X918677Y261567D01*
X919504Y261172D01*
X919557Y261159D01*
X919602Y261129D01*
X920448Y260778D01*
X920501Y260768D01*
X920548Y260740D01*
X921412Y260434D01*
X921465Y260427D01*
X921513Y260401D01*
X922392Y260141D01*
X922446Y260136D01*
X922495Y260114D01*
X923385Y259900D01*
X923440Y259897D01*
X923490Y259877D01*
X924391Y259710D01*
X924445Y259711D01*
X924496Y259694D01*
X925405Y259574D01*
X925459Y259578D01*
X925511Y259563D01*
X926424Y259491D01*
X926478Y259497D01*
X926531Y259485D01*
X927447Y259461D01*
X927500Y259471D01*
X927553Y259461D01*
X928469Y259485D01*
X928522Y259497D01*
X928576Y259491D01*
X929489Y259563D01*
X929541Y259578D01*
X929595Y259574D01*
X930504Y259694D01*
X930555Y259711D01*
X930609Y259710D01*
X931510Y259877D01*
X931560Y259897D01*
X931615Y259900D01*
X932505Y260113D01*
X932555Y260136D01*
X932608Y260141D01*
X933487Y260401D01*
X933535Y260427D01*
X933588Y260434D01*
X934452Y260740D01*
X934499Y260768D01*
X934552Y260778D01*
X935398Y261129D01*
X935443Y261159D01*
X935496Y261172D01*
X936323Y261567D01*
X936366Y261599D01*
X936418Y261615D01*
X937223Y262052D01*
X937265Y262087D01*
X937316Y262106D01*
X938097Y262585D01*
X938136Y262621D01*
X938186Y262643D01*
X938941Y263162D01*
X938979Y263200D01*
X939028Y263224D01*
X939754Y263782D01*
X939790Y263823D01*
X939837Y263849D01*
X940534Y264444D01*
X940568Y264487D01*
X940613Y264516D01*
X941278Y265147D01*
X941309Y265191D01*
X941354Y265222D01*
X941984Y265886D01*
X942013Y265932D01*
X942056Y265966D01*
X942651Y266663D01*
X942677Y266710D01*
X942718Y266745D01*
X943276Y267472D01*
X943299Y267521D01*
X943338Y267559D01*
X943857Y268314D01*
X943879Y268364D01*
X943915Y268403D01*
X944394Y269185D01*
X944413Y269235D01*
X944447Y269277D01*
X944885Y270082D01*
X944901Y270134D01*
X944933Y270177D01*
X945328Y271004D01*
X945341Y271057D01*
X945371Y271102D01*
X945722Y271948D01*
X945732Y272001D01*
X945760Y272048D01*
X946066Y272911D01*
X946074Y272965D01*
X946099Y273013D01*
X946359Y273892D01*
X946364Y273946D01*
X946386Y273995D01*
X946600Y274886D01*
X946603Y274940D01*
X946623Y274990D01*
X946790Y275891D01*
X946789Y275945D01*
X946806Y275996D01*
X946926Y276905D01*
X946922Y276959D01*
X946937Y277011D01*
X947009Y277924D01*
X947003Y277978D01*
X947014Y278031D01*
X947038Y278947D01*
X947029Y279000D01*
X947038Y279053D01*
X947014Y279969D01*
X947003Y280022D01*
X947009Y280076D01*
X946937Y280989D01*
X946922Y281041D01*
X946926Y281095D01*
X946806Y282004D01*
X946789Y282055D01*
X946790Y282109D01*
X946623Y283010D01*
X946603Y283060D01*
X946600Y283114D01*
X946387Y284005D01*
X946364Y284055D01*
X946359Y284109D01*
X946099Y284987D01*
X946074Y285035D01*
X946066Y285089D01*
X945760Y285952D01*
X945732Y285999D01*
X945722Y286052D01*
X945371Y286898D01*
X945341Y286943D01*
X945328Y286996D01*
X944933Y287823D01*
X944901Y287866D01*
X944885Y287918D01*
X944447Y288723D01*
X944413Y288765D01*
X944394Y288815D01*
X943915Y289597D01*
X943879Y289636D01*
X943857Y289686D01*
X943338Y290441D01*
X943300Y290479D01*
X943276Y290528D01*
X942718Y291255D01*
X942677Y291290D01*
X942651Y291338D01*
X942056Y292034D01*
X942013Y292068D01*
X941984Y292113D01*
X941354Y292778D01*
X941309Y292809D01*
X941278Y292854D01*
X940613Y293484D01*
X940568Y293513D01*
X940534Y293556D01*
X939837Y294151D01*
X939790Y294177D01*
X939754Y294218D01*
X939028Y294776D01*
X938979Y294800D01*
X938941Y294838D01*
X938186Y295357D01*
X938136Y295379D01*
X938097Y295415D01*
X937316Y295894D01*
X937265Y295913D01*
X937223Y295947D01*
X936418Y296385D01*
X936366Y296401D01*
X936323Y296433D01*
X935496Y296828D01*
X935443Y296841D01*
X935398Y296871D01*
X934552Y297222D01*
X934499Y297232D01*
X934452Y297260D01*
X933588Y297566D01*
X933535Y297574D01*
X933487Y297599D01*
X932608Y297859D01*
X932555Y297864D01*
X932505Y297887D01*
X931615Y298100D01*
X931560Y298103D01*
X931510Y298123D01*
X930609Y298290D01*
X930555Y298289D01*
X930504Y298306D01*
X929595Y298426D01*
X929541Y298422D01*
X929489Y298437D01*
X928576Y298509D01*
X928522Y298503D01*
X928469Y298514D01*
X927553Y298538D01*
D02*
G37*
G36*
X927553Y212539D02*
X927500Y212529D01*
X927447Y212539D01*
X926531Y212514D01*
X926478Y212502D01*
X926424Y212509D01*
X925511Y212437D01*
X925459Y212422D01*
X925405Y212426D01*
X924496Y212306D01*
X924445Y212289D01*
X924391Y212290D01*
X923490Y212123D01*
X923440Y212103D01*
X923385Y212100D01*
X922495Y211887D01*
X922445Y211864D01*
X922392Y211859D01*
X921513Y211599D01*
X921465Y211574D01*
X921412Y211566D01*
X920548Y211260D01*
X920501Y211232D01*
X920448Y211222D01*
X919602Y210871D01*
X919557Y210841D01*
X919504Y210828D01*
X918677Y210433D01*
X918634Y210401D01*
X918582Y210385D01*
X917777Y209947D01*
X917735Y209913D01*
X917684Y209894D01*
X916903Y209415D01*
X916864Y209379D01*
X916814Y209357D01*
X916059Y208838D01*
X916021Y208799D01*
X915972Y208776D01*
X915246Y208218D01*
X915210Y208177D01*
X915163Y208151D01*
X914466Y207556D01*
X914432Y207513D01*
X914387Y207484D01*
X913722Y206854D01*
X913691Y206809D01*
X913646Y206778D01*
X913016Y206113D01*
X912987Y206068D01*
X912944Y206034D01*
X912349Y205338D01*
X912323Y205290D01*
X912282Y205254D01*
X911724Y204528D01*
X911701Y204479D01*
X911662Y204441D01*
X911143Y203686D01*
X911121Y203636D01*
X911085Y203597D01*
X910606Y202815D01*
X910587Y202765D01*
X910553Y202723D01*
X910115Y201918D01*
X910099Y201866D01*
X910067Y201823D01*
X909672Y200996D01*
X909659Y200943D01*
X909629Y200898D01*
X909278Y200052D01*
X909268Y199999D01*
X909240Y199952D01*
X908934Y199088D01*
X908926Y199035D01*
X908901Y198987D01*
X908641Y198109D01*
X908636Y198055D01*
X908613Y198005D01*
X908400Y197115D01*
X908397Y197060D01*
X908377Y197010D01*
X908210Y196109D01*
X908211Y196055D01*
X908194Y196004D01*
X908074Y195095D01*
X908078Y195041D01*
X908063Y194989D01*
X907991Y194076D01*
X907997Y194022D01*
X907986Y193969D01*
X907962Y193053D01*
X907971Y193000D01*
X907962Y192947D01*
X907986Y192031D01*
X907997Y191978D01*
X907991Y191924D01*
X908063Y191011D01*
X908078Y190959D01*
X908074Y190905D01*
X908194Y189996D01*
X908211Y189945D01*
X908210Y189891D01*
X908377Y188990D01*
X908397Y188940D01*
X908400Y188886D01*
X908613Y187995D01*
X908636Y187945D01*
X908641Y187892D01*
X908901Y187013D01*
X908926Y186965D01*
X908934Y186912D01*
X909240Y186048D01*
X909268Y186001D01*
X909278Y185948D01*
X909629Y185102D01*
X909659Y185057D01*
X909672Y185004D01*
X910067Y184177D01*
X910099Y184134D01*
X910115Y184082D01*
X910553Y183277D01*
X910587Y183235D01*
X910606Y183185D01*
X911085Y182403D01*
X911121Y182364D01*
X911143Y182314D01*
X911662Y181559D01*
X911700Y181521D01*
X911724Y181472D01*
X912282Y180746D01*
X912323Y180710D01*
X912349Y180662D01*
X912944Y179966D01*
X912987Y179932D01*
X913016Y179887D01*
X913646Y179222D01*
X913691Y179191D01*
X913722Y179146D01*
X914387Y178516D01*
X914432Y178487D01*
X914466Y178444D01*
X915163Y177849D01*
X915210Y177823D01*
X915246Y177782D01*
X915972Y177224D01*
X916021Y177201D01*
X916059Y177162D01*
X916814Y176643D01*
X916864Y176621D01*
X916903Y176585D01*
X917684Y176106D01*
X917735Y176087D01*
X917777Y176052D01*
X918582Y175615D01*
X918634Y175599D01*
X918677Y175567D01*
X919504Y175172D01*
X919557Y175159D01*
X919602Y175129D01*
X920448Y174778D01*
X920501Y174768D01*
X920548Y174740D01*
X921412Y174434D01*
X921465Y174426D01*
X921513Y174401D01*
X922392Y174141D01*
X922446Y174136D01*
X922495Y174113D01*
X923385Y173900D01*
X923440Y173897D01*
X923490Y173877D01*
X924391Y173710D01*
X924445Y173711D01*
X924496Y173694D01*
X925405Y173574D01*
X925459Y173578D01*
X925511Y173563D01*
X926424Y173491D01*
X926478Y173497D01*
X926531Y173486D01*
X927447Y173461D01*
X927500Y173471D01*
X927553Y173461D01*
X928469Y173486D01*
X928522Y173497D01*
X928576Y173491D01*
X929489Y173563D01*
X929541Y173578D01*
X929595Y173574D01*
X930504Y173694D01*
X930555Y173711D01*
X930609Y173710D01*
X931510Y173877D01*
X931560Y173897D01*
X931615Y173900D01*
X932505Y174113D01*
X932555Y174136D01*
X932608Y174141D01*
X933487Y174401D01*
X933535Y174426D01*
X933588Y174434D01*
X934452Y174740D01*
X934499Y174768D01*
X934552Y174778D01*
X935398Y175129D01*
X935443Y175159D01*
X935496Y175172D01*
X936323Y175567D01*
X936366Y175599D01*
X936418Y175615D01*
X937223Y176052D01*
X937265Y176087D01*
X937316Y176106D01*
X938097Y176585D01*
X938137Y176621D01*
X938186Y176643D01*
X938941Y177162D01*
X938979Y177201D01*
X939028Y177224D01*
X939754Y177782D01*
X939790Y177823D01*
X939837Y177849D01*
X940534Y178444D01*
X940568Y178487D01*
X940613Y178516D01*
X941278Y179146D01*
X941309Y179191D01*
X941354Y179222D01*
X941984Y179886D01*
X942013Y179932D01*
X942056Y179966D01*
X942651Y180662D01*
X942677Y180710D01*
X942718Y180746D01*
X943276Y181472D01*
X943299Y181521D01*
X943338Y181559D01*
X943857Y182314D01*
X943879Y182364D01*
X943915Y182403D01*
X944394Y183185D01*
X944413Y183235D01*
X944447Y183277D01*
X944885Y184082D01*
X944901Y184134D01*
X944933Y184177D01*
X945328Y185004D01*
X945341Y185057D01*
X945371Y185102D01*
X945722Y185948D01*
X945732Y186001D01*
X945760Y186048D01*
X946066Y186912D01*
X946074Y186965D01*
X946099Y187013D01*
X946359Y187892D01*
X946364Y187945D01*
X946386Y187995D01*
X946600Y188885D01*
X946603Y188940D01*
X946623Y188990D01*
X946790Y189891D01*
X946789Y189945D01*
X946806Y189996D01*
X946926Y190905D01*
X946922Y190959D01*
X946937Y191011D01*
X947009Y191924D01*
X947003Y191978D01*
X947014Y192031D01*
X947038Y192947D01*
X947029Y193000D01*
X947038Y193053D01*
X947014Y193969D01*
X947003Y194022D01*
X947009Y194076D01*
X946937Y194989D01*
X946922Y195041D01*
X946926Y195095D01*
X946806Y196004D01*
X946789Y196055D01*
X946790Y196109D01*
X946623Y197010D01*
X946603Y197060D01*
X946600Y197115D01*
X946386Y198005D01*
X946364Y198055D01*
X946359Y198108D01*
X946099Y198987D01*
X946074Y199035D01*
X946066Y199088D01*
X945760Y199952D01*
X945732Y199999D01*
X945722Y200052D01*
X945371Y200898D01*
X945341Y200943D01*
X945328Y200996D01*
X944933Y201823D01*
X944901Y201866D01*
X944885Y201918D01*
X944447Y202723D01*
X944413Y202765D01*
X944394Y202815D01*
X943915Y203597D01*
X943879Y203636D01*
X943857Y203686D01*
X943338Y204441D01*
X943300Y204479D01*
X943276Y204528D01*
X942718Y205254D01*
X942677Y205290D01*
X942651Y205338D01*
X942056Y206034D01*
X942013Y206068D01*
X941984Y206113D01*
X941354Y206778D01*
X941309Y206809D01*
X941278Y206854D01*
X940613Y207484D01*
X940568Y207513D01*
X940534Y207556D01*
X939837Y208151D01*
X939790Y208177D01*
X939754Y208218D01*
X939028Y208776D01*
X938979Y208800D01*
X938941Y208838D01*
X938186Y209357D01*
X938136Y209379D01*
X938097Y209415D01*
X937316Y209894D01*
X937265Y209913D01*
X937223Y209947D01*
X936418Y210385D01*
X936366Y210401D01*
X936323Y210433D01*
X935496Y210828D01*
X935443Y210841D01*
X935398Y210871D01*
X934552Y211222D01*
X934499Y211232D01*
X934452Y211260D01*
X933588Y211566D01*
X933535Y211574D01*
X933487Y211599D01*
X932608Y211859D01*
X932555Y211864D01*
X932505Y211887D01*
X931615Y212100D01*
X931560Y212103D01*
X931510Y212123D01*
X930609Y212290D01*
X930555Y212289D01*
X930504Y212306D01*
X929595Y212426D01*
X929541Y212422D01*
X929489Y212437D01*
X928576Y212509D01*
X928522Y212502D01*
X928469Y212514D01*
X927553Y212539D01*
D02*
G37*
G36*
X101000Y172804D02*
X97867Y172391D01*
X94948Y171182D01*
X92442Y169258D01*
X90518Y166752D01*
X89309Y163833D01*
X88896Y160700D01*
X89309Y157567D01*
X90518Y154648D01*
X92442Y152142D01*
X94948Y150218D01*
X97867Y149009D01*
X101000Y148596D01*
X104133Y149009D01*
X107052Y150218D01*
X109558Y152142D01*
X111482Y154648D01*
X112691Y157567D01*
X113104Y160700D01*
X112691Y163833D01*
X111482Y166752D01*
X109558Y169258D01*
X107052Y171182D01*
X104133Y172391D01*
X101000Y172804D01*
D02*
G37*
G36*
X113000Y147300D02*
X89000D01*
Y123300D01*
X113000D01*
Y147300D01*
D02*
G37*
G36*
X863000Y169118D02*
X860659Y168652D01*
X858674Y167326D01*
X857348Y165341D01*
X856882Y163000D01*
X857348Y160659D01*
X858674Y158674D01*
X860659Y157348D01*
X863000Y156882D01*
X865341Y157348D01*
X867326Y158674D01*
X867491Y158922D01*
X880311D01*
X912172Y127061D01*
Y77741D01*
X911924Y77576D01*
X910598Y75591D01*
X910133Y73250D01*
X910598Y70909D01*
X911924Y68924D01*
X913909Y67598D01*
X916250Y67133D01*
X918591Y67598D01*
X920576Y68924D01*
X921902Y70909D01*
X922367Y73250D01*
X921902Y75591D01*
X920576Y77576D01*
X920328Y77741D01*
Y128750D01*
X920018Y130311D01*
X919134Y131634D01*
X919134Y131634D01*
X884884Y165884D01*
X883561Y166768D01*
X882000Y167078D01*
X882000Y167078D01*
X867491D01*
X867326Y167326D01*
X865341Y168652D01*
X863000Y169118D01*
D02*
G37*
G36*
X961000Y79117D02*
X958659Y78652D01*
X956674Y77326D01*
X955348Y75341D01*
X954882Y73000D01*
X955348Y70659D01*
X956674Y68674D01*
X958659Y67348D01*
X961000Y66883D01*
X963341Y67348D01*
X965326Y68674D01*
X966652Y70659D01*
X967117Y73000D01*
X966652Y75341D01*
X965326Y77326D01*
X963341Y78652D01*
X961000Y79117D01*
D02*
G37*
G36*
X127000Y87400D02*
X103000D01*
Y63400D01*
X127000D01*
Y87400D01*
D02*
G37*
G36*
X57000Y64117D02*
X54659Y63652D01*
X52674Y62326D01*
X51348Y60341D01*
X50883Y58000D01*
X51348Y55659D01*
X52674Y53674D01*
X54659Y52348D01*
X57000Y51882D01*
X59341Y52348D01*
X61326Y53674D01*
X62652Y55659D01*
X63118Y58000D01*
X62652Y60341D01*
X61326Y62326D01*
X59341Y63652D01*
X57000Y64117D01*
D02*
G37*
G36*
X821323Y125569D02*
X808000D01*
X806634Y125297D01*
X805477Y124523D01*
X800477Y119523D01*
X799703Y118366D01*
X799431Y117000D01*
Y115832D01*
X798674Y115326D01*
X797348Y113341D01*
X796882Y111000D01*
X797348Y108659D01*
X798674Y106674D01*
X800659Y105348D01*
X803000Y104882D01*
X805341Y105348D01*
X807326Y106674D01*
X808267Y108082D01*
X809734D01*
X810674Y106674D01*
X812659Y105348D01*
X815000Y104882D01*
X815893Y105060D01*
X916477Y4477D01*
X917634Y3703D01*
X919000Y3431D01*
X925168D01*
X925674Y2674D01*
X927659Y1348D01*
X930000Y882D01*
X932341Y1348D01*
X934326Y2674D01*
X935652Y4659D01*
X936117Y7000D01*
X935652Y9341D01*
X934326Y11326D01*
X932341Y12652D01*
X930000Y13118D01*
X927659Y12652D01*
X925674Y11326D01*
X925168Y10569D01*
X920478D01*
X820940Y110107D01*
X821117Y111000D01*
X820652Y113341D01*
X819326Y115326D01*
X817341Y116652D01*
X815000Y117118D01*
X812659Y116652D01*
X810674Y115326D01*
X809734Y113918D01*
X808267D01*
X807326Y115326D01*
X807240Y116194D01*
X809478Y118431D01*
X819845D01*
X895800Y42477D01*
X896958Y41703D01*
X898324Y41431D01*
X906168D01*
X906674Y40674D01*
X908659Y39348D01*
X911000Y38883D01*
X913341Y39348D01*
X915326Y40674D01*
X916652Y42659D01*
X917117Y45000D01*
X916652Y47341D01*
X915326Y49326D01*
X913341Y50652D01*
X911000Y51118D01*
X908659Y50652D01*
X906674Y49326D01*
X906168Y48569D01*
X899802D01*
X823847Y124523D01*
X822689Y125297D01*
X821323Y125569D01*
D02*
G37*
G36*
X57000Y46118D02*
X54659Y45652D01*
X52674Y44326D01*
X51348Y42341D01*
X50882Y40000D01*
X51348Y37659D01*
X52674Y35674D01*
X54659Y34348D01*
X57000Y33883D01*
X59341Y34348D01*
X61326Y35674D01*
X62652Y37659D01*
X63117Y40000D01*
X62652Y42341D01*
X61326Y44326D01*
X59341Y45652D01*
X57000Y46118D01*
D02*
G37*
G36*
X115000Y62104D02*
X111867Y61691D01*
X108948Y60482D01*
X106441Y58559D01*
X104518Y56052D01*
X103309Y53133D01*
X102896Y50000D01*
X103309Y46867D01*
X104518Y43948D01*
X106441Y41441D01*
X108948Y39518D01*
X111867Y38309D01*
X114096Y38015D01*
X114665Y37940D01*
Y36660D01*
X114096Y36584D01*
X111867Y36291D01*
X108948Y35082D01*
X106441Y33159D01*
X104518Y30652D01*
X103309Y27733D01*
X102896Y24600D01*
X103309Y21467D01*
X104518Y18548D01*
X106441Y16042D01*
X108948Y14118D01*
X111867Y12909D01*
X115000Y12496D01*
X118133Y12909D01*
X121052Y14118D01*
X123559Y16042D01*
X125482Y18548D01*
X126691Y21467D01*
X127104Y24600D01*
X126691Y27733D01*
X125482Y30652D01*
X123559Y33159D01*
X121052Y35082D01*
X118133Y36291D01*
X115904Y36584D01*
X115335Y36660D01*
Y37940D01*
X115904Y38015D01*
X118133Y38309D01*
X121052Y39518D01*
X123559Y41441D01*
X125482Y43948D01*
X126691Y46867D01*
X127104Y50000D01*
X126691Y53133D01*
X125482Y56052D01*
X123559Y58559D01*
X121052Y60482D01*
X118133Y61691D01*
X115000Y62104D01*
D02*
G37*
G36*
X246000Y356118D02*
X243659Y355652D01*
X241674Y354326D01*
X240348Y352341D01*
X239883Y350000D01*
X240348Y347659D01*
X241674Y345674D01*
X243659Y344348D01*
X246000Y343882D01*
X248341Y344348D01*
X250326Y345674D01*
X251652Y347659D01*
X252118Y350000D01*
X251652Y352341D01*
X250326Y354326D01*
X248341Y355652D01*
X246000Y356118D01*
D02*
G37*
G36*
X166000Y334118D02*
X163659Y333652D01*
X161674Y332326D01*
X160348Y330341D01*
X159882Y328000D01*
X160348Y325659D01*
X161674Y323674D01*
X163659Y322348D01*
X166000Y321883D01*
X168341Y322348D01*
X170326Y323674D01*
X171652Y325659D01*
X172118Y328000D01*
X171652Y330341D01*
X170326Y332326D01*
X168341Y333652D01*
X166000Y334118D01*
D02*
G37*
G36*
X236999Y379117D02*
X234658Y378651D01*
X232674Y377325D01*
X231348Y375340D01*
X230882Y372999D01*
X231348Y370658D01*
X232674Y368674D01*
X234658Y367347D01*
X236999Y366882D01*
X239341Y367347D01*
X241325Y368674D01*
X242651Y370658D01*
X243117Y372999D01*
X242651Y375340D01*
X241325Y377325D01*
X239341Y378651D01*
X236999Y379117D01*
D02*
G37*
G36*
X430000Y430588D02*
X428244Y430239D01*
X426756Y429244D01*
X425761Y427756D01*
X425648Y427184D01*
X424353D01*
X424239Y427756D01*
X423244Y429244D01*
X421756Y430239D01*
X420000Y430588D01*
X418244Y430239D01*
X416756Y429244D01*
X415761Y427756D01*
X415412Y426000D01*
X415761Y424244D01*
X416756Y422756D01*
X418244Y421761D01*
X418816Y421647D01*
Y420353D01*
X418244Y420239D01*
X416756Y419244D01*
X415761Y417756D01*
X415412Y416000D01*
X415761Y414244D01*
X416756Y412756D01*
X418244Y411761D01*
X420000Y411412D01*
X421756Y411761D01*
X423244Y412756D01*
X424239Y414244D01*
X424353Y414816D01*
X425648D01*
X425761Y414244D01*
X426756Y412756D01*
X428244Y411761D01*
X430000Y411412D01*
X431756Y411761D01*
X433244Y412756D01*
X434239Y414244D01*
X434588Y416000D01*
X434239Y417756D01*
X433244Y419244D01*
X431756Y420239D01*
X431185Y420353D01*
Y421647D01*
X431756Y421761D01*
X433244Y422756D01*
X434239Y424244D01*
X434588Y426000D01*
X434239Y427756D01*
X433244Y429244D01*
X431756Y430239D01*
X430000Y430588D01*
D02*
G37*
G36*
X462000Y316117D02*
X459659Y315652D01*
X458489Y314870D01*
X457500Y314407D01*
X456511Y314870D01*
X455341Y315652D01*
X453000Y316117D01*
X450659Y315652D01*
X448674Y314326D01*
X447348Y312341D01*
X446883Y310000D01*
X447348Y307659D01*
X448130Y306489D01*
X448593Y305500D01*
X448130Y304511D01*
X447348Y303341D01*
X446883Y301000D01*
X447348Y298659D01*
X448674Y296674D01*
X450659Y295348D01*
X453000Y294883D01*
X455341Y295348D01*
X456511Y296130D01*
X457500Y296593D01*
X458489Y296130D01*
X459659Y295348D01*
X462000Y294883D01*
X464341Y295348D01*
X466326Y296674D01*
X467652Y298659D01*
X468117Y301000D01*
X467652Y303341D01*
X466870Y304511D01*
X466407Y305500D01*
X466870Y306489D01*
X467652Y307659D01*
X468117Y310000D01*
X467652Y312341D01*
X466326Y314326D01*
X464341Y315652D01*
X462000Y316117D01*
D02*
G37*
G36*
X298000Y302118D02*
X295659Y301652D01*
X293674Y300326D01*
X292348Y298341D01*
X291882Y296000D01*
X292348Y293659D01*
X293674Y291674D01*
X295659Y290348D01*
X298000Y289883D01*
X300341Y290348D01*
X302326Y291674D01*
X303652Y293659D01*
X304118Y296000D01*
X303652Y298341D01*
X302326Y300326D01*
X300341Y301652D01*
X298000Y302118D01*
D02*
G37*
G36*
X713000Y258500D02*
X702000D01*
X696500Y253000D01*
Y242000D01*
X702000Y236500D01*
X713000D01*
X718500Y242000D01*
Y253000D01*
X713000Y258500D01*
D02*
G37*
%LPD*%
D14*
X213500Y433500D02*
X279500D01*
X299000Y414001D01*
X197000Y417000D02*
X213500Y433500D01*
X549000Y451000D02*
X560000Y440000D01*
X393000Y451000D02*
X549000D01*
X349000Y407000D02*
X393000Y451000D01*
X299000Y406999D02*
Y414001D01*
X495400Y218500D02*
X627760D01*
X489899Y213000D02*
X495400Y218500D01*
X627760D02*
X635260Y226000D01*
X482237Y208500D02*
X598692D01*
X600192Y210000D01*
X718000D01*
X303500Y208500D02*
X479763D01*
X295000Y217000D02*
X303500Y208500D01*
X477900Y213000D02*
X481000Y216101D01*
X439101Y246000D02*
X472100Y213000D01*
X481000Y209736D02*
X482237Y208500D01*
X481000Y209736D02*
X481000D01*
X479763Y208500D02*
X481000Y209736D01*
X472100Y213000D02*
X477900D01*
X620850Y223000D02*
X668350Y270500D01*
X496000Y223000D02*
X620850D01*
X468501Y250499D02*
X496000Y223000D01*
X615000Y227500D02*
X667500Y280000D01*
X548008Y227500D02*
X615000D01*
X535000Y240508D02*
X548008Y227500D01*
X635260Y226000D02*
X891000D01*
X911000Y246000D01*
X481000Y216101D02*
X484100Y213000D01*
X481000Y216101D02*
Y216101D01*
X535000Y240508D02*
Y277500D01*
X411100Y246000D02*
X439101D01*
X484100Y213000D02*
X489899D01*
X409236Y250499D02*
X468501D01*
X484100Y274000D02*
X524000D01*
X475100Y265000D02*
X484100Y274000D01*
X956000Y252000D02*
X994000Y214000D01*
X917000Y252000D02*
X956000D01*
X898500Y270500D02*
X917000Y252000D01*
X668350Y270500D02*
X898500D01*
X667500Y303501D02*
X684999Y320999D01*
X667500Y280000D02*
Y303501D01*
X525500Y287000D02*
X535000Y277500D01*
X490737Y287000D02*
X525500D01*
X409100Y265000D02*
X475100D01*
X405100Y261000D02*
X409100Y265000D01*
X407236Y269499D02*
X473236D01*
X405372Y274000D02*
X471372D01*
X403508Y278500D02*
X469508D01*
X401644Y282999D02*
X465999D01*
X488250Y305250D01*
X469508Y278500D02*
X491009Y300000D01*
X471372Y274000D02*
X492873Y295500D01*
X473236Y269499D02*
X490737Y287000D01*
X225900Y384000D02*
X255000D01*
X404736Y246000D02*
X409236Y250499D01*
X340999Y246000D02*
X404736D01*
X327000Y232000D02*
X340999Y246000D01*
X307101Y232000D02*
X327000D01*
X406600Y241500D02*
X411100Y246000D01*
X347500Y241500D02*
X406600D01*
X378000Y237000D02*
X382000Y233000D01*
X350100Y237000D02*
X378000D01*
X382000Y233000D02*
X408000D01*
X413999Y239000D01*
X333000Y227000D02*
X347500Y241500D01*
X305737Y227000D02*
X333000D01*
X334100Y221000D02*
X350100Y237000D01*
X304000Y221000D02*
X334100D01*
X994000Y214000D02*
X1002000D01*
X953000Y246000D02*
X996000Y203000D01*
X911000Y246000D02*
X953000D01*
X1008000Y203000D02*
X1014257Y209257D01*
X996000Y203000D02*
X1008000D01*
X1012243Y228000D02*
X1014257Y225985D01*
Y209257D02*
Y225985D01*
X1002608Y228000D02*
X1012243D01*
X919000Y7000D02*
X930000D01*
X206500Y269255D02*
X246754Y229000D01*
X206500Y269255D02*
Y281899D01*
X246754Y229000D02*
X262000D01*
X532000Y368000D02*
Y393500D01*
X210008Y304499D02*
X251501D01*
X197500Y265500D02*
X248000Y215000D01*
X346000Y386000D02*
X366000Y366000D01*
X264900Y386000D02*
X346000D01*
X366000Y326000D02*
Y366000D01*
X223899Y386000D02*
X225900Y384000D01*
X257361Y377361D02*
X342639D01*
X224000Y344000D02*
X257361Y377361D01*
X184062Y344000D02*
X224000D01*
X168697Y386000D02*
X223899D01*
X166940Y387757D02*
X168697Y386000D01*
X166940Y387757D02*
Y400060D01*
X288000Y335000D02*
X300000Y347000D01*
X188000Y335000D02*
X288000D01*
X184500Y331500D02*
X188000Y335000D01*
X300000Y347000D02*
X329999D01*
X240499Y327499D02*
X325865D01*
X234000Y321000D02*
X240499Y327499D01*
X325865D02*
X336000Y317364D01*
X243100Y322999D02*
X324001D01*
X331000Y316000D01*
Y301000D02*
Y316000D01*
Y301000D02*
X344000Y288000D01*
X236601Y316500D02*
X243100Y322999D01*
X336000Y310000D02*
Y317364D01*
X279000Y351698D02*
X293662Y366361D01*
X279000Y351000D02*
Y351698D01*
X293662Y366361D02*
X332952D01*
X329999Y347000D02*
X329999Y346999D01*
X184500Y318000D02*
Y331500D01*
X183500Y391500D02*
X259400D01*
X211000Y396000D02*
X297900D01*
X195000Y412000D02*
X211000Y396000D01*
X552500Y311136D02*
Y347500D01*
X532000Y368000D02*
X552500Y347500D01*
X162000Y405000D02*
X166940Y400060D01*
X148000Y405000D02*
X162000D01*
X133000Y390000D02*
X148000Y405000D01*
X133000Y279000D02*
Y390000D01*
X145000Y412000D02*
X195000D01*
X124000Y391000D02*
X145000Y412000D01*
X140000Y417000D02*
X197000D01*
X110000Y387000D02*
X140000Y417000D01*
X124000Y386000D02*
Y391000D01*
X110000Y231000D02*
Y387000D01*
Y231000D02*
X114375Y226625D01*
X156000Y360669D02*
Y398000D01*
X178000Y397000D02*
X183500Y391500D01*
X156000Y360669D02*
X175466Y341203D01*
X181265D01*
X184062Y344000D01*
X280000Y276000D02*
X338000D01*
X251501Y304499D02*
X280000Y276000D01*
X270000Y267000D02*
X342864D01*
X242000Y295000D02*
X270000Y267000D01*
X213237Y295000D02*
X242000D01*
X264500Y262500D02*
X347500D01*
X236501Y290499D02*
X264500Y262500D01*
X215100Y290499D02*
X236501D01*
X397000Y440000D02*
X420000D01*
X390500Y433500D02*
X397000Y440000D01*
X390500Y356000D02*
Y433500D01*
X412000Y403000D02*
X435000D01*
X406000Y397000D02*
X412000Y403000D01*
X406000Y349000D02*
Y397000D01*
X439001Y439999D02*
X442000Y437000D01*
X429999Y439999D02*
X439001D01*
X442000Y410000D02*
Y437000D01*
X435000Y403000D02*
X442000Y410000D01*
X300000Y225000D02*
X304000Y221000D01*
X293100Y225000D02*
X300000D01*
X288000Y219900D02*
X293100Y225000D01*
X259400Y391500D02*
X264900Y386000D01*
X373500Y318500D02*
X398000D01*
X366000Y326000D02*
X373500Y318500D01*
X426000Y295000D02*
Y339899D01*
X418499Y287500D02*
X426000Y295000D01*
X399780Y287500D02*
X418499D01*
X421500Y300500D02*
Y357607D01*
X412999Y291999D02*
X421500Y300500D01*
X397916Y291999D02*
X412999D01*
X417000Y303000D02*
Y370000D01*
X410499Y296499D02*
X417000Y303000D01*
X396052Y296499D02*
X410499D01*
X407000Y309000D02*
Y339500D01*
X403499Y305499D02*
X407000Y309000D01*
X392324Y305499D02*
X403499D01*
X411500Y305500D02*
Y343500D01*
X406999Y300999D02*
X411500Y305500D01*
X394188Y300999D02*
X406999D01*
X345500Y283500D02*
X395780D01*
X388325Y301500D02*
X392324Y305499D01*
X362990Y301500D02*
X388325D01*
X390189Y297000D02*
X394188Y300999D01*
X358000Y297000D02*
X390189D01*
X392053Y292500D02*
X396052Y296499D01*
X353500Y292500D02*
X392053D01*
X393917Y288000D02*
X397916Y291999D01*
X344000Y288000D02*
X393917D01*
X395780Y283500D02*
X399780Y287500D01*
X397644Y279000D02*
X401644Y282999D01*
X348500Y279000D02*
X397644D01*
X399508Y274500D02*
X403508Y278500D01*
X350364Y274500D02*
X399508D01*
X401372Y270000D02*
X405372Y274000D01*
X355000Y270000D02*
X401372D01*
X403236Y265500D02*
X407236Y269499D01*
X356864Y265500D02*
X403236D01*
X358728Y261000D02*
X405100D01*
X366500Y308500D02*
X383000D01*
X358000Y317000D02*
X366500Y308500D01*
X358000Y317000D02*
Y362000D01*
X350000Y314490D02*
X362990Y301500D01*
X344000Y311000D02*
X358000Y297000D01*
X336000Y310000D02*
X353500Y292500D01*
X545000Y310000D02*
Y347900D01*
X526650Y366250D02*
X545000Y347900D01*
X505250Y366250D02*
X526650D01*
X536864Y295500D02*
X552500Y311136D01*
X492873Y295500D02*
X536864D01*
X560000Y395000D02*
Y440000D01*
X540000Y375000D02*
X560000Y395000D01*
X535000Y300000D02*
X545000Y310000D01*
X491009Y300000D02*
X535000D01*
X406000Y349000D02*
X411500Y343500D01*
X347500Y262500D02*
X355000Y270000D01*
X342864Y267000D02*
X350364Y274500D01*
X341000Y271500D02*
X348500Y279000D01*
X342639Y377361D02*
X358000Y362000D01*
X337139Y372861D02*
X350000Y360000D01*
Y314490D02*
Y360000D01*
X332952Y366361D02*
X344000Y355312D01*
Y311000D02*
Y355312D01*
X488250Y305250D02*
Y341750D01*
X133000Y279000D02*
X162000Y250000D01*
X482250Y347750D02*
X488250Y341750D01*
X462500Y347750D02*
X482250D01*
X426000Y339899D02*
X444851Y358750D01*
X462500D01*
X462250Y369500D02*
X462500Y369750D01*
X462250Y382000D02*
X462500Y381750D01*
X162000Y224000D02*
Y250000D01*
Y224000D02*
X181500Y204500D01*
X433393Y369500D02*
X462250D01*
X421500Y357607D02*
X433393Y369500D01*
X417000Y370000D02*
X429000Y382000D01*
X462250D01*
X348319Y250591D02*
X358728Y261000D01*
X349364Y258000D02*
X356864Y265500D01*
X292999Y239737D02*
X305737Y227000D01*
X292999Y239737D02*
Y246899D01*
X288262Y258000D02*
X298000Y248263D01*
Y241101D02*
Y248263D01*
Y241101D02*
X307101Y232000D01*
X286399Y253500D02*
X292999Y246899D01*
X308900Y407000D02*
X349000D01*
X297900Y396000D02*
X308900Y407000D01*
X354500Y223500D02*
X378000D01*
X352999Y225001D02*
X354500Y223500D01*
X352999Y225001D02*
Y230000D01*
X286000Y225000D02*
Y244000D01*
X270000Y209000D02*
X286000Y225000D01*
X260000Y209000D02*
X270000D01*
X309000Y250999D02*
X316999D01*
X309000Y251000D02*
X309000Y250999D01*
X338000Y276000D02*
X345500Y283500D01*
X265000Y216000D02*
Y226000D01*
X262000Y229000D02*
X265000Y226000D01*
X288000Y219900D02*
Y219900D01*
X272600Y204500D02*
X288000Y219900D01*
X310000Y239000D02*
X316636D01*
X316999Y250999D02*
X324000Y258000D01*
X316636Y239000D02*
X328227Y250591D01*
X181500Y204500D02*
X272600D01*
X260000Y258000D02*
X288262D01*
X241000Y253500D02*
X286399D01*
X255000Y214000D02*
X260000Y209000D01*
X255000Y214000D02*
Y222000D01*
X328227Y250591D02*
X348319D01*
X324000Y258000D02*
X349364D01*
X231500Y263000D02*
X241000Y253500D01*
X234501Y283499D02*
X260000Y258000D01*
X212636Y321000D02*
X234000D01*
X183500Y291864D02*
X212636Y321000D01*
X214500Y316500D02*
X236601D01*
X188500Y290500D02*
X214500Y316500D01*
X275500Y271500D02*
X341000D01*
X247001Y299999D02*
X275500Y271500D01*
X211872Y299999D02*
X247001D01*
X193000Y263628D02*
X229500Y227127D01*
X202000Y283763D02*
X213237Y295000D01*
X202000Y267391D02*
Y283763D01*
Y267391D02*
X205182Y264208D01*
Y264182D02*
Y264208D01*
X197500Y285627D02*
X211872Y299999D01*
X197500Y265500D02*
Y285627D01*
X193000Y287491D02*
X210008Y304499D01*
X193000Y263628D02*
Y287491D01*
X188500Y261764D02*
Y290500D01*
Y261764D02*
X225000Y225264D01*
X183500Y260399D02*
X214000Y229900D01*
X183500Y260399D02*
Y291864D01*
X206500Y281899D02*
X215100Y290499D01*
X252500Y224500D02*
X255000Y222000D01*
X244864Y224500D02*
X252500D01*
X205182Y264182D02*
X244864Y224500D01*
X229500Y221500D02*
X236000Y215000D01*
X229500Y221500D02*
Y227127D01*
X218000Y283499D02*
X234501D01*
X225000Y215000D02*
Y225264D01*
X214000Y215000D02*
Y229900D01*
X808000Y122000D02*
X821323D01*
X803000Y117000D02*
X808000Y122000D01*
X803000Y111000D02*
Y117000D01*
X821323Y122000D02*
X898324Y45000D01*
X911000D01*
X815000Y111000D02*
X919000Y7000D01*
X390500Y356000D02*
X407000Y339500D01*
X284861Y372861D02*
X337139D01*
X263000Y351000D02*
X284861Y372861D01*
D15*
X532000Y393500D02*
X537500D01*
X526500D02*
X532000D01*
D16*
X882000Y163000D02*
X916250Y128750D01*
Y73250D02*
Y128750D01*
X870000Y103000D02*
Y109000D01*
X837000Y142000D02*
X870000Y109000D01*
X837000Y142000D02*
Y172000D01*
X880000Y103000D02*
Y110000D01*
X843000Y147000D02*
X880000Y110000D01*
X843000Y147000D02*
Y169000D01*
X993000Y182000D02*
X998900Y187900D01*
X993000Y164000D02*
Y182000D01*
X985000Y156000D02*
X993000Y164000D01*
X998900Y187900D02*
X1020000D01*
X915000Y156000D02*
X985000D01*
X843000Y169000D02*
X857000Y183000D01*
X880000D02*
X925900Y137100D01*
X857000Y183000D02*
X880000D01*
X882000Y189000D02*
X915000Y156000D01*
X854000Y189000D02*
X882000D01*
X925900Y137100D02*
X1020000D01*
X837000Y172000D02*
X854000Y189000D01*
X863000Y163000D02*
X882000D01*
X645999Y328499D02*
X901382D01*
X600400Y282900D02*
X645999Y328499D01*
X600400Y245000D02*
Y282900D01*
X901382Y328499D02*
X932000Y359118D01*
X636499Y333999D02*
X876882D01*
X606250Y303750D02*
X636499Y333999D01*
X583750Y303750D02*
X606250D01*
X876882Y333999D02*
X902000Y359118D01*
X549600Y269600D02*
X583750Y303750D01*
X549600Y245000D02*
Y269600D01*
D94*
X707500Y247500D02*
D03*
D95*
Y297500D02*
D03*
D96*
X549600Y245000D02*
D03*
X575000D02*
D03*
X1020000Y137100D02*
D03*
Y162500D02*
D03*
X103900Y447000D02*
D03*
X154700D02*
D03*
X129300D02*
D03*
X346800D02*
D03*
X321400D02*
D03*
X270600D02*
D03*
X296000D02*
D03*
X101000Y160700D02*
D03*
X115000Y50000D02*
D03*
Y24600D02*
D03*
X817500Y432700D02*
D03*
D97*
X600400Y245000D02*
D03*
X180100Y447000D02*
D03*
X245200D02*
D03*
D98*
X1020000Y187900D02*
D03*
X101000Y135300D02*
D03*
X115000Y75400D02*
D03*
X817500Y407300D02*
D03*
D99*
X995000Y50000D02*
D03*
X45000Y330000D02*
D03*
D100*
X1027749Y216750D02*
D03*
Y120750D02*
D03*
Y88750D02*
D03*
Y56750D02*
D03*
Y24750D02*
D03*
X1011749Y120750D02*
D03*
X1019749Y104750D02*
D03*
X1011749Y88750D02*
D03*
X1019749Y72750D02*
D03*
Y8750D02*
D03*
X1003749Y168750D02*
D03*
X995749Y152750D02*
D03*
Y120750D02*
D03*
X1003749Y104750D02*
D03*
X995749Y88750D02*
D03*
X1003749Y8750D02*
D03*
X987749Y104750D02*
D03*
Y8750D02*
D03*
X963749Y376750D02*
D03*
Y344750D02*
D03*
Y312750D02*
D03*
X971749Y72750D02*
D03*
X963749Y56750D02*
D03*
X971749Y8750D02*
D03*
X947749Y376750D02*
D03*
X955749Y360750D02*
D03*
Y328750D02*
D03*
X947749Y56750D02*
D03*
X955749Y8750D02*
D03*
X947749Y-39250D02*
D03*
Y-71250D02*
D03*
X931749Y376750D02*
D03*
X939749Y328750D02*
D03*
X931749Y216750D02*
D03*
X939749Y168750D02*
D03*
X931749Y56750D02*
D03*
X939749Y-23250D02*
D03*
X931749Y-39250D02*
D03*
X939749Y-55250D02*
D03*
X931749Y-71250D02*
D03*
X923749Y232750D02*
D03*
X915749Y216750D02*
D03*
X923749Y168750D02*
D03*
Y-23250D02*
D03*
Y-55250D02*
D03*
X915749Y-71250D02*
D03*
X899749Y280750D02*
D03*
Y248750D02*
D03*
Y216750D02*
D03*
Y184750D02*
D03*
X907749Y-55250D02*
D03*
X899749Y-71250D02*
D03*
X883749Y280750D02*
D03*
Y248750D02*
D03*
Y216750D02*
D03*
X891749Y200750D02*
D03*
X883749Y-71250D02*
D03*
X867749Y280750D02*
D03*
Y248750D02*
D03*
Y216750D02*
D03*
X875749Y200750D02*
D03*
X867749Y-71250D02*
D03*
X859749Y456750D02*
D03*
X851749Y440750D02*
D03*
X859749Y424750D02*
D03*
X851749Y408750D02*
D03*
X859749Y392750D02*
D03*
X851749Y280750D02*
D03*
Y248750D02*
D03*
Y216750D02*
D03*
X859749Y200750D02*
D03*
X851749Y-71250D02*
D03*
X843749Y456750D02*
D03*
Y424750D02*
D03*
X835750Y408750D02*
D03*
X843749Y392750D02*
D03*
X835750Y280750D02*
D03*
Y248750D02*
D03*
Y216750D02*
D03*
X843749Y200750D02*
D03*
X835750Y-71250D02*
D03*
X827749Y456750D02*
D03*
X819750Y-71250D02*
D03*
X811749Y456750D02*
D03*
X803749Y-7250D02*
D03*
Y-71250D02*
D03*
X795750Y456750D02*
D03*
X787749Y312750D02*
D03*
Y280750D02*
D03*
Y248750D02*
D03*
Y-71250D02*
D03*
X779750Y-23250D02*
D03*
Y-55250D02*
D03*
X691749Y312750D02*
D03*
X587749Y456750D02*
D03*
X579750Y344750D02*
D03*
Y280750D02*
D03*
X571750Y456750D02*
D03*
X563750Y312750D02*
D03*
X555750Y456750D02*
D03*
X547750Y440750D02*
D03*
Y280750D02*
D03*
X531750Y440750D02*
D03*
X515750D02*
D03*
X523750Y424750D02*
D03*
X515750Y408750D02*
D03*
Y376750D02*
D03*
X523750Y232750D02*
D03*
X499750Y440750D02*
D03*
X507750Y424750D02*
D03*
X499750Y408750D02*
D03*
X483750Y440750D02*
D03*
X491750Y424750D02*
D03*
X467750Y440750D02*
D03*
X475750Y424750D02*
D03*
X443750Y392750D02*
D03*
X379750Y456750D02*
D03*
X371750Y440750D02*
D03*
X379750Y392750D02*
D03*
X363750Y456750D02*
D03*
X291750Y312750D02*
D03*
X275750D02*
D03*
X259750D02*
D03*
X203750Y360750D02*
D03*
X147750Y376750D02*
D03*
Y344750D02*
D03*
Y216750D02*
D03*
X139750Y232750D02*
D03*
Y168750D02*
D03*
Y136750D02*
D03*
Y104750D02*
D03*
X131750Y88750D02*
D03*
X139750Y72750D02*
D03*
X131750Y56750D02*
D03*
X139750Y40750D02*
D03*
X131750Y24750D02*
D03*
X139750Y8750D02*
D03*
X123750Y360750D02*
D03*
Y328750D02*
D03*
X115750Y152750D02*
D03*
X123750Y8750D02*
D03*
X99750Y376750D02*
D03*
Y344750D02*
D03*
Y312750D02*
D03*
Y280750D02*
D03*
Y248750D02*
D03*
X107750Y8750D02*
D03*
X91750Y424750D02*
D03*
Y392750D02*
D03*
X83750Y376750D02*
D03*
X91750Y360750D02*
D03*
X83750Y344750D02*
D03*
X91750Y328750D02*
D03*
X83750Y312750D02*
D03*
X91750Y296750D02*
D03*
Y264750D02*
D03*
Y104750D02*
D03*
Y40750D02*
D03*
Y8750D02*
D03*
X67750Y376750D02*
D03*
X75750Y360750D02*
D03*
Y328750D02*
D03*
Y296750D02*
D03*
Y8750D02*
D03*
X51750Y376750D02*
D03*
X59750Y360750D02*
D03*
Y296750D02*
D03*
X35750Y376750D02*
D03*
X43750Y360750D02*
D03*
Y296750D02*
D03*
X19750Y376750D02*
D03*
X27750Y360750D02*
D03*
Y296750D02*
D03*
X299000Y427000D02*
D03*
X785000Y206000D02*
D03*
Y195000D02*
D03*
X764000Y217000D02*
D03*
X752000D02*
D03*
X718000Y210000D02*
D03*
X786000Y259000D02*
D03*
X784000Y347000D02*
D03*
X719000Y352000D02*
D03*
X475000Y220000D02*
D03*
X487000D02*
D03*
X462000Y301000D02*
D03*
X453000D02*
D03*
X962500Y105000D02*
D03*
X952500D02*
D03*
X942500D02*
D03*
X487000Y246000D02*
D03*
X587500Y265000D02*
D03*
X575000D02*
D03*
X699000Y352000D02*
D03*
X696750Y377000D02*
D03*
X687000D02*
D03*
X699000Y363000D02*
D03*
X716250Y377000D02*
D03*
X684999Y320999D02*
D03*
X365000Y253500D02*
D03*
X374000D02*
D03*
X399500D02*
D03*
X419000Y257750D02*
D03*
X433000Y258000D02*
D03*
X413999Y239000D02*
D03*
X932000Y359118D02*
D03*
X902000D02*
D03*
X885000Y295000D02*
D03*
X875000D02*
D03*
X851000Y103000D02*
D03*
X916250Y73250D02*
D03*
X860000Y103000D02*
D03*
X904000Y97000D02*
D03*
X863000Y163000D02*
D03*
X981000Y184000D02*
D03*
X1002608Y228000D02*
D03*
X1002000Y214000D02*
D03*
X938000Y235000D02*
D03*
Y224000D02*
D03*
X930000Y7000D02*
D03*
X880000Y-38000D02*
D03*
X870000Y103000D02*
D03*
X880000D02*
D03*
X898000Y89000D02*
D03*
X214000Y215000D02*
D03*
X248000D02*
D03*
X942000Y318000D02*
D03*
X320500Y288500D02*
D03*
X282000Y457000D02*
D03*
X223000Y377000D02*
D03*
X246000Y350000D02*
D03*
X299000Y335000D02*
D03*
X292000Y351000D02*
D03*
X319361Y358361D02*
D03*
X279000Y351000D02*
D03*
X236999Y372999D02*
D03*
X252999Y383999D02*
D03*
X124000Y386000D02*
D03*
X115000Y417000D02*
D03*
X156000Y398000D02*
D03*
X178000Y397000D02*
D03*
X183000Y379000D02*
D03*
X140000Y331000D02*
D03*
X269000Y241000D02*
D03*
X277750Y231750D02*
D03*
X1031000Y319000D02*
D03*
Y268000D02*
D03*
X426000Y238000D02*
D03*
X383000Y308500D02*
D03*
X436000Y238000D02*
D03*
X550000Y398000D02*
D03*
X667000Y396000D02*
D03*
X603000Y378000D02*
D03*
X612000D02*
D03*
X589000Y312000D02*
D03*
X655000Y386000D02*
D03*
Y396000D02*
D03*
X580000Y322000D02*
D03*
X600000Y434000D02*
D03*
X589000D02*
D03*
X540000Y375000D02*
D03*
X462000Y310000D02*
D03*
X437000Y304000D02*
D03*
X524000Y274000D02*
D03*
X345000Y429000D02*
D03*
X320000Y427000D02*
D03*
X275000Y416000D02*
D03*
X265000D02*
D03*
X513000Y333000D02*
D03*
Y323000D02*
D03*
X510000Y349000D02*
D03*
X524000D02*
D03*
X690000Y282500D02*
D03*
X534000Y349000D02*
D03*
X514000Y394000D02*
D03*
X487000Y385000D02*
D03*
X483000Y406000D02*
D03*
X499000Y337000D02*
D03*
X462500Y358750D02*
D03*
Y347750D02*
D03*
Y369750D02*
D03*
Y381750D02*
D03*
X174000Y379000D02*
D03*
X214000Y416000D02*
D03*
X149000Y426000D02*
D03*
X95000Y402000D02*
D03*
X105000D02*
D03*
X114375Y226625D02*
D03*
X174000Y222000D02*
D03*
X169000Y232000D02*
D03*
X30000Y24000D02*
D03*
X214000Y407000D02*
D03*
X232000D02*
D03*
Y416000D02*
D03*
X241000Y407000D02*
D03*
X223000Y416000D02*
D03*
X445000Y337000D02*
D03*
X433000D02*
D03*
X295000Y217000D02*
D03*
X224000Y358000D02*
D03*
X241000Y416000D02*
D03*
X223000Y407000D02*
D03*
X100000Y177000D02*
D03*
X454000Y431000D02*
D03*
X891000Y98000D02*
D03*
X487000Y266000D02*
D03*
Y256000D02*
D03*
X265000Y216000D02*
D03*
X310000Y239000D02*
D03*
X309000Y251000D02*
D03*
X286000Y244000D02*
D03*
X352999Y230000D02*
D03*
X477000Y385000D02*
D03*
X526500Y393500D02*
D03*
X537500D02*
D03*
X215000Y328000D02*
D03*
X166000D02*
D03*
X416000Y379000D02*
D03*
X219018Y273000D02*
D03*
X231500Y263000D02*
D03*
X236000Y215000D02*
D03*
X188000Y238000D02*
D03*
X196000D02*
D03*
X218000Y283499D02*
D03*
X298000Y296000D02*
D03*
X505250Y366250D02*
D03*
X203000Y454000D02*
D03*
X773000Y347000D02*
D03*
X559500Y332500D02*
D03*
Y341500D02*
D03*
X569500Y332500D02*
D03*
X416000Y389000D02*
D03*
X427000D02*
D03*
X148000Y289000D02*
D03*
X89000Y237000D02*
D03*
Y203000D02*
D03*
X100000D02*
D03*
X254000Y403000D02*
D03*
X57000Y58000D02*
D03*
X57000Y40000D02*
D03*
X30000Y75000D02*
D03*
X31000Y49000D02*
D03*
X184500Y318000D02*
D03*
X148000Y299000D02*
D03*
X103000Y237000D02*
D03*
X911000Y45000D02*
D03*
X437000Y314000D02*
D03*
X178000Y359000D02*
D03*
X178366Y348203D02*
D03*
X398000Y374000D02*
D03*
X225000Y215000D02*
D03*
X185000Y222000D02*
D03*
X196000D02*
D03*
X174500Y269000D02*
D03*
X156000D02*
D03*
Y278000D02*
D03*
X165500Y269000D02*
D03*
X174500Y278000D02*
D03*
X453000Y310000D02*
D03*
X690000Y302500D02*
D03*
X725000D02*
D03*
X787500Y292500D02*
D03*
X725000D02*
D03*
X787500Y302500D02*
D03*
X378000Y223500D02*
D03*
X398000Y318500D02*
D03*
X315500Y396000D02*
D03*
X329999Y346999D02*
D03*
X571000Y433000D02*
D03*
X325500Y396000D02*
D03*
X369000Y376000D02*
D03*
X380000D02*
D03*
X398000Y385000D02*
D03*
X429999Y439999D02*
D03*
X420000Y440000D02*
D03*
X463000Y410000D02*
D03*
X401000Y421000D02*
D03*
X263000Y351000D02*
D03*
X299000Y406999D02*
D03*
X157000Y299000D02*
D03*
Y289000D02*
D03*
X834667Y380000D02*
D03*
X845333D02*
D03*
X165500Y278000D02*
D03*
X246000Y315999D02*
D03*
X186000Y426000D02*
D03*
X174000D02*
D03*
X161000D02*
D03*
X115000Y431000D02*
D03*
X690000Y292500D02*
D03*
X725000Y282500D02*
D03*
X713333D02*
D03*
X701667D02*
D03*
X380000Y419000D02*
D03*
X1022000Y268000D02*
D03*
X1013000D02*
D03*
X1022000Y319000D02*
D03*
X1013000D02*
D03*
X285500Y296000D02*
D03*
X255000Y343000D02*
D03*
X803000Y86000D02*
D03*
X964000Y43000D02*
D03*
X880000Y-28000D02*
D03*
X824000Y-37000D02*
D03*
Y-27000D02*
D03*
X964000Y22000D02*
D03*
Y32000D02*
D03*
X815000Y111000D02*
D03*
X803000D02*
D03*
X791000Y86000D02*
D03*
X815000D02*
D03*
X961000Y73000D02*
D03*
X755000Y350000D02*
D03*
X745000D02*
D03*
X735000D02*
D03*
X755000Y360000D02*
D03*
Y370000D02*
D03*
X810000Y365000D02*
D03*
X800000D02*
D03*
X790000D02*
D03*
X810000Y375000D02*
D03*
X800000D02*
D03*
X790000D02*
D03*
Y385000D02*
D03*
X800000D02*
D03*
X810000D02*
D03*
X600500Y340500D02*
D03*
X667000Y386000D02*
D03*
X680000Y402500D02*
D03*
X569500Y341500D02*
D03*
X719000Y363000D02*
D03*
X824000Y380000D02*
D03*
X856000D02*
D03*
X707000Y427000D02*
D03*
X706500Y377000D02*
D03*
X726000D02*
D03*
X898000Y375000D02*
D03*
X878000D02*
D03*
X868000D02*
D03*
X908000D02*
D03*
X981000Y173000D02*
D03*
X942000Y308500D02*
D03*
X982000Y262500D02*
D03*
X993000D02*
D03*
X802500Y442500D02*
D03*
Y432500D02*
D03*
X832500D02*
D03*
Y422500D02*
D03*
Y442500D02*
D03*
X802500Y422500D02*
D03*
X725000Y411000D02*
D03*
X750000D02*
D03*
X696000Y427000D02*
D03*
X699000Y417000D02*
D03*
X737500Y411000D02*
D03*
D101*
X430000Y416000D02*
D03*
X420000D02*
D03*
X430000Y426000D02*
D03*
X420000D02*
D03*
M02*
