G04*
G04 #@! TF.GenerationSoftware,Altium Limited,Altium Designer,19.1.9 (167)*
G04*
G04 Layer_Color=13395711*
%FSLAX44Y44*%
%MOMM*%
G71*
G01*
G75*
%ADD11C,0.2500*%
G36*
X928416Y210476D02*
X929329Y210404D01*
X930238Y210285D01*
X931139Y210118D01*
X932029Y209904D01*
X932908Y209643D01*
X933771Y209338D01*
X934618Y208987D01*
X935445Y208593D01*
X936250Y208155D01*
X937031Y207677D01*
X937786Y207158D01*
X938513Y206600D01*
X939210Y206005D01*
X939874Y205374D01*
X940505Y204710D01*
X941100Y204013D01*
X941658Y203286D01*
X942177Y202531D01*
X942655Y201750D01*
X943093Y200945D01*
X943487Y200118D01*
X943838Y199271D01*
X944144Y198408D01*
X944404Y197529D01*
X944618Y196639D01*
X944784Y195738D01*
X944904Y194829D01*
X944976Y193916D01*
X945000Y193000D01*
X944976Y192084D01*
X944904Y191171D01*
X944784Y190262D01*
X944618Y189361D01*
X944404Y188471D01*
X944144Y187592D01*
X943838Y186729D01*
X943487Y185882D01*
X943093Y185055D01*
X942655Y184250D01*
X942177Y183469D01*
X941658Y182714D01*
X941100Y181987D01*
X940505Y181290D01*
X939874Y180626D01*
X939210Y179995D01*
X938513Y179400D01*
X937786Y178842D01*
X937031Y178323D01*
X936250Y177845D01*
X935445Y177407D01*
X934618Y177013D01*
X933771Y176662D01*
X932908Y176357D01*
X932029Y176096D01*
X931139Y175882D01*
X930238Y175715D01*
X929329Y175596D01*
X928416Y175524D01*
X927500Y175500D01*
X926584Y175524D01*
X925671Y175596D01*
X924762Y175715D01*
X923862Y175882D01*
X922971Y176096D01*
X922092Y176357D01*
X921229Y176662D01*
X920382Y177013D01*
X919555Y177407D01*
X918750Y177845D01*
X917969Y178323D01*
X917214Y178842D01*
X916487Y179400D01*
X915790Y179995D01*
X915126Y180626D01*
X914495Y181290D01*
X913900Y181987D01*
X913342Y182714D01*
X912823Y183469D01*
X912345Y184250D01*
X911907Y185055D01*
X911513Y185882D01*
X911162Y186729D01*
X910856Y187592D01*
X910596Y188471D01*
X910382Y189361D01*
X910216Y190262D01*
X910096Y191171D01*
X910024Y192084D01*
X910000Y193000D01*
X910024Y193916D01*
X910096Y194829D01*
X910216Y195738D01*
X910382Y196639D01*
X910596Y197529D01*
X910856Y198408D01*
X911162Y199271D01*
X911513Y200118D01*
X911907Y200945D01*
X912345Y201750D01*
X912823Y202531D01*
X913342Y203286D01*
X913900Y204013D01*
X914495Y204710D01*
X915126Y205374D01*
X915790Y206005D01*
X916487Y206600D01*
X917214Y207158D01*
X917969Y207677D01*
X918750Y208155D01*
X919555Y208593D01*
X920382Y208987D01*
X921229Y209338D01*
X922092Y209643D01*
X922971Y209904D01*
X923862Y210118D01*
X924762Y210285D01*
X925671Y210404D01*
X926584Y210476D01*
X927500Y210500D01*
X928416Y210476D01*
D02*
G37*
G36*
Y296476D02*
X929329Y296404D01*
X930238Y296285D01*
X931139Y296118D01*
X932029Y295904D01*
X932908Y295644D01*
X933771Y295338D01*
X934618Y294987D01*
X935445Y294593D01*
X936250Y294155D01*
X937031Y293677D01*
X937786Y293158D01*
X938513Y292600D01*
X939210Y292005D01*
X939874Y291374D01*
X940505Y290710D01*
X941100Y290013D01*
X941658Y289286D01*
X942177Y288531D01*
X942655Y287750D01*
X943093Y286945D01*
X943487Y286118D01*
X943838Y285271D01*
X944144Y284408D01*
X944404Y283529D01*
X944618Y282638D01*
X944784Y281738D01*
X944904Y280829D01*
X944976Y279916D01*
X945000Y279000D01*
X944976Y278084D01*
X944904Y277171D01*
X944784Y276262D01*
X944618Y275362D01*
X944404Y274471D01*
X944144Y273592D01*
X943838Y272729D01*
X943487Y271882D01*
X943093Y271055D01*
X942655Y270250D01*
X942177Y269469D01*
X941658Y268714D01*
X941100Y267987D01*
X940505Y267290D01*
X939874Y266626D01*
X939210Y265995D01*
X938513Y265400D01*
X937786Y264842D01*
X937031Y264323D01*
X936250Y263845D01*
X935445Y263407D01*
X934618Y263013D01*
X933771Y262662D01*
X932908Y262356D01*
X932029Y262096D01*
X931139Y261882D01*
X930238Y261716D01*
X929329Y261596D01*
X928416Y261524D01*
X927500Y261500D01*
X926584Y261524D01*
X925671Y261596D01*
X924762Y261716D01*
X923862Y261882D01*
X922971Y262096D01*
X922092Y262356D01*
X921229Y262662D01*
X920382Y263013D01*
X919555Y263407D01*
X918750Y263845D01*
X917969Y264323D01*
X917214Y264842D01*
X916487Y265400D01*
X915790Y265995D01*
X915126Y266626D01*
X914495Y267290D01*
X913900Y267987D01*
X913342Y268714D01*
X912823Y269469D01*
X912345Y270250D01*
X911907Y271055D01*
X911513Y271882D01*
X911162Y272729D01*
X910856Y273592D01*
X910596Y274471D01*
X910382Y275362D01*
X910216Y276262D01*
X910096Y277171D01*
X910024Y278084D01*
X910000Y279000D01*
X910024Y279916D01*
X910096Y280829D01*
X910216Y281738D01*
X910382Y282638D01*
X910596Y283529D01*
X910856Y284408D01*
X911162Y285271D01*
X911513Y286118D01*
X911907Y286945D01*
X912345Y287750D01*
X912823Y288531D01*
X913342Y289286D01*
X913900Y290013D01*
X914495Y290710D01*
X915126Y291374D01*
X915790Y292005D01*
X916487Y292600D01*
X917214Y293158D01*
X917969Y293677D01*
X918750Y294155D01*
X919555Y294593D01*
X920382Y294987D01*
X921229Y295338D01*
X922092Y295644D01*
X922971Y295904D01*
X923862Y296118D01*
X924762Y296285D01*
X925671Y296404D01*
X926584Y296476D01*
X927500Y296500D01*
X928416Y296476D01*
D02*
G37*
D11*
X0Y285000D02*
Y385000D01*
X80000D01*
X0Y0D02*
X153750D01*
X0D02*
Y94750D01*
X250Y95000D02*
X80000D01*
Y285000D01*
X153750Y0D02*
Y198750D01*
X0Y285000D02*
X79750D01*
X80000Y385000D02*
Y464750D01*
X80250D02*
X870250D01*
X153750Y198750D02*
X771750D01*
X870250Y385250D02*
Y464750D01*
X870500Y385000D02*
X1040000D01*
X771750Y-80000D02*
Y198750D01*
X1040000Y-250D02*
Y385000D01*
X960250Y-250D02*
X1040000D01*
X960250Y-79750D02*
Y-250D01*
X771750Y-80000D02*
X960000D01*
M02*
