G04*
G04 #@! TF.GenerationSoftware,Altium Limited,Altium Designer,19.1.9 (167)*
G04*
G04 Layer_Physical_Order=1*
G04 Layer_Color=5201134*
%FSLAX44Y44*%
%MOMM*%
G71*
G01*
G75*
%ADD14C,0.3000*%
%ADD15C,0.6000*%
%ADD16C,0.4000*%
%ADD57R,0.6000X0.6000*%
%ADD58R,0.6000X0.6000*%
%ADD59R,0.4000X0.5000*%
%ADD60O,1.4000X0.3000*%
G04:AMPARAMS|DCode=61|XSize=1.55mm|YSize=0.6mm|CornerRadius=0.3mm|HoleSize=0mm|Usage=FLASHONLY|Rotation=270.000|XOffset=0mm|YOffset=0mm|HoleType=Round|Shape=RoundedRectangle|*
%AMROUNDEDRECTD61*
21,1,1.5500,0.0000,0,0,270.0*
21,1,0.9500,0.6000,0,0,270.0*
1,1,0.6000,0.0000,-0.4750*
1,1,0.6000,0.0000,0.4750*
1,1,0.6000,0.0000,0.4750*
1,1,0.6000,0.0000,-0.4750*
%
%ADD61ROUNDEDRECTD61*%
%ADD62R,1.2500X1.0000*%
%ADD63R,0.5000X0.4000*%
%ADD64R,1.1000X0.6000*%
%ADD65R,0.5000X1.0000*%
%ADD66R,1.0000X1.2500*%
%ADD67R,0.3500X0.3000*%
%ADD68R,0.3000X0.3500*%
%ADD69R,0.9100X1.2200*%
%ADD70R,1.4000X1.4000*%
%ADD71R,1.1000X1.8000*%
%ADD72P,0.8485X4X90.0*%
%ADD73P,0.8485X4X360.0*%
%ADD74O,0.3000X1.4000*%
%ADD75R,1.5000X2.4000*%
%ADD76R,0.8500X0.4500*%
%ADD77O,2.5000X0.7000*%
%ADD78O,0.7000X2.5000*%
%ADD79R,1.0000X0.5500*%
%ADD80R,1.1000X1.0000*%
%ADD81R,3.0000X1.0000*%
%ADD82R,1.2000X1.7500*%
%ADD83R,0.6000X1.1000*%
%ADD84O,1.3500X0.4500*%
%ADD85R,1.0500X1.0000*%
%ADD86R,2.2000X1.0500*%
%ADD87R,1.2000X1.6000*%
%ADD88R,1.8000X1.3000*%
%ADD89C,0.5000*%
%ADD90C,1.0000*%
%ADD91C,0.8000*%
%ADD92C,0.1950*%
%ADD93C,1.3000*%
%ADD94P,1.9483X8X112.5*%
%ADD95C,1.8000*%
%ADD96C,2.0000*%
%ADD97R,2.0000X2.0000*%
%ADD98R,2.0000X2.0000*%
%ADD99C,5.1000*%
%ADD100C,0.8000*%
%ADD101C,0.5000*%
G36*
X785000Y460102D02*
X784992Y432992D01*
X784992Y432992D01*
X784992Y432397D01*
X784536Y431297D01*
X783695Y430456D01*
X782595Y430000D01*
X757999Y430000D01*
X757402Y429999D01*
X756299Y430456D01*
X755455Y431300D01*
X754999Y432403D01*
X755000Y433000D01*
X736583Y433000D01*
X735402Y433000D01*
Y433000D01*
X735000D01*
X734750Y432000D01*
X734750Y431834D01*
Y430800D01*
X734543Y430301D01*
X733699Y429457D01*
X732597Y429000D01*
X732000Y429000D01*
X715000Y429000D01*
X715000Y429000D01*
X714935Y429000D01*
X714000Y429935D01*
X714000Y430000D01*
X714000Y432001D01*
X714000Y432001D01*
X714000Y432002D01*
X713982Y432196D01*
X713834Y432557D01*
X713834Y432558D01*
X713558Y432834D01*
X713557Y432834D01*
X713196Y432982D01*
X713000Y433000D01*
X707591Y433000D01*
X707000Y433117D01*
X706000Y434138D01*
X706000Y445000D01*
X706000Y445000D01*
X706000Y445001D01*
X705963Y445391D01*
X705666Y446113D01*
X705666Y446113D01*
X705619Y446160D01*
X705113Y446666D01*
X704500Y446918D01*
Y447000D01*
X685000D01*
Y445000D01*
X685000Y445000D01*
X685000Y437000D01*
X685000Y437000D01*
Y436602D01*
X684695Y435867D01*
X684133Y435304D01*
X683398Y435000D01*
X682000D01*
Y435000D01*
X672000D01*
Y435000D01*
X672000D01*
X672000Y435000D01*
X671805Y434981D01*
X671444Y434831D01*
X671169Y434555D01*
X671019Y434195D01*
X671000Y434000D01*
X671000Y426000D01*
X671000Y426000D01*
X671019Y425805D01*
X671168Y425444D01*
X671444Y425168D01*
X671805Y425019D01*
X672000Y425000D01*
X678000D01*
X678000Y425000D01*
X678000D01*
X679134Y424697D01*
X679697Y424134D01*
X680001Y423398D01*
X680000Y423000D01*
X680000Y408618D01*
X677659Y408152D01*
X677432Y408000D01*
X638000Y408000D01*
X628000Y408000D01*
X628000Y408000D01*
X627610Y407961D01*
X626889Y407663D01*
X626337Y407111D01*
X626038Y406390D01*
X626000Y406000D01*
X626000Y391000D01*
X626000Y391000D01*
Y389806D01*
X625086Y387601D01*
X623399Y385913D01*
X621193Y385000D01*
X597000D01*
X597000Y385000D01*
X596610Y384961D01*
X595889Y384663D01*
X595337Y384111D01*
X595038Y383390D01*
X595000Y383000D01*
Y360000D01*
X595000Y360000D01*
X595000Y359310D01*
X594731Y357958D01*
X594203Y356684D01*
X593437Y355538D01*
X592462Y354563D01*
X591316Y353797D01*
X590042Y353269D01*
X588689Y353000D01*
X588000Y353000D01*
X572858Y353000D01*
X572314Y353814D01*
X570908Y354753D01*
X569250Y355083D01*
X560250D01*
X559270Y354888D01*
X558000Y355769D01*
Y358668D01*
X558056Y358769D01*
X559270Y359612D01*
X560250Y359417D01*
X569250D01*
X570908Y359747D01*
X571287Y360000D01*
X578000D01*
X584000Y366000D01*
X584000Y402000D01*
X584000Y402000D01*
X584000Y402000D01*
X584093Y403232D01*
X584772Y404871D01*
X586197Y406297D01*
X588060Y407068D01*
X589068Y407068D01*
X609000Y407068D01*
X609000Y461000D01*
X784102Y461000D01*
X785000Y460102D01*
D02*
G37*
G36*
X866936Y385250D02*
X867189Y383982D01*
X867907Y382907D01*
X868057Y382807D01*
X868157Y382657D01*
X869232Y381939D01*
X870500Y381686D01*
X972000D01*
Y299810D01*
X971018Y299005D01*
X970500Y299108D01*
X952500D01*
X950354Y298681D01*
X948535Y297465D01*
X947319Y295646D01*
X946892Y293500D01*
X947319Y291354D01*
X948535Y289535D01*
X950354Y288319D01*
X952500Y287892D01*
X970500D01*
X971018Y287995D01*
X972000Y287190D01*
Y277810D01*
X971018Y277005D01*
X970500Y277108D01*
X952500D01*
X950354Y276681D01*
X948535Y275465D01*
X947772Y274323D01*
X946590Y274840D01*
X946600Y274886D01*
X946603Y274940D01*
X946623Y274990D01*
X946790Y275891D01*
X946789Y275945D01*
X946806Y275996D01*
X946926Y276905D01*
X946922Y276959D01*
X946937Y277011D01*
X947009Y277924D01*
X947003Y277978D01*
X947014Y278031D01*
X947038Y278947D01*
X947029Y279000D01*
X947038Y279053D01*
X947014Y279969D01*
X947003Y280022D01*
X947009Y280076D01*
X946937Y280989D01*
X946922Y281041D01*
X946926Y281095D01*
X946806Y282004D01*
X946789Y282055D01*
X946790Y282109D01*
X946623Y283010D01*
X946603Y283060D01*
X946600Y283114D01*
X946387Y284005D01*
X946364Y284055D01*
X946359Y284109D01*
X946099Y284987D01*
X946074Y285035D01*
X946066Y285089D01*
X945760Y285952D01*
X945732Y285999D01*
X945722Y286052D01*
X945371Y286898D01*
X945341Y286943D01*
X945328Y286996D01*
X944933Y287823D01*
X944901Y287866D01*
X944885Y287918D01*
X944447Y288723D01*
X944413Y288765D01*
X944394Y288815D01*
X943915Y289597D01*
X943879Y289636D01*
X943857Y289686D01*
X943338Y290441D01*
X943300Y290479D01*
X943276Y290528D01*
X942718Y291255D01*
X942677Y291290D01*
X942651Y291338D01*
X942056Y292034D01*
X942013Y292068D01*
X941984Y292113D01*
X941354Y292778D01*
X941309Y292809D01*
X941278Y292854D01*
X940613Y293484D01*
X940568Y293513D01*
X940534Y293556D01*
X939837Y294151D01*
X939790Y294177D01*
X939754Y294218D01*
X939028Y294776D01*
X938979Y294800D01*
X938941Y294838D01*
X938186Y295357D01*
X938136Y295379D01*
X938097Y295415D01*
X937316Y295894D01*
X937265Y295913D01*
X937223Y295947D01*
X936418Y296385D01*
X936366Y296401D01*
X936323Y296433D01*
X935496Y296828D01*
X935443Y296841D01*
X935398Y296871D01*
X934552Y297222D01*
X934499Y297232D01*
X934452Y297260D01*
X933588Y297566D01*
X933535Y297574D01*
X933487Y297599D01*
X932608Y297859D01*
X932555Y297864D01*
X932505Y297887D01*
X931615Y298100D01*
X931560Y298103D01*
X931510Y298123D01*
X930609Y298290D01*
X930555Y298289D01*
X930504Y298306D01*
X929595Y298426D01*
X929541Y298422D01*
X929489Y298437D01*
X928576Y298509D01*
X928522Y298503D01*
X928469Y298514D01*
X927553Y298538D01*
X927500Y298529D01*
X927447Y298538D01*
X926531Y298514D01*
X926478Y298503D01*
X926424Y298509D01*
X925511Y298437D01*
X925459Y298422D01*
X925405Y298426D01*
X924496Y298306D01*
X924445Y298289D01*
X924391Y298290D01*
X923490Y298123D01*
X923440Y298103D01*
X923385Y298100D01*
X922495Y297887D01*
X922445Y297864D01*
X922392Y297859D01*
X921513Y297599D01*
X921465Y297574D01*
X921412Y297566D01*
X920548Y297260D01*
X920501Y297232D01*
X920448Y297222D01*
X919602Y296871D01*
X919557Y296841D01*
X919504Y296828D01*
X918677Y296433D01*
X918634Y296401D01*
X918582Y296385D01*
X917777Y295947D01*
X917735Y295913D01*
X917684Y295894D01*
X916903Y295415D01*
X916864Y295379D01*
X916814Y295357D01*
X916059Y294838D01*
X916021Y294799D01*
X915972Y294776D01*
X915246Y294218D01*
X915210Y294177D01*
X915163Y294151D01*
X914466Y293556D01*
X914432Y293513D01*
X914387Y293484D01*
X913722Y292854D01*
X913691Y292809D01*
X913646Y292778D01*
X913016Y292113D01*
X912987Y292068D01*
X912944Y292034D01*
X912349Y291338D01*
X912323Y291290D01*
X912282Y291255D01*
X911724Y290528D01*
X911701Y290479D01*
X911662Y290441D01*
X911143Y289686D01*
X911121Y289636D01*
X911085Y289597D01*
X910606Y288815D01*
X910587Y288765D01*
X910553Y288723D01*
X910115Y287918D01*
X910099Y287866D01*
X910067Y287823D01*
X909672Y286996D01*
X909659Y286943D01*
X909629Y286898D01*
X909278Y286052D01*
X909268Y285999D01*
X909240Y285952D01*
X908934Y285089D01*
X908926Y285035D01*
X908901Y284987D01*
X908641Y284109D01*
X908636Y284055D01*
X908613Y284005D01*
X908400Y283114D01*
X908397Y283060D01*
X908377Y283010D01*
X908210Y282109D01*
X908211Y282055D01*
X908194Y282004D01*
X908074Y281095D01*
X908078Y281041D01*
X908063Y280989D01*
X907991Y280076D01*
X907997Y280022D01*
X907986Y279969D01*
X907962Y279053D01*
X907971Y279000D01*
X907962Y278947D01*
X907986Y278031D01*
X907997Y277978D01*
X907991Y277924D01*
X908063Y277011D01*
X908078Y276959D01*
X908074Y276905D01*
X908194Y275996D01*
X908211Y275945D01*
X908210Y275891D01*
X908377Y274990D01*
X908397Y274940D01*
X908400Y274886D01*
X908613Y273995D01*
X908636Y273946D01*
X908641Y273892D01*
X908901Y273013D01*
X908926Y272965D01*
X908934Y272912D01*
X909240Y272048D01*
X909268Y272001D01*
X909278Y271948D01*
X909629Y271102D01*
X909659Y271057D01*
X909672Y271004D01*
X910067Y270177D01*
X910099Y270134D01*
X910115Y270082D01*
X910553Y269277D01*
X910587Y269235D01*
X910606Y269184D01*
X911085Y268403D01*
X911121Y268364D01*
X911143Y268314D01*
X911662Y267559D01*
X911700Y267521D01*
X911724Y267472D01*
X912282Y266745D01*
X912323Y266710D01*
X912349Y266663D01*
X912944Y265966D01*
X912987Y265932D01*
X913016Y265887D01*
X913646Y265222D01*
X913691Y265191D01*
X913722Y265146D01*
X914387Y264516D01*
X914432Y264487D01*
X914466Y264444D01*
X915163Y263849D01*
X915210Y263823D01*
X915246Y263782D01*
X915972Y263224D01*
X916021Y263200D01*
X916059Y263162D01*
X916814Y262643D01*
X916864Y262621D01*
X916903Y262585D01*
X917684Y262106D01*
X917735Y262087D01*
X917777Y262052D01*
X918582Y261615D01*
X918634Y261599D01*
X918677Y261567D01*
X919504Y261172D01*
X919557Y261159D01*
X919602Y261129D01*
X920448Y260778D01*
X920501Y260768D01*
X920548Y260740D01*
X921412Y260434D01*
X921465Y260427D01*
X921513Y260401D01*
X922392Y260141D01*
X922446Y260136D01*
X922495Y260114D01*
X923385Y259900D01*
X923440Y259897D01*
X923490Y259877D01*
X924391Y259710D01*
X924445Y259711D01*
X924496Y259694D01*
X925405Y259574D01*
X925459Y259578D01*
X925511Y259563D01*
X926424Y259491D01*
X926478Y259497D01*
X926531Y259485D01*
X927447Y259461D01*
X927500Y259471D01*
X927553Y259461D01*
X928469Y259485D01*
X928522Y259497D01*
X928576Y259491D01*
X929489Y259563D01*
X929541Y259578D01*
X929595Y259574D01*
X930504Y259694D01*
X930555Y259711D01*
X930609Y259710D01*
X931510Y259877D01*
X931560Y259897D01*
X931615Y259900D01*
X932505Y260113D01*
X932555Y260136D01*
X932608Y260141D01*
X933487Y260401D01*
X933535Y260427D01*
X933588Y260434D01*
X934452Y260740D01*
X934499Y260768D01*
X934552Y260778D01*
X935398Y261129D01*
X935443Y261159D01*
X935496Y261172D01*
X936323Y261567D01*
X936366Y261599D01*
X936418Y261615D01*
X937223Y262052D01*
X937265Y262087D01*
X937316Y262106D01*
X938097Y262585D01*
X938136Y262621D01*
X938186Y262643D01*
X938941Y263162D01*
X938979Y263200D01*
X939028Y263224D01*
X939754Y263782D01*
X939790Y263823D01*
X939837Y263849D01*
X940534Y264444D01*
X940568Y264487D01*
X940613Y264516D01*
X941278Y265147D01*
X941309Y265191D01*
X941354Y265222D01*
X941984Y265886D01*
X942013Y265932D01*
X942056Y265966D01*
X942651Y266663D01*
X942677Y266710D01*
X942718Y266745D01*
X943276Y267472D01*
X943299Y267521D01*
X943338Y267559D01*
X943857Y268314D01*
X943879Y268364D01*
X943915Y268403D01*
X944394Y269185D01*
X944413Y269235D01*
X944447Y269277D01*
X944885Y270082D01*
X944901Y270134D01*
X944933Y270177D01*
X945328Y271004D01*
X945341Y271057D01*
X945371Y271102D01*
X945654Y271785D01*
X946892Y271500D01*
X947319Y269354D01*
X948535Y267535D01*
X949710Y266749D01*
Y265251D01*
X948535Y264465D01*
X947319Y262646D01*
X946892Y260500D01*
X947319Y258354D01*
X948535Y256535D01*
X949710Y255749D01*
Y254251D01*
X948535Y253465D01*
X947319Y251646D01*
X946892Y249500D01*
X947319Y247354D01*
X948535Y245535D01*
X949710Y244749D01*
Y243251D01*
X948535Y242465D01*
X947319Y240646D01*
X946892Y238500D01*
X947319Y236354D01*
X948535Y234535D01*
X949710Y233749D01*
Y232251D01*
X948535Y231465D01*
X947319Y229646D01*
X946892Y227500D01*
X947319Y225354D01*
X948535Y223535D01*
X949710Y222749D01*
Y221251D01*
X948535Y220465D01*
X947319Y218646D01*
X946892Y216500D01*
X947319Y214354D01*
X948535Y212535D01*
X950354Y211319D01*
X952500Y210892D01*
X970500D01*
X972646Y211319D01*
X974296Y212422D01*
X974811D01*
X976116Y211116D01*
X977439Y210232D01*
X978000Y210121D01*
Y209000D01*
X979089D01*
X979232Y208282D01*
X980116Y206959D01*
X982459Y204616D01*
X982459Y204616D01*
X983782Y203732D01*
X985343Y203422D01*
X987000D01*
Y195000D01*
X997000D01*
Y205000D01*
X996078D01*
Y205157D01*
X995768Y206718D01*
X995091Y207730D01*
X995480Y208783D01*
X995654Y209000D01*
X998000D01*
Y209000D01*
X998380Y209203D01*
X999659Y208348D01*
X1002000Y207882D01*
X1004341Y208348D01*
X1006326Y209674D01*
X1007652Y211659D01*
X1008118Y214000D01*
X1007652Y216341D01*
X1006326Y218326D01*
X1004341Y219652D01*
X1002000Y220117D01*
X999659Y219652D01*
X998380Y218797D01*
X998000Y219000D01*
Y219000D01*
X979768D01*
X979384Y219384D01*
X978061Y220268D01*
X976500Y220578D01*
X976500Y220578D01*
X974296D01*
X973290Y221251D01*
Y222749D01*
X974465Y223535D01*
X974557Y223672D01*
X978000D01*
Y223000D01*
X998000D01*
X998000Y223000D01*
Y223000D01*
X999270Y223014D01*
X1000267Y222348D01*
X1002608Y221882D01*
X1004949Y222348D01*
X1006934Y223674D01*
X1008260Y225659D01*
X1008725Y228000D01*
X1008260Y230341D01*
X1006934Y232326D01*
X1004949Y233652D01*
X1004556Y233730D01*
X1004681Y235000D01*
X1036686D01*
Y3064D01*
X960250D01*
X958982Y2811D01*
X957907Y2093D01*
X957189Y1018D01*
X956936Y-250D01*
Y-76686D01*
X775064D01*
Y198750D01*
X774811Y200018D01*
X774093Y201093D01*
X773018Y201811D01*
X771750Y202064D01*
X506885D01*
X506380Y203334D01*
X514523Y211477D01*
X515297Y212634D01*
X515569Y214000D01*
Y312000D01*
X515297Y313366D01*
X514523Y314523D01*
X500523Y328523D01*
X499366Y329297D01*
X498000Y329569D01*
X428478D01*
X427326Y330721D01*
Y332406D01*
X428596Y332791D01*
X428674Y332674D01*
X430659Y331348D01*
X433000Y330882D01*
X445000D01*
X447341Y331348D01*
X449326Y332674D01*
X450652Y334659D01*
X450800Y335406D01*
X452016Y335775D01*
X454395Y333395D01*
X456049Y332290D01*
X458000Y331902D01*
X495830D01*
X496659Y331348D01*
X499000Y330882D01*
X501341Y331348D01*
X503326Y332674D01*
X504652Y334659D01*
X505117Y337000D01*
X504652Y339341D01*
X503326Y341326D01*
X501341Y342652D01*
X499000Y343118D01*
X496659Y342652D01*
X496368Y342458D01*
X495098Y343115D01*
Y349000D01*
X495000Y349492D01*
Y354000D01*
X493819D01*
Y358300D01*
X497950D01*
Y362931D01*
X500251D01*
X500924Y361924D01*
X502909Y360598D01*
X505250Y360132D01*
X507591Y360598D01*
X509576Y361924D01*
X510902Y363909D01*
X511367Y366250D01*
X510902Y368591D01*
X509576Y370576D01*
X507591Y371902D01*
X505250Y372368D01*
X502909Y371902D01*
X500924Y370576D01*
X500585Y370069D01*
X498450D01*
Y374200D01*
X498450Y374200D01*
X498555Y375426D01*
X498819Y376750D01*
Y389000D01*
X500000D01*
Y393507D01*
X500098Y394000D01*
X500000Y394492D01*
Y399000D01*
X495493D01*
X495000Y399098D01*
X488098D01*
Y402830D01*
X488652Y403659D01*
X489118Y406000D01*
X488652Y408341D01*
X487326Y410326D01*
X485341Y411652D01*
X483000Y412118D01*
X480659Y411652D01*
X478674Y410326D01*
X477348Y408341D01*
X476883Y406000D01*
X477348Y403659D01*
X477902Y402830D01*
Y399098D01*
X458000D01*
X456049Y398710D01*
X454395Y397605D01*
X448395Y391605D01*
X447290Y389951D01*
X446902Y388000D01*
Y362000D01*
X430750D01*
Y348000D01*
X433902D01*
Y343118D01*
X433000D01*
X430659Y342652D01*
X428674Y341326D01*
X427720Y339898D01*
X426346Y339772D01*
X426244Y339803D01*
X424523Y341523D01*
X423366Y342297D01*
X422000Y342569D01*
X421000D01*
Y343500D01*
X413000D01*
Y342569D01*
X411000D01*
X409634Y342297D01*
X408520Y341552D01*
X407963Y341661D01*
X407250Y341956D01*
Y346000D01*
X390750D01*
Y332000D01*
X395431D01*
Y330478D01*
X394522Y329569D01*
X369478D01*
X368220Y330827D01*
X368706Y332000D01*
X381250D01*
Y346000D01*
X364750D01*
Y342569D01*
X362478D01*
X361523Y343523D01*
X360366Y344297D01*
X359000Y344569D01*
X356000D01*
Y346000D01*
X337213D01*
X336346Y346791D01*
X336247Y348200D01*
X361523Y373477D01*
X362297Y374634D01*
X362569Y376000D01*
Y401000D01*
X364000D01*
Y402431D01*
X367000D01*
Y401500D01*
X375000D01*
Y410500D01*
X367000D01*
Y409568D01*
X364000D01*
Y421000D01*
X363078D01*
Y434800D01*
X362768Y436361D01*
X361884Y437684D01*
X361884Y437684D01*
X357674Y441894D01*
X358491Y443867D01*
X358904Y447000D01*
X358491Y450133D01*
X357282Y453052D01*
X355359Y455559D01*
X352852Y457482D01*
X349933Y458691D01*
X346800Y459104D01*
X343667Y458691D01*
X340748Y457482D01*
X338242Y455559D01*
X336318Y453052D01*
X335109Y450133D01*
X334740Y447335D01*
X333460D01*
X333091Y450133D01*
X331882Y453052D01*
X329958Y455559D01*
X327452Y457482D01*
X324533Y458691D01*
X321400Y459104D01*
X318267Y458691D01*
X315348Y457482D01*
X312841Y455559D01*
X310918Y453052D01*
X309709Y450133D01*
X309340Y447335D01*
X308060D01*
X307691Y450133D01*
X306482Y453052D01*
X304559Y455559D01*
X302052Y457482D01*
X299133Y458691D01*
X296000Y459104D01*
X292867Y458691D01*
X289948Y457482D01*
X287442Y455559D01*
X285518Y453052D01*
X284309Y450133D01*
X283896Y447000D01*
X284309Y443867D01*
X285518Y440948D01*
X287442Y438442D01*
X289948Y436518D01*
X292867Y435309D01*
X296000Y434896D01*
X299133Y435309D01*
X301106Y436126D01*
X303922Y433311D01*
Y421000D01*
X303000D01*
Y412889D01*
X301880Y412291D01*
X301341Y412651D01*
X299000Y413117D01*
X296820Y412683D01*
X296261Y412864D01*
X295550Y413243D01*
Y425100D01*
X295117D01*
Y427000D01*
X294652Y429341D01*
X293326Y431326D01*
X291326Y433326D01*
X289341Y434652D01*
X287000Y435117D01*
X257200D01*
Y459000D01*
X233200D01*
Y449588D01*
X228329D01*
X228000Y449918D01*
Y459000D01*
X218000D01*
Y449000D01*
X218412D01*
Y448429D01*
X218761Y446673D01*
X219756Y445185D01*
X223185Y441756D01*
X224673Y440761D01*
X226429Y440412D01*
X233200D01*
Y435000D01*
X239083D01*
Y431800D01*
X239548Y429459D01*
X240874Y427474D01*
X242136Y426213D01*
X241650Y425039D01*
X210000Y425039D01*
X209602Y425039D01*
X209602Y425039D01*
X209602Y425039D01*
X209233Y424966D01*
X208822Y424884D01*
X208822Y424884D01*
X208822Y424884D01*
X208087Y424579D01*
X208086Y424579D01*
X208086Y424579D01*
X207425Y424137D01*
X207149Y423862D01*
X206950Y423563D01*
X206739Y423273D01*
X206279Y422273D01*
X206247Y422143D01*
X206184Y422026D01*
X206053Y421608D01*
X206049Y421563D01*
X206029Y421522D01*
X206028Y421521D01*
X206012Y421258D01*
X205961Y421000D01*
X205961Y419817D01*
X205961Y419817D01*
X205961Y419817D01*
X205961Y404000D01*
X205961Y403403D01*
X206116Y402623D01*
X206573Y401520D01*
X207015Y400859D01*
X207859Y400015D01*
X208520Y399573D01*
X209623Y399116D01*
X210403Y398961D01*
X211000Y398961D01*
X229412Y398961D01*
Y394000D01*
X229500Y393557D01*
Y387569D01*
X219478D01*
X218523Y388523D01*
X217366Y389297D01*
X216000Y389569D01*
X128832D01*
X128326Y390326D01*
X126341Y391652D01*
X124000Y392118D01*
X121659Y391652D01*
X119674Y390326D01*
X118348Y388341D01*
X117882Y386000D01*
X118348Y383659D01*
X119674Y381674D01*
X121659Y380348D01*
X124000Y379883D01*
X126341Y380348D01*
X128326Y381674D01*
X128832Y382431D01*
X214522D01*
X215477Y381477D01*
X216634Y380703D01*
X218000Y380431D01*
X241250D01*
X249431Y372250D01*
Y360000D01*
X249703Y358634D01*
X250477Y357477D01*
X251634Y356703D01*
X253000Y356431D01*
X254366Y356703D01*
X255500Y357461D01*
X256634Y356703D01*
X258000Y356431D01*
X258061Y356444D01*
X258561Y355532D01*
X258632Y355262D01*
X257348Y353341D01*
X256882Y351000D01*
X257348Y348659D01*
X258674Y346674D01*
X260659Y345348D01*
X263000Y344883D01*
X265341Y345348D01*
X267326Y346674D01*
X268652Y348659D01*
X269118Y351000D01*
X268940Y351893D01*
X270523Y353477D01*
X271410Y353564D01*
X273064Y351911D01*
X272882Y351000D01*
X273348Y348659D01*
X274674Y346674D01*
X276659Y345348D01*
X279000Y344883D01*
X281341Y345348D01*
X283326Y346674D01*
X284652Y348659D01*
X284853Y349668D01*
X286147D01*
X286348Y348659D01*
X287674Y346674D01*
X289659Y345348D01*
X292000Y344883D01*
X294341Y345348D01*
X296326Y346674D01*
X296832Y347431D01*
X318000D01*
X318161Y347463D01*
X319431Y346421D01*
Y344569D01*
X307000D01*
X305634Y344297D01*
X304477Y343523D01*
X303703Y342366D01*
X303431Y341000D01*
X303703Y339634D01*
X304461Y338500D01*
X303703Y337366D01*
X303431Y336000D01*
X303703Y334634D01*
X304461Y333500D01*
X303703Y332366D01*
X303431Y331000D01*
X303703Y329634D01*
X304461Y328500D01*
X303703Y327366D01*
X303431Y326000D01*
X303703Y324634D01*
X304461Y323500D01*
X303703Y322366D01*
X303431Y321000D01*
X303703Y319634D01*
X304461Y318500D01*
X303703Y317366D01*
X303431Y316000D01*
X303703Y314634D01*
X304461Y313500D01*
X303703Y312366D01*
X303431Y311000D01*
X303703Y309634D01*
X304461Y308500D01*
X303703Y307366D01*
X303431Y306000D01*
X303703Y304634D01*
X304461Y303500D01*
X303703Y302366D01*
X303431Y301000D01*
X303444Y300939D01*
X302532Y300439D01*
X302262Y300368D01*
X300341Y301652D01*
X298000Y302118D01*
X295659Y301652D01*
X293674Y300326D01*
X292348Y298341D01*
X291882Y296000D01*
X292348Y293659D01*
X293674Y291674D01*
X295042Y290760D01*
X295425Y289671D01*
X295262Y289202D01*
X294703Y288366D01*
X294431Y287000D01*
Y281500D01*
Y273500D01*
X294703Y272134D01*
X295477Y270977D01*
X296634Y270203D01*
X298000Y269931D01*
X304086D01*
X305452Y270203D01*
X306609Y270977D01*
X307383Y272134D01*
X307654Y273500D01*
Y277479D01*
X308694Y278235D01*
X309464Y277464D01*
X316536Y284536D01*
X309910Y291161D01*
X310436Y292431D01*
X321522D01*
X326432Y287522D01*
Y277478D01*
X315477Y266523D01*
X314703Y265366D01*
X314617Y264931D01*
X313000D01*
Y256890D01*
X311880Y256291D01*
X311341Y256651D01*
X309000Y257117D01*
X306658Y256651D01*
X306501Y256546D01*
X291569Y271478D01*
Y281500D01*
Y287000D01*
X291297Y288366D01*
X290523Y289523D01*
X289366Y290297D01*
X288000Y290569D01*
X286634Y290297D01*
X285500Y289539D01*
X284366Y290297D01*
X283000Y290569D01*
X281634Y290297D01*
X280500Y289539D01*
X279366Y290297D01*
X278000Y290569D01*
X276634Y290297D01*
X275500Y289539D01*
X274366Y290297D01*
X273000Y290569D01*
X271634Y290297D01*
X270500Y289539D01*
X269366Y290297D01*
X268000Y290569D01*
X266634Y290297D01*
X265500Y289539D01*
X264366Y290297D01*
X263000Y290569D01*
X261634Y290297D01*
X260500Y289539D01*
X259366Y290297D01*
X258000Y290569D01*
X256634Y290297D01*
X255500Y289539D01*
X254366Y290297D01*
X253000Y290569D01*
X251634Y290297D01*
X250500Y289539D01*
X249366Y290297D01*
X248000Y290569D01*
X246634Y290297D01*
X245500Y289539D01*
X244366Y290297D01*
X243000Y290569D01*
X242523Y291768D01*
X242569Y292000D01*
Y307364D01*
X242297Y308730D01*
X241523Y309887D01*
X237887Y313523D01*
X236730Y314297D01*
X235364Y314569D01*
X223000D01*
X221634Y314297D01*
X220477Y313523D01*
X219703Y312366D01*
X219431Y311000D01*
X219464Y310839D01*
X218421Y309569D01*
X210478D01*
X207523Y312523D01*
X206366Y313297D01*
X205000Y313569D01*
X199780D01*
X199645Y313938D01*
X199568Y314839D01*
X200523Y315477D01*
X202478Y317431D01*
X234000D01*
X235366Y317703D01*
X236523Y318477D01*
X237297Y319634D01*
X237569Y321000D01*
X237297Y322366D01*
X236539Y323500D01*
X237297Y324634D01*
X237569Y326000D01*
X237297Y327366D01*
X236539Y328500D01*
X237297Y329634D01*
X237569Y331000D01*
X237297Y332366D01*
X236539Y333500D01*
X237297Y334634D01*
X237569Y336000D01*
X237297Y337366D01*
X236539Y338500D01*
X237297Y339634D01*
X237569Y341000D01*
X237297Y342366D01*
X236539Y343500D01*
X237297Y344634D01*
X237569Y346000D01*
X237297Y347366D01*
X236539Y348500D01*
X237297Y349634D01*
X237500Y350657D01*
X238464Y351115D01*
X238796Y351157D01*
X239894Y350059D01*
X239883Y350000D01*
X240348Y347659D01*
X241674Y345674D01*
X243659Y344348D01*
X246000Y343882D01*
X248341Y344348D01*
X250326Y345674D01*
X251652Y347659D01*
X252118Y350000D01*
X251652Y352341D01*
X250326Y354326D01*
X248341Y355652D01*
X246000Y356118D01*
X245951Y356108D01*
X245325Y357278D01*
X245523Y357477D01*
X246297Y358634D01*
X246569Y360000D01*
Y371000D01*
X246297Y372366D01*
X245523Y373523D01*
X244366Y374297D01*
X243000Y374568D01*
X242775Y374719D01*
X242651Y375340D01*
X241325Y377325D01*
X239341Y378651D01*
X236999Y379117D01*
X234658Y378651D01*
X232674Y377325D01*
X231348Y375340D01*
X230882Y372999D01*
X231348Y370658D01*
X232674Y368674D01*
X233395Y368191D01*
X233556Y366556D01*
X229236Y362236D01*
X228326Y362326D01*
X226494Y363550D01*
X226340Y364322D01*
X225567Y365480D01*
X224409Y366254D01*
X223043Y366525D01*
X221000D01*
Y368000D01*
X211000D01*
Y358000D01*
X212432D01*
Y354411D01*
X212199Y354183D01*
X211161Y353765D01*
X210367Y354295D01*
X209002Y354567D01*
X197998D01*
Y361998D01*
X197608D01*
X196569Y363000D01*
Y367000D01*
X198000D01*
Y377000D01*
X188000D01*
Y367000D01*
X189431D01*
Y364478D01*
X188477Y363523D01*
X187703Y362366D01*
X187630Y361998D01*
X182999D01*
Y339998D01*
X181907Y339569D01*
X174090D01*
X172998Y339998D01*
Y361998D01*
X169569D01*
Y362000D01*
X169297Y363366D01*
X168523Y364523D01*
X167569Y365478D01*
Y367000D01*
X169000D01*
Y377000D01*
X159000D01*
Y367000D01*
X160431D01*
Y364000D01*
X160577Y363268D01*
X159717Y361998D01*
X157999D01*
Y339998D01*
X161431D01*
Y339000D01*
X161703Y337634D01*
X162477Y336477D01*
X164076Y334877D01*
X163761Y333839D01*
X163567Y333590D01*
X161674Y332326D01*
X160348Y330341D01*
X159882Y328000D01*
X160348Y325659D01*
X161674Y323674D01*
X163659Y322348D01*
X166000Y321883D01*
X168341Y322348D01*
X169620Y323203D01*
X170000Y323000D01*
Y323000D01*
X179097D01*
X179776Y321730D01*
X178848Y320341D01*
X178382Y318000D01*
X178848Y315659D01*
X179396Y314839D01*
X178717Y313569D01*
X155000D01*
Y322500D01*
X147000D01*
Y313569D01*
X137000D01*
X135634Y313297D01*
X134477Y312523D01*
X121977Y300023D01*
X121203Y298866D01*
X120931Y297500D01*
Y229898D01*
X119661Y229513D01*
X118701Y230951D01*
X116716Y232277D01*
X114375Y232743D01*
X112034Y232277D01*
X110240Y231078D01*
X103000D01*
X102606Y231000D01*
X98500D01*
Y223268D01*
X97116Y221884D01*
X96232Y220561D01*
X95922Y219000D01*
X95179Y218000D01*
X95000D01*
Y208000D01*
X95000Y208000D01*
X95000D01*
X94668Y207439D01*
X93326Y207326D01*
X91341Y208652D01*
X89000Y209118D01*
X86659Y208652D01*
X84674Y207326D01*
X84584Y207190D01*
X83314Y207575D01*
Y285000D01*
X83061Y286268D01*
X82343Y287343D01*
X81268Y288061D01*
X80000Y288314D01*
X79875Y288289D01*
X79750Y288314D01*
X3314D01*
Y381686D01*
X80000D01*
X81268Y381939D01*
X82343Y382657D01*
X83061Y383732D01*
X83314Y385000D01*
Y461436D01*
X605872D01*
X606961Y460166D01*
Y452588D01*
X582929D01*
X581173Y452239D01*
X579685Y451244D01*
X576756Y448315D01*
X575761Y446827D01*
X575412Y445071D01*
Y422901D01*
X570099Y417588D01*
X556000D01*
Y418000D01*
X546000D01*
Y428000D01*
X536000D01*
Y421588D01*
X535000D01*
X533244Y421239D01*
X531756Y420244D01*
X528756Y417244D01*
X527761Y415756D01*
X527412Y414000D01*
Y400366D01*
X526500Y399618D01*
X524159Y399152D01*
X522174Y397826D01*
X520848Y395841D01*
X520382Y393500D01*
X520848Y391159D01*
X522174Y389174D01*
X524159Y387848D01*
X526500Y387383D01*
X528841Y387848D01*
X529670Y388402D01*
X534330D01*
X535159Y387848D01*
X537500Y387383D01*
X539841Y387848D01*
X541826Y389174D01*
X543152Y391159D01*
X543618Y393500D01*
X543152Y395841D01*
X541826Y397826D01*
X539841Y399152D01*
X537500Y399618D01*
X536588Y400366D01*
Y408000D01*
X555678D01*
X556168Y406800D01*
X555925Y406637D01*
X555925Y406637D01*
X555362Y406075D01*
X554920Y405413D01*
X554920Y405413D01*
X554616Y404678D01*
X554461Y403898D01*
X554461Y380500D01*
X544500D01*
X544500Y380500D01*
Y380500D01*
X543230Y380058D01*
X542341Y380652D01*
X540000Y381118D01*
X537659Y380652D01*
X535674Y379326D01*
X534348Y377341D01*
X533882Y375000D01*
X534348Y372659D01*
X535674Y370674D01*
X537659Y369348D01*
X540000Y368882D01*
X542341Y369348D01*
X543411Y370063D01*
X544316Y370426D01*
X545422Y369773D01*
Y366500D01*
X545422Y366500D01*
X545732Y364939D01*
X546616Y363616D01*
X549271Y360962D01*
X550594Y360078D01*
X552154Y359767D01*
X552155Y359767D01*
X554918D01*
X555216Y359610D01*
X555542Y359300D01*
X555961Y358668D01*
Y357472D01*
X555917Y357250D01*
X555961Y357028D01*
Y355769D01*
X555997Y355589D01*
X555993Y355406D01*
X556073Y355203D01*
X556116Y354989D01*
X556218Y354836D01*
X556285Y354666D01*
X556437Y354509D01*
X556558Y354327D01*
X556711Y354225D01*
X556838Y354094D01*
X558108Y353213D01*
X558124Y353205D01*
X558137Y353193D01*
X558489Y353047D01*
X558838Y352896D01*
X558856Y352895D01*
X558872Y352888D01*
X559253D01*
X559633Y352882D01*
X559650Y352888D01*
X559668D01*
X560031Y352960D01*
X560250Y352917D01*
X569250D01*
X569470Y352960D01*
X570113Y352832D01*
X570844Y352344D01*
X571162Y351867D01*
X571305Y351725D01*
X571416Y351558D01*
X571583Y351446D01*
X571725Y351304D01*
X571911Y351228D01*
X572078Y351116D01*
X572275Y351077D01*
X572460Y351000D01*
X572661D01*
X572858Y350961D01*
X587118Y350961D01*
X587644Y349691D01*
X586977Y349023D01*
X586203Y347866D01*
X585931Y346500D01*
Y336500D01*
X584500D01*
Y326500D01*
X594230D01*
X594500Y326500D01*
X595500Y325848D01*
Y316500D01*
X605500D01*
Y316500D01*
X606500Y316500D01*
Y316500D01*
X614619D01*
X615515Y315600D01*
X615444Y294078D01*
X564189D01*
X553078Y305189D01*
Y333000D01*
X553078Y333000D01*
X552768Y334561D01*
X551884Y335884D01*
X551884Y335884D01*
X546884Y340884D01*
X545561Y341768D01*
X544000Y342078D01*
X544000Y342078D01*
X539000D01*
Y343000D01*
X529000D01*
Y334270D01*
X529000Y333000D01*
X519000D01*
Y323000D01*
X527730D01*
X529000Y323000D01*
X529000Y321730D01*
Y313000D01*
X528348Y312000D01*
X519000D01*
Y302000D01*
X520431D01*
Y278832D01*
X519674Y278326D01*
X518348Y276341D01*
X517882Y274000D01*
X518348Y271659D01*
X519674Y269674D01*
X521659Y268348D01*
X524000Y267882D01*
X526341Y268348D01*
X528326Y269674D01*
X529652Y271659D01*
X530117Y274000D01*
X529652Y276341D01*
X528326Y278326D01*
X527569Y278832D01*
Y302000D01*
X539000D01*
Y312000D01*
X539000D01*
Y313000D01*
X539000D01*
Y323000D01*
X539000Y323000D01*
X539000D01*
Y333922D01*
X542311D01*
X544922Y331311D01*
Y303500D01*
X544922Y303500D01*
X545232Y301939D01*
X546116Y300616D01*
X559616Y287116D01*
X559616Y287116D01*
X560939Y286232D01*
X562500Y285922D01*
X562500Y285922D01*
X614517D01*
X615414Y285022D01*
X615259Y238721D01*
X615257Y238060D01*
X615295Y237863D01*
X615295Y237661D01*
X615549Y236365D01*
X615625Y236179D01*
X615664Y235982D01*
X616167Y234760D01*
X616278Y234592D01*
X616355Y234406D01*
X617086Y233306D01*
X617228Y233164D01*
X617340Y232996D01*
X618272Y232061D01*
X618439Y231948D01*
X618582Y231806D01*
X619679Y231071D01*
X619865Y230993D01*
X620032Y230881D01*
X621252Y230375D01*
X621449Y230336D01*
X621635Y230258D01*
X622931Y230000D01*
X623132Y230000D01*
X623330Y229961D01*
X623990Y229961D01*
X738377Y229961D01*
X738863Y228787D01*
X738116Y228041D01*
X737232Y226718D01*
X736922Y225157D01*
X736000Y225000D01*
Y224078D01*
X733000D01*
Y225000D01*
X723000D01*
Y215403D01*
X722175Y214821D01*
X721730Y214724D01*
X720341Y215652D01*
X718000Y216118D01*
X715659Y215652D01*
X713674Y214326D01*
X712348Y212341D01*
X711882Y210000D01*
X712348Y207659D01*
X713674Y205674D01*
X715659Y204348D01*
X718000Y203883D01*
X720341Y204348D01*
X721730Y205276D01*
X723000Y205000D01*
Y205000D01*
X733000D01*
Y215922D01*
X736000D01*
Y215000D01*
X746000D01*
Y223422D01*
X750500D01*
Y222500D01*
X765500D01*
Y229558D01*
X766403Y230451D01*
X766747Y230447D01*
X766758Y230449D01*
X766769Y230447D01*
X767150Y230522D01*
X767529Y230593D01*
X767539Y230599D01*
X767550Y230602D01*
X768396Y230952D01*
X768396Y230952D01*
X768397Y230952D01*
X768754Y231191D01*
X769058Y231394D01*
X769058Y231394D01*
X769058Y231394D01*
X770606Y232942D01*
X770606Y232942D01*
X770606Y232942D01*
X770843Y233297D01*
X771048Y233603D01*
X771048Y233603D01*
X771048Y233604D01*
X771885Y235626D01*
X771885Y235626D01*
X771885Y235627D01*
X771964Y236026D01*
X772040Y236406D01*
X772040Y236407D01*
X772040Y236407D01*
X772039Y237501D01*
X772039Y265000D01*
X772039Y325000D01*
X772039Y325001D01*
Y325003D01*
X772013Y325134D01*
X772021Y325267D01*
X771869Y326430D01*
X771784Y326683D01*
X771732Y326944D01*
X771276Y328046D01*
X771276Y328046D01*
X771276Y328046D01*
X771034Y328408D01*
X770834Y328708D01*
X770834Y328708D01*
X770834Y328708D01*
X770312Y329230D01*
X770838Y330500D01*
X771500D01*
Y340500D01*
X756500D01*
Y339328D01*
X753000D01*
Y340000D01*
X743000D01*
Y339078D01*
X741000D01*
Y340000D01*
X731000D01*
Y330000D01*
Y320078D01*
X713689D01*
X713078Y320689D01*
Y350500D01*
X714000D01*
Y365500D01*
X704000D01*
Y350500D01*
X704922D01*
Y342595D01*
X704500Y341500D01*
X694500D01*
Y341500D01*
X693629Y341139D01*
X692884Y341884D01*
X691561Y342768D01*
X690000Y343078D01*
Y344000D01*
X689078D01*
Y346000D01*
X690000D01*
Y356000D01*
X680039D01*
X680039Y369500D01*
X680039Y369501D01*
Y369510D01*
X680032Y369543D01*
X680038Y369575D01*
X680000Y370751D01*
X679918Y371107D01*
X679846Y371465D01*
X679047Y373396D01*
X679047Y373396D01*
X679047Y373396D01*
X678801Y373765D01*
X678605Y374057D01*
X678605Y374057D01*
X678605Y374058D01*
X677058Y375605D01*
X677058Y375605D01*
X677057Y375605D01*
X676695Y375847D01*
X676396Y376047D01*
X676396Y376047D01*
X676396Y376047D01*
X674374Y376884D01*
X674374Y376884D01*
X674374Y376884D01*
X673981Y376962D01*
X673594Y377039D01*
X673594Y377039D01*
X673594Y377039D01*
X672499Y377039D01*
X660000Y377039D01*
X622010Y377039D01*
X622010Y377039D01*
X621166Y377039D01*
X620777Y376962D01*
X620387Y376885D01*
X618826Y376240D01*
X618500Y376022D01*
X618166Y375799D01*
X616969Y374607D01*
X616747Y374276D01*
X616527Y373948D01*
X615877Y372390D01*
X615798Y372002D01*
X615719Y371611D01*
X615716Y370767D01*
X615707Y368039D01*
X613168D01*
X613070Y368020D01*
X612750Y368083D01*
X603750D01*
X603430Y368020D01*
X603331Y368039D01*
X599898D01*
X599898Y368039D01*
X599118Y367884D01*
X598456Y367442D01*
X598309Y367295D01*
X597039Y367821D01*
Y382892D01*
X597059Y382940D01*
X597108Y382961D01*
X621193D01*
X621974Y383116D01*
X621974Y383116D01*
X624179Y384030D01*
X624841Y384472D01*
X626528Y386159D01*
X626528Y386159D01*
X626970Y386821D01*
X627884Y389026D01*
X628039Y389806D01*
Y390999D01*
X628039Y391000D01*
X628039Y405892D01*
X628059Y405940D01*
X628108Y405961D01*
X638000Y405961D01*
X677432Y405961D01*
X677629Y406000D01*
X677830D01*
X678015Y406077D01*
X678212Y406116D01*
X678354Y406211D01*
X680398Y406618D01*
X680583Y406694D01*
X680780Y406734D01*
X680947Y406845D01*
X681133Y406922D01*
X681275Y407064D01*
X681442Y407175D01*
X681553Y407342D01*
X681695Y407485D01*
X681772Y407670D01*
X681884Y407837D01*
X681923Y408034D01*
X682000Y408220D01*
Y408420D01*
X682039Y408617D01*
X682039Y422994D01*
X682040Y423393D01*
X682040Y423394D01*
X682040Y423396D01*
X681974Y423730D01*
X681965Y423826D01*
X682000Y425000D01*
X682000Y425000D01*
Y426431D01*
X688000D01*
X689366Y426703D01*
X690523Y427477D01*
X692523Y429477D01*
X693297Y430634D01*
X693569Y432000D01*
X695000D01*
Y444961D01*
X703898D01*
X703942Y444942D01*
X703961Y444897D01*
X703961Y434138D01*
X704000Y433941D01*
Y432000D01*
X705240D01*
X705544Y431690D01*
X705718Y431571D01*
X705867Y431422D01*
X706043Y431349D01*
X706201Y431241D01*
X706407Y431198D01*
X706602Y431118D01*
X707193Y431000D01*
X707394D01*
X707591Y430961D01*
X711197Y430961D01*
X711833Y430115D01*
X711960Y429936D01*
X712037Y429552D01*
X712112Y429165D01*
X712114Y429160D01*
X712115Y429156D01*
X712332Y428831D01*
X712550Y428501D01*
X712555Y428498D01*
X712557Y428494D01*
X713493Y427558D01*
X713497Y427555D01*
X713500Y427551D01*
X713829Y427333D01*
X713857Y427314D01*
X713868Y427303D01*
X713883Y427297D01*
X714154Y427116D01*
X714159Y427115D01*
X714164Y427112D01*
X714480Y427051D01*
X714604Y427000D01*
X714738Y427000D01*
X714934Y426960D01*
X714939Y426961D01*
X714945Y426960D01*
X715009Y426961D01*
X732000Y426961D01*
X732597Y426961D01*
X733377Y427116D01*
X733377Y427116D01*
X733377Y427116D01*
X734480Y427573D01*
X735141Y428015D01*
X735985Y428859D01*
X736427Y429520D01*
X736634Y430020D01*
X736634Y430020D01*
X736789Y430800D01*
Y430961D01*
X753389Y430961D01*
X753570Y430521D01*
X753571Y430520D01*
X753571Y430520D01*
X753779Y430209D01*
X754012Y429859D01*
X754013Y429859D01*
X754013Y429858D01*
X754857Y429014D01*
X754858Y429013D01*
X754858Y429013D01*
X755195Y428788D01*
X755518Y428572D01*
X755519Y428571D01*
X755520Y428571D01*
X756623Y428115D01*
X756624Y428115D01*
X756625Y428114D01*
X757015Y428037D01*
X757403Y427960D01*
X757404Y427960D01*
X757405Y427960D01*
X758002Y427961D01*
X782595Y427961D01*
X783375Y428116D01*
X784475Y428572D01*
X785137Y429013D01*
X785137Y429014D01*
X785978Y429855D01*
X786420Y430517D01*
X786876Y431616D01*
X787031Y432397D01*
X787031Y432990D01*
X787031Y432991D01*
X787039Y460101D01*
X787039Y460101D01*
X787039Y460102D01*
X787026Y460166D01*
X787585Y461125D01*
X787867Y461384D01*
X787970Y461436D01*
X866936D01*
Y385250D01*
D02*
G37*
G36*
X248000Y422882D02*
X280681D01*
X281133Y422696D01*
X281695Y422133D01*
X282000Y421398D01*
X282000Y421000D01*
X282000Y412000D01*
X282000Y412000D01*
X282000Y411602D01*
X281695Y410867D01*
X281133Y410304D01*
X280398Y410000D01*
X247500Y410000D01*
X247500Y401000D01*
X236500Y401000D01*
X211000Y401000D01*
X210403Y401000D01*
X209301Y401457D01*
X208457Y402301D01*
X208000Y403403D01*
X208000Y404000D01*
X208000Y419817D01*
X208000Y421000D01*
X208000Y421001D01*
X208131Y421420D01*
X208591Y422420D01*
X208867Y422695D01*
X209602Y423000D01*
X210000Y423000D01*
X247409Y423000D01*
X248000Y422882D01*
D02*
G37*
G36*
X606961Y409107D02*
X589068Y409107D01*
X588060Y409107D01*
X587280Y408952D01*
X587280Y408952D01*
X585417Y408181D01*
X585417Y408181D01*
X585085Y407959D01*
X584755Y407738D01*
X584755Y407738D01*
X583330Y406313D01*
X583330Y406313D01*
X583150Y406044D01*
X583150Y406044D01*
X582907Y405949D01*
X582008Y405923D01*
X581669Y406028D01*
X581637Y406075D01*
X581637Y406075D01*
X581076Y406636D01*
X580965Y406710D01*
X580877Y406810D01*
X580637Y406929D01*
X580414Y407078D01*
X580284Y407104D01*
X580164Y407163D01*
X579030Y407469D01*
X578763Y407487D01*
X578500Y407539D01*
X577311Y407539D01*
X577311Y407539D01*
X577311Y407539D01*
X574417D01*
X573813Y408716D01*
X573828Y408809D01*
X575244Y409756D01*
X583244Y417756D01*
X584239Y419244D01*
X584588Y421000D01*
Y443171D01*
X584829Y443412D01*
X606961D01*
X606961Y409107D01*
D02*
G37*
G36*
X335109Y443867D02*
X336318Y440948D01*
X338242Y438442D01*
X340748Y436518D01*
X343667Y435309D01*
X346800Y434896D01*
X349933Y435309D01*
X351906Y436126D01*
X354922Y433111D01*
Y421000D01*
X354000D01*
Y411000D01*
Y401000D01*
X355431D01*
Y377478D01*
X337829Y359875D01*
X336569Y360411D01*
Y401000D01*
X338000D01*
Y401922D01*
X341000D01*
Y401500D01*
X349000D01*
Y405606D01*
X349078Y406000D01*
X349000Y406394D01*
Y410500D01*
X341000D01*
Y410078D01*
X338000D01*
Y421000D01*
X337472D01*
Y422357D01*
X337578Y422893D01*
X337578Y422893D01*
Y434900D01*
X337578Y434900D01*
X337268Y436461D01*
X336384Y437784D01*
X336384Y437784D01*
X332274Y441894D01*
X333091Y443867D01*
X333460Y446665D01*
X334740D01*
X335109Y443867D01*
D02*
G37*
G36*
X309709D02*
X310918Y440948D01*
X312841Y438442D01*
X315348Y436518D01*
X318267Y435309D01*
X321400Y434896D01*
X324533Y435309D01*
X326506Y436126D01*
X329422Y433211D01*
Y423323D01*
X329315Y422787D01*
X329315Y422787D01*
Y421000D01*
X328000D01*
Y411000D01*
Y401000D01*
X329431D01*
Y361378D01*
X326714Y358660D01*
X325336Y359078D01*
X325013Y360702D01*
X323686Y362686D01*
X321702Y364012D01*
X319361Y364478D01*
X317020Y364012D01*
X315202Y362798D01*
X309464Y368536D01*
X302839Y361910D01*
X301569Y362436D01*
Y371000D01*
Y386522D01*
X310523Y395477D01*
X311297Y396634D01*
X311569Y398000D01*
Y401000D01*
X313000D01*
Y401922D01*
X316000D01*
Y401500D01*
X324000D01*
Y405606D01*
X324078Y406000D01*
X324000Y406394D01*
Y410500D01*
X316000D01*
Y410078D01*
X313000D01*
Y421000D01*
X312078D01*
Y435000D01*
X312078Y435000D01*
X311768Y436561D01*
X310884Y437884D01*
X306874Y441894D01*
X307691Y443867D01*
X308060Y446665D01*
X309340D01*
X309709Y443867D01*
D02*
G37*
G36*
X269253Y407961D02*
X270000Y407000D01*
Y397000D01*
Y387000D01*
X271431D01*
Y384478D01*
X267742Y380789D01*
X266569Y381275D01*
Y387000D01*
X268000D01*
Y397000D01*
X258000D01*
Y395569D01*
X253478D01*
X252523Y396523D01*
X251366Y397297D01*
X250000Y397569D01*
X245500D01*
Y398961D01*
X247500D01*
X248280Y399116D01*
X248942Y399558D01*
X249384Y400220D01*
X249539Y401000D01*
X249539Y407961D01*
X269253Y407961D01*
D02*
G37*
G36*
X491681Y376750D02*
X491703Y376644D01*
X490660Y375374D01*
X484840D01*
X483797Y376644D01*
X483819Y376750D01*
Y377000D01*
X483547Y378366D01*
X482950Y379259D01*
Y379700D01*
X482509D01*
X481616Y380297D01*
X480250Y380569D01*
X476228D01*
X472523Y384273D01*
X471366Y385047D01*
X470000Y385319D01*
X467332D01*
X466826Y386076D01*
X464841Y387402D01*
X463684Y387632D01*
X463809Y388902D01*
X491681D01*
Y376750D01*
D02*
G37*
G36*
X675616Y374163D02*
X677163Y372616D01*
X677962Y370686D01*
X678000Y369510D01*
Y369500D01*
X677999Y369500D01*
X678000Y369500D01*
X678000Y269500D01*
X678086Y268622D01*
X678758Y267000D01*
X679999Y265758D01*
X681622Y265086D01*
X682500Y265000D01*
X737500Y265000D01*
X738573Y265106D01*
X740555Y265927D01*
X742073Y267444D01*
X742894Y269427D01*
X743000Y270500D01*
X743000Y270500D01*
X743000Y326196D01*
X743533Y327482D01*
X744517Y328467D01*
X745804Y329000D01*
X746500D01*
X746500Y329000D01*
X766000Y329000D01*
X766796Y329000D01*
X768266Y328392D01*
X769392Y327266D01*
X769847Y326165D01*
X770000Y325003D01*
Y325000D01*
X770000Y325000D01*
X770000Y325000D01*
X770000Y265000D01*
X770000Y237500D01*
X770001Y236406D01*
X769164Y234384D01*
X767616Y232836D01*
X766770Y232486D01*
X765500Y232500D01*
Y232500D01*
X750500D01*
Y232000D01*
X623990Y232000D01*
X623330Y232000D01*
X622034Y232258D01*
X620814Y232765D01*
X619717Y233500D01*
X618784Y234436D01*
X618052Y235536D01*
X617550Y236757D01*
X617296Y238053D01*
X617298Y238714D01*
X617706Y361000D01*
X614787D01*
X614408Y361253D01*
X612750Y361583D01*
X603750D01*
X602092Y361253D01*
X601712Y361000D01*
X599000D01*
X599000Y365102D01*
X599898Y366000D01*
X603331D01*
X603750Y365917D01*
X612750D01*
X613168Y366000D01*
X617739D01*
X617756Y370760D01*
X617758Y371604D01*
X618409Y373163D01*
X619605Y374355D01*
X621166Y375000D01*
X622010Y375000D01*
Y375000D01*
X660000Y375000D01*
X672500Y375000D01*
X673594Y375000D01*
X675616Y374163D01*
D02*
G37*
G36*
X578500Y405500D02*
X578500D01*
X579634Y405194D01*
X580195Y404633D01*
X580500Y403898D01*
X580500Y403500D01*
X580500Y380500D01*
X580499Y369499D01*
X580499Y369499D01*
X580499Y369102D01*
X580195Y368367D01*
X579632Y367804D01*
X578898Y367500D01*
X578500Y367500D01*
X571287Y367500D01*
X570908Y367753D01*
X569250Y368083D01*
X560250D01*
X559450Y367924D01*
X557248D01*
X556804Y368367D01*
X556500Y369102D01*
X556500Y369500D01*
X556500Y403898D01*
X556804Y404633D01*
X557367Y405195D01*
X558102Y405500D01*
X577311Y405500D01*
X578500Y405500D01*
D02*
G37*
G36*
X599612Y349769D02*
X599747Y349092D01*
X600686Y347686D01*
X602092Y346747D01*
X603750Y346417D01*
X607422D01*
Y337500D01*
X606500D01*
Y327770D01*
X605848Y326500D01*
X605500Y326500D01*
Y326500D01*
X595770D01*
X595500Y326500D01*
X594500Y327152D01*
Y336500D01*
X593069D01*
Y345022D01*
X598234Y350187D01*
X599612Y349769D01*
D02*
G37*
G36*
X692116Y331116D02*
X692116Y331116D01*
X693439Y330232D01*
X694500Y330021D01*
Y326500D01*
X704500D01*
X704922Y325405D01*
Y319000D01*
X704922Y319000D01*
X705232Y317439D01*
X706116Y316116D01*
X709116Y313116D01*
X709116Y313116D01*
X710439Y312232D01*
X712000Y311922D01*
X733000D01*
X733000Y311922D01*
X734561Y312232D01*
X735884Y313116D01*
X738884Y316116D01*
X738884Y316116D01*
X739024Y316326D01*
X740750Y316636D01*
X740961Y316486D01*
X740961Y270604D01*
X740894Y269928D01*
X740344Y268599D01*
X739400Y267656D01*
X738072Y267105D01*
X737400Y267039D01*
X682600Y267039D01*
X682122Y267086D01*
X681154Y267487D01*
X680487Y268155D01*
X680086Y269122D01*
X680039Y269600D01*
X680039Y315570D01*
X681309Y316248D01*
X682657Y315347D01*
X684999Y314882D01*
X687340Y315347D01*
X689324Y316674D01*
X690650Y318658D01*
X691116Y320999D01*
X690650Y323340D01*
X690000Y324314D01*
Y331573D01*
X691173Y332059D01*
X692116Y331116D01*
D02*
G37*
G36*
X405431Y305478D02*
X402022Y302069D01*
X386460D01*
X386075Y303339D01*
X387326Y304174D01*
X388652Y306159D01*
X389118Y308500D01*
X388652Y310841D01*
X387326Y312826D01*
X386075Y313661D01*
X386460Y314931D01*
X393168D01*
X393674Y314174D01*
X395659Y312848D01*
X398000Y312383D01*
X400341Y312848D01*
X402326Y314174D01*
X403652Y316159D01*
X404118Y318500D01*
X403652Y320841D01*
X402326Y322826D01*
X400733Y323890D01*
X400386Y325339D01*
X401523Y326477D01*
X402297Y327634D01*
X402569Y329000D01*
Y332000D01*
X405431D01*
Y305478D01*
D02*
G37*
G36*
X478000Y306000D02*
Y300000D01*
X487000D01*
Y292000D01*
X464978Y292000D01*
X464485Y292098D01*
X457000D01*
X456507Y292000D01*
X450270D01*
X449000Y293063D01*
X449000Y316000D01*
X478000D01*
Y306000D01*
D02*
G37*
G36*
X179800Y306044D02*
X179960Y305161D01*
X179925Y305138D01*
X179925Y305138D01*
X179925Y305137D01*
X179369Y304582D01*
X179297Y304474D01*
X179199Y304389D01*
X179078Y304146D01*
X178927Y303920D01*
X178902Y303793D01*
X178844Y303677D01*
X178533Y302536D01*
X178514Y302265D01*
X178461Y301999D01*
X178461Y286277D01*
X178450Y286212D01*
X177191Y285039D01*
X157591Y285039D01*
X157394Y285000D01*
X157193D01*
X157000Y284962D01*
X156807Y285000D01*
X156606D01*
X156409Y285039D01*
X148591D01*
X148394Y285000D01*
X148193D01*
X148000Y284962D01*
X147807Y285000D01*
X147606D01*
X147409Y285039D01*
X138000Y285039D01*
X137220Y284884D01*
X136558Y284442D01*
X136116Y283780D01*
X135961Y283000D01*
Y263500D01*
X136116Y262720D01*
X136558Y262058D01*
X137220Y261616D01*
X138000Y261461D01*
X155961Y261461D01*
X155961Y251000D01*
X156116Y250220D01*
X156558Y249558D01*
X157220Y249116D01*
X157500Y249060D01*
Y248197D01*
X157461Y248000D01*
Y240000D01*
X157616Y239220D01*
X158058Y238558D01*
X158720Y238116D01*
X159500Y237961D01*
X172931D01*
Y234000D01*
X173203Y232634D01*
X173977Y231477D01*
X177977Y227477D01*
X179134Y226703D01*
X180500Y226431D01*
X202000D01*
X203366Y226703D01*
X204523Y227477D01*
X207827Y230780D01*
X209000Y230294D01*
Y218317D01*
X208348Y217341D01*
X207882Y215000D01*
X208348Y212659D01*
X209674Y210674D01*
X210177Y210339D01*
X209791Y209069D01*
X138500D01*
X137134Y208797D01*
X135977Y208023D01*
X129339Y201385D01*
X128069Y201911D01*
Y296022D01*
X138478Y306431D01*
X179575D01*
X179800Y306044D01*
D02*
G37*
G36*
X182500Y304000D02*
X198324Y304000D01*
X199500Y304000D01*
D01*
X200651Y303678D01*
X201196Y303133D01*
X201500Y302398D01*
X201500Y302000D01*
Y260000D01*
X166500Y260000D01*
Y251000D01*
X158000Y251000D01*
X158000Y263500D01*
X138000Y263500D01*
Y283000D01*
X147409Y283000D01*
X148000Y282882D01*
X148591Y283000D01*
X156409D01*
X157000Y282882D01*
X157591Y283000D01*
X178251Y283000D01*
X179500Y283000D01*
X179500Y283000D01*
Y283000D01*
X179500Y283000D01*
X179694Y283019D01*
X180055Y283168D01*
X180055Y283168D01*
X180332Y283444D01*
X180332Y283444D01*
X180481Y283805D01*
X180500Y284000D01*
X180500Y301999D01*
X180500Y301999D01*
X180811Y303140D01*
X181367Y303696D01*
X182102Y304000D01*
X182500Y304000D01*
D02*
G37*
G36*
X494431Y307022D02*
Y281069D01*
X488500D01*
Y282500D01*
X473500D01*
X473076Y283594D01*
X472710Y285436D01*
X471605Y287090D01*
X469907Y288787D01*
X470393Y289961D01*
X487000Y289961D01*
X487780Y290116D01*
X488442Y290558D01*
X488884Y291220D01*
X489039Y292000D01*
Y300000D01*
X488884Y300780D01*
X488500Y301355D01*
Y301500D01*
X488355D01*
X487780Y301884D01*
X487000Y302039D01*
X480039D01*
Y306000D01*
X488000D01*
Y307431D01*
X494022D01*
X494431Y307022D01*
D02*
G37*
G36*
X339431Y268832D02*
Y264931D01*
X338000D01*
Y254931D01*
Y244931D01*
X339431D01*
Y227000D01*
X339703Y225634D01*
X340477Y224477D01*
X341712Y223241D01*
X341226Y222068D01*
X338979D01*
X334069Y226978D01*
Y244931D01*
X335500D01*
Y254931D01*
Y264931D01*
X335500D01*
X335201Y265654D01*
X337398Y267852D01*
X338172Y269009D01*
X339431Y268832D01*
D02*
G37*
G36*
X206477Y303477D02*
X207634Y302703D01*
X209000Y302431D01*
X218421D01*
X219464Y301161D01*
X219431Y301000D01*
X219703Y299634D01*
X220458Y298505D01*
X215476Y293523D01*
X214703Y292365D01*
X214431Y291000D01*
Y288331D01*
X213674Y287825D01*
X212348Y285840D01*
X211882Y283499D01*
X212348Y281158D01*
X213674Y279174D01*
X215659Y277848D01*
X218000Y277382D01*
X220341Y277848D01*
X222325Y279174D01*
X223652Y281158D01*
X224049Y283155D01*
X225016Y283614D01*
X225345Y283655D01*
X231277Y277723D01*
X204477Y250923D01*
X203703Y249765D01*
X203431Y248399D01*
Y236478D01*
X200522Y233569D01*
X181978D01*
X180069Y235478D01*
Y237961D01*
X181500D01*
X182280Y238116D01*
X182942Y238558D01*
X183384Y239220D01*
X183539Y240000D01*
Y256691D01*
X184067Y257588D01*
X184401Y257961D01*
X201500Y257961D01*
X202280Y258116D01*
X202942Y258558D01*
X203384Y259220D01*
X203539Y260000D01*
Y301999D01*
X203539Y302397D01*
X203539Y302397D01*
X203539Y302397D01*
X203464Y302776D01*
X203385Y303177D01*
X203384Y303177D01*
X203384Y303178D01*
X203080Y303913D01*
X203080Y303913D01*
X203080Y303914D01*
X202858Y304245D01*
X202638Y304575D01*
X202638Y304575D01*
X202638Y304575D01*
X202184Y305029D01*
X202341Y305621D01*
X202348Y305634D01*
X202758Y306247D01*
X203621Y306332D01*
X206477Y303477D01*
D02*
G37*
G36*
X181500Y240000D02*
X159500D01*
Y248000D01*
X171500D01*
Y257000D01*
X181500D01*
Y240000D01*
D02*
G37*
G36*
X420189Y329243D02*
X420461Y327877D01*
X421234Y326719D01*
X424477Y323477D01*
X425634Y322703D01*
X427000Y322431D01*
X427725D01*
X428211Y321258D01*
X427027Y320073D01*
X426253Y318916D01*
X425981Y317550D01*
Y286379D01*
X425945Y286355D01*
X424840Y284701D01*
X424452Y282750D01*
Y273250D01*
X424840Y271299D01*
X425945Y269645D01*
X427599Y268540D01*
X429550Y268152D01*
X431501Y268540D01*
X433155Y269645D01*
X434260Y271299D01*
X434648Y273250D01*
Y282750D01*
X434260Y284701D01*
X433155Y286355D01*
X433119Y286379D01*
Y316072D01*
X434478Y317431D01*
X446140D01*
X446993Y316161D01*
X446961Y316000D01*
Y310394D01*
X446883Y310000D01*
X446961Y309606D01*
X446961Y301394D01*
X446883Y301000D01*
X446961Y300606D01*
Y293063D01*
X446979Y292973D01*
X446969Y292883D01*
X447056Y292586D01*
X447116Y292283D01*
X447167Y292207D01*
X447192Y292119D01*
X447386Y291878D01*
X447558Y291621D01*
X447634Y291570D01*
X447691Y291499D01*
X448961Y290436D01*
X449232Y290288D01*
X449490Y290116D01*
X449500Y290114D01*
Y282000D01*
X456507D01*
X457000Y281902D01*
X462374D01*
X462902Y281374D01*
Y271000D01*
X463147Y269770D01*
X462246Y268500D01*
X455500D01*
Y258500D01*
X456672D01*
Y256000D01*
X446000D01*
Y254319D01*
X416750D01*
X415384Y254047D01*
X414227Y253273D01*
X411476Y250522D01*
X410702Y249365D01*
X410431Y247999D01*
Y243831D01*
X409673Y243325D01*
X408347Y241341D01*
X407882Y239000D01*
X408132Y237740D01*
X406936Y237244D01*
X406673Y237637D01*
X398787Y245523D01*
X397630Y246297D01*
X396264Y246569D01*
X386174D01*
X385688Y247742D01*
X399377Y261431D01*
X414899D01*
X416264Y261703D01*
X417422Y262476D01*
X419373Y264428D01*
X420147Y265585D01*
X420419Y266951D01*
Y269621D01*
X420455Y269645D01*
X421560Y271299D01*
X421948Y273250D01*
Y282750D01*
X421560Y284701D01*
X420455Y286355D01*
X418801Y287460D01*
X416850Y287848D01*
X414899Y287460D01*
X413245Y286355D01*
X412140Y284701D01*
X411752Y282750D01*
Y273250D01*
X412140Y271299D01*
X413116Y269838D01*
X412898Y269090D01*
X412571Y268568D01*
X408255D01*
X407884Y269838D01*
X408860Y271299D01*
X409248Y273250D01*
Y282750D01*
X408860Y284701D01*
X407755Y286355D01*
X406101Y287460D01*
X404150Y287848D01*
X402199Y287460D01*
X400545Y286355D01*
X399440Y284701D01*
X399052Y282750D01*
Y273250D01*
X399440Y271299D01*
X400416Y269838D01*
X400045Y268568D01*
X397899D01*
X396533Y268296D01*
X395376Y267523D01*
X359835Y231982D01*
X359451Y232098D01*
X358550Y232493D01*
X357325Y234325D01*
X357068Y234497D01*
Y237021D01*
X358023Y237977D01*
X358797Y239134D01*
X359069Y240500D01*
Y244931D01*
X360500D01*
Y254931D01*
Y264931D01*
X359069D01*
Y287166D01*
X358797Y288531D01*
X358023Y289689D01*
X353954Y293758D01*
X354440Y294931D01*
X403500D01*
X404866Y295203D01*
X406023Y295977D01*
X411523Y301477D01*
X412297Y302634D01*
X412569Y304000D01*
Y333409D01*
X413000Y334500D01*
X420189D01*
Y329243D01*
D02*
G37*
G36*
X494431Y253500D02*
X493000D01*
Y243500D01*
Y234500D01*
X481508D01*
X481098Y235000D01*
Y263000D01*
X480710Y264951D01*
X479605Y266605D01*
X474883Y271327D01*
X475369Y272500D01*
X488500D01*
Y273932D01*
X494431D01*
Y253500D01*
D02*
G37*
G36*
X351931Y285687D02*
Y264931D01*
X350500D01*
Y254931D01*
Y244931D01*
X351931D01*
Y241978D01*
X350976Y241023D01*
X350203Y239865D01*
X349931Y238500D01*
Y235165D01*
X348674Y234325D01*
X347839Y233076D01*
X346569Y233461D01*
Y244931D01*
X348000D01*
Y254931D01*
Y264931D01*
X346569D01*
Y289391D01*
X347742Y289877D01*
X351931Y285687D01*
D02*
G37*
G36*
X446000Y246000D02*
X456922D01*
Y244000D01*
X455500D01*
Y234000D01*
X454481Y233395D01*
X453549Y233210D01*
X451895Y232105D01*
X448388Y228598D01*
X445500D01*
X445008Y228500D01*
X440500D01*
Y223993D01*
X440402Y223500D01*
Y223098D01*
X434648D01*
Y228750D01*
X434260Y230701D01*
X433155Y232355D01*
X431501Y233460D01*
X429550Y233848D01*
X427599Y233460D01*
X425945Y232355D01*
X424840Y230701D01*
X424452Y228750D01*
Y218000D01*
X424840Y216049D01*
X425649Y214839D01*
X425070Y213569D01*
X419633D01*
X419248Y214839D01*
X420455Y215645D01*
X421560Y217299D01*
X421948Y219250D01*
Y228750D01*
X421560Y230701D01*
X420455Y232355D01*
X418801Y233460D01*
X418662Y233488D01*
X418429Y234829D01*
X419651Y236658D01*
X420117Y239000D01*
X419651Y241341D01*
X418325Y243325D01*
X417568Y243831D01*
Y246521D01*
X418228Y247181D01*
X446000D01*
Y246000D01*
D02*
G37*
G36*
X120931Y223352D02*
Y125978D01*
X89022Y94069D01*
X84078D01*
X83314Y95000D01*
Y132259D01*
X84487Y132745D01*
X85116Y132116D01*
X85116Y132116D01*
X86439Y131232D01*
X88000Y130922D01*
X89000D01*
Y123300D01*
X113000D01*
Y147300D01*
X90078D01*
Y153135D01*
X91348Y153566D01*
X92442Y152142D01*
X94948Y150218D01*
X97867Y149009D01*
X101000Y148596D01*
X104133Y149009D01*
X107052Y150218D01*
X109558Y152142D01*
X111482Y154648D01*
X112691Y157567D01*
X113104Y160700D01*
X112691Y163833D01*
X111874Y165806D01*
X113884Y167816D01*
X113884Y167816D01*
X114768Y169139D01*
X115078Y170700D01*
Y179000D01*
X116000D01*
Y189000D01*
Y199000D01*
X115078D01*
Y213000D01*
X114768Y214561D01*
X113884Y215884D01*
X112561Y216768D01*
X111000Y217078D01*
X105609D01*
X105116Y218348D01*
X105884Y219116D01*
X105884Y219116D01*
X106768Y220439D01*
X107078Y222000D01*
Y222922D01*
X109633D01*
X110049Y222299D01*
X112034Y220973D01*
X114375Y220508D01*
X116716Y220973D01*
X118701Y222299D01*
X119661Y223737D01*
X120931Y223352D01*
D02*
G37*
G36*
X479500Y229631D02*
Y224500D01*
X494500D01*
Y225931D01*
X496500D01*
X497866Y226203D01*
X499023Y226977D01*
X500523Y228477D01*
X501161Y229432D01*
X502063Y229355D01*
X502431Y229220D01*
Y219478D01*
X496522Y213569D01*
X449980D01*
X449401Y214839D01*
X450210Y216049D01*
X450598Y218000D01*
Y218422D01*
X452451Y218790D01*
X454105Y219895D01*
X457612Y223402D01*
X469500D01*
X471451Y223790D01*
X473105Y224895D01*
X478327Y230117D01*
X479500Y229631D01*
D02*
G37*
G36*
X325500Y264657D02*
Y254931D01*
Y244931D01*
X326931D01*
Y225500D01*
X327203Y224134D01*
X327977Y222977D01*
X334977Y215976D01*
X336135Y215203D01*
X337500Y214931D01*
X357763D01*
X359129Y215203D01*
X360286Y215976D01*
X372169Y227859D01*
X373155Y227049D01*
X372348Y225841D01*
X371883Y223500D01*
X372348Y221159D01*
X373674Y219174D01*
X375659Y217848D01*
X378000Y217383D01*
X380341Y217848D01*
X382326Y219174D01*
X383652Y221159D01*
X384118Y223500D01*
X383652Y225841D01*
X382326Y227826D01*
X382005Y228040D01*
X381843Y229675D01*
X386611Y234443D01*
X387881Y233917D01*
Y232379D01*
X387845Y232355D01*
X386740Y230701D01*
X386352Y228750D01*
Y219250D01*
X386740Y217299D01*
X387845Y215645D01*
X389052Y214839D01*
X388667Y213569D01*
X325478D01*
X321569Y217478D01*
Y244931D01*
X323000D01*
Y254931D01*
Y263953D01*
X324408Y265361D01*
X325500Y264657D01*
D02*
G37*
G36*
X303112Y249841D02*
X303348Y248658D01*
X304674Y246674D01*
X306536Y245429D01*
X306693Y244774D01*
X306738Y244037D01*
X305674Y243326D01*
X304348Y241341D01*
X303883Y239000D01*
X304348Y236659D01*
X305674Y234674D01*
X306431Y234168D01*
Y214478D01*
X305522Y213569D01*
X301235D01*
X301047Y213919D01*
X300688Y214839D01*
X301118Y217000D01*
X300652Y219341D01*
X299326Y221326D01*
X298569Y221832D01*
Y250000D01*
X298297Y251366D01*
X297523Y252523D01*
X286569Y263478D01*
Y264725D01*
X287742Y265211D01*
X303112Y249841D01*
D02*
G37*
G36*
X269682Y245839D02*
X269703Y245734D01*
X270477Y244576D01*
X281431Y233621D01*
Y214000D01*
X281703Y212634D01*
X282477Y211477D01*
X283711Y210242D01*
X283225Y209069D01*
X267418D01*
X267293Y210339D01*
X267341Y210348D01*
X269326Y211674D01*
X270652Y213659D01*
X271117Y216000D01*
X270915Y217018D01*
X271721Y218000D01*
X275000D01*
Y228000D01*
X265000D01*
X264000Y228652D01*
Y238000D01*
X262569D01*
Y240522D01*
X268304Y246257D01*
X269682Y245839D01*
D02*
G37*
G36*
X105000Y189000D02*
X106000Y188348D01*
Y179000D01*
X106922D01*
Y172418D01*
X105965Y171632D01*
X104133Y172391D01*
X101000Y172804D01*
X97867Y172391D01*
X94948Y171182D01*
X92442Y169258D01*
X91348Y167834D01*
X90078Y168265D01*
Y171311D01*
X91884Y173116D01*
X91884Y173116D01*
X92768Y174439D01*
X93078Y176000D01*
X93078Y176000D01*
Y179000D01*
X94000D01*
Y188348D01*
X95000Y189000D01*
X105000Y189000D01*
D02*
G37*
G36*
X151118Y200661D02*
X150689Y200018D01*
X150436Y198750D01*
Y3314D01*
X3314D01*
Y91686D01*
X22738D01*
X23224Y90513D01*
X13477Y80766D01*
X12703Y79608D01*
X12431Y78243D01*
Y16000D01*
X12703Y14634D01*
X13477Y13477D01*
X17477Y9477D01*
X18634Y8703D01*
X20000Y8431D01*
X55743D01*
X57108Y8703D01*
X58266Y9477D01*
X60023Y11234D01*
X60797Y12392D01*
X61069Y13757D01*
Y19000D01*
X80000D01*
Y20222D01*
X103825D01*
X104518Y18548D01*
X106441Y16042D01*
X108948Y14118D01*
X111867Y12909D01*
X115000Y12496D01*
X118133Y12909D01*
X121052Y14118D01*
X123559Y16042D01*
X125482Y18548D01*
X126691Y21467D01*
X127104Y24600D01*
X126691Y27733D01*
X125482Y30652D01*
X123559Y33159D01*
X121052Y35082D01*
X118133Y36291D01*
X115904Y36584D01*
X115335Y36660D01*
Y37940D01*
X115904Y38015D01*
X118133Y38309D01*
X121052Y39518D01*
X123559Y41441D01*
X125482Y43948D01*
X126691Y46867D01*
X127104Y50000D01*
X126691Y53133D01*
X125482Y56052D01*
X123559Y58559D01*
X121052Y60482D01*
X118133Y61691D01*
X115000Y62104D01*
X111867Y61691D01*
X108948Y60482D01*
X106441Y58559D01*
X104518Y56052D01*
X103309Y53133D01*
X103302Y53078D01*
X79000D01*
Y54000D01*
X62891D01*
X62292Y55120D01*
X62652Y55659D01*
X63118Y58000D01*
X62652Y60341D01*
X61326Y62326D01*
X59341Y63652D01*
X57000Y64117D01*
X54659Y63652D01*
X52674Y62326D01*
X51348Y60341D01*
X50883Y58000D01*
X51348Y55659D01*
X51708Y55120D01*
X51109Y54000D01*
X45000D01*
Y44000D01*
X51109D01*
X51708Y42880D01*
X51348Y42341D01*
X50882Y40000D01*
X51348Y37659D01*
X52674Y35674D01*
X54659Y34348D01*
X57000Y33883D01*
X59341Y34348D01*
X61326Y35674D01*
X62652Y37659D01*
X63117Y40000D01*
X62652Y42341D01*
X62292Y42880D01*
X62891Y44000D01*
X79000D01*
Y44922D01*
X104115D01*
X104518Y43948D01*
X106441Y41441D01*
X108948Y39518D01*
X111867Y38309D01*
X114096Y38015D01*
X114665Y37940D01*
Y36660D01*
X114096Y36584D01*
X111867Y36291D01*
X108948Y35082D01*
X106441Y33159D01*
X104518Y30652D01*
X103576Y28378D01*
X80000D01*
Y29000D01*
X60000D01*
Y28078D01*
X55000D01*
Y29000D01*
X45000D01*
Y19000D01*
X53931D01*
Y15569D01*
X21478D01*
X19569Y17478D01*
Y76764D01*
X29736Y86932D01*
X61846D01*
X62372Y85662D01*
X61477Y84766D01*
X60703Y83608D01*
X60431Y82243D01*
Y80000D01*
X59000D01*
Y79078D01*
X55000D01*
Y80000D01*
X45000D01*
Y70000D01*
X55000D01*
Y70922D01*
X59000D01*
Y70000D01*
X79000D01*
Y70922D01*
X103000D01*
Y63400D01*
X127000D01*
Y87400D01*
X104243D01*
X103717Y88670D01*
X133523Y118477D01*
X134297Y119634D01*
X134569Y121000D01*
Y196522D01*
X139978Y201931D01*
X150550D01*
X151118Y200661D01*
D02*
G37*
%LPC*%
G36*
X129300Y459104D02*
X126167Y458691D01*
X123248Y457482D01*
X120742Y455559D01*
X118818Y453052D01*
X117609Y450133D01*
X117316Y447904D01*
X117240Y447335D01*
X115960D01*
X115885Y447904D01*
X115591Y450133D01*
X114382Y453052D01*
X112458Y455559D01*
X109952Y457482D01*
X107033Y458691D01*
X103900Y459104D01*
X100767Y458691D01*
X97848Y457482D01*
X95342Y455559D01*
X93418Y453052D01*
X92209Y450133D01*
X91796Y447000D01*
X92209Y443867D01*
X93418Y440948D01*
X95342Y438442D01*
X97848Y436518D01*
X98902Y436082D01*
Y424000D01*
X99000Y423507D01*
Y419000D01*
X103507D01*
X104000Y418902D01*
X107940D01*
Y417000D01*
X108180Y415173D01*
X108885Y413470D01*
X110008Y412008D01*
X111470Y410886D01*
X113173Y410180D01*
X115000Y409940D01*
X116827Y410180D01*
X118530Y410886D01*
X119992Y412008D01*
X121115Y413470D01*
X121820Y415173D01*
X122060Y417000D01*
Y424000D01*
Y431000D01*
X121820Y432827D01*
X121115Y434530D01*
X119992Y435992D01*
X118530Y437114D01*
X116827Y437820D01*
X115000Y438060D01*
X113628Y437880D01*
X112900Y439017D01*
X114382Y440948D01*
X115591Y443867D01*
X115885Y446096D01*
X115960Y446665D01*
X117240D01*
X117316Y446096D01*
X117609Y443867D01*
X118818Y440948D01*
X120742Y438442D01*
X123248Y436518D01*
X126167Y435309D01*
X128922Y434946D01*
Y432000D01*
X128922Y432000D01*
X129232Y430439D01*
X130116Y429116D01*
X134922Y424311D01*
Y422000D01*
X134000D01*
Y412000D01*
Y402000D01*
X142730D01*
X144000Y402000D01*
Y402000D01*
X144000D01*
X144000Y402000D01*
X150110D01*
X150708Y400880D01*
X150348Y400341D01*
X149882Y398000D01*
X150348Y395659D01*
X151674Y393674D01*
X153659Y392348D01*
X156000Y391883D01*
X158341Y392348D01*
X160326Y393674D01*
X161652Y395659D01*
X161887Y396840D01*
X163523Y398477D01*
X164297Y399634D01*
X164469Y400500D01*
X165000D01*
Y409500D01*
X160845D01*
X160500Y409569D01*
X154000D01*
Y412000D01*
X144000D01*
X144000Y413270D01*
Y422000D01*
X143078D01*
Y426000D01*
X142768Y427561D01*
X141884Y428884D01*
X141884Y428884D01*
X137078Y433689D01*
Y437843D01*
X137858Y438442D01*
X139782Y440948D01*
X140991Y443867D01*
X141404Y447000D01*
X140991Y450133D01*
X139782Y453052D01*
X137858Y455559D01*
X135352Y457482D01*
X132433Y458691D01*
X129300Y459104D01*
D02*
G37*
G36*
X420000Y446118D02*
X417659Y445652D01*
X415674Y444326D01*
X415168Y443569D01*
X412071D01*
X410705Y443297D01*
X409548Y442523D01*
X408477Y441452D01*
X407703Y440295D01*
X407431Y438929D01*
Y435250D01*
X404250D01*
Y426750D01*
X414294D01*
X415412Y426000D01*
X415500Y425557D01*
Y416443D01*
X415412Y416000D01*
X414294Y415250D01*
X404250D01*
Y406750D01*
X416750D01*
Y407000D01*
X433250D01*
Y406750D01*
X445750D01*
Y415250D01*
X436720D01*
X435661Y416305D01*
Y416665D01*
X435750Y416750D01*
X445750D01*
Y416922D01*
X449000D01*
Y416000D01*
X459000D01*
Y426000D01*
X459000Y426000D01*
X458724Y427270D01*
X459652Y428659D01*
X460118Y431000D01*
X459652Y433341D01*
X458326Y435326D01*
X456341Y436652D01*
X454000Y437118D01*
X451659Y436652D01*
X449674Y435326D01*
X448348Y433341D01*
X447882Y431000D01*
X448348Y428659D01*
X449276Y427270D01*
X449000Y426000D01*
D01*
X448159Y425078D01*
X445750D01*
Y425250D01*
X436720D01*
X435661Y426305D01*
Y426665D01*
X435750Y426750D01*
X445750D01*
Y435250D01*
X443069D01*
Y437500D01*
X442797Y438866D01*
X442023Y440023D01*
X439524Y442523D01*
X438367Y443296D01*
X437001Y443568D01*
X434831D01*
X434325Y444325D01*
X432340Y445651D01*
X429999Y446117D01*
X427658Y445651D01*
X425673Y444325D01*
X425635Y444267D01*
X424365D01*
X424326Y444326D01*
X422341Y445652D01*
X420000Y446118D01*
D02*
G37*
G36*
X695000Y421000D02*
X685000D01*
Y406000D01*
X695000D01*
Y421000D01*
D02*
G37*
G36*
X789500Y424073D02*
X767500D01*
X766943Y424000D01*
X756500D01*
Y407000D01*
X766943D01*
X767500Y406927D01*
X785949D01*
X787066Y405809D01*
X786540Y404539D01*
X767500Y404539D01*
X767003Y404539D01*
X767003Y404539D01*
X767003Y404539D01*
X766641Y404467D01*
X766223Y404384D01*
X766222Y404384D01*
X766222Y404384D01*
X765303Y404003D01*
X764642Y403561D01*
X763939Y402858D01*
X763496Y402196D01*
X763496Y402196D01*
X763406Y401977D01*
X763375Y401821D01*
X763308Y401677D01*
X763018Y400480D01*
X763008Y400238D01*
X762961Y400000D01*
Y399060D01*
X716000D01*
Y400250D01*
X714098D01*
Y413500D01*
X714000Y413993D01*
Y421000D01*
X704000D01*
Y413993D01*
X703902Y413500D01*
Y400250D01*
X702000D01*
Y392459D01*
X701940Y392000D01*
X702000Y391541D01*
Y383750D01*
X716000D01*
Y384940D01*
X762961D01*
X762961Y357003D01*
X763116Y356222D01*
X763497Y355303D01*
X763939Y354642D01*
X763939Y354642D01*
X764642Y353939D01*
X765303Y353497D01*
X765304Y353497D01*
X766222Y353116D01*
X767003Y352961D01*
X767500D01*
X767500Y352961D01*
X782500Y352961D01*
X783280Y353116D01*
X783942Y353558D01*
X788344Y357961D01*
X802753Y357961D01*
X803500Y356691D01*
Y356404D01*
X803116Y355476D01*
X802961Y354696D01*
X802961Y354000D01*
X802961Y332108D01*
X802941Y332059D01*
X802892Y332039D01*
X782000Y332039D01*
X781220Y331884D01*
X780558Y331442D01*
X780116Y330780D01*
X779961Y330000D01*
Y321000D01*
X780116Y320220D01*
X780558Y319558D01*
X781220Y319116D01*
X782000Y318961D01*
X801723D01*
X802961Y318701D01*
X803116Y317921D01*
X803116Y317921D01*
X803344Y317370D01*
X803344Y317370D01*
X803786Y316708D01*
X804208Y316286D01*
X804870Y315844D01*
X805421Y315616D01*
X806202Y315461D01*
X819423Y315461D01*
X820461Y314430D01*
X820461Y295917D01*
X820500Y295720D01*
Y295519D01*
X820577Y295333D01*
X820616Y295136D01*
X820728Y294969D01*
X820744Y294929D01*
X821029Y293500D01*
X820817Y292438D01*
Y292237D01*
X820778Y292040D01*
X820817Y291843D01*
Y291642D01*
X820894Y291456D01*
X820933Y291259D01*
X821150Y290736D01*
X821592Y290075D01*
X822576Y289091D01*
X822576Y289091D01*
X823238Y288649D01*
X824524Y288116D01*
X825304Y287961D01*
X847500Y287961D01*
X865000Y287961D01*
X865232Y288007D01*
X865467Y288015D01*
X866624Y288288D01*
X866775Y288356D01*
X866937Y288388D01*
X867196Y288495D01*
X867197Y288496D01*
X867197Y288496D01*
X867535Y288722D01*
X867858Y288937D01*
X867858Y288937D01*
X867859Y288938D01*
X868562Y289641D01*
X868562Y289642D01*
X868563Y289642D01*
X868783Y289971D01*
X869004Y290303D01*
X869004Y290303D01*
X869005Y290304D01*
X869385Y291223D01*
X869385Y291224D01*
X869385Y291224D01*
X869461Y291609D01*
X869540Y292003D01*
X869539Y292004D01*
X869540Y292005D01*
X869539Y292502D01*
X869539Y327961D01*
X872500Y327961D01*
X873280Y328116D01*
X873942Y328558D01*
X873942Y328558D01*
X874384Y329220D01*
X874539Y330000D01*
Y332500D01*
X874539Y332500D01*
Y342500D01*
X874539Y342500D01*
X874539Y343770D01*
X874539Y354314D01*
X874539Y354315D01*
X874539Y354315D01*
X874539Y355500D01*
X874486Y355763D01*
X874469Y356031D01*
X874162Y357166D01*
X874103Y357285D01*
X874078Y357416D01*
X873928Y357639D01*
X873809Y357879D01*
X873709Y357967D01*
X873635Y358077D01*
X873075Y358638D01*
X873075Y358638D01*
X873075Y358638D01*
X872737Y358864D01*
X872414Y359080D01*
X872413Y359080D01*
X872413Y359080D01*
X871678Y359384D01*
X871677Y359384D01*
X871677Y359385D01*
X871268Y359466D01*
X870897Y359539D01*
X870897Y359539D01*
X870896Y359539D01*
X870499Y359539D01*
X816153Y359539D01*
X815860Y360245D01*
X815736Y360809D01*
X816122Y361387D01*
X816883Y363225D01*
X817039Y364005D01*
Y364997D01*
X817039Y365000D01*
X817039Y390000D01*
X817039Y390995D01*
X817039Y390995D01*
X817039Y390995D01*
X816977Y391305D01*
X816884Y391775D01*
X816884Y391775D01*
X816123Y393613D01*
X816123Y393613D01*
X816123Y393613D01*
X815844Y394030D01*
X816131Y394910D01*
X816406Y395300D01*
X829500D01*
Y419300D01*
X805500D01*
Y416073D01*
X801051D01*
X795562Y421562D01*
X793787Y422925D01*
X791719Y423781D01*
X789500Y424073D01*
D02*
G37*
G36*
X192100Y459000D02*
X168100D01*
Y435000D01*
X192100D01*
X192922Y434070D01*
Y422000D01*
X192000D01*
Y412652D01*
X191000Y412000D01*
X181000D01*
Y409569D01*
X174500D01*
X174155Y409500D01*
X170000D01*
Y400500D01*
X170531D01*
X170703Y399634D01*
X171477Y398477D01*
X172060Y397893D01*
X171882Y397000D01*
X172348Y394659D01*
X173674Y392674D01*
X175659Y391348D01*
X178000Y390882D01*
X180341Y391348D01*
X182326Y392674D01*
X183652Y394659D01*
X184118Y397000D01*
X183652Y399341D01*
X182724Y400730D01*
X183403Y402000D01*
X191000D01*
Y402000D01*
X192000D01*
Y402000D01*
X202000D01*
Y412000D01*
Y422000D01*
X201078D01*
Y446100D01*
X200768Y447661D01*
X199884Y448984D01*
X199884Y448984D01*
X198984Y449884D01*
X197661Y450768D01*
X196100Y451078D01*
X196100Y451078D01*
X192100D01*
Y459000D01*
D02*
G37*
G36*
X932000Y365235D02*
X929659Y364769D01*
X927674Y363443D01*
X926348Y361459D01*
X925882Y359118D01*
X926348Y356777D01*
X927238Y355445D01*
X927000Y355000D01*
X927000D01*
Y346270D01*
X927000Y345000D01*
X918270D01*
X917000Y345000D01*
Y345000D01*
X917000D01*
Y345000D01*
X907000D01*
X907000Y346270D01*
Y355000D01*
X907000D01*
X906762Y355445D01*
X907652Y356777D01*
X908118Y359118D01*
X907652Y361459D01*
X906326Y363443D01*
X904341Y364769D01*
X902000Y365235D01*
X899659Y364769D01*
X897674Y363443D01*
X896348Y361459D01*
X895882Y359118D01*
X896348Y356777D01*
X897238Y355445D01*
X897000Y355000D01*
X897000D01*
Y344078D01*
X894000D01*
Y344500D01*
X886000D01*
Y340394D01*
X885922Y340000D01*
X886000Y339606D01*
Y335500D01*
X894000D01*
Y335922D01*
X896284D01*
X896776Y334652D01*
X893116Y330992D01*
X892232Y329669D01*
X891922Y328108D01*
X891922Y328108D01*
Y326296D01*
X890819Y324646D01*
X890392Y322500D01*
Y304500D01*
X890819Y302354D01*
X892035Y300535D01*
X893854Y299319D01*
X896000Y298892D01*
X898146Y299319D01*
X899965Y300535D01*
X900751Y301710D01*
X902249D01*
X903035Y300535D01*
X904854Y299319D01*
X907000Y298892D01*
X909146Y299319D01*
X910965Y300535D01*
X912181Y302354D01*
X912608Y304500D01*
Y322500D01*
X912181Y324646D01*
X911652Y325437D01*
Y326922D01*
X918000D01*
X918000Y326922D01*
X919561Y327232D01*
X920884Y328116D01*
X924884Y332116D01*
X924884Y332116D01*
X925768Y333439D01*
X925965Y334432D01*
X927000Y335000D01*
X937000D01*
Y335922D01*
X940000D01*
Y335500D01*
X948000D01*
Y339606D01*
X948078Y340000D01*
X948000Y340394D01*
Y344500D01*
X940000D01*
Y344078D01*
X937000D01*
Y355000D01*
X937000D01*
X936762Y355445D01*
X937652Y356777D01*
X938118Y359118D01*
X937652Y361459D01*
X936326Y363443D01*
X934341Y364769D01*
X932000Y365235D01*
D02*
G37*
G36*
X612400Y257000D02*
X588400D01*
Y233000D01*
X612400D01*
Y257000D01*
D02*
G37*
G36*
X549600Y257104D02*
X546467Y256691D01*
X543548Y255482D01*
X541041Y253559D01*
X539118Y251052D01*
X537909Y248133D01*
X537496Y245000D01*
X537909Y241867D01*
X539118Y238948D01*
X541041Y236441D01*
X543548Y234518D01*
X546467Y233309D01*
X549600Y232896D01*
X552733Y233309D01*
X555652Y234518D01*
X558158Y236441D01*
X560082Y238948D01*
X561291Y241867D01*
X561704Y245000D01*
X561291Y248133D01*
X560082Y251052D01*
X558158Y253559D01*
X555652Y255482D01*
X552733Y256691D01*
X549600Y257104D01*
D02*
G37*
G36*
X927553Y212539D02*
X927500Y212529D01*
X927447Y212539D01*
X926531Y212514D01*
X926478Y212502D01*
X926424Y212509D01*
X925511Y212437D01*
X925459Y212422D01*
X925405Y212426D01*
X924496Y212306D01*
X924445Y212289D01*
X924391Y212290D01*
X923490Y212123D01*
X923440Y212103D01*
X923385Y212100D01*
X922495Y211887D01*
X922445Y211864D01*
X922392Y211859D01*
X921513Y211599D01*
X921465Y211574D01*
X921412Y211566D01*
X920548Y211260D01*
X920501Y211232D01*
X920448Y211222D01*
X919602Y210871D01*
X919557Y210841D01*
X919504Y210828D01*
X918677Y210433D01*
X918634Y210401D01*
X918582Y210385D01*
X917777Y209947D01*
X917735Y209913D01*
X917684Y209894D01*
X916903Y209415D01*
X916864Y209379D01*
X916814Y209357D01*
X916059Y208838D01*
X916021Y208799D01*
X915972Y208776D01*
X915246Y208218D01*
X915210Y208177D01*
X915163Y208151D01*
X914466Y207556D01*
X914432Y207513D01*
X914387Y207484D01*
X913722Y206854D01*
X913691Y206809D01*
X913646Y206778D01*
X913016Y206113D01*
X912987Y206068D01*
X912944Y206034D01*
X912349Y205338D01*
X912323Y205290D01*
X912282Y205254D01*
X911724Y204528D01*
X911701Y204479D01*
X911662Y204441D01*
X911143Y203686D01*
X911121Y203636D01*
X911085Y203597D01*
X910606Y202815D01*
X910587Y202765D01*
X910553Y202723D01*
X910115Y201918D01*
X910099Y201866D01*
X910067Y201823D01*
X909672Y200996D01*
X909659Y200943D01*
X909629Y200898D01*
X909278Y200052D01*
X909268Y199999D01*
X909240Y199952D01*
X908934Y199088D01*
X908926Y199035D01*
X908901Y198987D01*
X908641Y198109D01*
X908636Y198055D01*
X908613Y198005D01*
X908400Y197115D01*
X908397Y197060D01*
X908377Y197010D01*
X908210Y196109D01*
X908211Y196055D01*
X908194Y196004D01*
X908074Y195095D01*
X908078Y195041D01*
X908063Y194989D01*
X907991Y194076D01*
X907997Y194022D01*
X907986Y193969D01*
X907962Y193053D01*
X907971Y193000D01*
X907962Y192947D01*
X907986Y192031D01*
X907997Y191978D01*
X907991Y191924D01*
X908063Y191011D01*
X908078Y190959D01*
X908074Y190905D01*
X908194Y189996D01*
X908211Y189945D01*
X908210Y189891D01*
X908377Y188990D01*
X908397Y188940D01*
X908400Y188886D01*
X908613Y187995D01*
X908636Y187945D01*
X908641Y187892D01*
X908901Y187013D01*
X908926Y186965D01*
X908934Y186912D01*
X909240Y186048D01*
X909268Y186001D01*
X909278Y185948D01*
X909629Y185102D01*
X909659Y185057D01*
X909672Y185004D01*
X910067Y184177D01*
X910099Y184134D01*
X910115Y184082D01*
X910553Y183277D01*
X910587Y183235D01*
X910606Y183185D01*
X911085Y182403D01*
X911121Y182364D01*
X911143Y182314D01*
X911662Y181559D01*
X911700Y181521D01*
X911724Y181472D01*
X912282Y180746D01*
X912323Y180710D01*
X912349Y180662D01*
X912944Y179966D01*
X912987Y179932D01*
X913016Y179887D01*
X913646Y179222D01*
X913691Y179191D01*
X913722Y179146D01*
X914387Y178516D01*
X914432Y178487D01*
X914466Y178444D01*
X915163Y177849D01*
X915210Y177823D01*
X915246Y177782D01*
X915972Y177224D01*
X916021Y177201D01*
X916059Y177162D01*
X916814Y176643D01*
X916864Y176621D01*
X916903Y176585D01*
X917684Y176106D01*
X917735Y176087D01*
X917777Y176052D01*
X918582Y175615D01*
X918634Y175599D01*
X918677Y175567D01*
X919504Y175172D01*
X919557Y175159D01*
X919602Y175129D01*
X920448Y174778D01*
X920501Y174768D01*
X920548Y174740D01*
X921412Y174434D01*
X921465Y174426D01*
X921513Y174401D01*
X922392Y174141D01*
X922446Y174136D01*
X922495Y174113D01*
X923385Y173900D01*
X923440Y173897D01*
X923490Y173877D01*
X924391Y173710D01*
X924445Y173711D01*
X924496Y173694D01*
X925405Y173574D01*
X925459Y173578D01*
X925511Y173563D01*
X926424Y173491D01*
X926478Y173497D01*
X926531Y173486D01*
X927447Y173461D01*
X927500Y173471D01*
X927553Y173461D01*
X928469Y173486D01*
X928522Y173497D01*
X928576Y173491D01*
X929489Y173563D01*
X929541Y173578D01*
X929595Y173574D01*
X930504Y173694D01*
X930555Y173711D01*
X930609Y173710D01*
X931510Y173877D01*
X931560Y173897D01*
X931615Y173900D01*
X932505Y174113D01*
X932555Y174136D01*
X932608Y174141D01*
X933487Y174401D01*
X933535Y174426D01*
X933588Y174434D01*
X934452Y174740D01*
X934499Y174768D01*
X934552Y174778D01*
X935398Y175129D01*
X935443Y175159D01*
X935496Y175172D01*
X936323Y175567D01*
X936366Y175599D01*
X936418Y175615D01*
X937223Y176052D01*
X937265Y176087D01*
X937316Y176106D01*
X938097Y176585D01*
X938137Y176621D01*
X938186Y176643D01*
X938941Y177162D01*
X938979Y177201D01*
X939028Y177224D01*
X939754Y177782D01*
X939790Y177823D01*
X939837Y177849D01*
X940534Y178444D01*
X940568Y178487D01*
X940613Y178516D01*
X941278Y179146D01*
X941309Y179191D01*
X941354Y179222D01*
X941984Y179886D01*
X942013Y179932D01*
X942056Y179966D01*
X942651Y180662D01*
X942677Y180710D01*
X942718Y180746D01*
X943276Y181472D01*
X943299Y181521D01*
X943338Y181559D01*
X943857Y182314D01*
X943879Y182364D01*
X943915Y182403D01*
X944394Y183185D01*
X944413Y183235D01*
X944447Y183277D01*
X944885Y184082D01*
X944901Y184134D01*
X944933Y184177D01*
X945328Y185004D01*
X945341Y185057D01*
X945371Y185102D01*
X945722Y185948D01*
X945732Y186001D01*
X945760Y186048D01*
X946066Y186912D01*
X946074Y186965D01*
X946099Y187013D01*
X946359Y187892D01*
X946364Y187945D01*
X946386Y187995D01*
X946600Y188885D01*
X946603Y188940D01*
X946623Y188990D01*
X946790Y189891D01*
X946789Y189945D01*
X946806Y189996D01*
X946899Y190697D01*
X947459Y190979D01*
X947721Y191015D01*
X948212Y191018D01*
X948535Y190535D01*
X949710Y189749D01*
Y188251D01*
X948535Y187465D01*
X947319Y185646D01*
X946892Y183500D01*
X947319Y181354D01*
X948535Y179535D01*
X949710Y178749D01*
Y177251D01*
X948535Y176465D01*
X947319Y174646D01*
X946892Y172500D01*
X947319Y170354D01*
X948535Y168535D01*
X949710Y167749D01*
Y166251D01*
X948535Y165465D01*
X947319Y163646D01*
X946892Y161500D01*
X947319Y159354D01*
X948535Y157535D01*
X950354Y156319D01*
X952500Y155892D01*
X970500D01*
X972646Y156319D01*
X974465Y157535D01*
X975681Y159354D01*
X976108Y161500D01*
X975681Y163646D01*
X974465Y165465D01*
X973290Y166251D01*
Y167749D01*
X974465Y168535D01*
X975681Y170354D01*
X976108Y172500D01*
X975681Y174646D01*
X974465Y176465D01*
X973290Y177251D01*
Y178749D01*
X974465Y179535D01*
X975681Y181354D01*
X976108Y183500D01*
X975681Y185646D01*
X974465Y187465D01*
X973290Y188251D01*
Y189749D01*
X974465Y190535D01*
X975681Y192354D01*
X976108Y194500D01*
X975681Y196646D01*
X974465Y198465D01*
X972646Y199681D01*
X970500Y200108D01*
X952500D01*
X950354Y199681D01*
X948535Y198465D01*
X947834Y197416D01*
X946469Y197660D01*
X946386Y198005D01*
X946364Y198055D01*
X946359Y198108D01*
X946099Y198987D01*
X946074Y199035D01*
X946066Y199088D01*
X945760Y199952D01*
X945732Y199999D01*
X945722Y200052D01*
X945371Y200898D01*
X945341Y200943D01*
X945328Y200996D01*
X944933Y201823D01*
X944901Y201866D01*
X944885Y201918D01*
X944447Y202723D01*
X944413Y202765D01*
X944394Y202815D01*
X943915Y203597D01*
X943879Y203636D01*
X943857Y203686D01*
X943338Y204441D01*
X943300Y204479D01*
X943276Y204528D01*
X942718Y205254D01*
X942677Y205290D01*
X942651Y205338D01*
X942056Y206034D01*
X942013Y206068D01*
X941984Y206113D01*
X941354Y206778D01*
X941309Y206809D01*
X941278Y206854D01*
X940613Y207484D01*
X940568Y207513D01*
X940534Y207556D01*
X939837Y208151D01*
X939790Y208177D01*
X939754Y208218D01*
X939028Y208776D01*
X938979Y208800D01*
X938941Y208838D01*
X938186Y209357D01*
X938136Y209379D01*
X938097Y209415D01*
X937316Y209894D01*
X937265Y209913D01*
X937223Y209947D01*
X936418Y210385D01*
X936366Y210401D01*
X936323Y210433D01*
X935496Y210828D01*
X935443Y210841D01*
X935398Y210871D01*
X934552Y211222D01*
X934499Y211232D01*
X934452Y211260D01*
X933588Y211566D01*
X933535Y211574D01*
X933487Y211599D01*
X932608Y211859D01*
X932555Y211864D01*
X932505Y211887D01*
X931615Y212100D01*
X931560Y212103D01*
X931510Y212123D01*
X930609Y212290D01*
X930555Y212289D01*
X930504Y212306D01*
X929595Y212426D01*
X929541Y212422D01*
X929489Y212437D01*
X928576Y212509D01*
X928522Y212502D01*
X928469Y212514D01*
X927553Y212539D01*
D02*
G37*
G36*
X1032000Y199900D02*
X1008000D01*
Y175900D01*
X1032000D01*
Y199900D01*
D02*
G37*
G36*
X1020000Y149204D02*
X1016867Y148791D01*
X1013948Y147582D01*
X1011441Y145659D01*
X1009518Y143152D01*
X1008309Y140233D01*
X1007896Y137100D01*
X1008309Y133967D01*
X1009518Y131048D01*
X1011441Y128541D01*
X1013948Y126618D01*
X1016867Y125409D01*
X1020000Y124996D01*
X1023133Y125409D01*
X1026052Y126618D01*
X1028559Y128541D01*
X1030482Y131048D01*
X1031691Y133967D01*
X1032104Y137100D01*
X1031691Y140233D01*
X1030482Y143152D01*
X1028559Y145659D01*
X1026052Y147582D01*
X1023133Y148791D01*
X1020000Y149204D01*
D02*
G37*
G36*
X817500Y288108D02*
X799500D01*
X797354Y287681D01*
X795535Y286465D01*
X794319Y284646D01*
X793892Y282500D01*
X794319Y280354D01*
X795535Y278535D01*
X796710Y277749D01*
Y276251D01*
X795535Y275465D01*
X794319Y273646D01*
X793892Y271500D01*
X794319Y269354D01*
X795535Y267535D01*
X796710Y266749D01*
Y265251D01*
X795535Y264465D01*
X794319Y262646D01*
X793892Y260500D01*
X794319Y258354D01*
X795535Y256535D01*
X796710Y255749D01*
Y254251D01*
X795535Y253465D01*
X794319Y251646D01*
X793892Y249500D01*
X794319Y247354D01*
X795535Y245535D01*
X796710Y244749D01*
Y243251D01*
X795535Y242465D01*
X794319Y240646D01*
X793892Y238500D01*
X794319Y236354D01*
X795535Y234535D01*
X796533Y233868D01*
X796147Y232598D01*
X785515D01*
X783564Y232210D01*
X781910Y231105D01*
X778395Y227590D01*
X777290Y225936D01*
X776902Y223985D01*
Y223000D01*
X774500D01*
Y213000D01*
X781507D01*
X782000Y212902D01*
X782493Y213000D01*
X789500D01*
Y222402D01*
X796147D01*
X796533Y221132D01*
X795535Y220465D01*
X794319Y218646D01*
X793892Y216500D01*
X794319Y214354D01*
X795535Y212535D01*
X796710Y211749D01*
Y210251D01*
X795535Y209465D01*
X794319Y207646D01*
X793892Y205500D01*
X794319Y203354D01*
X795535Y201535D01*
X796710Y200749D01*
Y199251D01*
X795535Y198465D01*
X794319Y196646D01*
X793892Y194500D01*
X794319Y192354D01*
X795535Y190535D01*
X796710Y189749D01*
Y188251D01*
X795535Y187465D01*
X795270Y187069D01*
X785500D01*
X784134Y186797D01*
X782977Y186023D01*
X779477Y182523D01*
X778703Y181366D01*
X778431Y180000D01*
Y145000D01*
X778703Y143634D01*
X779477Y142477D01*
X787431Y134522D01*
Y132000D01*
X786000D01*
Y122000D01*
Y114569D01*
X784634Y114297D01*
X783477Y113523D01*
X778477Y108523D01*
X777703Y107366D01*
X777431Y106000D01*
Y9857D01*
X777703Y8492D01*
X778477Y7334D01*
X781234Y4577D01*
X782392Y3803D01*
X783757Y3531D01*
X786000D01*
Y100D01*
X789162D01*
Y-19000D01*
X789000D01*
Y-29000D01*
X789412D01*
Y-42000D01*
X789761Y-43756D01*
X790756Y-45244D01*
X805756Y-60244D01*
X807244Y-61239D01*
X809000Y-61588D01*
X892000D01*
X893756Y-61239D01*
X895244Y-60244D01*
X912244Y-43244D01*
X913239Y-41756D01*
X913588Y-40000D01*
Y-12400D01*
X917401Y-8588D01*
X945000D01*
X946756Y-8239D01*
X948244Y-7244D01*
X949239Y-5756D01*
X949588Y-4000D01*
Y17421D01*
X949829Y17662D01*
X953250D01*
X953693Y17750D01*
X960500D01*
Y27250D01*
X946500D01*
Y26554D01*
X946173Y26489D01*
X944685Y25494D01*
X941756Y22565D01*
X941270Y21839D01*
X940000Y22224D01*
Y25980D01*
X940000Y27250D01*
X940000D01*
Y27250D01*
X940000D01*
Y35480D01*
X940000Y36750D01*
X940000D01*
Y36750D01*
X940000D01*
Y46250D01*
X926918D01*
X926588Y46579D01*
Y54971D01*
X926239Y56727D01*
X925244Y58215D01*
X922565Y60894D01*
X921077Y61889D01*
X919321Y62238D01*
X919000D01*
Y64900D01*
X904588D01*
Y73000D01*
X904239Y74756D01*
X903244Y76244D01*
X883137Y96352D01*
X883298Y97987D01*
X884326Y98674D01*
X885652Y100659D01*
X886117Y103000D01*
X885652Y105341D01*
X885000Y106317D01*
Y115348D01*
X886000Y116000D01*
X896000D01*
Y116922D01*
X900000D01*
Y116500D01*
X908000D01*
Y120606D01*
X908078Y121000D01*
X908000Y121394D01*
Y125500D01*
X900000D01*
Y125078D01*
X896898D01*
X896611Y125366D01*
X896410Y125859D01*
X897106Y127112D01*
X898146Y127319D01*
X899965Y128535D01*
X900751Y129710D01*
X902249D01*
X903035Y128535D01*
X904854Y127319D01*
X907000Y126892D01*
X909146Y127319D01*
X910965Y128535D01*
X911751Y129710D01*
X913249D01*
X914035Y128535D01*
X915854Y127319D01*
X918000Y126892D01*
X920146Y127319D01*
X921965Y128535D01*
X922751Y129710D01*
X924249D01*
X925035Y128535D01*
X926854Y127319D01*
X927414Y127208D01*
X927783Y125992D01*
X922395Y120605D01*
X921290Y118951D01*
X920902Y117000D01*
Y111000D01*
X918500D01*
Y101000D01*
X925508D01*
X926000Y100902D01*
X926492Y101000D01*
X933500D01*
Y111000D01*
X931098D01*
Y114888D01*
X940112Y123902D01*
X969888D01*
X969902Y123888D01*
Y122000D01*
X966750D01*
Y108000D01*
X983250D01*
Y122000D01*
X980098D01*
Y126000D01*
X979710Y127951D01*
X978605Y129605D01*
X975605Y132605D01*
X973951Y133710D01*
X972000Y134098D01*
X938000D01*
X936049Y133710D01*
X935728Y133495D01*
X934608Y134094D01*
Y150500D01*
X934181Y152646D01*
X932965Y154465D01*
X931146Y155681D01*
X929000Y156108D01*
X926854Y155681D01*
X925035Y154465D01*
X924249Y153290D01*
X922751D01*
X921965Y154465D01*
X920146Y155681D01*
X918000Y156108D01*
X915854Y155681D01*
X914035Y154465D01*
X913249Y153290D01*
X911751D01*
X910965Y154465D01*
X909146Y155681D01*
X907000Y156108D01*
X904854Y155681D01*
X903035Y154465D01*
X902249Y153290D01*
X900751D01*
X899965Y154465D01*
X898146Y155681D01*
X896000Y156108D01*
X893854Y155681D01*
X892035Y154465D01*
X891249Y153290D01*
X889751D01*
X888965Y154465D01*
X887146Y155681D01*
X885000Y156108D01*
X882854Y155681D01*
X881035Y154465D01*
X880249Y153290D01*
X878751D01*
X877965Y154465D01*
X876146Y155681D01*
X874000Y156108D01*
X871854Y155681D01*
X870035Y154465D01*
X869368Y153467D01*
X868098Y153853D01*
Y159830D01*
X868652Y160659D01*
X869118Y163000D01*
X868652Y165341D01*
X867326Y167326D01*
X865341Y168652D01*
X863000Y169118D01*
X860659Y168652D01*
X858674Y167326D01*
X857348Y165341D01*
X856882Y163000D01*
X857348Y160659D01*
X857902Y159830D01*
Y153853D01*
X856632Y153467D01*
X855965Y154465D01*
X854146Y155681D01*
X852000Y156108D01*
X849854Y155681D01*
X848035Y154465D01*
X847249Y153290D01*
X845751D01*
X844965Y154465D01*
X843146Y155681D01*
X841000Y156108D01*
X838854Y155681D01*
X837035Y154465D01*
X835819Y152646D01*
X835392Y150500D01*
Y132500D01*
X835819Y130354D01*
X835838Y130326D01*
X829756Y124244D01*
X829661Y124103D01*
X828391Y124488D01*
Y144903D01*
X831244Y147756D01*
X832239Y149244D01*
X832588Y151000D01*
Y191000D01*
X832239Y192756D01*
X831244Y194244D01*
X827744Y197744D01*
X826256Y198739D01*
X824500Y199088D01*
X820533D01*
X820290Y199251D01*
Y200749D01*
X821465Y201535D01*
X822681Y203354D01*
X823108Y205500D01*
X822681Y207646D01*
X821465Y209465D01*
X820290Y210251D01*
Y211749D01*
X821465Y212535D01*
X822681Y214354D01*
X823108Y216500D01*
X822681Y218646D01*
X821465Y220465D01*
X820290Y221251D01*
Y222749D01*
X821465Y223535D01*
X822681Y225354D01*
X823108Y227500D01*
X822681Y229646D01*
X821465Y231465D01*
X820290Y232251D01*
Y233749D01*
X821465Y234535D01*
X822681Y236354D01*
X823108Y238500D01*
X822681Y240646D01*
X821465Y242465D01*
X820290Y243251D01*
Y244749D01*
X821465Y245535D01*
X822681Y247354D01*
X823108Y249500D01*
X822681Y251646D01*
X821465Y253465D01*
X820290Y254251D01*
Y255749D01*
X821465Y256535D01*
X822681Y258354D01*
X823108Y260500D01*
X822681Y262646D01*
X821465Y264465D01*
X820290Y265251D01*
Y266749D01*
X821465Y267535D01*
X822681Y269354D01*
X823108Y271500D01*
X822681Y273646D01*
X821465Y275465D01*
X820290Y276251D01*
Y277749D01*
X821465Y278535D01*
X822681Y280354D01*
X823108Y282500D01*
X822681Y284646D01*
X821465Y286465D01*
X819646Y287681D01*
X817500Y288108D01*
D02*
G37*
G36*
X957500Y101500D02*
X942500D01*
Y101078D01*
X939000D01*
X939000Y101078D01*
X937439Y100768D01*
X936116Y99884D01*
X936116Y99884D01*
X935116Y98884D01*
X934232Y97561D01*
X933922Y96000D01*
X933922Y96000D01*
Y88000D01*
X933000D01*
Y87078D01*
X930000D01*
Y88000D01*
X920000D01*
Y79488D01*
X918730Y78809D01*
X918591Y78902D01*
X916250Y79367D01*
X913909Y78902D01*
X911924Y77576D01*
X910598Y75591D01*
X910133Y73250D01*
X910598Y70909D01*
X911924Y68924D01*
X913909Y67598D01*
X916250Y67133D01*
X918591Y67598D01*
X919551Y68240D01*
X920000Y68000D01*
Y68000D01*
X930000D01*
Y78922D01*
X933000D01*
Y78000D01*
X943000D01*
Y88000D01*
X942078D01*
Y90405D01*
X942500Y91500D01*
X957500D01*
Y101500D01*
D02*
G37*
G36*
X983250Y102000D02*
X966750D01*
Y88000D01*
X965909Y87078D01*
X956000D01*
Y88000D01*
X946000D01*
Y78000D01*
Y68000D01*
X956000D01*
Y68000D01*
X957270Y68276D01*
X958659Y67348D01*
X961000Y66883D01*
X963341Y67348D01*
X965326Y68674D01*
X966652Y70659D01*
X967117Y73000D01*
X966652Y75341D01*
X965326Y77326D01*
X964838Y77652D01*
X965223Y78922D01*
X972000D01*
X972000Y78922D01*
X973561Y79232D01*
X974884Y80116D01*
X977884Y83116D01*
X977884Y83116D01*
X978768Y84439D01*
X979078Y86000D01*
Y88000D01*
X983250D01*
Y102000D01*
D02*
G37*
G36*
X960500Y46250D02*
X946500D01*
Y36750D01*
X960500D01*
Y46250D01*
D02*
G37*
%LPD*%
G36*
X871633Y357196D02*
X872194Y356636D01*
X872500Y355500D01*
Y355500D01*
X872500Y354314D01*
X872500Y343770D01*
X872500Y342500D01*
X872500D01*
Y332500D01*
X872500D01*
Y330000D01*
X869000Y330000D01*
X868707Y329972D01*
X868166Y329748D01*
X867752Y329334D01*
X867752Y329333D01*
X867528Y328793D01*
X867500Y328500D01*
X867500D01*
X867500Y328500D01*
X867500Y292500D01*
X867500Y292003D01*
X867120Y291083D01*
X866417Y290380D01*
X866157Y290272D01*
X865000Y290000D01*
Y290000D01*
X847500Y290000D01*
X825304Y290000D01*
X824018Y290533D01*
X823034Y291517D01*
X822817Y292040D01*
X823108Y293500D01*
X822681Y295646D01*
X822500Y295917D01*
X822500Y315000D01*
X822452Y315488D01*
X822078Y316389D01*
X821388Y317078D01*
X820487Y317451D01*
X820009Y317498D01*
X820000Y317500D01*
X820000Y317500D01*
X818774Y317500D01*
X806202Y317500D01*
X805650Y317728D01*
X805228Y318150D01*
X805000Y318701D01*
Y319000D01*
X805000Y319000D01*
X805000Y321000D01*
X782000D01*
Y330000D01*
X803000Y330000D01*
X803390Y330038D01*
X804111Y330337D01*
X804663Y330889D01*
X804961Y331610D01*
X805000Y332000D01*
X805000Y332000D01*
X805000Y354000D01*
X805000Y354696D01*
X805533Y355982D01*
X806517Y356967D01*
X807803Y357500D01*
X808500Y357500D01*
X808500Y357500D01*
X870500Y357500D01*
X870898Y357500D01*
X871633Y357196D01*
D02*
G37*
G36*
X767500Y402500D02*
X787500Y402500D01*
X787500Y402500D01*
X787500Y402500D01*
X787501D01*
X788643Y402232D01*
X788916Y402119D01*
X789619Y401416D01*
X790000Y400497D01*
X790000Y400000D01*
X790000Y397500D01*
X790048Y397012D01*
X790421Y396111D01*
X791111Y395421D01*
X792012Y395048D01*
X792500Y395000D01*
X809999Y395000D01*
X810000Y395000D01*
X810000Y395000D01*
X810005D01*
X811178Y394924D01*
X812832Y394239D01*
X814239Y392832D01*
X815000Y390995D01*
X815000Y390000D01*
X815000Y365000D01*
X814999Y365000D01*
Y364005D01*
X814238Y362168D01*
X812832Y360761D01*
X810994Y360000D01*
X787500Y360000D01*
X782500Y355000D01*
X767500Y355000D01*
X767500Y355000D01*
X767003D01*
X766084Y355381D01*
X765381Y356084D01*
X765000Y357003D01*
X765000Y400000D01*
X765000Y400000D01*
X765000Y400000D01*
X765290Y401197D01*
X765380Y401416D01*
X766084Y402119D01*
X767003Y402500D01*
X767500Y402500D01*
D02*
G37*
%LPC*%
G36*
X841000Y328108D02*
X838854Y327681D01*
X837035Y326465D01*
X835819Y324646D01*
X835392Y322500D01*
Y304500D01*
X835819Y302354D01*
X837035Y300535D01*
X838854Y299319D01*
X841000Y298892D01*
X843146Y299319D01*
X844965Y300535D01*
X846181Y302354D01*
X846608Y304500D01*
Y322500D01*
X846181Y324646D01*
X844965Y326465D01*
X843146Y327681D01*
X841000Y328108D01*
D02*
G37*
%LPD*%
G36*
X823412Y158162D02*
Y152900D01*
X820559Y150048D01*
X819564Y148559D01*
X819215Y146803D01*
Y143277D01*
X817945Y142892D01*
X817523Y143523D01*
X810523Y150523D01*
X809366Y151297D01*
X808000Y151569D01*
X798478D01*
X795569Y154478D01*
Y156165D01*
X796689Y156764D01*
X797354Y156319D01*
X799500Y155892D01*
X817500D01*
X819646Y156319D01*
X821465Y157535D01*
X822142Y158547D01*
X823412Y158162D01*
D02*
G37*
G36*
X797348Y108659D02*
X798000Y107683D01*
Y100000D01*
X808000D01*
Y107181D01*
X809061Y107610D01*
X809365Y107589D01*
X810000Y106923D01*
Y100000D01*
X819215D01*
Y98197D01*
X819564Y96441D01*
X820559Y94952D01*
X823756Y91756D01*
X825244Y90761D01*
X827000Y90412D01*
X828000D01*
Y90000D01*
X828412D01*
Y87900D01*
X827100Y86588D01*
X823000D01*
X821244Y86239D01*
X819756Y85244D01*
X816443Y81931D01*
X799343D01*
X797587Y81582D01*
X796099Y80588D01*
X790256Y74744D01*
X789261Y73256D01*
X788912Y71500D01*
Y64900D01*
X786000D01*
Y50900D01*
X801000D01*
Y64900D01*
X798088D01*
Y69599D01*
X801244Y72755D01*
X818343D01*
X819702Y73025D01*
X819823Y72965D01*
X820589Y72228D01*
X820700Y72028D01*
X820402Y70528D01*
Y-5528D01*
X820790Y-7479D01*
X821895Y-9133D01*
X825117Y-12355D01*
X826771Y-13460D01*
X828722Y-13848D01*
X835500D01*
Y-27500D01*
X847902D01*
Y-29000D01*
X841000D01*
Y-39000D01*
X851000D01*
Y-38588D01*
X855000D01*
Y-39000D01*
X865000D01*
Y-29000D01*
X858098D01*
Y-27500D01*
X869500D01*
Y-13500D01*
X857098D01*
Y-8750D01*
X856710Y-6799D01*
X856449Y-6409D01*
X857048Y-5289D01*
X879500D01*
X880280Y-5134D01*
X880942Y-4692D01*
X881384Y-4030D01*
X881539Y-3250D01*
Y-1317D01*
X882000Y-939D01*
X892000D01*
X892780Y-784D01*
X893442Y-342D01*
X893884Y320D01*
X894039Y1100D01*
Y13100D01*
X893884Y13880D01*
X893442Y14542D01*
X892780Y14984D01*
X892000Y15139D01*
X882000D01*
X881539Y15517D01*
Y24083D01*
X882000Y24461D01*
X892000D01*
X892780Y24616D01*
X893442Y25058D01*
X893884Y25720D01*
X894039Y26500D01*
Y38500D01*
X893884Y39280D01*
X893442Y39942D01*
X892780Y40384D01*
X892000Y40539D01*
X882000D01*
X881539Y40917D01*
Y49483D01*
X882000Y49861D01*
X892000D01*
X892780Y50016D01*
X893442Y50458D01*
X893884Y51120D01*
X894039Y51900D01*
Y63900D01*
X893884Y64680D01*
X893442Y65342D01*
X892780Y65784D01*
X892000Y65939D01*
X882000D01*
X881539Y66317D01*
Y68250D01*
X881384Y69030D01*
X880942Y69692D01*
X880280Y70134D01*
X879500Y70289D01*
X857548D01*
X856949Y71409D01*
X857210Y71799D01*
X857598Y73750D01*
Y78500D01*
X869500D01*
Y89912D01*
X876600D01*
X895412Y71100D01*
Y58000D01*
Y-37099D01*
X889100Y-43412D01*
X813901D01*
X808588Y-38100D01*
Y-29000D01*
X809000D01*
Y-19000D01*
X798338D01*
Y100D01*
X801000D01*
Y14100D01*
X786000D01*
Y13053D01*
X784730Y12374D01*
X784569Y12482D01*
Y103512D01*
X784730Y103620D01*
X786000Y102941D01*
Y100000D01*
X796000D01*
Y108927D01*
X797270Y109052D01*
X797348Y108659D01*
D02*
G37*
G36*
X843000Y122852D02*
Y121394D01*
X842922Y121000D01*
X843000Y120606D01*
Y116500D01*
X851000D01*
Y116922D01*
X854000D01*
Y116000D01*
X864000D01*
X865000Y115348D01*
Y106317D01*
X864348Y105341D01*
X863883Y103000D01*
X864348Y100659D01*
X864649Y100208D01*
X864051Y99088D01*
X849400D01*
X840244Y108244D01*
X838756Y109239D01*
X838000Y109389D01*
Y110000D01*
X837588D01*
Y119100D01*
X841827Y123338D01*
X843000Y122852D01*
D02*
G37*
%LPC*%
G36*
X815500Y65939D02*
X805500D01*
X804720Y65784D01*
X804058Y65342D01*
X803616Y64680D01*
X803461Y63900D01*
Y51900D01*
X803616Y51120D01*
X804058Y50458D01*
X804720Y50016D01*
X805500Y49861D01*
X815500D01*
X816280Y50016D01*
X816942Y50458D01*
X817384Y51120D01*
X817539Y51900D01*
Y63900D01*
X817384Y64680D01*
X816942Y65342D01*
X816280Y65784D01*
X815500Y65939D01*
D02*
G37*
G36*
X801000Y39500D02*
X786000D01*
Y25500D01*
X801000D01*
Y39500D01*
D02*
G37*
G36*
X815500Y40539D02*
X805500D01*
X804720Y40384D01*
X804058Y39942D01*
X803616Y39280D01*
X803461Y38500D01*
Y26500D01*
X803616Y25720D01*
X804058Y25058D01*
X804720Y24616D01*
X805500Y24461D01*
X815500D01*
X816280Y24616D01*
X816942Y25058D01*
X817384Y25720D01*
X817539Y26500D01*
Y38500D01*
X817384Y39280D01*
X816942Y39942D01*
X816280Y40384D01*
X815500Y40539D01*
D02*
G37*
G36*
Y15139D02*
X805500D01*
X804720Y14984D01*
X804058Y14542D01*
X803616Y13880D01*
X803461Y13100D01*
Y1100D01*
X803616Y320D01*
X804058Y-342D01*
X804720Y-784D01*
X805500Y-939D01*
X815500D01*
X816280Y-784D01*
X816942Y-342D01*
X817384Y320D01*
X817539Y1100D01*
Y13100D01*
X817384Y13880D01*
X816942Y14542D01*
X816280Y14984D01*
X815500Y15139D01*
D02*
G37*
%LPD*%
D14*
X423757Y329243D02*
Y337243D01*
X422000Y339000D02*
X423757Y337243D01*
X417000Y339000D02*
X422000D01*
X718000Y210000D02*
X728000D01*
X324000D02*
X498000D01*
X138500Y205500D02*
X503500D01*
X496500Y229500D02*
X498000Y231000D01*
X487000Y229500D02*
X496500D01*
X498000Y231000D02*
Y238500D01*
X684999Y320999D02*
X684999Y321000D01*
Y328999D01*
X450750Y250750D02*
X451000Y251000D01*
X416750Y250750D02*
X450750D01*
X413999Y247999D02*
X416750Y250750D01*
X357763Y218500D02*
X382263Y243000D01*
X337500Y218500D02*
X357763D01*
X382263Y243000D02*
X396264D01*
X239000Y356000D02*
X239768Y355232D01*
X353499Y238500D02*
X355500Y240500D01*
Y249931D01*
X353499Y230500D02*
Y238500D01*
X352999Y230000D02*
X353499Y230500D01*
X214000Y215000D02*
Y223000D01*
X214000Y215000D02*
X214000Y215000D01*
X248000D02*
Y223000D01*
X248000Y215000D02*
X248000Y215000D01*
X534000Y307000D02*
Y318000D01*
X524000Y274000D02*
Y307000D01*
X534000Y307000D02*
X534000Y307000D01*
X524000Y307000D02*
X524000Y307000D01*
X248000Y233000D02*
Y244000D01*
X312501Y315999D02*
X333030D01*
X312500Y316000D02*
X312501Y315999D01*
X278000Y256000D02*
Y281500D01*
Y256000D02*
X286000Y248001D01*
Y244000D02*
Y248001D01*
X214000Y233000D02*
Y244000D01*
X209000Y306000D02*
X228500D01*
X331666Y311000D02*
X355500Y287166D01*
X312500Y311000D02*
X331666D01*
X330302Y306000D02*
X343000Y293302D01*
X312500Y306000D02*
X330302D01*
X325500Y301000D02*
X334875Y291625D01*
X312500Y301000D02*
X325500D01*
X323000Y296000D02*
X330000Y289000D01*
X312500Y296000D02*
X323000D01*
X330000Y276000D02*
Y289000D01*
X334875Y270375D02*
Y291625D01*
X318000Y264000D02*
X330000Y276000D01*
X334875Y291625D02*
X334875Y291625D01*
X330500Y266000D02*
X334875Y270375D01*
X218000Y291000D02*
X223000Y296000D01*
X359000Y376000D02*
Y406000D01*
X329999Y346999D02*
X359000Y376000D01*
X298000Y273500D02*
X304086D01*
X216043Y362957D02*
X223043D01*
X216000Y363000D02*
X216043Y362957D01*
X219000Y341000D02*
X228500D01*
X209002Y350998D02*
X219000Y341000D01*
X190499Y350998D02*
X209002D01*
X498000Y326000D02*
X512000Y312000D01*
Y214000D02*
Y312000D01*
X503500Y205500D02*
X512000Y214000D01*
X238000Y363929D02*
Y371999D01*
X234536Y360465D02*
X238000Y363929D01*
X239768Y355232D02*
X245000Y350000D01*
X234536Y360465D02*
X239000Y356000D01*
X239768Y355232D02*
Y356768D01*
X243000Y360000D01*
Y365500D01*
X236999Y372999D02*
X238000Y371999D01*
X124000Y386000D02*
X216000D01*
X218000Y384000D01*
X242728D01*
X253000Y373728D01*
Y365500D02*
Y373728D01*
X124000Y386000D02*
X124000Y386000D01*
X245000Y350000D02*
X246000D01*
X303000Y351000D02*
X305189D01*
X292000D02*
X303000D01*
X303431Y351431D01*
Y355431D01*
X292000Y351000D02*
X292000Y351000D01*
X474750Y377000D02*
X480250D01*
X305189Y351000D02*
X305189Y351000D01*
X303431Y355431D02*
X309464Y361465D01*
X305189Y351000D02*
X312500D01*
X316722Y355722D02*
X319361Y358361D01*
X315207Y355722D02*
X316722D01*
X309464Y361465D02*
X315207Y355722D01*
X279000Y351000D02*
Y351021D01*
X258000Y365500D02*
Y378999D01*
X252999Y383999D02*
X258000Y378999D01*
X156000Y398000D02*
X158000D01*
X161000Y401000D01*
Y405000D01*
X174000Y401000D02*
X178000Y397000D01*
X174000Y401000D02*
Y405000D01*
X137000Y310000D02*
X151000D01*
Y318000D01*
X164000Y364000D02*
Y372000D01*
X164000Y372000D01*
X164000Y364000D02*
X166000Y362000D01*
Y351500D02*
Y362000D01*
X165498Y350998D02*
X166000Y351500D01*
X165000Y339000D02*
Y350500D01*
X165498Y350998D01*
X165000Y339000D02*
X168000Y336000D01*
X228500D01*
X193000Y363000D02*
Y372000D01*
X191000Y361000D02*
X193000Y363000D01*
X191000Y351500D02*
Y361000D01*
X190499Y350998D02*
X191000Y351500D01*
X273000Y247099D02*
X285000Y235100D01*
Y214000D02*
Y235100D01*
X273000Y247099D02*
Y281500D01*
X411000Y432500D02*
X412500Y431000D01*
X263000Y389000D02*
X263000Y389000D01*
Y365500D02*
Y389000D01*
X263000Y389000D02*
Y392000D01*
X252000D02*
X263000D01*
X250000Y394000D02*
X252000Y392000D01*
X423757Y329243D02*
X427000Y326000D01*
X498000D01*
X411000Y339000D02*
X417000D01*
X413999Y239000D02*
Y247999D01*
X404150Y224000D02*
Y235114D01*
X396264Y243000D02*
X404150Y235114D01*
X397899Y265000D02*
X414899D01*
X355899Y222999D02*
X397899Y265000D01*
X416850Y266951D02*
Y278000D01*
X414899Y265000D02*
X416850Y266951D01*
X346894Y308500D02*
X383000D01*
X334394Y321000D02*
X346894Y308500D01*
X506000Y218000D02*
Y309000D01*
X498000Y210000D02*
X506000Y218000D01*
X318000Y216000D02*
X324000Y210000D01*
X429550Y317550D02*
X433000Y321000D01*
X429550Y278000D02*
Y317550D01*
X494000Y321000D02*
X506000Y309000D01*
X433000Y321000D02*
X494000D01*
X600250Y357250D02*
X608250D01*
X589500Y346500D02*
X600250Y357250D01*
X589500Y332500D02*
Y346500D01*
X490000Y349000D02*
X490250Y349250D01*
Y361250D01*
X495000Y394000D02*
X495250Y393750D01*
Y376750D02*
Y393750D01*
X462500Y358750D02*
X471750D01*
X474250Y361250D01*
X462500Y347750D02*
X463324Y348573D01*
X471000D02*
X478927Y356500D01*
X462500Y369750D02*
X472000D01*
X462500Y381750D02*
X470000D01*
X475250Y366500D02*
X480000D01*
X472000Y369750D02*
X475250Y366500D01*
X174000Y405000D02*
Y405500D01*
X149000Y407000D02*
X150000Y406000D01*
X160500D01*
X161000Y405000D02*
Y405500D01*
X131000Y198000D02*
X138500Y205500D01*
X131000Y121000D02*
Y198000D01*
X94000Y84000D02*
X131000Y121000D01*
X124500Y297500D02*
X137000Y310000D01*
X124500Y124500D02*
Y297500D01*
X90500Y90500D02*
X124500Y124500D01*
X28258Y90500D02*
X90500D01*
X16000Y78243D02*
X28258Y90500D01*
X16000Y16000D02*
Y78243D01*
Y16000D02*
X20000Y12000D01*
X55743D01*
X57500Y13757D01*
Y24000D01*
X65757Y84000D02*
X94000D01*
X295000Y217000D02*
Y250000D01*
X289000Y210000D02*
X307000D01*
X310000Y213000D01*
Y239000D01*
X285000Y214000D02*
X289000Y210000D01*
X223043Y358957D02*
X224000Y358000D01*
X223043Y358957D02*
Y362957D01*
X498000Y248500D02*
Y278500D01*
X534000Y326000D02*
Y328000D01*
X534000Y326000D02*
X534000Y326000D01*
X534000Y318000D02*
Y326000D01*
X684999Y328999D02*
X685000Y329000D01*
X207000Y328000D02*
X215000D01*
X347001Y222999D02*
X355899D01*
X343000Y227000D02*
X347001Y222999D01*
X343000Y227000D02*
Y248500D01*
X330500Y225500D02*
X337500Y218500D01*
X330500Y225500D02*
Y248500D01*
X524000Y328000D02*
X534000D01*
X534000Y318000D02*
X534000Y318000D01*
X264500Y216500D02*
Y223000D01*
Y216500D02*
X265000Y216000D01*
X283000Y262000D02*
X295000Y250000D01*
X318000Y216000D02*
Y248500D01*
X288000Y270000D02*
X307001Y251000D01*
X309000D01*
X288000Y270000D02*
Y281500D01*
X259000Y242000D02*
X268000Y251000D01*
Y281500D01*
X201000Y321000D02*
X228500D01*
X151000Y310000D02*
X205000D01*
X209000Y306000D01*
X385621Y238500D02*
X390500D01*
X377364Y230243D02*
X385621Y238500D01*
X207000Y248399D02*
X235000Y276399D01*
X231500Y263000D02*
X243000Y274500D01*
X227000Y247000D02*
X248000Y268000D01*
X236000Y215000D02*
X236000Y215000D01*
X343257Y318500D02*
X398000D01*
X248000Y268000D02*
Y281500D01*
X217000Y247000D02*
X227000D01*
X207000Y235000D02*
Y248399D01*
X243000Y274500D02*
Y281500D01*
X235000Y276399D02*
Y281000D01*
X218000Y283499D02*
Y291000D01*
X223000Y296000D02*
X228500D01*
X304086Y279157D02*
X309464Y284536D01*
X304086Y273500D02*
Y279157D01*
X298000Y273500D02*
Y281500D01*
X259000Y233000D02*
Y242000D01*
X505000Y366500D02*
X505250Y366250D01*
X495500Y366500D02*
X505000D01*
X483493Y356500D02*
X485250Y358257D01*
Y361250D01*
X478927Y356500D02*
X483493D01*
X463324Y348573D02*
X471000D01*
X474250Y361250D02*
X480250D01*
X470000Y381750D02*
X474750Y377000D01*
X480250Y376750D02*
Y377000D01*
X409000Y337000D02*
X411000Y339000D01*
X409000Y304000D02*
Y337000D01*
X403500Y298500D02*
X409000Y304000D01*
X350530Y298500D02*
X403500D01*
X57000Y23500D02*
X57500Y24000D01*
X241000Y394000D02*
X250000D01*
X248000Y365500D02*
Y372364D01*
X64000Y82243D02*
X65757Y84000D01*
X64000Y75000D02*
Y82243D01*
X231465Y284536D02*
X235000Y281000D01*
X214000Y244000D02*
X217000Y247000D01*
X191250Y318000D02*
X198000D01*
X184500D02*
X191250D01*
X191000Y318250D02*
X191250Y318000D01*
X191000Y318250D02*
Y328000D01*
X198000Y318000D02*
X201000Y321000D01*
X191000Y328000D02*
X197000D01*
X185000D02*
X191000D01*
X253000Y262737D02*
Y281500D01*
X232764Y242500D02*
X253000Y262737D01*
X258000Y261373D02*
Y281500D01*
X236000Y239373D02*
X258000Y261373D01*
X236000Y233000D02*
Y239373D01*
X229764Y242500D02*
X232764D01*
X225000Y237736D02*
X229764Y242500D01*
X225000Y233000D02*
Y237736D01*
X259000Y233000D02*
X259000Y233000D01*
X248000Y244000D02*
X263000Y259000D01*
X236000Y215000D02*
Y223000D01*
X225000Y215000D02*
X225000Y215000D01*
Y223000D01*
X202000Y230000D02*
X207000Y235000D01*
X180500Y230000D02*
X202000D01*
X160500Y406000D02*
X161000Y405500D01*
X174000D02*
X174500Y406000D01*
X185000D01*
X186000Y407000D01*
X498000Y278500D02*
Y308500D01*
X497000Y277500D02*
X498000Y278500D01*
X481000Y277500D02*
X497000D01*
X483000Y311000D02*
X495500D01*
X498000Y308500D01*
X377364Y224136D02*
Y230243D01*
Y224136D02*
X378000Y223500D01*
X390500Y238500D02*
X391450Y237550D01*
Y224000D02*
Y237550D01*
X333030Y315999D02*
X350530Y298500D01*
X335757Y326000D02*
X343257Y318500D01*
X343000Y258500D02*
Y293302D01*
X312500Y321000D02*
X334394D01*
X355500Y258500D02*
Y287166D01*
X330500Y258500D02*
Y266000D01*
X318000Y258500D02*
Y264000D01*
X312500Y326000D02*
X335757D01*
X325735Y331000D02*
X341000D01*
X325735Y331000D02*
X325735Y331000D01*
X328899Y336000D02*
X333899Y341000D01*
X312500Y336000D02*
X328899D01*
X333899Y341000D02*
X341000D01*
X322999Y349899D02*
X333000Y359899D01*
X322999Y341757D02*
Y349899D01*
X333000Y359899D02*
Y406000D01*
X298000Y365500D02*
Y388000D01*
X308000Y398000D01*
Y406000D01*
X322243Y341000D02*
X322999Y341757D01*
X312500Y341000D02*
X322243D01*
X312500Y331000D02*
X325735D01*
X368000Y326000D02*
X396000D01*
X363000Y331000D02*
X368000Y326000D01*
X396000D02*
X399000Y329000D01*
Y339000D01*
X351000Y331000D02*
X363000D01*
X437001Y439999D02*
X439500Y437500D01*
Y431000D02*
Y437500D01*
X412071Y440000D02*
X420000D01*
X411000Y438929D02*
X412071Y440000D01*
X411000Y432500D02*
Y438929D01*
X429999Y439999D02*
X437001D01*
X410500Y431000D02*
X412500D01*
X275000Y383000D02*
Y389000D01*
X268000Y376000D02*
X275000Y383000D01*
X268000Y365500D02*
Y376000D01*
Y356000D02*
Y365500D01*
X263000Y351000D02*
X268000Y356000D01*
X273000Y365500D02*
Y373728D01*
Y357021D02*
Y365500D01*
Y357021D02*
X279000Y351021D01*
X299000Y395363D02*
Y406999D01*
X293500Y389864D02*
X299000Y395363D01*
X287000Y383000D02*
Y389000D01*
X293500Y377257D02*
Y389864D01*
X291743Y375500D02*
X293500Y377257D01*
X281136Y375500D02*
X291743D01*
X284000Y380000D02*
X287000Y383000D01*
X278000Y372364D02*
X281136Y375500D01*
X278000Y365500D02*
Y372364D01*
X273000Y373728D02*
X279272Y380000D01*
X284000D01*
X359000Y406000D02*
X371000D01*
X176500Y234000D02*
X180500Y230000D01*
X176500Y234000D02*
Y250000D01*
X231465Y284536D02*
X231535D01*
X361000Y339000D02*
X373000D01*
X359000Y341000D02*
X361000Y339000D01*
X351000Y341000D02*
X359000D01*
X283000Y262000D02*
Y281500D01*
X263000Y259000D02*
Y281500D01*
X239000Y292000D02*
Y307364D01*
X231535Y284536D02*
X239000Y292000D01*
X235364Y311000D02*
X239000Y307364D01*
X359000Y406000D02*
X359000Y406000D01*
X216000Y353000D02*
Y363000D01*
Y353000D02*
X218000Y351000D01*
X228500D01*
Y311000D02*
X235364D01*
X781000Y106000D02*
X786000Y111000D01*
X781000Y9857D02*
Y106000D01*
Y9857D02*
X783757Y7100D01*
X815000Y127000D02*
Y141000D01*
X808000Y148000D02*
X815000Y141000D01*
X797000Y148000D02*
X808000D01*
X803000Y127000D02*
Y134000D01*
X787000Y150000D02*
X803000Y134000D01*
X787000Y150000D02*
Y170000D01*
X791000Y127000D02*
Y136000D01*
X782000Y145000D02*
X791000Y136000D01*
X782000Y145000D02*
Y180000D01*
X792000Y153000D02*
X797000Y148000D01*
X783757Y7100D02*
X793500D01*
X786000Y111000D02*
X791000D01*
X792000Y160000D02*
X793500Y161500D01*
X792000Y153000D02*
Y160000D01*
X793500Y161500D02*
X808500D01*
X789500Y172500D02*
X808500D01*
X787000Y170000D02*
X789500Y172500D01*
X785500Y183500D02*
X808500D01*
X782000Y180000D02*
X785500Y183500D01*
X676000Y430000D02*
X678000D01*
X688000D01*
X690000Y432000D02*
Y439500D01*
X688000Y430000D02*
X690000Y432000D01*
Y439500D02*
X690000Y439500D01*
D15*
X476000Y235000D02*
Y263000D01*
X469500Y228500D02*
X476000Y235000D01*
X468000Y271000D02*
X476000Y263000D01*
X782000Y223985D02*
X785515Y227500D01*
X808500D01*
X782000Y218000D02*
Y223985D01*
X464485Y287000D02*
X468000Y283485D01*
X457000Y287000D02*
X464485D01*
X468000Y271000D02*
Y283485D01*
X972000Y129000D02*
X975000Y126000D01*
Y115000D02*
Y126000D01*
X938000Y129000D02*
X972000D01*
X926000Y117000D02*
X938000Y129000D01*
X926000Y106000D02*
Y117000D01*
X863000Y141500D02*
Y163000D01*
X104000Y424000D02*
X115000D01*
X103500Y446600D02*
X104000Y446100D01*
X526500Y393500D02*
X532000D01*
X429550Y218000D02*
X445500D01*
Y223500D01*
X429550Y218000D02*
Y224000D01*
X458000Y394000D02*
X483000D01*
X452000Y388000D02*
X458000Y394000D01*
X455500Y228500D02*
X469500D01*
X483000Y394000D02*
X495000D01*
X483000D02*
Y406000D01*
X452000Y343000D02*
Y388000D01*
X450000Y355000D02*
X451000Y354000D01*
X490000Y337000D02*
X499000D01*
X490000D02*
Y349000D01*
X458000Y337000D02*
X490000D01*
X452000Y343000D02*
X458000Y337000D01*
X439000Y355000D02*
X450000D01*
X490000Y349000D02*
X490000Y349000D01*
X439000Y337000D02*
X439000Y337000D01*
Y355000D01*
X104000Y424000D02*
X104000Y424000D01*
X104000Y424000D02*
Y446100D01*
X532000Y393500D02*
X537500D01*
X450500Y223500D02*
X455500Y228500D01*
X445500Y223500D02*
X450500D01*
X852000Y-21000D02*
Y-8750D01*
X853000Y-31000D02*
Y-21000D01*
X852500Y-20500D02*
X853000Y-21000D01*
X825500Y70528D02*
X828722Y73750D01*
X825500Y-5528D02*
Y70528D01*
X852500Y73750D02*
Y85500D01*
X828722Y73750D02*
X852500D01*
X828722Y-8750D02*
X852000D01*
X825500Y-5528D02*
X828722Y-8750D01*
X852000Y-21000D02*
X852500Y-20500D01*
X709000Y392000D02*
X709000Y392000D01*
Y413500D01*
D16*
X942000Y300597D02*
G03*
X960098Y282500I18098J0D01*
G01*
X461000Y240000D02*
Y251000D01*
Y240000D02*
X462000Y239000D01*
X463000D01*
X460750Y251250D02*
X461000Y251000D01*
X460750Y251250D02*
Y263250D01*
X460500Y263500D02*
X460750Y263250D01*
X741000Y225157D02*
X743343Y227500D01*
X758000D01*
X741000Y220000D02*
Y225157D01*
X728000Y220000D02*
X741000D01*
X748000Y335000D02*
X748250Y335250D01*
X763750D01*
X764000Y335500D01*
X709000Y319000D02*
Y358000D01*
X736000Y319000D02*
Y325000D01*
X733000Y316000D02*
X736000Y319000D01*
X712000Y316000D02*
X733000D01*
X709000Y319000D02*
X712000Y316000D01*
X939000Y97000D02*
X949500D01*
X938000Y96000D02*
X939000Y97000D01*
X938000Y83000D02*
Y96000D01*
X949500Y97000D02*
X950000Y96500D01*
X916250Y73250D02*
X916375Y73125D01*
X924875D01*
X925000Y73000D01*
X621500Y292343D02*
Y321500D01*
X619157Y290000D02*
X621500Y292343D01*
X562500Y290000D02*
X619157D01*
X549000Y303500D02*
X562500Y290000D01*
X549000Y303500D02*
Y333000D01*
X932000Y359118D02*
X932000Y359118D01*
Y350000D02*
Y359118D01*
Y350000D02*
X932000Y350000D01*
X902000Y350000D02*
Y359118D01*
Y350000D02*
X902000Y350000D01*
X922000Y335000D02*
Y340000D01*
X922000Y340000D01*
X918000Y331000D02*
X922000Y335000D01*
X909917Y331000D02*
X918000D01*
X907574Y328657D02*
X909917Y331000D01*
X907574Y314074D02*
Y328657D01*
X907000Y313500D02*
X907574Y314074D01*
X902000Y334108D02*
Y340000D01*
X896000Y328108D02*
X902000Y334108D01*
X896000Y313500D02*
Y328108D01*
X902000Y340000D02*
X902000Y340000D01*
X912000D01*
X890000Y340000D02*
X902000D01*
X932000Y340000D02*
X932000Y340000D01*
X944000D01*
X922000Y340000D02*
X932000D01*
X859000Y121000D02*
X859000Y121000D01*
X847000Y121000D02*
X859000D01*
X891000D02*
X904000D01*
X975000Y86000D02*
Y95000D01*
X972000Y83000D02*
X975000Y86000D01*
X951000Y83000D02*
X972000D01*
X992000Y200000D02*
Y205157D01*
X989657Y207500D02*
X992000Y205157D01*
X985343Y207500D02*
X989657D01*
X983000Y209843D02*
X985343Y207500D01*
X983000Y209843D02*
Y214000D01*
X983000Y214000D01*
X942000Y300597D02*
Y308500D01*
X960098Y282500D02*
X961500D01*
X220036Y273000D02*
X224500Y277464D01*
X993000Y214000D02*
X1002000D01*
X993000Y228000D02*
X1002608D01*
X961500Y216500D02*
X976500D01*
X979000Y214000D01*
X983000D01*
X982750Y227750D02*
X983000Y228000D01*
X961750Y227750D02*
X982750D01*
X961500Y227500D02*
X961750Y227750D01*
X880000Y121000D02*
Y126688D01*
X885000Y131688D01*
Y141500D01*
X880000Y121000D02*
X880000Y121000D01*
X874000Y131000D02*
Y141500D01*
X871000Y128000D02*
X874000Y131000D01*
X871000Y122000D02*
Y128000D01*
X870000Y121000D02*
X871000Y122000D01*
X880000Y121000D02*
X891000D01*
X859000Y121000D02*
X870000D01*
X880000Y103000D02*
X880000Y103000D01*
X880000Y103000D02*
Y111000D01*
X870000Y103000D02*
X870000Y103000D01*
X870000Y103000D02*
Y111000D01*
X695000Y334000D02*
X699500D01*
X690000Y339000D02*
X695000Y334000D01*
X685000Y339000D02*
X690000D01*
X685000Y339000D02*
X685000Y339000D01*
X685000Y339000D02*
Y351000D01*
X540000Y375000D02*
X549000D01*
X549500Y375500D01*
X552154Y363846D02*
X564654D01*
X549500Y366500D02*
X552154Y363846D01*
X549500Y366500D02*
Y375500D01*
X564654Y363846D02*
X564750Y363750D01*
Y370250D02*
X578250D01*
X599154Y395404D02*
X599250Y395500D01*
X544000Y338000D02*
X549000Y333000D01*
X534000Y338000D02*
X544000D01*
X86000Y173000D02*
X89000Y176000D01*
X86000Y137000D02*
Y173000D01*
Y137000D02*
X88000Y135000D01*
X139000Y417000D02*
Y426000D01*
X133000Y432000D02*
X139000Y426000D01*
X133000Y432000D02*
Y440073D01*
X129300Y443773D02*
X133000Y440073D01*
X129300Y443773D02*
Y447000D01*
X196100D02*
X197000Y446100D01*
Y417000D02*
Y446100D01*
X180100Y447000D02*
X196100D01*
X296000D02*
X308000Y435000D01*
Y416000D02*
Y435000D01*
X333393Y422787D02*
X333500Y422893D01*
Y434900D01*
X321400Y447000D02*
X333500Y434900D01*
X346800Y447000D02*
X359000Y434800D01*
Y416000D02*
Y434800D01*
X103000Y227000D02*
X114000D01*
X114375Y226625D01*
X454000Y421000D02*
Y431000D01*
X264500Y223000D02*
X270000D01*
X259000D02*
X264500D01*
X270000D02*
X270000Y223000D01*
X166000Y328000D02*
X175000D01*
X219018Y273000D02*
X220036D01*
X224464Y277464D02*
X224500D01*
X298000Y296000D02*
X309464Y284536D01*
X57500Y24000D02*
X65000D01*
X50000D02*
X57500D01*
X89000Y194000D02*
Y203000D01*
X100000Y194000D02*
Y203000D01*
X111000Y194000D02*
Y213000D01*
X100000D02*
X111000D01*
X100000Y194000D02*
X100000Y194000D01*
X50000Y75000D02*
X64000D01*
X57000Y49000D02*
Y58000D01*
Y49000D02*
X64000D01*
X50000D02*
X57000D01*
X57000Y40000D02*
X57000Y40000D01*
Y49000D01*
X114700Y24300D02*
X115000Y24600D01*
X75300Y24300D02*
X114700D01*
X75000Y24000D02*
X75300Y24300D01*
X114600Y75000D02*
X115000Y75400D01*
X74000Y75000D02*
X114600D01*
X114000Y49000D02*
X115000Y50000D01*
X74000Y49000D02*
X114000D01*
X100000Y213000D02*
Y219000D01*
X103000Y222000D01*
Y227000D01*
X111000Y170700D02*
Y184000D01*
X101000Y160700D02*
X111000Y170700D01*
X89000Y194000D02*
X100000D01*
X89000Y176000D02*
Y184000D01*
X88000Y135000D02*
X100700D01*
X101000Y135300D01*
X439500Y421000D02*
X454000D01*
X333000Y406000D02*
X345000D01*
X333393Y416393D02*
Y422787D01*
X333000Y416000D02*
X333393Y416393D01*
X308000Y406000D02*
X320000D01*
X333000Y406000D02*
X333000Y406000D01*
X308000Y406000D02*
X308000Y406000D01*
X736000Y335000D02*
X748000D01*
X925000Y83000D02*
X938000D01*
X611500Y332500D02*
Y350519D01*
Y332500D02*
X611500Y332500D01*
X611500Y321500D02*
Y332500D01*
X611500Y332500D01*
X600500Y321500D02*
X611500D01*
X600500Y321500D02*
X600500Y321500D01*
X993000Y262500D02*
Y271500D01*
X982000Y262500D02*
Y271500D01*
X992000Y282500D02*
X993000Y281500D01*
X992000Y282500D02*
Y293500D01*
X982000Y281500D02*
Y293500D01*
X982000Y293500D01*
D57*
X992000Y200000D02*
D03*
X982000D02*
D03*
X983000Y214000D02*
D03*
X993000D02*
D03*
X983000Y228000D02*
D03*
X993000D02*
D03*
X524000Y307000D02*
D03*
X534000D02*
D03*
X451000Y251000D02*
D03*
X461000D02*
D03*
X534000Y318000D02*
D03*
X524000D02*
D03*
X495000Y394000D02*
D03*
X505000D02*
D03*
X490000Y349000D02*
D03*
X500000D02*
D03*
X75000Y24000D02*
D03*
X65000D02*
D03*
X40000D02*
D03*
X50000D02*
D03*
X64000Y49000D02*
D03*
X74000D02*
D03*
X40000D02*
D03*
X50000D02*
D03*
X40000Y75000D02*
D03*
X50000D02*
D03*
X74000D02*
D03*
X64000D02*
D03*
X90000Y213000D02*
D03*
X100000D02*
D03*
X223000Y454000D02*
D03*
X213000D02*
D03*
X450500Y263500D02*
D03*
X460500D02*
D03*
X483000Y311000D02*
D03*
X473000D02*
D03*
X551000Y423000D02*
D03*
X541000D02*
D03*
Y413000D02*
D03*
X551000D02*
D03*
X351000Y341000D02*
D03*
X341000D02*
D03*
X351000Y331000D02*
D03*
X341000D02*
D03*
X197000Y328000D02*
D03*
X207000D02*
D03*
X185000D02*
D03*
X175000D02*
D03*
X164000Y372000D02*
D03*
X174000D02*
D03*
X193000D02*
D03*
X183000D02*
D03*
X836000Y-34000D02*
D03*
X846000D02*
D03*
X870000D02*
D03*
X860000D02*
D03*
X804000Y-24000D02*
D03*
X794000D02*
D03*
X611500Y332500D02*
D03*
X621500D02*
D03*
X621500Y321500D02*
D03*
X611500D02*
D03*
X877500Y350000D02*
D03*
X867500D02*
D03*
X877500Y337500D02*
D03*
X867500D02*
D03*
X992000Y293500D02*
D03*
X982000D02*
D03*
D58*
X728000Y220000D02*
D03*
Y210000D02*
D03*
X685000Y339000D02*
D03*
Y329000D02*
D03*
X932000Y350000D02*
D03*
Y340000D02*
D03*
X902000Y350000D02*
D03*
Y340000D02*
D03*
X922000Y350000D02*
D03*
Y340000D02*
D03*
X891000Y111000D02*
D03*
Y121000D02*
D03*
X859000Y111000D02*
D03*
Y121000D02*
D03*
X355500Y249931D02*
D03*
Y259931D02*
D03*
X343000Y249931D02*
D03*
Y259931D02*
D03*
X330500Y249931D02*
D03*
Y259931D02*
D03*
X318000Y249931D02*
D03*
Y259931D02*
D03*
X248000Y223000D02*
D03*
Y233000D02*
D03*
X214000Y223000D02*
D03*
Y233000D02*
D03*
X236000Y223000D02*
D03*
Y233000D02*
D03*
X225000Y223000D02*
D03*
Y233000D02*
D03*
X912000Y340000D02*
D03*
Y350000D02*
D03*
X104000Y414000D02*
D03*
Y424000D02*
D03*
X524000Y338000D02*
D03*
Y328000D02*
D03*
X89000Y194000D02*
D03*
Y184000D02*
D03*
X100000Y184000D02*
D03*
Y194000D02*
D03*
X111000Y184000D02*
D03*
Y194000D02*
D03*
X870000Y111000D02*
D03*
Y121000D02*
D03*
X880000Y111000D02*
D03*
Y121000D02*
D03*
X498000Y238500D02*
D03*
Y248500D02*
D03*
X445500Y223500D02*
D03*
Y233500D02*
D03*
X259000Y233000D02*
D03*
Y223000D02*
D03*
X270000Y223000D02*
D03*
Y233000D02*
D03*
X549500Y385500D02*
D03*
Y375500D02*
D03*
X263000Y392000D02*
D03*
Y402000D02*
D03*
X162500Y255000D02*
D03*
Y245000D02*
D03*
X139000Y417000D02*
D03*
Y407000D02*
D03*
X149000D02*
D03*
Y417000D02*
D03*
X186000Y407000D02*
D03*
Y417000D02*
D03*
X197000D02*
D03*
Y407000D02*
D03*
X359000Y416000D02*
D03*
Y406000D02*
D03*
X333000Y416000D02*
D03*
Y406000D02*
D03*
X308000Y416000D02*
D03*
Y406000D02*
D03*
X216000Y363000D02*
D03*
Y373000D02*
D03*
X741000Y210000D02*
D03*
Y220000D02*
D03*
X833000Y95000D02*
D03*
Y105000D02*
D03*
X791000Y95000D02*
D03*
Y105000D02*
D03*
X803000Y95000D02*
D03*
Y105000D02*
D03*
X815000Y95000D02*
D03*
Y105000D02*
D03*
X287000Y392000D02*
D03*
Y402000D02*
D03*
X815000Y127000D02*
D03*
Y117000D02*
D03*
X803000Y127000D02*
D03*
Y117000D02*
D03*
X275000Y392000D02*
D03*
Y402000D02*
D03*
X454000Y421000D02*
D03*
Y411000D02*
D03*
X791000Y127000D02*
D03*
Y117000D02*
D03*
X951000Y83000D02*
D03*
Y73000D02*
D03*
X938000D02*
D03*
Y83000D02*
D03*
X925000Y73000D02*
D03*
Y83000D02*
D03*
X589500Y321500D02*
D03*
Y331500D02*
D03*
X534000Y328000D02*
D03*
Y338000D02*
D03*
X600500Y331500D02*
D03*
Y321500D02*
D03*
X685000Y361000D02*
D03*
Y351000D02*
D03*
X736000Y325000D02*
D03*
Y335000D02*
D03*
X748000Y325000D02*
D03*
Y335000D02*
D03*
X982000Y271500D02*
D03*
Y281500D02*
D03*
X993000Y271500D02*
D03*
Y281500D02*
D03*
X677000Y430000D02*
D03*
Y440000D02*
D03*
D59*
X944000Y353000D02*
D03*
Y340000D02*
D03*
X890000Y353000D02*
D03*
Y340000D02*
D03*
X847000Y108000D02*
D03*
Y121000D02*
D03*
X904000Y108000D02*
D03*
Y121000D02*
D03*
X151000Y331000D02*
D03*
Y318000D02*
D03*
X417000Y352000D02*
D03*
Y339000D02*
D03*
X161000Y418000D02*
D03*
Y405000D02*
D03*
X174000Y418000D02*
D03*
Y405000D02*
D03*
X371000Y419000D02*
D03*
Y406000D02*
D03*
X345000Y419000D02*
D03*
Y406000D02*
D03*
X320000Y419000D02*
D03*
Y406000D02*
D03*
X725000Y423000D02*
D03*
Y436000D02*
D03*
D60*
X312500Y316000D02*
D03*
Y351000D02*
D03*
Y346000D02*
D03*
Y341000D02*
D03*
Y336000D02*
D03*
Y331000D02*
D03*
Y326000D02*
D03*
Y321000D02*
D03*
Y311000D02*
D03*
Y306000D02*
D03*
Y301000D02*
D03*
Y296000D02*
D03*
X228500D02*
D03*
Y301000D02*
D03*
Y306000D02*
D03*
Y311000D02*
D03*
Y316000D02*
D03*
Y321000D02*
D03*
Y326000D02*
D03*
Y331000D02*
D03*
Y336000D02*
D03*
Y341000D02*
D03*
Y346000D02*
D03*
Y351000D02*
D03*
D61*
X429550Y278000D02*
D03*
X416850D02*
D03*
X404150D02*
D03*
X391450D02*
D03*
Y224000D02*
D03*
X404150D02*
D03*
X416850D02*
D03*
X429550D02*
D03*
D62*
X439000Y355000D02*
D03*
Y375000D02*
D03*
X145000Y269000D02*
D03*
Y249000D02*
D03*
X399000Y359000D02*
D03*
Y339000D02*
D03*
X373000Y359000D02*
D03*
Y339000D02*
D03*
X975000Y115000D02*
D03*
Y95000D02*
D03*
X849000Y347000D02*
D03*
Y367000D02*
D03*
X830000Y347000D02*
D03*
Y367000D02*
D03*
X639000Y369000D02*
D03*
Y389000D02*
D03*
X743000Y445000D02*
D03*
Y425000D02*
D03*
D63*
X90000Y227000D02*
D03*
X103000D02*
D03*
X795000Y353000D02*
D03*
X808000D02*
D03*
D64*
X463000Y239000D02*
D03*
Y220000D02*
D03*
X487000Y229500D02*
D03*
X481000Y277500D02*
D03*
Y296500D02*
D03*
X457000Y287000D02*
D03*
X758000Y227500D02*
D03*
Y208500D02*
D03*
X782000Y218000D02*
D03*
X950000Y96500D02*
D03*
Y115500D02*
D03*
X926000Y106000D02*
D03*
X764000Y335500D02*
D03*
Y316500D02*
D03*
X788000Y326000D02*
D03*
D65*
X234000Y394000D02*
D03*
X241000D02*
D03*
D66*
X196500Y250000D02*
D03*
X176500D02*
D03*
X617500Y420000D02*
D03*
X597500D02*
D03*
X709000Y392000D02*
D03*
X689000D02*
D03*
D67*
X480000Y366500D02*
D03*
Y371500D02*
D03*
X495500Y366500D02*
D03*
Y371500D02*
D03*
D68*
X480250Y361250D02*
D03*
Y376750D02*
D03*
X495250Y361250D02*
D03*
Y376750D02*
D03*
X485250Y361250D02*
D03*
X490250D02*
D03*
X485250Y376750D02*
D03*
X490250D02*
D03*
D69*
X256250Y417000D02*
D03*
X289000D02*
D03*
D70*
X169500Y294000D02*
D03*
X191500D02*
D03*
D71*
X165498Y350998D02*
D03*
X190499D02*
D03*
D72*
X234536Y360465D02*
D03*
X227465Y367536D02*
D03*
X309464Y284536D02*
D03*
X316536Y277464D02*
D03*
D73*
X309464Y361465D02*
D03*
X316536Y368536D02*
D03*
X231535Y284536D02*
D03*
X224464Y277464D02*
D03*
D74*
X243000Y365500D02*
D03*
X248000D02*
D03*
X253000D02*
D03*
X258000D02*
D03*
X263000D02*
D03*
X268000D02*
D03*
X273000D02*
D03*
X278000D02*
D03*
X283000D02*
D03*
X288000D02*
D03*
X293000D02*
D03*
X298000D02*
D03*
Y281500D02*
D03*
X293000D02*
D03*
X288000D02*
D03*
X283000D02*
D03*
X278000D02*
D03*
X273000D02*
D03*
X268000D02*
D03*
X263000D02*
D03*
X258000D02*
D03*
X253000D02*
D03*
X248000D02*
D03*
X243000D02*
D03*
D75*
X425000Y421000D02*
D03*
D76*
X439500Y411000D02*
D03*
Y421000D02*
D03*
Y431000D02*
D03*
X410500Y411000D02*
D03*
Y421000D02*
D03*
Y431000D02*
D03*
D77*
X961500Y161500D02*
D03*
Y172500D02*
D03*
Y183500D02*
D03*
Y194500D02*
D03*
Y205500D02*
D03*
Y216500D02*
D03*
Y227500D02*
D03*
Y238500D02*
D03*
Y249500D02*
D03*
Y260500D02*
D03*
Y271500D02*
D03*
Y282500D02*
D03*
Y293500D02*
D03*
X808500D02*
D03*
Y282500D02*
D03*
Y271500D02*
D03*
Y260500D02*
D03*
Y249500D02*
D03*
Y238500D02*
D03*
Y227500D02*
D03*
Y216500D02*
D03*
Y205500D02*
D03*
Y194500D02*
D03*
Y183500D02*
D03*
Y172500D02*
D03*
Y161500D02*
D03*
D78*
X929000Y313500D02*
D03*
X918000D02*
D03*
X907000D02*
D03*
X896000D02*
D03*
X885000D02*
D03*
X874000D02*
D03*
X863000D02*
D03*
X852000D02*
D03*
X841000D02*
D03*
Y141500D02*
D03*
X852000D02*
D03*
X863000D02*
D03*
X874000D02*
D03*
X885000D02*
D03*
X896000D02*
D03*
X907000D02*
D03*
X918000D02*
D03*
X929000D02*
D03*
D79*
X953500Y22500D02*
D03*
Y32000D02*
D03*
Y41500D02*
D03*
X933000D02*
D03*
Y32000D02*
D03*
Y22500D02*
D03*
D80*
X911500Y57900D02*
D03*
Y32500D02*
D03*
Y7100D02*
D03*
X793500Y57900D02*
D03*
Y32500D02*
D03*
Y7100D02*
D03*
D81*
X852500Y85500D02*
D03*
Y-20500D02*
D03*
D82*
X595750Y394000D02*
D03*
X570250D02*
D03*
D83*
X699500Y334000D02*
D03*
X718500D02*
D03*
X709000Y358000D02*
D03*
Y439500D02*
D03*
X699500D02*
D03*
X690000D02*
D03*
Y413500D02*
D03*
X709000D02*
D03*
D84*
X564750Y370250D02*
D03*
Y363750D02*
D03*
Y357250D02*
D03*
Y350750D02*
D03*
X608250Y370250D02*
D03*
Y363750D02*
D03*
Y357250D02*
D03*
Y350750D02*
D03*
D85*
X1006750Y293500D02*
D03*
D86*
X1022000Y308250D02*
D03*
Y278750D02*
D03*
D87*
X773000Y366000D02*
D03*
X741000D02*
D03*
D88*
X767500Y415500D02*
D03*
Y444500D02*
D03*
D89*
X786000Y259000D02*
X786000Y259000D01*
X786000Y250000D02*
Y259000D01*
X823803Y98197D02*
Y146803D01*
Y98197D02*
X827000Y95000D01*
X833000D01*
X823803Y146803D02*
X828000Y151000D01*
X911250Y57650D02*
X911750D01*
X847500Y94500D02*
X878500D01*
X837000Y105000D02*
X847500Y94500D01*
X833000Y105000D02*
X837000D01*
X841000Y129000D02*
Y141500D01*
X833000Y121000D02*
X841000Y129000D01*
X833000Y105000D02*
Y121000D01*
X878500Y94500D02*
X900000Y73000D01*
X915500Y-4000D02*
X945000D01*
X909000Y-10500D02*
X915500Y-4000D01*
X945000D02*
Y19321D01*
X929950Y7050D02*
X930000Y7000D01*
X945000Y19321D02*
X947929Y22250D01*
X892000Y-57000D02*
X909000Y-40000D01*
X809000Y-57000D02*
X892000D01*
X909000Y-40000D02*
Y-10500D01*
X891000Y-48000D02*
X900000Y-39000D01*
X812000Y-48000D02*
X891000D01*
X804000Y-40000D02*
X812000Y-48000D01*
X900000Y-39000D02*
Y58000D01*
X804000Y-40000D02*
Y-24000D01*
X532000Y393500D02*
Y414000D01*
X535000Y417000D02*
X541000D01*
X532000Y414000D02*
X535000Y417000D01*
X541000Y413000D02*
Y417000D01*
Y418000D02*
Y423000D01*
X572000Y413000D02*
X580000Y421000D01*
X551000Y413000D02*
X572000D01*
X580000Y421000D02*
Y445071D01*
X669000Y448000D02*
X677000Y440000D01*
X582929Y448000D02*
X669000D01*
X580000Y445071D02*
X582929Y448000D01*
X223000Y448429D02*
Y454000D01*
Y448429D02*
X226429Y445000D01*
X243200D02*
X245200Y447000D01*
X226429Y445000D02*
X243200D01*
X232000Y406188D02*
Y407000D01*
Y406188D02*
X234000Y404188D01*
Y394000D02*
Y404188D01*
X275000Y402000D02*
X287000D01*
X275000D02*
Y416000D01*
X139000Y407000D02*
X149000D01*
X803000Y111000D02*
Y117000D01*
Y105000D02*
Y111000D01*
X815000D02*
Y117000D01*
Y105000D02*
Y111000D01*
X920750Y7050D02*
X929950D01*
X911550D02*
X920750D01*
X922000Y8300D01*
Y20000D01*
X911500Y7100D02*
X911550Y7050D01*
X911000Y45000D02*
X911250Y44750D01*
Y32750D02*
Y44750D01*
Y32750D02*
X911500Y32500D01*
X186000Y407000D02*
X197000D01*
X1030500Y268500D02*
X1031000Y268000D01*
X1030500Y268500D02*
Y276000D01*
X1027750Y278750D02*
X1030500Y276000D01*
X1022000Y278750D02*
X1027750D01*
X1013000Y268000D02*
X1013500Y268500D01*
Y276000D01*
X1016250Y278750D01*
X1022000D01*
Y268000D02*
Y278750D01*
X1030500Y318500D02*
X1031000Y319000D01*
X1030500Y311000D02*
Y318500D01*
X1027750Y308250D02*
X1030500Y311000D01*
X1022000Y308250D02*
X1027750D01*
X1022000D02*
Y319000D01*
X1013000D02*
X1013500Y318500D01*
Y311000D02*
Y318500D01*
Y311000D02*
X1016250Y308250D01*
X1022000D01*
X829000Y82000D02*
X833000Y86000D01*
X823000Y82000D02*
X829000D01*
X818343Y77343D02*
X823000Y82000D01*
X799343Y77343D02*
X818343D01*
X833000Y86000D02*
Y95000D01*
X841000Y141500D02*
X841000Y141500D01*
X803000Y86000D02*
Y95000D01*
X828000Y151000D02*
Y191000D01*
X824500Y194500D02*
X828000Y191000D01*
X808500Y194500D02*
X824500D01*
X911250Y57650D02*
X911500Y57900D01*
X900000Y58000D02*
Y73000D01*
X846000Y-34000D02*
X860000D01*
X794000Y-42000D02*
X809000Y-57000D01*
X900000Y58000D02*
X911400D01*
X794000Y-42000D02*
Y-24000D01*
X947929Y22250D02*
X953250D01*
X953500Y22500D01*
X793500Y7100D02*
X793750Y6850D01*
Y-23750D02*
Y6850D01*
Y-23750D02*
X794000Y-24000D01*
X922000Y20000D02*
X924250Y22250D01*
X932750D01*
X933000Y22500D01*
X911500Y32500D02*
X911750Y32250D01*
X932750D01*
X933000Y32000D01*
X911500Y57900D02*
X911750Y57650D01*
X919321D02*
X922000Y54971D01*
X911750Y57650D02*
X919321D01*
X922000Y44679D02*
Y54971D01*
Y44679D02*
X925179Y41500D01*
X933000D01*
X793500Y71500D02*
X799343Y77343D01*
X793500Y57900D02*
Y71500D01*
X791000Y86000D02*
Y95000D01*
Y111000D02*
Y117000D01*
Y105000D02*
Y111000D01*
X815000Y86000D02*
Y95000D01*
X815000Y95000D01*
X951000Y73000D02*
X961000D01*
X600500Y331500D02*
Y340500D01*
D90*
X709000Y392000D02*
X783000D01*
X790000Y385000D01*
X942000Y308500D02*
Y318000D01*
X115000Y417000D02*
Y424000D01*
Y431000D01*
X103500Y446600D02*
X103900Y447000D01*
D91*
X245200Y431800D02*
Y447000D01*
Y431800D02*
X248000Y429000D01*
X287000D01*
X289000Y417000D02*
Y427000D01*
Y416000D02*
Y417000D01*
X287000Y429000D02*
X289000Y427000D01*
X439000Y337000D02*
X445000D01*
X433000D02*
X439000D01*
D92*
X961500Y293500D02*
X982000D01*
X992000D02*
X1007750D01*
D93*
X797500Y407500D02*
X817300D01*
X817500Y407300D01*
X789500Y415500D02*
X797500Y407500D01*
X767500Y415500D02*
X789500D01*
D94*
X707500Y247500D02*
D03*
D95*
Y297500D02*
D03*
D96*
X549600Y245000D02*
D03*
X575000D02*
D03*
X1020000Y137100D02*
D03*
Y162500D02*
D03*
X103900Y447000D02*
D03*
X154700D02*
D03*
X129300D02*
D03*
X346800D02*
D03*
X321400D02*
D03*
X270600D02*
D03*
X296000D02*
D03*
X101000Y160700D02*
D03*
X115000Y50000D02*
D03*
Y24600D02*
D03*
X817500Y432700D02*
D03*
D97*
X600400Y245000D02*
D03*
X180100Y447000D02*
D03*
X245200D02*
D03*
D98*
X1020000Y187900D02*
D03*
X101000Y135300D02*
D03*
X115000Y75400D02*
D03*
X817500Y407300D02*
D03*
D99*
X995000Y50000D02*
D03*
X45000Y330000D02*
D03*
D100*
X1027749Y216750D02*
D03*
Y120750D02*
D03*
Y88750D02*
D03*
Y56750D02*
D03*
Y24750D02*
D03*
X1011749Y120750D02*
D03*
X1019749Y104750D02*
D03*
X1011749Y88750D02*
D03*
X1019749Y72750D02*
D03*
Y8750D02*
D03*
X1003749Y168750D02*
D03*
X995749Y152750D02*
D03*
Y120750D02*
D03*
X1003749Y104750D02*
D03*
X995749Y88750D02*
D03*
X1003749Y8750D02*
D03*
X987749Y104750D02*
D03*
Y8750D02*
D03*
X963749Y376750D02*
D03*
Y344750D02*
D03*
Y312750D02*
D03*
X971749Y72750D02*
D03*
X963749Y56750D02*
D03*
X971749Y8750D02*
D03*
X947749Y376750D02*
D03*
X955749Y360750D02*
D03*
Y328750D02*
D03*
X947749Y56750D02*
D03*
X955749Y8750D02*
D03*
X947749Y-39250D02*
D03*
Y-71250D02*
D03*
X931749Y376750D02*
D03*
X939749Y328750D02*
D03*
X931749Y216750D02*
D03*
X939749Y168750D02*
D03*
X931749Y56750D02*
D03*
X939749Y-23250D02*
D03*
X931749Y-39250D02*
D03*
X939749Y-55250D02*
D03*
X931749Y-71250D02*
D03*
X923749Y232750D02*
D03*
X915749Y216750D02*
D03*
X923749Y168750D02*
D03*
Y-23250D02*
D03*
Y-55250D02*
D03*
X915749Y-71250D02*
D03*
X899749Y280750D02*
D03*
Y248750D02*
D03*
Y216750D02*
D03*
Y184750D02*
D03*
X907749Y-55250D02*
D03*
X899749Y-71250D02*
D03*
X883749Y280750D02*
D03*
Y248750D02*
D03*
Y216750D02*
D03*
X891749Y200750D02*
D03*
X883749Y-71250D02*
D03*
X867749Y280750D02*
D03*
Y248750D02*
D03*
Y216750D02*
D03*
X875749Y200750D02*
D03*
X867749Y-71250D02*
D03*
X859749Y456750D02*
D03*
X851749Y440750D02*
D03*
X859749Y424750D02*
D03*
X851749Y408750D02*
D03*
X859749Y392750D02*
D03*
X851749Y280750D02*
D03*
Y248750D02*
D03*
Y216750D02*
D03*
X859749Y200750D02*
D03*
X851749Y-71250D02*
D03*
X843749Y456750D02*
D03*
Y424750D02*
D03*
X835750Y408750D02*
D03*
X843749Y392750D02*
D03*
X835750Y280750D02*
D03*
Y248750D02*
D03*
Y216750D02*
D03*
X843749Y200750D02*
D03*
X835750Y-71250D02*
D03*
X827749Y456750D02*
D03*
X819750Y-71250D02*
D03*
X811749Y456750D02*
D03*
X803749Y-7250D02*
D03*
Y-71250D02*
D03*
X795750Y456750D02*
D03*
X787749Y312750D02*
D03*
Y280750D02*
D03*
Y248750D02*
D03*
Y-71250D02*
D03*
X779750Y-23250D02*
D03*
Y-55250D02*
D03*
X691749Y312750D02*
D03*
X587749Y456750D02*
D03*
X579750Y344750D02*
D03*
Y280750D02*
D03*
X571750Y456750D02*
D03*
X563750Y312750D02*
D03*
X555750Y456750D02*
D03*
X547750Y440750D02*
D03*
Y280750D02*
D03*
X531750Y440750D02*
D03*
X515750D02*
D03*
X523750Y424750D02*
D03*
X515750Y408750D02*
D03*
Y376750D02*
D03*
X523750Y232750D02*
D03*
X499750Y440750D02*
D03*
X507750Y424750D02*
D03*
X499750Y408750D02*
D03*
X483750Y440750D02*
D03*
X491750Y424750D02*
D03*
X467750Y440750D02*
D03*
X475750Y424750D02*
D03*
X443750Y392750D02*
D03*
X379750Y456750D02*
D03*
X371750Y440750D02*
D03*
X379750Y392750D02*
D03*
X363750Y456750D02*
D03*
X291750Y312750D02*
D03*
X275750D02*
D03*
X259750D02*
D03*
X203750Y360750D02*
D03*
X147750Y376750D02*
D03*
Y344750D02*
D03*
Y216750D02*
D03*
X139750Y232750D02*
D03*
Y168750D02*
D03*
Y136750D02*
D03*
Y104750D02*
D03*
X131750Y88750D02*
D03*
X139750Y72750D02*
D03*
X131750Y56750D02*
D03*
X139750Y40750D02*
D03*
X131750Y24750D02*
D03*
X139750Y8750D02*
D03*
X123750Y360750D02*
D03*
Y328750D02*
D03*
X115750Y152750D02*
D03*
X123750Y8750D02*
D03*
X99750Y376750D02*
D03*
Y344750D02*
D03*
Y312750D02*
D03*
Y280750D02*
D03*
Y248750D02*
D03*
X107750Y8750D02*
D03*
X91750Y424750D02*
D03*
Y392750D02*
D03*
X83750Y376750D02*
D03*
X91750Y360750D02*
D03*
X83750Y344750D02*
D03*
X91750Y328750D02*
D03*
X83750Y312750D02*
D03*
X91750Y296750D02*
D03*
Y264750D02*
D03*
Y104750D02*
D03*
Y40750D02*
D03*
Y8750D02*
D03*
X67750Y376750D02*
D03*
X75750Y360750D02*
D03*
Y328750D02*
D03*
Y296750D02*
D03*
Y8750D02*
D03*
X51750Y376750D02*
D03*
X59750Y360750D02*
D03*
Y296750D02*
D03*
X35750Y376750D02*
D03*
X43750Y360750D02*
D03*
Y296750D02*
D03*
X19750Y376750D02*
D03*
X27750Y360750D02*
D03*
Y296750D02*
D03*
X299000Y427000D02*
D03*
X785000Y206000D02*
D03*
Y195000D02*
D03*
X764000Y217000D02*
D03*
X752000D02*
D03*
X718000Y210000D02*
D03*
X786000Y259000D02*
D03*
X784000Y347000D02*
D03*
X719000Y352000D02*
D03*
X475000Y220000D02*
D03*
X487000D02*
D03*
X462000Y301000D02*
D03*
X453000D02*
D03*
X962500Y105000D02*
D03*
X952500D02*
D03*
X942500D02*
D03*
X487000Y246000D02*
D03*
X587500Y265000D02*
D03*
X575000D02*
D03*
X699000Y352000D02*
D03*
X696750Y377000D02*
D03*
X687000D02*
D03*
X699000Y363000D02*
D03*
X716250Y377000D02*
D03*
X684999Y320999D02*
D03*
X365000Y253500D02*
D03*
X374000D02*
D03*
X399500D02*
D03*
X419000Y257750D02*
D03*
X433000Y258000D02*
D03*
X413999Y239000D02*
D03*
X932000Y359118D02*
D03*
X902000D02*
D03*
X885000Y295000D02*
D03*
X875000D02*
D03*
X851000Y103000D02*
D03*
X916250Y73250D02*
D03*
X860000Y103000D02*
D03*
X904000Y97000D02*
D03*
X863000Y163000D02*
D03*
X981000Y184000D02*
D03*
X1002608Y228000D02*
D03*
X1002000Y214000D02*
D03*
X938000Y235000D02*
D03*
Y224000D02*
D03*
X930000Y7000D02*
D03*
X880000Y-38000D02*
D03*
X870000Y103000D02*
D03*
X880000D02*
D03*
X898000Y89000D02*
D03*
X214000Y215000D02*
D03*
X248000D02*
D03*
X942000Y318000D02*
D03*
X320500Y288500D02*
D03*
X282000Y457000D02*
D03*
X223000Y377000D02*
D03*
X246000Y350000D02*
D03*
X299000Y335000D02*
D03*
X292000Y351000D02*
D03*
X319361Y358361D02*
D03*
X279000Y351000D02*
D03*
X236999Y372999D02*
D03*
X252999Y383999D02*
D03*
X124000Y386000D02*
D03*
X115000Y417000D02*
D03*
X156000Y398000D02*
D03*
X178000Y397000D02*
D03*
X183000Y379000D02*
D03*
X140000Y331000D02*
D03*
X269000Y241000D02*
D03*
X277750Y231750D02*
D03*
X1031000Y319000D02*
D03*
Y268000D02*
D03*
X426000Y238000D02*
D03*
X383000Y308500D02*
D03*
X436000Y238000D02*
D03*
X550000Y398000D02*
D03*
X667000Y396000D02*
D03*
X603000Y378000D02*
D03*
X612000D02*
D03*
X589000Y312000D02*
D03*
X655000Y386000D02*
D03*
Y396000D02*
D03*
X580000Y322000D02*
D03*
X600000Y434000D02*
D03*
X589000D02*
D03*
X540000Y375000D02*
D03*
X462000Y310000D02*
D03*
X437000Y304000D02*
D03*
X524000Y274000D02*
D03*
X345000Y429000D02*
D03*
X320000Y427000D02*
D03*
X275000Y416000D02*
D03*
X265000D02*
D03*
X513000Y333000D02*
D03*
Y323000D02*
D03*
X510000Y349000D02*
D03*
X524000D02*
D03*
X690000Y282500D02*
D03*
X534000Y349000D02*
D03*
X514000Y394000D02*
D03*
X487000Y385000D02*
D03*
X483000Y406000D02*
D03*
X499000Y337000D02*
D03*
X462500Y358750D02*
D03*
Y347750D02*
D03*
Y369750D02*
D03*
Y381750D02*
D03*
X174000Y379000D02*
D03*
X214000Y416000D02*
D03*
X149000Y426000D02*
D03*
X95000Y402000D02*
D03*
X105000D02*
D03*
X114375Y226625D02*
D03*
X174000Y222000D02*
D03*
X169000Y232000D02*
D03*
X30000Y24000D02*
D03*
X214000Y407000D02*
D03*
X232000D02*
D03*
Y416000D02*
D03*
X241000Y407000D02*
D03*
X223000Y416000D02*
D03*
X445000Y337000D02*
D03*
X433000D02*
D03*
X295000Y217000D02*
D03*
X224000Y358000D02*
D03*
X241000Y416000D02*
D03*
X223000Y407000D02*
D03*
X100000Y177000D02*
D03*
X454000Y431000D02*
D03*
X891000Y98000D02*
D03*
X487000Y266000D02*
D03*
Y256000D02*
D03*
X265000Y216000D02*
D03*
X310000Y239000D02*
D03*
X309000Y251000D02*
D03*
X286000Y244000D02*
D03*
X352999Y230000D02*
D03*
X477000Y385000D02*
D03*
X526500Y393500D02*
D03*
X537500D02*
D03*
X215000Y328000D02*
D03*
X166000D02*
D03*
X416000Y379000D02*
D03*
X219018Y273000D02*
D03*
X231500Y263000D02*
D03*
X236000Y215000D02*
D03*
X188000Y238000D02*
D03*
X196000D02*
D03*
X218000Y283499D02*
D03*
X298000Y296000D02*
D03*
X505250Y366250D02*
D03*
X203000Y454000D02*
D03*
X773000Y347000D02*
D03*
X559500Y332500D02*
D03*
Y341500D02*
D03*
X569500Y332500D02*
D03*
X416000Y389000D02*
D03*
X427000D02*
D03*
X148000Y289000D02*
D03*
X89000Y237000D02*
D03*
Y203000D02*
D03*
X100000D02*
D03*
X254000Y403000D02*
D03*
X57000Y58000D02*
D03*
X57000Y40000D02*
D03*
X30000Y75000D02*
D03*
X31000Y49000D02*
D03*
X184500Y318000D02*
D03*
X148000Y299000D02*
D03*
X103000Y237000D02*
D03*
X911000Y45000D02*
D03*
X437000Y314000D02*
D03*
X178000Y359000D02*
D03*
X178366Y348203D02*
D03*
X398000Y374000D02*
D03*
X225000Y215000D02*
D03*
X185000Y222000D02*
D03*
X196000D02*
D03*
X174500Y269000D02*
D03*
X156000D02*
D03*
Y278000D02*
D03*
X165500Y269000D02*
D03*
X174500Y278000D02*
D03*
X453000Y310000D02*
D03*
X690000Y302500D02*
D03*
X725000D02*
D03*
X787500Y292500D02*
D03*
X725000D02*
D03*
X787500Y302500D02*
D03*
X378000Y223500D02*
D03*
X398000Y318500D02*
D03*
X315500Y396000D02*
D03*
X329999Y346999D02*
D03*
X571000Y433000D02*
D03*
X325500Y396000D02*
D03*
X369000Y376000D02*
D03*
X380000D02*
D03*
X398000Y385000D02*
D03*
X429999Y439999D02*
D03*
X420000Y440000D02*
D03*
X463000Y410000D02*
D03*
X401000Y421000D02*
D03*
X263000Y351000D02*
D03*
X299000Y406999D02*
D03*
X157000Y299000D02*
D03*
Y289000D02*
D03*
X834667Y380000D02*
D03*
X845333D02*
D03*
X165500Y278000D02*
D03*
X246000Y315999D02*
D03*
X186000Y426000D02*
D03*
X174000D02*
D03*
X161000D02*
D03*
X115000Y431000D02*
D03*
X690000Y292500D02*
D03*
X725000Y282500D02*
D03*
X713333D02*
D03*
X701667D02*
D03*
X380000Y419000D02*
D03*
X1022000Y268000D02*
D03*
X1013000D02*
D03*
X1022000Y319000D02*
D03*
X1013000D02*
D03*
X285500Y296000D02*
D03*
X255000Y343000D02*
D03*
X803000Y86000D02*
D03*
X964000Y43000D02*
D03*
X880000Y-28000D02*
D03*
X824000Y-37000D02*
D03*
Y-27000D02*
D03*
X964000Y22000D02*
D03*
Y32000D02*
D03*
X815000Y111000D02*
D03*
X803000D02*
D03*
X791000Y86000D02*
D03*
X815000D02*
D03*
X961000Y73000D02*
D03*
X755000Y350000D02*
D03*
X745000D02*
D03*
X735000D02*
D03*
X755000Y360000D02*
D03*
Y370000D02*
D03*
X810000Y365000D02*
D03*
X800000D02*
D03*
X790000D02*
D03*
X810000Y375000D02*
D03*
X800000D02*
D03*
X790000D02*
D03*
Y385000D02*
D03*
X800000D02*
D03*
X810000D02*
D03*
X600500Y340500D02*
D03*
X667000Y386000D02*
D03*
X680000Y402500D02*
D03*
X569500Y341500D02*
D03*
X719000Y363000D02*
D03*
X824000Y380000D02*
D03*
X856000D02*
D03*
X707000Y427000D02*
D03*
X706500Y377000D02*
D03*
X726000D02*
D03*
X898000Y375000D02*
D03*
X878000D02*
D03*
X868000D02*
D03*
X908000D02*
D03*
X981000Y173000D02*
D03*
X942000Y308500D02*
D03*
X982000Y262500D02*
D03*
X993000D02*
D03*
X802500Y442500D02*
D03*
Y432500D02*
D03*
X832500D02*
D03*
Y422500D02*
D03*
Y442500D02*
D03*
X802500Y422500D02*
D03*
X725000Y411000D02*
D03*
X750000D02*
D03*
X696000Y427000D02*
D03*
X699000Y417000D02*
D03*
X737500Y411000D02*
D03*
D101*
X430000Y416000D02*
D03*
X420000D02*
D03*
X430000Y426000D02*
D03*
X420000D02*
D03*
M02*
